%
M48
M72
T01C0.01200
T02C0.02000
T03C0.03937
T04C0.04000
T05C0.05512
%
T01
X67550Y88800
X80050Y98800
X99975Y92737
X99362Y87225
X85888Y81713
X112550Y76300
X131213Y76813
X133050Y84163
X120187Y90287
X131825Y97025
X124475Y98862
X118350Y100087
X121450Y109012
X131863Y113912
X122062Y118812
X122550Y122550
X117125Y130100
X109200Y131675
X116550Y139025
X131300Y133800
X137550Y133800
X146300Y128800
X169800Y113562
X177150Y114787
X164900Y108050
X171025Y103762
X160181Y89825
X172250Y76200
X206550Y77425
X227700Y88756
X231662Y90287
X239625Y87837
X235950Y82325
X235625Y98800
X235193Y104425
X226800Y103600
X223800Y103402
X210225Y106825
X202875Y107437
X199812Y98250
X212062Y94575
X235937Y111112
X231662Y117850
X221250Y130100
X210837Y125200
X210837Y122137
X204712Y119687
X200190Y123740
X196137Y126425
X188787Y129487
X204100Y128262
X99298Y116300
X68125Y120912
X38800Y138800
T02
X191300Y133800
X196300Y133800
X196300Y138800
X191300Y138800
X201300Y138800
X206300Y138800
X206300Y133800
X201300Y133800
X211300Y133800
X211300Y138800
T03
X231300Y80050
X241300Y80050
X251300Y80050
T04
X240050Y128800
X260050Y128800
T05
X48298Y100828
X48298Y120513
M30
