G75*
%MOIN*%
%OFA0B0*%
%FSLAX25Y25*%
%IPPOS*%
%LPD*%
%AMOC8*
5,1,8,0,0,1.08239X$1,22.5*
%
%ADD10C,0.00600*%
%ADD11C,0.00581*%
%ADD12R,0.03937X0.04331*%
%ADD13R,0.03150X0.02362*%
%ADD14R,0.04331X0.03937*%
%ADD15R,0.06693X0.07874*%
%ADD16C,0.00256*%
%ADD17C,0.04000*%
%ADD18R,0.02756X0.03543*%
%ADD19C,0.00039*%
%ADD20R,0.00787X0.00787*%
%ADD21R,0.04724X0.04724*%
%ADD22C,0.06600*%
%ADD23C,0.10000*%
%ADD24OC8,0.10000*%
%ADD25R,0.02165X0.04724*%
%ADD26R,0.02500X0.04000*%
%ADD27C,0.08268*%
%ADD28R,0.02000X0.02756*%
%ADD29R,0.05000X0.02500*%
%ADD30R,0.03543X0.02756*%
%ADD31R,0.02500X0.05000*%
%ADD32C,0.02400*%
%ADD33C,0.00800*%
%ADD34C,0.01000*%
%ADD35C,0.01600*%
%ADD36C,0.01200*%
%ADD37C,0.02400*%
%ADD38C,0.02000*%
D10*
X0035050Y0071300D02*
X0271270Y0071300D01*
X0271270Y0150040D01*
X0035050Y0150040D01*
X0035050Y0071300D01*
X0036650Y0072900D02*
X0036650Y0148440D01*
X0269670Y0148440D01*
X0269670Y0072900D01*
X0036650Y0072900D01*
X0036650Y0073096D02*
X0269670Y0073096D01*
X0269670Y0073694D02*
X0036650Y0073694D01*
X0036650Y0074293D02*
X0269670Y0074293D01*
X0269670Y0074891D02*
X0266748Y0074891D01*
X0266664Y0074843D02*
X0266960Y0075014D01*
X0267202Y0075256D01*
X0267374Y0075552D01*
X0267462Y0075883D01*
X0267462Y0078116D01*
X0264100Y0078116D01*
X0264100Y0074754D01*
X0266333Y0074754D01*
X0266664Y0074843D01*
X0267337Y0075490D02*
X0269670Y0075490D01*
X0269670Y0076088D02*
X0267462Y0076088D01*
X0267462Y0076687D02*
X0269670Y0076687D01*
X0269670Y0077285D02*
X0267462Y0077285D01*
X0267462Y0077884D02*
X0269670Y0077884D01*
X0269670Y0078482D02*
X0264100Y0078482D01*
X0264100Y0078716D02*
X0267462Y0078716D01*
X0267462Y0080949D01*
X0267374Y0081280D01*
X0267202Y0081577D01*
X0266960Y0081819D01*
X0266664Y0081990D01*
X0266333Y0082078D01*
X0264100Y0082078D01*
X0264100Y0078716D01*
X0264100Y0078116D01*
X0263500Y0078116D01*
X0263500Y0074754D01*
X0261267Y0074754D01*
X0260936Y0074843D01*
X0260640Y0075014D01*
X0260398Y0075256D01*
X0260226Y0075552D01*
X0260138Y0075883D01*
X0260138Y0078116D01*
X0263500Y0078116D01*
X0263500Y0078716D01*
X0260138Y0078716D01*
X0260138Y0080949D01*
X0260226Y0081280D01*
X0260398Y0081577D01*
X0260640Y0081819D01*
X0260936Y0081990D01*
X0261267Y0082078D01*
X0263500Y0082078D01*
X0263500Y0078716D01*
X0264100Y0078716D01*
X0264100Y0079081D02*
X0263500Y0079081D01*
X0263500Y0079679D02*
X0264100Y0079679D01*
X0264100Y0080278D02*
X0263500Y0080278D01*
X0263500Y0080876D02*
X0264100Y0080876D01*
X0264100Y0081475D02*
X0263500Y0081475D01*
X0263500Y0082073D02*
X0264100Y0082073D01*
X0266353Y0082073D02*
X0269670Y0082073D01*
X0269670Y0081475D02*
X0267261Y0081475D01*
X0267462Y0080876D02*
X0269670Y0080876D01*
X0269670Y0080278D02*
X0267462Y0080278D01*
X0267462Y0079679D02*
X0269670Y0079679D01*
X0269670Y0079081D02*
X0267462Y0079081D01*
X0264100Y0077884D02*
X0263500Y0077884D01*
X0263500Y0078482D02*
X0255627Y0078482D01*
X0255563Y0078284D02*
X0255787Y0078973D01*
X0255900Y0079688D01*
X0255900Y0079750D01*
X0251600Y0079750D01*
X0251600Y0080350D01*
X0251000Y0080350D01*
X0251000Y0084650D01*
X0250938Y0084650D01*
X0250223Y0084537D01*
X0249534Y0084313D01*
X0248889Y0083984D01*
X0248303Y0083559D01*
X0247791Y0083047D01*
X0247366Y0082461D01*
X0247037Y0081816D01*
X0246813Y0081127D01*
X0246700Y0080412D01*
X0246700Y0080350D01*
X0251000Y0080350D01*
X0251000Y0079750D01*
X0246700Y0079750D01*
X0246700Y0079688D01*
X0246813Y0078973D01*
X0247037Y0078284D01*
X0247366Y0077639D01*
X0247791Y0077053D01*
X0248303Y0076541D01*
X0248889Y0076116D01*
X0249534Y0075787D01*
X0250223Y0075563D01*
X0250938Y0075450D01*
X0251000Y0075450D01*
X0251000Y0079750D01*
X0251600Y0079750D01*
X0251600Y0075450D01*
X0251662Y0075450D01*
X0252377Y0075563D01*
X0253066Y0075787D01*
X0253711Y0076116D01*
X0254297Y0076541D01*
X0254809Y0077053D01*
X0255234Y0077639D01*
X0255563Y0078284D01*
X0255359Y0077884D02*
X0260138Y0077884D01*
X0260138Y0077285D02*
X0254977Y0077285D01*
X0254442Y0076687D02*
X0260138Y0076687D01*
X0260138Y0076088D02*
X0253657Y0076088D01*
X0251912Y0075490D02*
X0260263Y0075490D01*
X0260852Y0074891D02*
X0036650Y0074891D01*
X0036650Y0075490D02*
X0250688Y0075490D01*
X0251000Y0075490D02*
X0251600Y0075490D01*
X0251600Y0076088D02*
X0251000Y0076088D01*
X0251000Y0076687D02*
X0251600Y0076687D01*
X0251600Y0077285D02*
X0251000Y0077285D01*
X0251000Y0077884D02*
X0251600Y0077884D01*
X0251600Y0078482D02*
X0251000Y0078482D01*
X0251000Y0079081D02*
X0251600Y0079081D01*
X0251600Y0079679D02*
X0251000Y0079679D01*
X0251000Y0080278D02*
X0245500Y0080278D01*
X0245500Y0080876D02*
X0246774Y0080876D01*
X0246926Y0081475D02*
X0245256Y0081475D01*
X0245500Y0080885D02*
X0244861Y0082429D01*
X0243679Y0083611D01*
X0242135Y0084250D01*
X0240465Y0084250D01*
X0238921Y0083611D01*
X0237739Y0082429D01*
X0237100Y0080885D01*
X0237100Y0079215D01*
X0237739Y0077671D01*
X0238921Y0076489D01*
X0240465Y0075850D01*
X0242135Y0075850D01*
X0243679Y0076489D01*
X0244861Y0077671D01*
X0245500Y0079215D01*
X0245500Y0080885D01*
X0245500Y0079679D02*
X0246701Y0079679D01*
X0246796Y0079081D02*
X0245445Y0079081D01*
X0245197Y0078482D02*
X0246973Y0078482D01*
X0247241Y0077884D02*
X0244949Y0077884D01*
X0244475Y0077285D02*
X0247623Y0077285D01*
X0248158Y0076687D02*
X0243876Y0076687D01*
X0242710Y0076088D02*
X0248943Y0076088D01*
X0251600Y0080278D02*
X0260138Y0080278D01*
X0260138Y0080876D02*
X0255826Y0080876D01*
X0255787Y0081127D02*
X0255563Y0081816D01*
X0255234Y0082461D01*
X0254809Y0083047D01*
X0254297Y0083559D01*
X0253711Y0083984D01*
X0253066Y0084313D01*
X0252377Y0084537D01*
X0251662Y0084650D01*
X0251600Y0084650D01*
X0251600Y0080350D01*
X0255900Y0080350D01*
X0255900Y0080412D01*
X0255787Y0081127D01*
X0255674Y0081475D02*
X0260339Y0081475D01*
X0261247Y0082073D02*
X0255432Y0082073D01*
X0255081Y0082672D02*
X0269670Y0082672D01*
X0269670Y0083270D02*
X0254585Y0083270D01*
X0253870Y0083869D02*
X0260618Y0083869D01*
X0260538Y0083949D02*
X0261065Y0083422D01*
X0266535Y0083422D01*
X0267062Y0083949D01*
X0267062Y0089419D01*
X0266535Y0089946D01*
X0265200Y0089946D01*
X0265200Y0092388D01*
X0266141Y0092388D01*
X0266668Y0092915D01*
X0266668Y0097992D01*
X0266141Y0098519D01*
X0261459Y0098519D01*
X0260931Y0097992D01*
X0260931Y0092915D01*
X0261459Y0092388D01*
X0262400Y0092388D01*
X0262400Y0089946D01*
X0261065Y0089946D01*
X0260538Y0089419D01*
X0260538Y0083949D01*
X0260538Y0084467D02*
X0252591Y0084467D01*
X0251600Y0084467D02*
X0251000Y0084467D01*
X0251000Y0083869D02*
X0251600Y0083869D01*
X0251600Y0083270D02*
X0251000Y0083270D01*
X0251000Y0082672D02*
X0251600Y0082672D01*
X0251600Y0082073D02*
X0251000Y0082073D01*
X0251000Y0081475D02*
X0251600Y0081475D01*
X0251600Y0080876D02*
X0251000Y0080876D01*
X0248730Y0083869D02*
X0243056Y0083869D01*
X0244019Y0083270D02*
X0248015Y0083270D01*
X0247519Y0082672D02*
X0244618Y0082672D01*
X0245008Y0082073D02*
X0247168Y0082073D01*
X0250009Y0084467D02*
X0233950Y0084467D01*
X0233352Y0083869D02*
X0239544Y0083869D01*
X0238581Y0083270D02*
X0234019Y0083270D01*
X0233679Y0083611D02*
X0233265Y0083782D01*
X0236962Y0087480D01*
X0236962Y0092483D01*
X0236142Y0093303D01*
X0234433Y0095012D01*
X0254492Y0095012D01*
X0259380Y0099900D01*
X0260931Y0099900D01*
X0260931Y0099608D01*
X0261459Y0099081D01*
X0266141Y0099081D01*
X0266668Y0099608D01*
X0266668Y0104685D01*
X0266141Y0105212D01*
X0261459Y0105212D01*
X0260931Y0104685D01*
X0260931Y0102700D01*
X0258220Y0102700D01*
X0253333Y0097812D01*
X0235305Y0097812D01*
X0234354Y0098763D01*
X0233693Y0098763D01*
X0233693Y0099331D01*
X0231172Y0099331D01*
X0228652Y0099331D01*
X0228652Y0098760D01*
X0228749Y0098396D01*
X0228937Y0098071D01*
X0229052Y0097956D01*
X0229052Y0097298D01*
X0228177Y0097298D01*
X0228003Y0097124D01*
X0227828Y0097298D01*
X0226209Y0097298D01*
X0226034Y0097124D01*
X0225860Y0097298D01*
X0224240Y0097298D01*
X0224066Y0097124D01*
X0223891Y0097298D01*
X0222272Y0097298D01*
X0222097Y0097124D01*
X0221923Y0097298D01*
X0221048Y0097298D01*
X0221048Y0097931D01*
X0226161Y0097931D01*
X0228130Y0099900D01*
X0228652Y0099900D01*
X0228652Y0099332D01*
X0231172Y0099332D01*
X0231172Y0099331D01*
X0231172Y0099332D01*
X0233693Y0099332D01*
X0233693Y0099900D01*
X0236463Y0099900D01*
X0236463Y0099156D01*
X0236990Y0098628D01*
X0240492Y0098628D01*
X0241019Y0099156D01*
X0241019Y0103444D01*
X0240492Y0103972D01*
X0240141Y0103972D01*
X0240141Y0119411D01*
X0240224Y0119494D01*
X0241450Y0120720D01*
X0241450Y0122994D01*
X0243392Y0123798D01*
X0245052Y0125458D01*
X0245950Y0127626D01*
X0245950Y0129974D01*
X0245052Y0132142D01*
X0243392Y0133802D01*
X0241224Y0134700D01*
X0238876Y0134700D01*
X0236708Y0133802D01*
X0235048Y0132142D01*
X0234150Y0129974D01*
X0234150Y0127626D01*
X0235048Y0125458D01*
X0236708Y0123798D01*
X0238650Y0122994D01*
X0238650Y0121880D01*
X0238244Y0121474D01*
X0237341Y0120571D01*
X0237341Y0116325D01*
X0233107Y0116325D01*
X0233762Y0116980D01*
X0233762Y0118720D01*
X0232532Y0119950D01*
X0231987Y0119950D01*
X0231987Y0141341D01*
X0225788Y0147540D01*
X0193298Y0147540D01*
X0192477Y0146720D01*
X0189894Y0144137D01*
X0080940Y0144137D01*
X0080940Y0145110D01*
X0080413Y0145637D01*
X0077167Y0145637D01*
X0076640Y0145110D01*
X0076640Y0140364D01*
X0077167Y0139837D01*
X0080413Y0139837D01*
X0080940Y0140364D01*
X0080940Y0141337D01*
X0189847Y0141337D01*
X0189657Y0141258D01*
X0188841Y0140443D01*
X0188400Y0139377D01*
X0188400Y0138223D01*
X0188841Y0137157D01*
X0189657Y0136341D01*
X0189757Y0136300D01*
X0189657Y0136258D01*
X0188841Y0135443D01*
X0188400Y0134377D01*
X0188400Y0133223D01*
X0188841Y0132157D01*
X0189657Y0131341D01*
X0190723Y0130900D01*
X0191877Y0130900D01*
X0192943Y0131341D01*
X0193561Y0131960D01*
X0193737Y0131696D01*
X0194196Y0131237D01*
X0194737Y0130876D01*
X0195337Y0130627D01*
X0195975Y0130500D01*
X0196100Y0130500D01*
X0196100Y0133600D01*
X0196500Y0133600D01*
X0196500Y0134000D01*
X0199600Y0134000D01*
X0201100Y0134000D01*
X0201100Y0133600D01*
X0201500Y0133600D01*
X0201500Y0130500D01*
X0201625Y0130500D01*
X0202263Y0130627D01*
X0202863Y0130876D01*
X0203404Y0131237D01*
X0203863Y0131696D01*
X0204039Y0131960D01*
X0204657Y0131341D01*
X0205723Y0130900D01*
X0206877Y0130900D01*
X0207943Y0131341D01*
X0208561Y0131960D01*
X0208737Y0131696D01*
X0209196Y0131237D01*
X0209737Y0130876D01*
X0210337Y0130627D01*
X0210975Y0130500D01*
X0211100Y0130500D01*
X0211100Y0133600D01*
X0211500Y0133600D01*
X0211500Y0130500D01*
X0211625Y0130500D01*
X0212263Y0130627D01*
X0212863Y0130876D01*
X0213404Y0131237D01*
X0213863Y0131696D01*
X0214224Y0132237D01*
X0214337Y0132510D01*
X0214337Y0129455D01*
X0212981Y0128099D01*
X0212642Y0128437D01*
X0209033Y0128437D01*
X0208537Y0127942D01*
X0208537Y0128255D01*
X0207950Y0128842D01*
X0207130Y0129662D01*
X0205670Y0129662D01*
X0204970Y0130362D01*
X0203230Y0130362D01*
X0202000Y0129132D01*
X0202000Y0128437D01*
X0197095Y0128437D01*
X0197007Y0128525D01*
X0195268Y0128525D01*
X0195180Y0128437D01*
X0192495Y0128437D01*
X0191675Y0127617D01*
X0191675Y0122783D01*
X0192495Y0121962D01*
X0193556Y0121962D01*
X0193556Y0121875D01*
X0193556Y0121229D01*
X0193646Y0120893D01*
X0193820Y0120592D01*
X0194066Y0120347D01*
X0194366Y0120173D01*
X0194450Y0120150D01*
X0194473Y0120066D01*
X0194540Y0119950D01*
X0193332Y0119950D01*
X0188632Y0124650D01*
X0182712Y0124650D01*
X0182712Y0124891D01*
X0182185Y0125418D01*
X0177108Y0125418D01*
X0177091Y0125401D01*
X0176505Y0125987D01*
X0169833Y0125987D01*
X0169013Y0125167D01*
X0160630Y0116784D01*
X0160630Y0129668D01*
X0160307Y0129990D01*
X0150485Y0129990D01*
X0150546Y0130051D01*
X0150546Y0138671D01*
X0150019Y0139198D01*
X0142581Y0139198D01*
X0142054Y0138671D01*
X0142054Y0130051D01*
X0142115Y0129990D01*
X0132293Y0129990D01*
X0131970Y0129668D01*
X0131970Y0116417D01*
X0132293Y0116094D01*
X0139727Y0116094D01*
X0139000Y0115367D01*
X0134920Y0111287D01*
X0128801Y0111287D01*
X0129067Y0111441D01*
X0129309Y0111683D01*
X0129480Y0111979D01*
X0129568Y0112310D01*
X0129568Y0114346D01*
X0126600Y0114346D01*
X0126600Y0114946D01*
X0129568Y0114946D01*
X0129568Y0116983D01*
X0129480Y0117314D01*
X0129309Y0117610D01*
X0129067Y0117852D01*
X0128770Y0118023D01*
X0128440Y0118112D01*
X0126600Y0118112D01*
X0126600Y0114946D01*
X0126000Y0114946D01*
X0126000Y0114346D01*
X0123031Y0114346D01*
X0123031Y0112310D01*
X0123120Y0111979D01*
X0123291Y0111683D01*
X0123533Y0111441D01*
X0123830Y0111270D01*
X0124160Y0111181D01*
X0124401Y0111181D01*
X0124239Y0111019D01*
X0123959Y0111019D01*
X0123431Y0110492D01*
X0123431Y0105415D01*
X0123687Y0105159D01*
X0123687Y0103183D01*
X0124508Y0102362D01*
X0129342Y0102362D01*
X0130162Y0103183D01*
X0132405Y0105425D01*
X0151392Y0105425D01*
X0152212Y0106245D01*
X0156292Y0110325D01*
X0163030Y0110325D01*
X0163850Y0111145D01*
X0171463Y0118758D01*
X0171463Y0105020D01*
X0172283Y0104200D01*
X0174355Y0102128D01*
X0174134Y0102255D01*
X0173804Y0102344D01*
X0172791Y0102344D01*
X0172791Y0098923D01*
X0172309Y0098923D01*
X0172309Y0102344D01*
X0171296Y0102344D01*
X0170966Y0102255D01*
X0170669Y0102084D01*
X0170427Y0101842D01*
X0170405Y0101804D01*
X0170265Y0101944D01*
X0167859Y0101944D01*
X0167859Y0102129D01*
X0170210Y0104480D01*
X0170210Y0105656D01*
X0170265Y0105656D01*
X0170793Y0106184D01*
X0170793Y0111653D01*
X0170265Y0112181D01*
X0167354Y0112181D01*
X0166827Y0111653D01*
X0166827Y0106184D01*
X0167354Y0105656D01*
X0167410Y0105656D01*
X0167410Y0105640D01*
X0165879Y0104109D01*
X0165738Y0104109D01*
X0165638Y0104009D01*
X0165222Y0104009D01*
X0165222Y0104360D01*
X0164694Y0104887D01*
X0160406Y0104887D01*
X0159878Y0104360D01*
X0159878Y0100858D01*
X0160406Y0100331D01*
X0164694Y0100331D01*
X0164859Y0100496D01*
X0164859Y0100457D01*
X0165027Y0100289D01*
X0165027Y0099963D01*
X0164823Y0100080D01*
X0164493Y0100169D01*
X0162850Y0100169D01*
X0162850Y0097791D01*
X0162250Y0097791D01*
X0162250Y0100169D01*
X0160607Y0100169D01*
X0160277Y0100080D01*
X0159980Y0099909D01*
X0159738Y0099667D01*
X0159567Y0099371D01*
X0159478Y0099040D01*
X0159478Y0097791D01*
X0162250Y0097791D01*
X0162250Y0097191D01*
X0159478Y0097191D01*
X0159478Y0095942D01*
X0159567Y0095611D01*
X0159738Y0095315D01*
X0159980Y0095073D01*
X0160277Y0094902D01*
X0160607Y0094813D01*
X0162250Y0094813D01*
X0162250Y0097191D01*
X0162850Y0097191D01*
X0162850Y0094813D01*
X0164493Y0094813D01*
X0164823Y0094902D01*
X0165120Y0095073D01*
X0165138Y0095090D01*
X0165600Y0094628D01*
X0165600Y0093971D01*
X0162281Y0090652D01*
X0162281Y0090695D01*
X0161051Y0091925D01*
X0159311Y0091925D01*
X0158081Y0090695D01*
X0158081Y0088955D01*
X0158201Y0088835D01*
X0156016Y0086650D01*
X0135795Y0086650D01*
X0134583Y0087862D01*
X0131517Y0087862D01*
X0131355Y0087700D01*
X0130212Y0087700D01*
X0130212Y0088641D01*
X0129685Y0089168D01*
X0128646Y0089168D01*
X0128646Y0089681D01*
X0129685Y0089681D01*
X0130212Y0090209D01*
X0130212Y0094331D01*
X0131111Y0094331D01*
X0131705Y0094925D01*
X0132695Y0094925D01*
X0133925Y0096155D01*
X0133925Y0097895D01*
X0132695Y0099125D01*
X0130955Y0099125D01*
X0129725Y0097895D01*
X0129725Y0097131D01*
X0116462Y0097131D01*
X0116462Y0097362D01*
X0118359Y0097362D01*
X0118984Y0097987D01*
X0119220Y0097987D01*
X0120450Y0099218D01*
X0120450Y0100957D01*
X0119220Y0102187D01*
X0117480Y0102187D01*
X0116448Y0101155D01*
X0115935Y0101668D01*
X0110858Y0101668D01*
X0110331Y0101141D01*
X0110331Y0096459D01*
X0110858Y0095931D01*
X0112214Y0095931D01*
X0112050Y0095767D01*
X0112050Y0095418D01*
X0110858Y0095418D01*
X0110331Y0094891D01*
X0110331Y0090209D01*
X0110858Y0089681D01*
X0115935Y0089681D01*
X0116462Y0090209D01*
X0116462Y0094331D01*
X0117388Y0094331D01*
X0117388Y0090209D01*
X0117915Y0089681D01*
X0118087Y0089681D01*
X0118087Y0089561D01*
X0117786Y0089480D01*
X0117490Y0089309D01*
X0117248Y0089067D01*
X0117077Y0088770D01*
X0116988Y0088440D01*
X0116988Y0086600D01*
X0120153Y0086600D01*
X0120153Y0086000D01*
X0116988Y0086000D01*
X0116988Y0084160D01*
X0117077Y0083830D01*
X0117248Y0083533D01*
X0117490Y0083291D01*
X0117786Y0083120D01*
X0117815Y0083112D01*
X0116035Y0083112D01*
X0116064Y0083120D01*
X0116360Y0083291D01*
X0116602Y0083533D01*
X0116773Y0083830D01*
X0116862Y0084160D01*
X0116862Y0086000D01*
X0113696Y0086000D01*
X0113696Y0086600D01*
X0113096Y0086600D01*
X0113096Y0086000D01*
X0109931Y0086000D01*
X0109931Y0084160D01*
X0110020Y0083830D01*
X0110191Y0083533D01*
X0110433Y0083291D01*
X0110729Y0083120D01*
X0110758Y0083112D01*
X0104842Y0083112D01*
X0104523Y0083431D01*
X0109242Y0083431D01*
X0109769Y0083959D01*
X0109769Y0088641D01*
X0109242Y0089168D01*
X0108404Y0089168D01*
X0108404Y0089681D01*
X0109242Y0089681D01*
X0109769Y0090209D01*
X0109769Y0094891D01*
X0109242Y0095418D01*
X0104165Y0095418D01*
X0103638Y0094891D01*
X0103638Y0094250D01*
X0101432Y0094250D01*
X0100845Y0094837D01*
X0100167Y0094837D01*
X0094250Y0100754D01*
X0094250Y0118766D01*
X0094498Y0118766D01*
X0095025Y0119293D01*
X0095025Y0121962D01*
X0095075Y0121962D01*
X0095075Y0119293D01*
X0095602Y0118766D01*
X0099498Y0118766D01*
X0100025Y0119293D01*
X0100025Y0122401D01*
X0099498Y0122928D01*
X0098925Y0122928D01*
X0098925Y0123330D01*
X0098312Y0123942D01*
X0097583Y0124672D01*
X0099498Y0124672D01*
X0099879Y0125053D01*
X0102998Y0125053D01*
X0102998Y0124926D01*
X0103504Y0124420D01*
X0102998Y0123914D01*
X0102998Y0123728D01*
X0102400Y0123130D01*
X0101198Y0121928D01*
X0101198Y0117370D01*
X0100168Y0118400D01*
X0098429Y0118400D01*
X0097198Y0117170D01*
X0097198Y0115430D01*
X0097229Y0115400D01*
X0095927Y0115400D01*
X0095400Y0114873D01*
X0095400Y0105227D01*
X0095927Y0104700D01*
X0098970Y0104700D01*
X0099200Y0104470D01*
X0100020Y0103650D01*
X0103638Y0103650D01*
X0103638Y0102709D01*
X0104165Y0102181D01*
X0105004Y0102181D01*
X0105004Y0101668D01*
X0104165Y0101668D01*
X0103638Y0101141D01*
X0103638Y0096459D01*
X0104165Y0095931D01*
X0109242Y0095931D01*
X0109769Y0096459D01*
X0109769Y0101141D01*
X0109242Y0101668D01*
X0108404Y0101668D01*
X0108404Y0102181D01*
X0109242Y0102181D01*
X0109769Y0102709D01*
X0109769Y0107391D01*
X0109242Y0107918D01*
X0104165Y0107918D01*
X0103638Y0107391D01*
X0103638Y0106450D01*
X0102200Y0106450D01*
X0102200Y0109300D01*
X0102418Y0109300D01*
X0103180Y0110062D01*
X0103638Y0110520D01*
X0103638Y0108959D01*
X0104165Y0108431D01*
X0109242Y0108431D01*
X0109769Y0108959D01*
X0109769Y0113641D01*
X0109242Y0114168D01*
X0108104Y0114168D01*
X0108104Y0116748D01*
X0109500Y0116748D01*
X0109500Y0116004D01*
X0111335Y0114168D01*
X0110858Y0114168D01*
X0110331Y0113641D01*
X0110331Y0108959D01*
X0110858Y0108431D01*
X0115935Y0108431D01*
X0116462Y0108959D01*
X0116462Y0113641D01*
X0115935Y0114168D01*
X0114896Y0114168D01*
X0114896Y0114850D01*
X0113398Y0116348D01*
X0115567Y0116348D01*
X0115567Y0118529D01*
X0116128Y0118529D01*
X0116128Y0116348D01*
X0118621Y0116348D01*
X0119025Y0116457D01*
X0119388Y0116666D01*
X0119684Y0116962D01*
X0119893Y0117325D01*
X0120002Y0117729D01*
X0120002Y0118529D01*
X0116128Y0118529D01*
X0116128Y0119091D01*
X0120002Y0119091D01*
X0120002Y0119890D01*
X0119893Y0120295D01*
X0119684Y0120657D01*
X0119491Y0120850D01*
X0121280Y0120850D01*
X0121680Y0120450D01*
X0123420Y0120450D01*
X0124650Y0121680D01*
X0124650Y0123420D01*
X0123420Y0124650D01*
X0121680Y0124650D01*
X0121280Y0124250D01*
X0121230Y0124250D01*
X0121450Y0124470D01*
X0121450Y0126970D01*
X0123031Y0128552D01*
X0123031Y0126867D01*
X0123120Y0126536D01*
X0123291Y0126240D01*
X0123533Y0125998D01*
X0123830Y0125827D01*
X0124160Y0125738D01*
X0126000Y0125738D01*
X0126000Y0128903D01*
X0126600Y0128903D01*
X0126600Y0125738D01*
X0128440Y0125738D01*
X0128770Y0125827D01*
X0129067Y0125998D01*
X0129309Y0126240D01*
X0129480Y0126536D01*
X0129568Y0126867D01*
X0129568Y0128904D01*
X0126600Y0128904D01*
X0126600Y0129504D01*
X0129568Y0129504D01*
X0129568Y0131339D01*
X0130200Y0131970D01*
X0130200Y0139380D01*
X0129380Y0140200D01*
X0120720Y0140200D01*
X0119900Y0139380D01*
X0116582Y0136062D01*
X0113095Y0139550D01*
X0092980Y0139550D01*
X0091750Y0138320D01*
X0085718Y0132288D01*
X0079091Y0132288D01*
X0078913Y0132466D01*
X0077176Y0132466D01*
X0077200Y0132490D01*
X0077200Y0137236D01*
X0076673Y0137763D01*
X0073427Y0137763D01*
X0072900Y0137236D01*
X0072900Y0136563D01*
X0067191Y0136563D01*
X0060500Y0143254D01*
X0059504Y0144250D01*
X0055212Y0144250D01*
X0055212Y0144891D01*
X0054685Y0145418D01*
X0049608Y0145418D01*
X0049081Y0144891D01*
X0049081Y0140681D01*
X0049024Y0140681D01*
X0048737Y0140968D01*
X0048519Y0140968D01*
X0048519Y0144891D01*
X0047992Y0145418D01*
X0042915Y0145418D01*
X0042388Y0144891D01*
X0042388Y0140209D01*
X0042915Y0139681D01*
X0044689Y0139681D01*
X0045202Y0139168D01*
X0042915Y0139168D01*
X0042388Y0138641D01*
X0042388Y0133959D01*
X0042915Y0133431D01*
X0044054Y0133431D01*
X0044054Y0131567D01*
X0046898Y0128722D01*
X0046898Y0125546D01*
X0043163Y0125546D01*
X0041313Y0124780D01*
X0039897Y0123364D01*
X0039130Y0121514D01*
X0039130Y0119511D01*
X0039897Y0117661D01*
X0041313Y0116245D01*
X0043163Y0115479D01*
X0053433Y0115479D01*
X0055283Y0116245D01*
X0056699Y0117661D01*
X0057227Y0118934D01*
X0067133Y0118934D01*
X0067255Y0118812D01*
X0068631Y0118812D01*
X0068687Y0118756D01*
X0071433Y0118756D01*
X0071930Y0119254D01*
X0072410Y0118774D01*
X0072410Y0084013D01*
X0072187Y0084013D01*
X0071660Y0083486D01*
X0071660Y0078740D01*
X0072187Y0078213D01*
X0075433Y0078213D01*
X0075960Y0078740D01*
X0075960Y0083486D01*
X0075433Y0084013D01*
X0075210Y0084013D01*
X0075210Y0086275D01*
X0075260Y0086189D01*
X0075502Y0085947D01*
X0075798Y0085776D01*
X0076129Y0085687D01*
X0077250Y0085687D01*
X0077250Y0088687D01*
X0077850Y0088687D01*
X0077850Y0089287D01*
X0080100Y0089287D01*
X0080100Y0091158D01*
X0080011Y0091489D01*
X0079840Y0091785D01*
X0079598Y0092027D01*
X0079302Y0092198D01*
X0078971Y0092287D01*
X0077850Y0092287D01*
X0077850Y0089287D01*
X0077250Y0089287D01*
X0077250Y0092287D01*
X0076129Y0092287D01*
X0075798Y0092198D01*
X0075502Y0092027D01*
X0075260Y0091785D01*
X0075210Y0091699D01*
X0075210Y0118793D01*
X0075670Y0119254D01*
X0076167Y0118756D01*
X0078913Y0118756D01*
X0079440Y0119284D01*
X0079440Y0122785D01*
X0079240Y0122985D01*
X0079240Y0128088D01*
X0085542Y0128088D01*
X0085630Y0128000D01*
X0087370Y0128000D01*
X0093638Y0134268D01*
X0093638Y0130209D01*
X0094165Y0129681D01*
X0095204Y0129681D01*
X0095204Y0129075D01*
X0095524Y0128755D01*
X0095221Y0128453D01*
X0094879Y0128453D01*
X0094498Y0128834D01*
X0090602Y0128834D01*
X0090075Y0128307D01*
X0090075Y0125199D01*
X0090512Y0124762D01*
X0089595Y0124762D01*
X0088983Y0124150D01*
X0088162Y0123330D01*
X0088162Y0118943D01*
X0088983Y0118123D01*
X0089250Y0117856D01*
X0089250Y0099204D01*
X0089232Y0099185D01*
X0089250Y0098628D01*
X0089250Y0098071D01*
X0089268Y0098052D01*
X0089269Y0098026D01*
X0089676Y0097645D01*
X0090070Y0097250D01*
X0090096Y0097250D01*
X0094900Y0092744D01*
X0094900Y0092158D01*
X0097350Y0089708D01*
X0098113Y0088945D01*
X0097262Y0088095D01*
X0097262Y0086355D01*
X0098493Y0085125D01*
X0099425Y0085125D01*
X0099425Y0082307D01*
X0100245Y0081487D01*
X0103020Y0078713D01*
X0159205Y0078713D01*
X0160025Y0079533D01*
X0167543Y0087050D01*
X0195043Y0087050D01*
X0195280Y0087287D01*
X0218357Y0087287D01*
X0222270Y0083375D01*
X0228685Y0083375D01*
X0227739Y0082429D01*
X0227100Y0080885D01*
X0227100Y0079215D01*
X0227739Y0077671D01*
X0228921Y0076489D01*
X0230465Y0075850D01*
X0232135Y0075850D01*
X0233679Y0076489D01*
X0234861Y0077671D01*
X0235500Y0079215D01*
X0235500Y0080885D01*
X0234861Y0082429D01*
X0233679Y0083611D01*
X0234618Y0082672D02*
X0237982Y0082672D01*
X0237592Y0082073D02*
X0235008Y0082073D01*
X0235256Y0081475D02*
X0237344Y0081475D01*
X0237100Y0080876D02*
X0235500Y0080876D01*
X0235500Y0080278D02*
X0237100Y0080278D01*
X0237100Y0079679D02*
X0235500Y0079679D01*
X0235445Y0079081D02*
X0237155Y0079081D01*
X0237403Y0078482D02*
X0235197Y0078482D01*
X0234949Y0077884D02*
X0237651Y0077884D01*
X0238125Y0077285D02*
X0234475Y0077285D01*
X0233876Y0076687D02*
X0238724Y0076687D01*
X0239890Y0076088D02*
X0232710Y0076088D01*
X0229890Y0076088D02*
X0036650Y0076088D01*
X0036650Y0076687D02*
X0228724Y0076687D01*
X0228125Y0077285D02*
X0036650Y0077285D01*
X0036650Y0077884D02*
X0227651Y0077884D01*
X0227403Y0078482D02*
X0083182Y0078482D01*
X0083440Y0078740D02*
X0083440Y0080304D01*
X0084327Y0080304D01*
X0085018Y0079613D01*
X0086757Y0079613D01*
X0087181Y0080037D01*
X0087181Y0079165D01*
X0087709Y0078638D01*
X0092391Y0078638D01*
X0092918Y0079165D01*
X0092918Y0084242D01*
X0092391Y0084769D01*
X0087709Y0084769D01*
X0087181Y0084242D01*
X0087181Y0083388D01*
X0086757Y0083812D01*
X0085018Y0083812D01*
X0084309Y0083104D01*
X0083440Y0083104D01*
X0083440Y0083486D01*
X0082913Y0084013D01*
X0079667Y0084013D01*
X0079140Y0083486D01*
X0079140Y0078740D01*
X0079667Y0078213D01*
X0082913Y0078213D01*
X0083440Y0078740D01*
X0083440Y0079081D02*
X0087266Y0079081D01*
X0087181Y0079679D02*
X0086824Y0079679D01*
X0084951Y0079679D02*
X0083440Y0079679D01*
X0083440Y0080278D02*
X0084352Y0080278D01*
X0084475Y0083270D02*
X0083440Y0083270D01*
X0083057Y0083869D02*
X0087181Y0083869D01*
X0087407Y0084467D02*
X0075210Y0084467D01*
X0075210Y0085066D02*
X0087500Y0085066D01*
X0087580Y0085020D02*
X0087910Y0084931D01*
X0089750Y0084931D01*
X0089750Y0088096D01*
X0090350Y0088096D01*
X0090350Y0084931D01*
X0092190Y0084931D01*
X0092520Y0085020D01*
X0092817Y0085191D01*
X0093059Y0085433D01*
X0093230Y0085729D01*
X0093318Y0086060D01*
X0093318Y0088096D01*
X0090350Y0088096D01*
X0090350Y0088696D01*
X0093318Y0088696D01*
X0093318Y0090733D01*
X0093230Y0091064D01*
X0093059Y0091360D01*
X0092817Y0091602D01*
X0092520Y0091773D01*
X0092190Y0091862D01*
X0090350Y0091862D01*
X0090350Y0088696D01*
X0089750Y0088696D01*
X0089750Y0088096D01*
X0086781Y0088096D01*
X0086781Y0086060D01*
X0086870Y0085729D01*
X0087041Y0085433D01*
X0087283Y0085191D01*
X0087580Y0085020D01*
X0086908Y0085664D02*
X0075210Y0085664D01*
X0075210Y0086263D02*
X0075217Y0086263D01*
X0077250Y0086263D02*
X0077850Y0086263D01*
X0077850Y0085687D02*
X0078971Y0085687D01*
X0079302Y0085776D01*
X0079598Y0085947D01*
X0079840Y0086189D01*
X0080011Y0086485D01*
X0080100Y0086816D01*
X0080100Y0088687D01*
X0077850Y0088687D01*
X0077850Y0085687D01*
X0077850Y0086861D02*
X0077250Y0086861D01*
X0077250Y0087460D02*
X0077850Y0087460D01*
X0077850Y0088058D02*
X0077250Y0088058D01*
X0077250Y0088657D02*
X0077850Y0088657D01*
X0077850Y0089255D02*
X0086781Y0089255D01*
X0086781Y0088696D02*
X0086781Y0090733D01*
X0086870Y0091064D01*
X0087041Y0091360D01*
X0087283Y0091602D01*
X0087580Y0091773D01*
X0087910Y0091862D01*
X0089750Y0091862D01*
X0089750Y0088696D01*
X0086781Y0088696D01*
X0086781Y0088058D02*
X0080100Y0088058D01*
X0080100Y0087460D02*
X0086781Y0087460D01*
X0086781Y0086861D02*
X0080100Y0086861D01*
X0079883Y0086263D02*
X0086781Y0086263D01*
X0089750Y0086263D02*
X0090350Y0086263D01*
X0090350Y0086861D02*
X0089750Y0086861D01*
X0089750Y0087460D02*
X0090350Y0087460D01*
X0090350Y0088058D02*
X0089750Y0088058D01*
X0089750Y0088657D02*
X0080100Y0088657D01*
X0080100Y0089854D02*
X0086781Y0089854D01*
X0086781Y0090452D02*
X0080100Y0090452D01*
X0080100Y0091051D02*
X0086867Y0091051D01*
X0087365Y0091649D02*
X0079919Y0091649D01*
X0079117Y0092248D02*
X0094900Y0092248D01*
X0094791Y0092846D02*
X0075210Y0092846D01*
X0075210Y0092248D02*
X0075983Y0092248D01*
X0077250Y0092248D02*
X0077850Y0092248D01*
X0077850Y0091649D02*
X0077250Y0091649D01*
X0077250Y0091051D02*
X0077850Y0091051D01*
X0077850Y0090452D02*
X0077250Y0090452D01*
X0077250Y0089854D02*
X0077850Y0089854D01*
X0075210Y0093445D02*
X0094153Y0093445D01*
X0093515Y0094043D02*
X0075210Y0094043D01*
X0075210Y0094642D02*
X0092877Y0094642D01*
X0092239Y0095240D02*
X0075210Y0095240D01*
X0075210Y0095839D02*
X0091601Y0095839D01*
X0090963Y0096437D02*
X0075210Y0096437D01*
X0075210Y0097036D02*
X0090325Y0097036D01*
X0089686Y0097634D02*
X0075210Y0097634D01*
X0075210Y0098233D02*
X0089250Y0098233D01*
X0089244Y0098832D02*
X0075210Y0098832D01*
X0075210Y0099430D02*
X0089250Y0099430D01*
X0089250Y0100029D02*
X0075210Y0100029D01*
X0075210Y0100627D02*
X0089250Y0100627D01*
X0089250Y0101226D02*
X0075210Y0101226D01*
X0075210Y0101824D02*
X0089250Y0101824D01*
X0089250Y0102423D02*
X0075210Y0102423D01*
X0075210Y0103021D02*
X0089250Y0103021D01*
X0089250Y0103620D02*
X0075210Y0103620D01*
X0075210Y0104218D02*
X0089250Y0104218D01*
X0089250Y0104817D02*
X0075210Y0104817D01*
X0075210Y0105415D02*
X0089250Y0105415D01*
X0089250Y0106014D02*
X0075210Y0106014D01*
X0075210Y0106612D02*
X0089250Y0106612D01*
X0089250Y0107211D02*
X0075210Y0107211D01*
X0075210Y0107809D02*
X0089250Y0107809D01*
X0089250Y0108408D02*
X0075210Y0108408D01*
X0075210Y0109006D02*
X0089250Y0109006D01*
X0089250Y0109605D02*
X0075210Y0109605D01*
X0075210Y0110203D02*
X0089250Y0110203D01*
X0089250Y0110802D02*
X0075210Y0110802D01*
X0075210Y0111400D02*
X0089250Y0111400D01*
X0089250Y0111999D02*
X0075210Y0111999D01*
X0075210Y0112597D02*
X0089250Y0112597D01*
X0089250Y0113196D02*
X0075210Y0113196D01*
X0075210Y0113794D02*
X0089250Y0113794D01*
X0089250Y0114393D02*
X0075210Y0114393D01*
X0075210Y0114991D02*
X0089250Y0114991D01*
X0089250Y0115590D02*
X0075210Y0115590D01*
X0075210Y0116188D02*
X0089250Y0116188D01*
X0089250Y0116787D02*
X0075210Y0116787D01*
X0075210Y0117385D02*
X0089250Y0117385D01*
X0089122Y0117984D02*
X0075210Y0117984D01*
X0075210Y0118582D02*
X0088523Y0118582D01*
X0088983Y0118123D02*
X0088983Y0118123D01*
X0088162Y0119181D02*
X0079338Y0119181D01*
X0079440Y0119779D02*
X0088162Y0119779D01*
X0088162Y0120378D02*
X0079440Y0120378D01*
X0079440Y0120976D02*
X0088162Y0120976D01*
X0088162Y0121575D02*
X0079440Y0121575D01*
X0079440Y0122173D02*
X0088162Y0122173D01*
X0088162Y0122772D02*
X0079440Y0122772D01*
X0079240Y0123370D02*
X0088203Y0123370D01*
X0088802Y0123969D02*
X0079240Y0123969D01*
X0079240Y0124568D02*
X0089400Y0124568D01*
X0090108Y0125166D02*
X0079240Y0125166D01*
X0079240Y0125765D02*
X0090075Y0125765D01*
X0090075Y0126363D02*
X0079240Y0126363D01*
X0079240Y0126962D02*
X0090075Y0126962D01*
X0090075Y0127560D02*
X0079240Y0127560D01*
X0079031Y0132348D02*
X0085778Y0132348D01*
X0086377Y0132947D02*
X0077200Y0132947D01*
X0077200Y0133545D02*
X0086975Y0133545D01*
X0087574Y0134144D02*
X0077200Y0134144D01*
X0077200Y0134742D02*
X0088172Y0134742D01*
X0088771Y0135341D02*
X0077200Y0135341D01*
X0077200Y0135939D02*
X0089369Y0135939D01*
X0089968Y0136538D02*
X0077200Y0136538D01*
X0077200Y0137136D02*
X0090566Y0137136D01*
X0091165Y0137735D02*
X0076701Y0137735D01*
X0076876Y0140129D02*
X0073710Y0140129D01*
X0073771Y0140235D02*
X0073860Y0140566D01*
X0073860Y0142437D01*
X0071610Y0142437D01*
X0071610Y0143037D01*
X0073860Y0143037D01*
X0073860Y0144908D01*
X0073771Y0145239D01*
X0073600Y0145535D01*
X0073358Y0145777D01*
X0073062Y0145948D01*
X0072731Y0146037D01*
X0071610Y0146037D01*
X0071610Y0143037D01*
X0071010Y0143037D01*
X0071010Y0146037D01*
X0069889Y0146037D01*
X0069558Y0145948D01*
X0069262Y0145777D01*
X0069020Y0145535D01*
X0068848Y0145239D01*
X0068760Y0144908D01*
X0068760Y0143037D01*
X0071010Y0143037D01*
X0071010Y0142437D01*
X0071610Y0142437D01*
X0071610Y0139437D01*
X0072731Y0139437D01*
X0073062Y0139526D01*
X0073358Y0139697D01*
X0073600Y0139939D01*
X0073771Y0140235D01*
X0073860Y0140727D02*
X0076640Y0140727D01*
X0076640Y0141326D02*
X0073860Y0141326D01*
X0073860Y0141924D02*
X0076640Y0141924D01*
X0076640Y0142523D02*
X0071610Y0142523D01*
X0071610Y0143121D02*
X0071010Y0143121D01*
X0071010Y0142523D02*
X0061231Y0142523D01*
X0060633Y0143121D02*
X0068760Y0143121D01*
X0068760Y0143720D02*
X0060034Y0143720D01*
X0061830Y0141924D02*
X0068760Y0141924D01*
X0068760Y0142437D02*
X0068760Y0140566D01*
X0068848Y0140235D01*
X0069020Y0139939D01*
X0069262Y0139697D01*
X0069558Y0139526D01*
X0069889Y0139437D01*
X0071010Y0139437D01*
X0071010Y0142437D01*
X0068760Y0142437D01*
X0068760Y0141326D02*
X0062428Y0141326D01*
X0063027Y0140727D02*
X0068760Y0140727D01*
X0068910Y0140129D02*
X0063625Y0140129D01*
X0064224Y0139530D02*
X0069550Y0139530D01*
X0071010Y0139530D02*
X0071610Y0139530D01*
X0071610Y0140129D02*
X0071010Y0140129D01*
X0071010Y0140727D02*
X0071610Y0140727D01*
X0071610Y0141326D02*
X0071010Y0141326D01*
X0071010Y0141924D02*
X0071610Y0141924D01*
X0071610Y0143720D02*
X0071010Y0143720D01*
X0071010Y0144318D02*
X0071610Y0144318D01*
X0071610Y0144917D02*
X0071010Y0144917D01*
X0071010Y0145515D02*
X0071610Y0145515D01*
X0073612Y0145515D02*
X0077046Y0145515D01*
X0076640Y0144917D02*
X0073857Y0144917D01*
X0073860Y0144318D02*
X0076640Y0144318D01*
X0076640Y0143720D02*
X0073860Y0143720D01*
X0073860Y0143121D02*
X0076640Y0143121D01*
X0080535Y0145515D02*
X0191273Y0145515D01*
X0190674Y0144917D02*
X0080940Y0144917D01*
X0080940Y0144318D02*
X0190076Y0144318D01*
X0191871Y0146114D02*
X0036650Y0146114D01*
X0036650Y0146712D02*
X0192470Y0146712D01*
X0193068Y0147311D02*
X0036650Y0147311D01*
X0036650Y0147909D02*
X0269670Y0147909D01*
X0269670Y0147311D02*
X0226017Y0147311D01*
X0226616Y0146712D02*
X0269670Y0146712D01*
X0269670Y0146114D02*
X0227214Y0146114D01*
X0227813Y0145515D02*
X0269670Y0145515D01*
X0269670Y0144917D02*
X0228411Y0144917D01*
X0229010Y0144318D02*
X0269670Y0144318D01*
X0269670Y0143720D02*
X0229609Y0143720D01*
X0230207Y0143121D02*
X0269670Y0143121D01*
X0269670Y0142523D02*
X0230806Y0142523D01*
X0231404Y0141924D02*
X0269670Y0141924D01*
X0269670Y0141326D02*
X0231987Y0141326D01*
X0231987Y0140727D02*
X0269670Y0140727D01*
X0269670Y0140129D02*
X0231987Y0140129D01*
X0231987Y0139530D02*
X0269670Y0139530D01*
X0269670Y0138932D02*
X0231987Y0138932D01*
X0231987Y0138333D02*
X0269670Y0138333D01*
X0269670Y0137735D02*
X0231987Y0137735D01*
X0231987Y0137136D02*
X0269670Y0137136D01*
X0269670Y0136538D02*
X0231987Y0136538D01*
X0231987Y0135939D02*
X0269670Y0135939D01*
X0269670Y0135341D02*
X0231987Y0135341D01*
X0231987Y0134742D02*
X0257083Y0134742D01*
X0257440Y0135100D02*
X0253750Y0131410D01*
X0253750Y0129100D01*
X0259750Y0129100D01*
X0259750Y0135100D01*
X0257440Y0135100D01*
X0256484Y0134144D02*
X0242567Y0134144D01*
X0243649Y0133545D02*
X0255886Y0133545D01*
X0255287Y0132947D02*
X0244247Y0132947D01*
X0244846Y0132348D02*
X0254689Y0132348D01*
X0254090Y0131750D02*
X0245214Y0131750D01*
X0245462Y0131151D02*
X0253750Y0131151D01*
X0253750Y0130553D02*
X0245710Y0130553D01*
X0245950Y0129954D02*
X0253750Y0129954D01*
X0253750Y0129356D02*
X0245950Y0129356D01*
X0245950Y0128757D02*
X0259750Y0128757D01*
X0259750Y0128500D02*
X0253750Y0128500D01*
X0253750Y0126190D01*
X0257440Y0122500D01*
X0259750Y0122500D01*
X0259750Y0128500D01*
X0260350Y0128500D01*
X0260350Y0129100D01*
X0266350Y0129100D01*
X0266350Y0131410D01*
X0262660Y0135100D01*
X0260350Y0135100D01*
X0260350Y0129100D01*
X0259750Y0129100D01*
X0259750Y0128500D01*
X0259750Y0128159D02*
X0260350Y0128159D01*
X0260350Y0128500D02*
X0260350Y0122500D01*
X0262660Y0122500D01*
X0266350Y0126190D01*
X0266350Y0128500D01*
X0260350Y0128500D01*
X0260350Y0128757D02*
X0269670Y0128757D01*
X0269670Y0128159D02*
X0266350Y0128159D01*
X0266350Y0127560D02*
X0269670Y0127560D01*
X0269670Y0126962D02*
X0266350Y0126962D01*
X0266350Y0126363D02*
X0269670Y0126363D01*
X0269670Y0125765D02*
X0265924Y0125765D01*
X0265326Y0125166D02*
X0269670Y0125166D01*
X0269670Y0124568D02*
X0264727Y0124568D01*
X0264129Y0123969D02*
X0269670Y0123969D01*
X0269670Y0123370D02*
X0263530Y0123370D01*
X0262932Y0122772D02*
X0269670Y0122772D01*
X0269670Y0122173D02*
X0241450Y0122173D01*
X0241450Y0121575D02*
X0269670Y0121575D01*
X0269670Y0120976D02*
X0241450Y0120976D01*
X0241108Y0120378D02*
X0269670Y0120378D01*
X0269670Y0119779D02*
X0240509Y0119779D01*
X0240141Y0119181D02*
X0269670Y0119181D01*
X0269670Y0118582D02*
X0240141Y0118582D01*
X0240141Y0117984D02*
X0269670Y0117984D01*
X0269670Y0117385D02*
X0240141Y0117385D01*
X0240141Y0116787D02*
X0269670Y0116787D01*
X0269670Y0116188D02*
X0240141Y0116188D01*
X0240141Y0115590D02*
X0269670Y0115590D01*
X0269670Y0114991D02*
X0240141Y0114991D01*
X0240141Y0114393D02*
X0269670Y0114393D01*
X0269670Y0113794D02*
X0240141Y0113794D01*
X0240141Y0113196D02*
X0269670Y0113196D01*
X0269670Y0112597D02*
X0240141Y0112597D01*
X0240141Y0111999D02*
X0269670Y0111999D01*
X0269670Y0111400D02*
X0240141Y0111400D01*
X0240141Y0110802D02*
X0269670Y0110802D01*
X0269670Y0110203D02*
X0240141Y0110203D01*
X0240141Y0109605D02*
X0269670Y0109605D01*
X0269670Y0109006D02*
X0240141Y0109006D01*
X0240141Y0108408D02*
X0269670Y0108408D01*
X0269670Y0107809D02*
X0240141Y0107809D01*
X0240141Y0107211D02*
X0269670Y0107211D01*
X0269670Y0106612D02*
X0240141Y0106612D01*
X0240141Y0106014D02*
X0269670Y0106014D01*
X0269670Y0105415D02*
X0240141Y0105415D01*
X0240141Y0104817D02*
X0261064Y0104817D01*
X0260931Y0104218D02*
X0245851Y0104218D01*
X0245739Y0104283D02*
X0245408Y0104372D01*
X0244159Y0104372D01*
X0244159Y0101600D01*
X0243559Y0101600D01*
X0243559Y0101000D01*
X0241181Y0101000D01*
X0241181Y0099357D01*
X0241270Y0099027D01*
X0241441Y0098730D01*
X0241683Y0098488D01*
X0241979Y0098317D01*
X0242310Y0098228D01*
X0243559Y0098228D01*
X0243559Y0101000D01*
X0244159Y0101000D01*
X0244159Y0098228D01*
X0245408Y0098228D01*
X0245739Y0098317D01*
X0246035Y0098488D01*
X0246277Y0098730D01*
X0246448Y0099027D01*
X0246537Y0099357D01*
X0246537Y0101000D01*
X0244159Y0101000D01*
X0244159Y0101600D01*
X0246537Y0101600D01*
X0246537Y0103243D01*
X0246448Y0103573D01*
X0246277Y0103870D01*
X0246035Y0104112D01*
X0245739Y0104283D01*
X0246422Y0103620D02*
X0260931Y0103620D01*
X0260931Y0103021D02*
X0246537Y0103021D01*
X0246537Y0102423D02*
X0257943Y0102423D01*
X0257344Y0101824D02*
X0246537Y0101824D01*
X0246537Y0100627D02*
X0256147Y0100627D01*
X0255549Y0100029D02*
X0246537Y0100029D01*
X0246537Y0099430D02*
X0254950Y0099430D01*
X0254352Y0098832D02*
X0246336Y0098832D01*
X0245426Y0098233D02*
X0253753Y0098233D01*
X0255917Y0096437D02*
X0260931Y0096437D01*
X0260931Y0095839D02*
X0255319Y0095839D01*
X0254720Y0095240D02*
X0260931Y0095240D01*
X0260931Y0094642D02*
X0234803Y0094642D01*
X0235402Y0094043D02*
X0260931Y0094043D01*
X0260931Y0093445D02*
X0236000Y0093445D01*
X0236599Y0092846D02*
X0261000Y0092846D01*
X0262400Y0092248D02*
X0236962Y0092248D01*
X0236962Y0091649D02*
X0262400Y0091649D01*
X0262400Y0091051D02*
X0236962Y0091051D01*
X0236962Y0090452D02*
X0262400Y0090452D01*
X0260973Y0089854D02*
X0236962Y0089854D01*
X0236962Y0089255D02*
X0260538Y0089255D01*
X0260538Y0088657D02*
X0236962Y0088657D01*
X0236962Y0088058D02*
X0260538Y0088058D01*
X0260538Y0087460D02*
X0236943Y0087460D01*
X0236344Y0086861D02*
X0260538Y0086861D01*
X0260538Y0086263D02*
X0235746Y0086263D01*
X0235147Y0085664D02*
X0260538Y0085664D01*
X0260538Y0085066D02*
X0234549Y0085066D01*
X0228581Y0083270D02*
X0163763Y0083270D01*
X0163164Y0082672D02*
X0227982Y0082672D01*
X0227592Y0082073D02*
X0162566Y0082073D01*
X0161967Y0081475D02*
X0227344Y0081475D01*
X0227100Y0080876D02*
X0161369Y0080876D01*
X0160770Y0080278D02*
X0227100Y0080278D01*
X0227100Y0079679D02*
X0160172Y0079679D01*
X0159573Y0079081D02*
X0227155Y0079081D01*
X0221776Y0083869D02*
X0164361Y0083869D01*
X0164960Y0084467D02*
X0221177Y0084467D01*
X0220579Y0085066D02*
X0165558Y0085066D01*
X0166157Y0085664D02*
X0219980Y0085664D01*
X0219382Y0086263D02*
X0166755Y0086263D01*
X0167354Y0086861D02*
X0218783Y0086861D01*
X0210143Y0093525D02*
X0207130Y0093525D01*
X0204275Y0096380D01*
X0204275Y0105868D01*
X0204975Y0106568D01*
X0204975Y0108307D01*
X0203745Y0109537D01*
X0202005Y0109537D01*
X0200775Y0108307D01*
X0200775Y0106568D01*
X0201475Y0105868D01*
X0201475Y0095220D01*
X0205008Y0091687D01*
X0196642Y0091687D01*
X0196450Y0091880D01*
X0196450Y0105630D01*
X0195630Y0106450D01*
X0194380Y0107700D01*
X0192712Y0107700D01*
X0192712Y0108641D01*
X0192185Y0109168D01*
X0187108Y0109168D01*
X0186581Y0108641D01*
X0186581Y0104518D01*
X0186019Y0104518D01*
X0186019Y0108641D01*
X0185492Y0109168D01*
X0184354Y0109168D01*
X0184354Y0109681D01*
X0185492Y0109681D01*
X0186019Y0110209D01*
X0186019Y0114612D01*
X0186581Y0114612D01*
X0186581Y0110209D01*
X0187108Y0109681D01*
X0192185Y0109681D01*
X0192712Y0110209D01*
X0192712Y0114891D01*
X0192185Y0115418D01*
X0190800Y0115418D01*
X0190800Y0115980D01*
X0190187Y0116592D01*
X0189367Y0117412D01*
X0181405Y0117412D01*
X0181000Y0117817D01*
X0181000Y0119681D01*
X0182185Y0119681D01*
X0182712Y0120209D01*
X0182712Y0120450D01*
X0186893Y0120450D01*
X0191593Y0115750D01*
X0196612Y0115750D01*
X0196612Y0111677D01*
X0197140Y0111150D01*
X0203308Y0111150D01*
X0203520Y0110937D01*
X0209580Y0110937D01*
X0210400Y0111758D01*
X0210400Y0116450D01*
X0212500Y0116450D01*
X0212500Y0101958D01*
X0212986Y0101472D01*
X0210858Y0101472D01*
X0210331Y0100944D01*
X0210331Y0096656D01*
X0210752Y0096234D01*
X0209962Y0095445D01*
X0209962Y0093705D01*
X0210143Y0093525D01*
X0209962Y0094043D02*
X0206611Y0094043D01*
X0206013Y0094642D02*
X0209962Y0094642D01*
X0209962Y0095240D02*
X0205414Y0095240D01*
X0205611Y0095817D02*
X0205942Y0095728D01*
X0207191Y0095728D01*
X0207191Y0098500D01*
X0207791Y0098500D01*
X0207791Y0099100D01*
X0210169Y0099100D01*
X0210169Y0100743D01*
X0210080Y0101073D01*
X0209909Y0101370D01*
X0209667Y0101612D01*
X0209371Y0101783D01*
X0209040Y0101872D01*
X0207791Y0101872D01*
X0207791Y0099100D01*
X0207191Y0099100D01*
X0207191Y0101872D01*
X0205942Y0101872D01*
X0205611Y0101783D01*
X0205315Y0101612D01*
X0205073Y0101370D01*
X0204902Y0101073D01*
X0204813Y0100743D01*
X0204813Y0099100D01*
X0207191Y0099100D01*
X0207191Y0098500D01*
X0204813Y0098500D01*
X0204813Y0096857D01*
X0204902Y0096527D01*
X0205073Y0096230D01*
X0205315Y0095988D01*
X0205611Y0095817D01*
X0205573Y0095839D02*
X0204816Y0095839D01*
X0204953Y0096437D02*
X0204275Y0096437D01*
X0204275Y0097036D02*
X0204813Y0097036D01*
X0204813Y0097634D02*
X0204275Y0097634D01*
X0204275Y0098233D02*
X0204813Y0098233D01*
X0204275Y0098832D02*
X0207191Y0098832D01*
X0207191Y0099430D02*
X0207791Y0099430D01*
X0207791Y0098832D02*
X0210331Y0098832D01*
X0210169Y0098500D02*
X0207791Y0098500D01*
X0207791Y0095728D01*
X0209040Y0095728D01*
X0209371Y0095817D01*
X0209667Y0095988D01*
X0209909Y0096230D01*
X0210080Y0096527D01*
X0210169Y0096857D01*
X0210169Y0098500D01*
X0210169Y0098233D02*
X0210331Y0098233D01*
X0210331Y0097634D02*
X0210169Y0097634D01*
X0210169Y0097036D02*
X0210331Y0097036D01*
X0210549Y0096437D02*
X0210029Y0096437D01*
X0210357Y0095839D02*
X0209409Y0095839D01*
X0207791Y0095839D02*
X0207191Y0095839D01*
X0207191Y0096437D02*
X0207791Y0096437D01*
X0207791Y0097036D02*
X0207191Y0097036D01*
X0207191Y0097634D02*
X0207791Y0097634D01*
X0207791Y0098233D02*
X0207191Y0098233D01*
X0207191Y0100029D02*
X0207791Y0100029D01*
X0207791Y0100627D02*
X0207191Y0100627D01*
X0207191Y0101226D02*
X0207791Y0101226D01*
X0207791Y0101824D02*
X0207191Y0101824D01*
X0205764Y0101824D02*
X0204275Y0101824D01*
X0204275Y0101226D02*
X0204989Y0101226D01*
X0204813Y0100627D02*
X0204275Y0100627D01*
X0204275Y0100029D02*
X0204813Y0100029D01*
X0204813Y0099430D02*
X0204275Y0099430D01*
X0201475Y0099430D02*
X0196450Y0099430D01*
X0196450Y0098832D02*
X0201475Y0098832D01*
X0201475Y0098233D02*
X0196450Y0098233D01*
X0196450Y0097634D02*
X0201475Y0097634D01*
X0201475Y0097036D02*
X0196450Y0097036D01*
X0196450Y0096437D02*
X0201475Y0096437D01*
X0201475Y0095839D02*
X0196450Y0095839D01*
X0196450Y0095240D02*
X0201475Y0095240D01*
X0202053Y0094642D02*
X0196450Y0094642D01*
X0196450Y0094043D02*
X0202652Y0094043D01*
X0203250Y0093445D02*
X0196450Y0093445D01*
X0196450Y0092846D02*
X0203849Y0092846D01*
X0204447Y0092248D02*
X0196450Y0092248D01*
X0186581Y0092248D02*
X0186419Y0092248D01*
X0186419Y0091660D02*
X0186419Y0093500D01*
X0183254Y0093500D01*
X0183254Y0094100D01*
X0186419Y0094100D01*
X0186419Y0095048D01*
X0186581Y0094885D01*
X0186581Y0091459D01*
X0186590Y0091450D01*
X0186363Y0091450D01*
X0186419Y0091660D01*
X0186416Y0091649D02*
X0186581Y0091649D01*
X0186581Y0092846D02*
X0186419Y0092846D01*
X0186419Y0093445D02*
X0186581Y0093445D01*
X0186581Y0094043D02*
X0183254Y0094043D01*
X0183254Y0094100D02*
X0182654Y0094100D01*
X0182654Y0097068D01*
X0180617Y0097068D01*
X0180286Y0096980D01*
X0179990Y0096809D01*
X0179748Y0096567D01*
X0179577Y0096270D01*
X0179488Y0095940D01*
X0179488Y0094100D01*
X0182653Y0094100D01*
X0182653Y0093500D01*
X0179488Y0093500D01*
X0179488Y0091660D01*
X0179545Y0091450D01*
X0171880Y0091450D01*
X0170200Y0093130D01*
X0170200Y0095419D01*
X0170265Y0095419D01*
X0170405Y0095559D01*
X0170427Y0095521D01*
X0170669Y0095279D01*
X0170966Y0095108D01*
X0171296Y0095019D01*
X0172309Y0095019D01*
X0172309Y0098440D01*
X0172791Y0098440D01*
X0172791Y0095019D01*
X0173804Y0095019D01*
X0174134Y0095108D01*
X0174431Y0095279D01*
X0174673Y0095521D01*
X0174695Y0095559D01*
X0174835Y0095419D01*
X0177746Y0095419D01*
X0178273Y0095946D01*
X0178273Y0097281D01*
X0179261Y0097281D01*
X0179888Y0097908D01*
X0179888Y0097709D01*
X0180415Y0097181D01*
X0184285Y0097181D01*
X0184398Y0097068D01*
X0183254Y0097068D01*
X0183254Y0094100D01*
X0183254Y0094642D02*
X0182654Y0094642D01*
X0182654Y0095240D02*
X0183254Y0095240D01*
X0183254Y0095839D02*
X0182654Y0095839D01*
X0182654Y0096437D02*
X0183254Y0096437D01*
X0183254Y0097036D02*
X0182654Y0097036D01*
X0180496Y0097036D02*
X0178273Y0097036D01*
X0178273Y0096437D02*
X0179673Y0096437D01*
X0179488Y0095839D02*
X0178165Y0095839D01*
X0179488Y0095240D02*
X0174364Y0095240D01*
X0172791Y0095240D02*
X0172309Y0095240D01*
X0172309Y0095839D02*
X0172791Y0095839D01*
X0172791Y0096437D02*
X0172309Y0096437D01*
X0172309Y0097036D02*
X0172791Y0097036D01*
X0172791Y0097634D02*
X0172309Y0097634D01*
X0172309Y0098233D02*
X0172791Y0098233D01*
X0172791Y0099430D02*
X0172309Y0099430D01*
X0172309Y0100029D02*
X0172791Y0100029D01*
X0172791Y0100627D02*
X0172309Y0100627D01*
X0172309Y0101226D02*
X0172791Y0101226D01*
X0172791Y0101824D02*
X0172309Y0101824D01*
X0173461Y0103021D02*
X0168751Y0103021D01*
X0168152Y0102423D02*
X0174060Y0102423D01*
X0172863Y0103620D02*
X0169349Y0103620D01*
X0169948Y0104218D02*
X0172264Y0104218D01*
X0171666Y0104817D02*
X0170210Y0104817D01*
X0170210Y0105415D02*
X0171463Y0105415D01*
X0171463Y0106014D02*
X0170623Y0106014D01*
X0170793Y0106612D02*
X0171463Y0106612D01*
X0171463Y0107211D02*
X0170793Y0107211D01*
X0170793Y0107809D02*
X0171463Y0107809D01*
X0171463Y0108408D02*
X0170793Y0108408D01*
X0170793Y0109006D02*
X0171463Y0109006D01*
X0171463Y0109605D02*
X0170793Y0109605D01*
X0170793Y0110203D02*
X0171463Y0110203D01*
X0171463Y0110802D02*
X0170793Y0110802D01*
X0170793Y0111400D02*
X0171463Y0111400D01*
X0171463Y0111999D02*
X0170447Y0111999D01*
X0171463Y0112597D02*
X0165302Y0112597D01*
X0164704Y0111999D02*
X0167172Y0111999D01*
X0166827Y0111400D02*
X0164105Y0111400D01*
X0163507Y0110802D02*
X0166827Y0110802D01*
X0166827Y0110203D02*
X0156171Y0110203D01*
X0155572Y0109605D02*
X0166827Y0109605D01*
X0166827Y0109006D02*
X0154974Y0109006D01*
X0154375Y0108408D02*
X0166827Y0108408D01*
X0166827Y0107809D02*
X0153777Y0107809D01*
X0153178Y0107211D02*
X0166827Y0107211D01*
X0166827Y0106612D02*
X0152580Y0106612D01*
X0151981Y0106014D02*
X0166997Y0106014D01*
X0167185Y0105415D02*
X0132395Y0105415D01*
X0131797Y0104817D02*
X0160335Y0104817D01*
X0159878Y0104218D02*
X0131198Y0104218D01*
X0130600Y0103620D02*
X0159878Y0103620D01*
X0159878Y0103021D02*
X0130001Y0103021D01*
X0129402Y0102423D02*
X0159878Y0102423D01*
X0159878Y0101824D02*
X0119583Y0101824D01*
X0120182Y0101226D02*
X0159878Y0101226D01*
X0160110Y0100627D02*
X0120450Y0100627D01*
X0120450Y0100029D02*
X0160187Y0100029D01*
X0159601Y0099430D02*
X0120450Y0099430D01*
X0120064Y0098832D02*
X0130662Y0098832D01*
X0130063Y0098233D02*
X0119465Y0098233D01*
X0118631Y0097634D02*
X0129725Y0097634D01*
X0132988Y0098832D02*
X0159478Y0098832D01*
X0159478Y0098233D02*
X0133587Y0098233D01*
X0133925Y0097634D02*
X0162250Y0097634D01*
X0162250Y0097036D02*
X0162850Y0097036D01*
X0162850Y0096437D02*
X0162250Y0096437D01*
X0162250Y0095839D02*
X0162850Y0095839D01*
X0162850Y0095240D02*
X0162250Y0095240D01*
X0159812Y0095240D02*
X0133010Y0095240D01*
X0133609Y0095839D02*
X0159506Y0095839D01*
X0159478Y0096437D02*
X0133925Y0096437D01*
X0133925Y0097036D02*
X0159478Y0097036D01*
X0162250Y0098233D02*
X0162850Y0098233D01*
X0162850Y0098832D02*
X0162250Y0098832D01*
X0162250Y0099430D02*
X0162850Y0099430D01*
X0162850Y0100029D02*
X0162250Y0100029D01*
X0164913Y0100029D02*
X0165027Y0100029D01*
X0165222Y0104218D02*
X0165988Y0104218D01*
X0166587Y0104817D02*
X0164765Y0104817D01*
X0170385Y0101824D02*
X0170417Y0101824D01*
X0174429Y0106014D02*
X0174477Y0106014D01*
X0174307Y0106184D02*
X0174835Y0105656D01*
X0177746Y0105656D01*
X0178230Y0106140D01*
X0178650Y0105720D01*
X0179470Y0104900D01*
X0179888Y0104900D01*
X0179888Y0104518D01*
X0175924Y0104518D01*
X0174262Y0106180D01*
X0174262Y0118900D01*
X0176505Y0118900D01*
X0177286Y0119681D01*
X0178200Y0119681D01*
X0178200Y0116658D01*
X0179020Y0115837D01*
X0179425Y0115433D01*
X0179927Y0114930D01*
X0179888Y0114891D01*
X0179888Y0110209D01*
X0180415Y0109681D01*
X0181554Y0109681D01*
X0181554Y0109168D01*
X0180415Y0109168D01*
X0179888Y0108641D01*
X0179888Y0108442D01*
X0178273Y0110057D01*
X0178273Y0111653D01*
X0177746Y0112181D01*
X0174835Y0112181D01*
X0174307Y0111653D01*
X0174307Y0106184D01*
X0174307Y0106612D02*
X0174262Y0106612D01*
X0174262Y0107211D02*
X0174307Y0107211D01*
X0174307Y0107809D02*
X0174262Y0107809D01*
X0174262Y0108408D02*
X0174307Y0108408D01*
X0174307Y0109006D02*
X0174262Y0109006D01*
X0174262Y0109605D02*
X0174307Y0109605D01*
X0174307Y0110203D02*
X0174262Y0110203D01*
X0174262Y0110802D02*
X0174307Y0110802D01*
X0174307Y0111400D02*
X0174262Y0111400D01*
X0174262Y0111999D02*
X0174653Y0111999D01*
X0174262Y0112597D02*
X0179888Y0112597D01*
X0179888Y0111999D02*
X0177928Y0111999D01*
X0178273Y0111400D02*
X0179888Y0111400D01*
X0179888Y0110802D02*
X0178273Y0110802D01*
X0178273Y0110203D02*
X0179894Y0110203D01*
X0180253Y0109006D02*
X0179324Y0109006D01*
X0178725Y0109605D02*
X0181554Y0109605D01*
X0184354Y0109605D02*
X0212500Y0109605D01*
X0212500Y0110203D02*
X0192706Y0110203D01*
X0192712Y0110802D02*
X0212500Y0110802D01*
X0212500Y0111400D02*
X0210043Y0111400D01*
X0210400Y0111999D02*
X0212500Y0111999D01*
X0212500Y0112597D02*
X0210400Y0112597D01*
X0210400Y0113196D02*
X0212500Y0113196D01*
X0212500Y0113794D02*
X0210400Y0113794D01*
X0210400Y0114393D02*
X0212500Y0114393D01*
X0212500Y0114991D02*
X0210400Y0114991D01*
X0210400Y0115590D02*
X0212500Y0115590D01*
X0212500Y0116188D02*
X0210400Y0116188D01*
X0215300Y0116188D02*
X0217181Y0116188D01*
X0217181Y0115590D02*
X0215300Y0115590D01*
X0215300Y0114991D02*
X0217181Y0114991D01*
X0217181Y0114393D02*
X0215300Y0114393D01*
X0215300Y0113794D02*
X0217181Y0113794D01*
X0217181Y0113196D02*
X0215300Y0113196D01*
X0215300Y0112597D02*
X0217500Y0112597D01*
X0217709Y0112388D02*
X0218650Y0112388D01*
X0218650Y0111970D01*
X0219470Y0111150D01*
X0219713Y0110907D01*
X0219713Y0108952D01*
X0219701Y0108940D01*
X0219701Y0106649D01*
X0217410Y0106649D01*
X0216807Y0106047D01*
X0216807Y0104427D01*
X0216982Y0104253D01*
X0216807Y0104078D01*
X0216807Y0102700D01*
X0215717Y0102700D01*
X0215300Y0103117D01*
X0215300Y0126458D01*
X0216317Y0127475D01*
X0217137Y0128295D01*
X0217137Y0137417D01*
X0215175Y0139380D01*
X0214355Y0140200D01*
X0213859Y0140200D01*
X0213758Y0140443D01*
X0212943Y0141258D01*
X0212746Y0141340D01*
X0223220Y0141340D01*
X0225619Y0138942D01*
X0225619Y0109543D01*
X0224240Y0109543D01*
X0224066Y0109368D01*
X0223891Y0109543D01*
X0222513Y0109543D01*
X0222513Y0112067D01*
X0222192Y0112388D01*
X0222391Y0112388D01*
X0222918Y0112915D01*
X0222918Y0117992D01*
X0222391Y0118519D01*
X0217709Y0118519D01*
X0217181Y0117992D01*
X0217181Y0112915D01*
X0217709Y0112388D01*
X0218650Y0111999D02*
X0215300Y0111999D01*
X0215300Y0111400D02*
X0219220Y0111400D01*
X0219713Y0110802D02*
X0215300Y0110802D01*
X0215300Y0110203D02*
X0219713Y0110203D01*
X0219713Y0109605D02*
X0215300Y0109605D01*
X0215300Y0109006D02*
X0219713Y0109006D01*
X0219701Y0108408D02*
X0215300Y0108408D01*
X0215300Y0107809D02*
X0219701Y0107809D01*
X0219701Y0107211D02*
X0215300Y0107211D01*
X0215300Y0106612D02*
X0217373Y0106612D01*
X0216807Y0106014D02*
X0215300Y0106014D01*
X0215300Y0105415D02*
X0216807Y0105415D01*
X0216807Y0104817D02*
X0215300Y0104817D01*
X0215300Y0104218D02*
X0216947Y0104218D01*
X0216807Y0103620D02*
X0215300Y0103620D01*
X0215396Y0103021D02*
X0216807Y0103021D01*
X0212500Y0103021D02*
X0204275Y0103021D01*
X0204275Y0102423D02*
X0212500Y0102423D01*
X0212634Y0101824D02*
X0209218Y0101824D01*
X0209992Y0101226D02*
X0210612Y0101226D01*
X0210331Y0100627D02*
X0210169Y0100627D01*
X0210169Y0100029D02*
X0210331Y0100029D01*
X0210331Y0099430D02*
X0210169Y0099430D01*
X0212500Y0103620D02*
X0204275Y0103620D01*
X0204275Y0104218D02*
X0212500Y0104218D01*
X0212500Y0104817D02*
X0204275Y0104817D01*
X0204275Y0105415D02*
X0212500Y0105415D01*
X0212500Y0106014D02*
X0204421Y0106014D01*
X0204975Y0106612D02*
X0212500Y0106612D01*
X0212500Y0107211D02*
X0204975Y0107211D01*
X0204975Y0107809D02*
X0212500Y0107809D01*
X0212500Y0108408D02*
X0204875Y0108408D01*
X0204276Y0109006D02*
X0212500Y0109006D01*
X0215300Y0116787D02*
X0217181Y0116787D01*
X0217181Y0117385D02*
X0215300Y0117385D01*
X0215300Y0117984D02*
X0217181Y0117984D01*
X0217580Y0118770D02*
X0217910Y0118681D01*
X0219750Y0118681D01*
X0219750Y0121846D01*
X0220350Y0121846D01*
X0220350Y0118681D01*
X0222190Y0118681D01*
X0222520Y0118770D01*
X0222817Y0118941D01*
X0223059Y0119183D01*
X0223230Y0119479D01*
X0223318Y0119810D01*
X0223318Y0121846D01*
X0220350Y0121846D01*
X0220350Y0122446D01*
X0223318Y0122446D01*
X0223318Y0124483D01*
X0223230Y0124814D01*
X0223059Y0125110D01*
X0222817Y0125352D01*
X0222520Y0125523D01*
X0222190Y0125612D01*
X0220350Y0125612D01*
X0220350Y0122446D01*
X0219750Y0122446D01*
X0219750Y0121846D01*
X0216781Y0121846D01*
X0216781Y0119810D01*
X0216870Y0119479D01*
X0217041Y0119183D01*
X0217283Y0118941D01*
X0217580Y0118770D01*
X0217043Y0119181D02*
X0215300Y0119181D01*
X0215300Y0119779D02*
X0216790Y0119779D01*
X0216781Y0120378D02*
X0215300Y0120378D01*
X0215300Y0120976D02*
X0216781Y0120976D01*
X0216781Y0121575D02*
X0215300Y0121575D01*
X0215300Y0122173D02*
X0219750Y0122173D01*
X0219750Y0122446D02*
X0216781Y0122446D01*
X0216781Y0124483D01*
X0216870Y0124814D01*
X0217041Y0125110D01*
X0217283Y0125352D01*
X0217580Y0125523D01*
X0217910Y0125612D01*
X0219750Y0125612D01*
X0219750Y0122446D01*
X0219750Y0122772D02*
X0220350Y0122772D01*
X0220350Y0123370D02*
X0219750Y0123370D01*
X0219750Y0123969D02*
X0220350Y0123969D01*
X0220350Y0124568D02*
X0219750Y0124568D01*
X0219750Y0125166D02*
X0220350Y0125166D01*
X0223003Y0125166D02*
X0225619Y0125166D01*
X0225619Y0124568D02*
X0223296Y0124568D01*
X0223318Y0123969D02*
X0225619Y0123969D01*
X0225619Y0123370D02*
X0223318Y0123370D01*
X0223318Y0122772D02*
X0225619Y0122772D01*
X0225619Y0122173D02*
X0220350Y0122173D01*
X0220350Y0121575D02*
X0219750Y0121575D01*
X0219750Y0120976D02*
X0220350Y0120976D01*
X0220350Y0120378D02*
X0219750Y0120378D01*
X0219750Y0119779D02*
X0220350Y0119779D01*
X0220350Y0119181D02*
X0219750Y0119181D01*
X0223057Y0119181D02*
X0225619Y0119181D01*
X0225619Y0119779D02*
X0223310Y0119779D01*
X0223318Y0120378D02*
X0225619Y0120378D01*
X0225619Y0120976D02*
X0223318Y0120976D01*
X0223318Y0121575D02*
X0225619Y0121575D01*
X0225619Y0118582D02*
X0215300Y0118582D01*
X0215300Y0122772D02*
X0216781Y0122772D01*
X0216781Y0123370D02*
X0215300Y0123370D01*
X0215300Y0123969D02*
X0216781Y0123969D01*
X0216804Y0124568D02*
X0215300Y0124568D01*
X0215300Y0125166D02*
X0217097Y0125166D01*
X0215300Y0125765D02*
X0225619Y0125765D01*
X0225619Y0126363D02*
X0215300Y0126363D01*
X0215804Y0126962D02*
X0225619Y0126962D01*
X0225619Y0127560D02*
X0216402Y0127560D01*
X0217001Y0128159D02*
X0225619Y0128159D01*
X0225619Y0128757D02*
X0217137Y0128757D01*
X0217137Y0129356D02*
X0225619Y0129356D01*
X0225619Y0129954D02*
X0217137Y0129954D01*
X0217137Y0130553D02*
X0225619Y0130553D01*
X0225619Y0131151D02*
X0217137Y0131151D01*
X0217137Y0131750D02*
X0225619Y0131750D01*
X0225619Y0132348D02*
X0217137Y0132348D01*
X0217137Y0132947D02*
X0225619Y0132947D01*
X0225619Y0133545D02*
X0217137Y0133545D01*
X0217137Y0134144D02*
X0225619Y0134144D01*
X0225619Y0134742D02*
X0217137Y0134742D01*
X0217137Y0135341D02*
X0225619Y0135341D01*
X0225619Y0135939D02*
X0217137Y0135939D01*
X0217137Y0136538D02*
X0225619Y0136538D01*
X0225619Y0137136D02*
X0217137Y0137136D01*
X0216820Y0137735D02*
X0225619Y0137735D01*
X0225619Y0138333D02*
X0216222Y0138333D01*
X0215623Y0138932D02*
X0225619Y0138932D01*
X0225030Y0139530D02*
X0215025Y0139530D01*
X0214426Y0140129D02*
X0224431Y0140129D01*
X0223833Y0140727D02*
X0213474Y0140727D01*
X0212780Y0141326D02*
X0223234Y0141326D01*
X0231987Y0134144D02*
X0237533Y0134144D01*
X0236451Y0133545D02*
X0231987Y0133545D01*
X0231987Y0132947D02*
X0235853Y0132947D01*
X0235254Y0132348D02*
X0231987Y0132348D01*
X0231987Y0131750D02*
X0234886Y0131750D01*
X0234638Y0131151D02*
X0231987Y0131151D01*
X0231987Y0130553D02*
X0234390Y0130553D01*
X0234150Y0129954D02*
X0231987Y0129954D01*
X0231987Y0129356D02*
X0234150Y0129356D01*
X0234150Y0128757D02*
X0231987Y0128757D01*
X0231987Y0128159D02*
X0234150Y0128159D01*
X0234177Y0127560D02*
X0231987Y0127560D01*
X0231987Y0126962D02*
X0234425Y0126962D01*
X0234673Y0126363D02*
X0231987Y0126363D01*
X0231987Y0125765D02*
X0234921Y0125765D01*
X0235340Y0125166D02*
X0231987Y0125166D01*
X0231987Y0124568D02*
X0235939Y0124568D01*
X0236537Y0123969D02*
X0231987Y0123969D01*
X0231987Y0123370D02*
X0237741Y0123370D01*
X0238650Y0122772D02*
X0231987Y0122772D01*
X0231987Y0122173D02*
X0238650Y0122173D01*
X0238345Y0121575D02*
X0231987Y0121575D01*
X0231987Y0120976D02*
X0237747Y0120976D01*
X0237341Y0120378D02*
X0231987Y0120378D01*
X0232703Y0119779D02*
X0237341Y0119779D01*
X0237341Y0119181D02*
X0233301Y0119181D01*
X0233762Y0118582D02*
X0237341Y0118582D01*
X0237341Y0117984D02*
X0233762Y0117984D01*
X0233762Y0117385D02*
X0237341Y0117385D01*
X0237341Y0116787D02*
X0233569Y0116787D01*
X0225619Y0116787D02*
X0222918Y0116787D01*
X0222918Y0117385D02*
X0225619Y0117385D01*
X0225619Y0117984D02*
X0222918Y0117984D01*
X0222918Y0116188D02*
X0225619Y0116188D01*
X0225619Y0115590D02*
X0222918Y0115590D01*
X0222918Y0114991D02*
X0225619Y0114991D01*
X0225619Y0114393D02*
X0222918Y0114393D01*
X0222918Y0113794D02*
X0225619Y0113794D01*
X0225619Y0113196D02*
X0222918Y0113196D01*
X0222600Y0112597D02*
X0225619Y0112597D01*
X0225619Y0111999D02*
X0222513Y0111999D01*
X0222513Y0111400D02*
X0225619Y0111400D01*
X0225619Y0110802D02*
X0222513Y0110802D01*
X0222513Y0110203D02*
X0225619Y0110203D01*
X0225619Y0109605D02*
X0222513Y0109605D01*
X0227660Y0099430D02*
X0228652Y0099430D01*
X0228652Y0098832D02*
X0227061Y0098832D01*
X0226463Y0098233D02*
X0228843Y0098233D01*
X0229052Y0097634D02*
X0221048Y0097634D01*
X0233693Y0098832D02*
X0236787Y0098832D01*
X0236463Y0099430D02*
X0233693Y0099430D01*
X0234884Y0098233D02*
X0242293Y0098233D01*
X0241382Y0098832D02*
X0240695Y0098832D01*
X0241019Y0099430D02*
X0241181Y0099430D01*
X0241181Y0100029D02*
X0241019Y0100029D01*
X0241019Y0100627D02*
X0241181Y0100627D01*
X0241019Y0101226D02*
X0243559Y0101226D01*
X0243559Y0101600D02*
X0241181Y0101600D01*
X0241181Y0103243D01*
X0241270Y0103573D01*
X0241441Y0103870D01*
X0241683Y0104112D01*
X0241979Y0104283D01*
X0242310Y0104372D01*
X0243559Y0104372D01*
X0243559Y0101600D01*
X0243559Y0101824D02*
X0244159Y0101824D01*
X0244159Y0101226D02*
X0256746Y0101226D01*
X0258910Y0099430D02*
X0261110Y0099430D01*
X0261173Y0098233D02*
X0257713Y0098233D01*
X0258311Y0098832D02*
X0269670Y0098832D01*
X0269670Y0099430D02*
X0266490Y0099430D01*
X0266668Y0100029D02*
X0269670Y0100029D01*
X0269670Y0100627D02*
X0266668Y0100627D01*
X0266668Y0101226D02*
X0269670Y0101226D01*
X0269670Y0101824D02*
X0266668Y0101824D01*
X0266668Y0102423D02*
X0269670Y0102423D01*
X0269670Y0103021D02*
X0266668Y0103021D01*
X0266668Y0103620D02*
X0269670Y0103620D01*
X0269670Y0104218D02*
X0266668Y0104218D01*
X0266536Y0104817D02*
X0269670Y0104817D01*
X0269670Y0098233D02*
X0266427Y0098233D01*
X0266668Y0097634D02*
X0269670Y0097634D01*
X0269670Y0097036D02*
X0266668Y0097036D01*
X0266668Y0096437D02*
X0269670Y0096437D01*
X0269670Y0095839D02*
X0266668Y0095839D01*
X0266668Y0095240D02*
X0269670Y0095240D01*
X0269670Y0094642D02*
X0266668Y0094642D01*
X0266668Y0094043D02*
X0269670Y0094043D01*
X0269670Y0093445D02*
X0266668Y0093445D01*
X0266600Y0092846D02*
X0269670Y0092846D01*
X0269670Y0092248D02*
X0265200Y0092248D01*
X0265200Y0091649D02*
X0269670Y0091649D01*
X0269670Y0091051D02*
X0265200Y0091051D01*
X0265200Y0090452D02*
X0269670Y0090452D01*
X0269670Y0089854D02*
X0266627Y0089854D01*
X0267062Y0089255D02*
X0269670Y0089255D01*
X0269670Y0088657D02*
X0267062Y0088657D01*
X0267062Y0088058D02*
X0269670Y0088058D01*
X0269670Y0087460D02*
X0267062Y0087460D01*
X0267062Y0086861D02*
X0269670Y0086861D01*
X0269670Y0086263D02*
X0267062Y0086263D01*
X0267062Y0085664D02*
X0269670Y0085664D01*
X0269670Y0085066D02*
X0267062Y0085066D01*
X0267062Y0084467D02*
X0269670Y0084467D01*
X0269670Y0083869D02*
X0266982Y0083869D01*
X0260138Y0079679D02*
X0255899Y0079679D01*
X0255804Y0079081D02*
X0260138Y0079081D01*
X0263500Y0077285D02*
X0264100Y0077285D01*
X0264100Y0076687D02*
X0263500Y0076687D01*
X0263500Y0076088D02*
X0264100Y0076088D01*
X0264100Y0075490D02*
X0263500Y0075490D01*
X0263500Y0074891D02*
X0264100Y0074891D01*
X0260931Y0097036D02*
X0256516Y0097036D01*
X0257114Y0097634D02*
X0260931Y0097634D01*
X0244159Y0098233D02*
X0243559Y0098233D01*
X0243559Y0098832D02*
X0244159Y0098832D01*
X0244159Y0099430D02*
X0243559Y0099430D01*
X0243559Y0100029D02*
X0244159Y0100029D01*
X0244159Y0100627D02*
X0243559Y0100627D01*
X0243559Y0102423D02*
X0244159Y0102423D01*
X0244159Y0103021D02*
X0243559Y0103021D01*
X0243559Y0103620D02*
X0244159Y0103620D01*
X0244159Y0104218D02*
X0243559Y0104218D01*
X0241867Y0104218D02*
X0240141Y0104218D01*
X0240844Y0103620D02*
X0241296Y0103620D01*
X0241181Y0103021D02*
X0241019Y0103021D01*
X0241019Y0102423D02*
X0241181Y0102423D01*
X0241181Y0101824D02*
X0241019Y0101824D01*
X0241450Y0122772D02*
X0257168Y0122772D01*
X0256570Y0123370D02*
X0242359Y0123370D01*
X0243563Y0123969D02*
X0255971Y0123969D01*
X0255373Y0124568D02*
X0244161Y0124568D01*
X0244760Y0125166D02*
X0254774Y0125166D01*
X0254176Y0125765D02*
X0245179Y0125765D01*
X0245427Y0126363D02*
X0253750Y0126363D01*
X0253750Y0126962D02*
X0245675Y0126962D01*
X0245923Y0127560D02*
X0253750Y0127560D01*
X0253750Y0128159D02*
X0245950Y0128159D01*
X0259750Y0127560D02*
X0260350Y0127560D01*
X0260350Y0126962D02*
X0259750Y0126962D01*
X0259750Y0126363D02*
X0260350Y0126363D01*
X0260350Y0125765D02*
X0259750Y0125765D01*
X0259750Y0125166D02*
X0260350Y0125166D01*
X0260350Y0124568D02*
X0259750Y0124568D01*
X0259750Y0123969D02*
X0260350Y0123969D01*
X0260350Y0123370D02*
X0259750Y0123370D01*
X0259750Y0122772D02*
X0260350Y0122772D01*
X0260350Y0129356D02*
X0259750Y0129356D01*
X0259750Y0129954D02*
X0260350Y0129954D01*
X0260350Y0130553D02*
X0259750Y0130553D01*
X0259750Y0131151D02*
X0260350Y0131151D01*
X0260350Y0131750D02*
X0259750Y0131750D01*
X0259750Y0132348D02*
X0260350Y0132348D01*
X0260350Y0132947D02*
X0259750Y0132947D01*
X0259750Y0133545D02*
X0260350Y0133545D01*
X0260350Y0134144D02*
X0259750Y0134144D01*
X0259750Y0134742D02*
X0260350Y0134742D01*
X0263017Y0134742D02*
X0269670Y0134742D01*
X0269670Y0134144D02*
X0263616Y0134144D01*
X0264214Y0133545D02*
X0269670Y0133545D01*
X0269670Y0132947D02*
X0264813Y0132947D01*
X0265411Y0132348D02*
X0269670Y0132348D01*
X0269670Y0131750D02*
X0266010Y0131750D01*
X0266350Y0131151D02*
X0269670Y0131151D01*
X0269670Y0130553D02*
X0266350Y0130553D01*
X0266350Y0129954D02*
X0269670Y0129954D01*
X0269670Y0129356D02*
X0266350Y0129356D01*
X0214337Y0129954D02*
X0205378Y0129954D01*
X0205117Y0131151D02*
X0203276Y0131151D01*
X0203899Y0131750D02*
X0204249Y0131750D01*
X0202822Y0129954D02*
X0160343Y0129954D01*
X0160630Y0129356D02*
X0202223Y0129356D01*
X0202000Y0128757D02*
X0160630Y0128757D01*
X0160630Y0128159D02*
X0192216Y0128159D01*
X0191675Y0127560D02*
X0160630Y0127560D01*
X0160630Y0126962D02*
X0191675Y0126962D01*
X0191675Y0126363D02*
X0160630Y0126363D01*
X0160630Y0125765D02*
X0169610Y0125765D01*
X0169011Y0125166D02*
X0160630Y0125166D01*
X0160630Y0124568D02*
X0168413Y0124568D01*
X0167814Y0123969D02*
X0160630Y0123969D01*
X0160630Y0123370D02*
X0167216Y0123370D01*
X0166617Y0122772D02*
X0160630Y0122772D01*
X0160630Y0122173D02*
X0166019Y0122173D01*
X0165420Y0121575D02*
X0160630Y0121575D01*
X0160630Y0120976D02*
X0164822Y0120976D01*
X0164223Y0120378D02*
X0160630Y0120378D01*
X0160630Y0119779D02*
X0163625Y0119779D01*
X0163026Y0119181D02*
X0160630Y0119181D01*
X0160630Y0118582D02*
X0162428Y0118582D01*
X0161829Y0117984D02*
X0160630Y0117984D01*
X0160630Y0117385D02*
X0161230Y0117385D01*
X0160632Y0116787D02*
X0160630Y0116787D01*
X0165901Y0113196D02*
X0171463Y0113196D01*
X0171463Y0113794D02*
X0166499Y0113794D01*
X0167098Y0114393D02*
X0171463Y0114393D01*
X0171463Y0114991D02*
X0167696Y0114991D01*
X0168295Y0115590D02*
X0171463Y0115590D01*
X0171463Y0116188D02*
X0168893Y0116188D01*
X0169492Y0116787D02*
X0171463Y0116787D01*
X0171463Y0117385D02*
X0170090Y0117385D01*
X0170689Y0117984D02*
X0171463Y0117984D01*
X0171463Y0118582D02*
X0171287Y0118582D01*
X0174262Y0118582D02*
X0178200Y0118582D01*
X0178200Y0117984D02*
X0174262Y0117984D01*
X0174262Y0117385D02*
X0178200Y0117385D01*
X0178200Y0116787D02*
X0174262Y0116787D01*
X0174262Y0116188D02*
X0178669Y0116188D01*
X0179268Y0115590D02*
X0174262Y0115590D01*
X0174262Y0114991D02*
X0179866Y0114991D01*
X0179888Y0114393D02*
X0174262Y0114393D01*
X0174262Y0113794D02*
X0179888Y0113794D01*
X0179888Y0113196D02*
X0174262Y0113196D01*
X0176786Y0119181D02*
X0178200Y0119181D01*
X0181000Y0119181D02*
X0188162Y0119181D01*
X0188760Y0118582D02*
X0181000Y0118582D01*
X0181000Y0117984D02*
X0189359Y0117984D01*
X0189395Y0117385D02*
X0189957Y0117385D01*
X0189993Y0116787D02*
X0190556Y0116787D01*
X0190592Y0116188D02*
X0191154Y0116188D01*
X0190800Y0115590D02*
X0196612Y0115590D01*
X0196612Y0114991D02*
X0192612Y0114991D01*
X0192712Y0114393D02*
X0196612Y0114393D01*
X0196612Y0113794D02*
X0192712Y0113794D01*
X0192712Y0113196D02*
X0196612Y0113196D01*
X0196612Y0112597D02*
X0192712Y0112597D01*
X0192712Y0111999D02*
X0196612Y0111999D01*
X0196889Y0111400D02*
X0192712Y0111400D01*
X0192347Y0109006D02*
X0201474Y0109006D01*
X0200875Y0108408D02*
X0192712Y0108408D01*
X0192712Y0107809D02*
X0200775Y0107809D01*
X0200775Y0107211D02*
X0194869Y0107211D01*
X0195468Y0106612D02*
X0200775Y0106612D01*
X0201329Y0106014D02*
X0196066Y0106014D01*
X0196450Y0105415D02*
X0201475Y0105415D01*
X0201475Y0104817D02*
X0196450Y0104817D01*
X0196450Y0104218D02*
X0201475Y0104218D01*
X0201475Y0103620D02*
X0196450Y0103620D01*
X0196450Y0103021D02*
X0201475Y0103021D01*
X0201475Y0102423D02*
X0196450Y0102423D01*
X0196450Y0101824D02*
X0201475Y0101824D01*
X0201475Y0101226D02*
X0196450Y0101226D01*
X0196450Y0100627D02*
X0201475Y0100627D01*
X0201475Y0100029D02*
X0196450Y0100029D01*
X0186581Y0104817D02*
X0186019Y0104817D01*
X0186019Y0105415D02*
X0186581Y0105415D01*
X0186581Y0106014D02*
X0186019Y0106014D01*
X0186019Y0106612D02*
X0186581Y0106612D01*
X0186581Y0107211D02*
X0186019Y0107211D01*
X0186019Y0107809D02*
X0186581Y0107809D01*
X0186581Y0108408D02*
X0186019Y0108408D01*
X0185654Y0109006D02*
X0186946Y0109006D01*
X0186587Y0110203D02*
X0186013Y0110203D01*
X0186019Y0110802D02*
X0186581Y0110802D01*
X0186581Y0111400D02*
X0186019Y0111400D01*
X0186019Y0111999D02*
X0186581Y0111999D01*
X0186581Y0112597D02*
X0186019Y0112597D01*
X0186019Y0113196D02*
X0186581Y0113196D01*
X0186581Y0113794D02*
X0186019Y0113794D01*
X0186019Y0114393D02*
X0186581Y0114393D01*
X0187563Y0119779D02*
X0182283Y0119779D01*
X0182712Y0120378D02*
X0186965Y0120378D01*
X0189912Y0123370D02*
X0191675Y0123370D01*
X0191686Y0122772D02*
X0190510Y0122772D01*
X0191109Y0122173D02*
X0192284Y0122173D01*
X0191707Y0121575D02*
X0193556Y0121575D01*
X0193556Y0121875D02*
X0196175Y0121875D01*
X0196175Y0121875D01*
X0196175Y0119950D01*
X0196175Y0119950D01*
X0196175Y0121875D01*
X0196175Y0121875D01*
X0193556Y0121875D01*
X0193624Y0120976D02*
X0192306Y0120976D01*
X0192904Y0120378D02*
X0194034Y0120378D01*
X0196175Y0120378D02*
X0196175Y0120378D01*
X0196175Y0120976D02*
X0196175Y0120976D01*
X0196175Y0121575D02*
X0196175Y0121575D01*
X0191675Y0123969D02*
X0189313Y0123969D01*
X0188715Y0124568D02*
X0191675Y0124568D01*
X0191675Y0125166D02*
X0182437Y0125166D01*
X0176728Y0125765D02*
X0191675Y0125765D01*
X0195710Y0130553D02*
X0150546Y0130553D01*
X0150546Y0131151D02*
X0190117Y0131151D01*
X0189249Y0131750D02*
X0150546Y0131750D01*
X0150546Y0132348D02*
X0188762Y0132348D01*
X0188515Y0132947D02*
X0150546Y0132947D01*
X0150546Y0133545D02*
X0188400Y0133545D01*
X0188400Y0134144D02*
X0150546Y0134144D01*
X0150546Y0134742D02*
X0188551Y0134742D01*
X0188799Y0135341D02*
X0150546Y0135341D01*
X0150546Y0135939D02*
X0189338Y0135939D01*
X0189461Y0136538D02*
X0150546Y0136538D01*
X0150546Y0137136D02*
X0188863Y0137136D01*
X0188602Y0137735D02*
X0150546Y0137735D01*
X0150546Y0138333D02*
X0188400Y0138333D01*
X0188400Y0138932D02*
X0150285Y0138932D01*
X0142315Y0138932D02*
X0130200Y0138932D01*
X0130200Y0138333D02*
X0142054Y0138333D01*
X0142054Y0137735D02*
X0130200Y0137735D01*
X0130200Y0137136D02*
X0142054Y0137136D01*
X0142054Y0136538D02*
X0130200Y0136538D01*
X0130200Y0135939D02*
X0142054Y0135939D01*
X0142054Y0135341D02*
X0130200Y0135341D01*
X0130200Y0134742D02*
X0142054Y0134742D01*
X0142054Y0134144D02*
X0130200Y0134144D01*
X0130200Y0133545D02*
X0142054Y0133545D01*
X0142054Y0132947D02*
X0130200Y0132947D01*
X0130200Y0132348D02*
X0142054Y0132348D01*
X0142054Y0131750D02*
X0129980Y0131750D01*
X0129568Y0131151D02*
X0142054Y0131151D01*
X0142054Y0130553D02*
X0129568Y0130553D01*
X0129568Y0129954D02*
X0132257Y0129954D01*
X0131970Y0129356D02*
X0126600Y0129356D01*
X0126600Y0128757D02*
X0126000Y0128757D01*
X0126000Y0128159D02*
X0126600Y0128159D01*
X0126600Y0127560D02*
X0126000Y0127560D01*
X0126000Y0126962D02*
X0126600Y0126962D01*
X0126600Y0126363D02*
X0126000Y0126363D01*
X0126000Y0125765D02*
X0126600Y0125765D01*
X0128538Y0125765D02*
X0131970Y0125765D01*
X0131970Y0126363D02*
X0129380Y0126363D01*
X0129568Y0126962D02*
X0131970Y0126962D01*
X0131970Y0127560D02*
X0129568Y0127560D01*
X0129568Y0128159D02*
X0131970Y0128159D01*
X0131970Y0128757D02*
X0129568Y0128757D01*
X0123031Y0128159D02*
X0122638Y0128159D01*
X0123031Y0127560D02*
X0122040Y0127560D01*
X0121450Y0126962D02*
X0123031Y0126962D01*
X0123220Y0126363D02*
X0121450Y0126363D01*
X0121450Y0125765D02*
X0124062Y0125765D01*
X0123502Y0124568D02*
X0131970Y0124568D01*
X0131970Y0125166D02*
X0121450Y0125166D01*
X0121450Y0124568D02*
X0121598Y0124568D01*
X0124101Y0123969D02*
X0131970Y0123969D01*
X0131970Y0123370D02*
X0124650Y0123370D01*
X0124650Y0122772D02*
X0131970Y0122772D01*
X0131970Y0122173D02*
X0124650Y0122173D01*
X0124545Y0121575D02*
X0131970Y0121575D01*
X0131970Y0120976D02*
X0123946Y0120976D01*
X0124160Y0118112D02*
X0123830Y0118023D01*
X0123533Y0117852D01*
X0123291Y0117610D01*
X0123120Y0117314D01*
X0123031Y0116983D01*
X0123031Y0114946D01*
X0126000Y0114946D01*
X0126000Y0118112D01*
X0124160Y0118112D01*
X0123762Y0117984D02*
X0120002Y0117984D01*
X0119909Y0117385D02*
X0123162Y0117385D01*
X0123031Y0116787D02*
X0119508Y0116787D01*
X0120002Y0119181D02*
X0131970Y0119181D01*
X0131970Y0119779D02*
X0120002Y0119779D01*
X0119845Y0120378D02*
X0131970Y0120378D01*
X0131970Y0118582D02*
X0116128Y0118582D01*
X0116128Y0117984D02*
X0115567Y0117984D01*
X0115567Y0117385D02*
X0116128Y0117385D01*
X0116128Y0116787D02*
X0115567Y0116787D01*
X0114156Y0115590D02*
X0123031Y0115590D01*
X0123031Y0116188D02*
X0113558Y0116188D01*
X0114755Y0114991D02*
X0123031Y0114991D01*
X0123031Y0113794D02*
X0116309Y0113794D01*
X0116462Y0113196D02*
X0123031Y0113196D01*
X0123031Y0112597D02*
X0116462Y0112597D01*
X0116462Y0111999D02*
X0123115Y0111999D01*
X0123604Y0111400D02*
X0116462Y0111400D01*
X0116462Y0110802D02*
X0123742Y0110802D01*
X0123431Y0110203D02*
X0116462Y0110203D01*
X0116462Y0109605D02*
X0123431Y0109605D01*
X0123431Y0109006D02*
X0116462Y0109006D01*
X0116064Y0108230D02*
X0115733Y0108318D01*
X0113696Y0108318D01*
X0113696Y0105350D01*
X0113096Y0105350D01*
X0113096Y0104750D01*
X0109931Y0104750D01*
X0109931Y0102910D01*
X0110020Y0102580D01*
X0110191Y0102283D01*
X0110433Y0102041D01*
X0110729Y0101870D01*
X0111060Y0101781D01*
X0113096Y0101781D01*
X0113096Y0104750D01*
X0113696Y0104750D01*
X0113696Y0101781D01*
X0115733Y0101781D01*
X0116064Y0101870D01*
X0116360Y0102041D01*
X0116602Y0102283D01*
X0116773Y0102580D01*
X0116862Y0102910D01*
X0116862Y0104750D01*
X0113696Y0104750D01*
X0113696Y0105350D01*
X0116862Y0105350D01*
X0116862Y0107190D01*
X0116773Y0107520D01*
X0116602Y0107817D01*
X0116360Y0108059D01*
X0116064Y0108230D01*
X0116606Y0107809D02*
X0123431Y0107809D01*
X0123431Y0107211D02*
X0116856Y0107211D01*
X0116862Y0106612D02*
X0123431Y0106612D01*
X0123431Y0106014D02*
X0116862Y0106014D01*
X0116862Y0105415D02*
X0123432Y0105415D01*
X0123687Y0104817D02*
X0113696Y0104817D01*
X0113696Y0105415D02*
X0113096Y0105415D01*
X0113096Y0105350D02*
X0113096Y0108318D01*
X0111060Y0108318D01*
X0110729Y0108230D01*
X0110433Y0108059D01*
X0110191Y0107817D01*
X0110020Y0107520D01*
X0109931Y0107190D01*
X0109931Y0105350D01*
X0113096Y0105350D01*
X0113096Y0104817D02*
X0109769Y0104817D01*
X0109769Y0105415D02*
X0109931Y0105415D01*
X0109931Y0106014D02*
X0109769Y0106014D01*
X0109769Y0106612D02*
X0109931Y0106612D01*
X0109937Y0107211D02*
X0109769Y0107211D01*
X0109351Y0107809D02*
X0110187Y0107809D01*
X0110331Y0109006D02*
X0109769Y0109006D01*
X0109769Y0109605D02*
X0110331Y0109605D01*
X0110331Y0110203D02*
X0109769Y0110203D01*
X0109769Y0110802D02*
X0110331Y0110802D01*
X0110331Y0111400D02*
X0109769Y0111400D01*
X0109769Y0111999D02*
X0110331Y0111999D01*
X0110331Y0112597D02*
X0109769Y0112597D01*
X0109769Y0113196D02*
X0110331Y0113196D01*
X0110484Y0113794D02*
X0109616Y0113794D01*
X0110512Y0114991D02*
X0108104Y0114991D01*
X0108104Y0114393D02*
X0111111Y0114393D01*
X0109914Y0115590D02*
X0108104Y0115590D01*
X0108104Y0116188D02*
X0109500Y0116188D01*
X0114896Y0114393D02*
X0126000Y0114393D01*
X0126000Y0114991D02*
X0126600Y0114991D01*
X0126600Y0114393D02*
X0138025Y0114393D01*
X0137427Y0113794D02*
X0129568Y0113794D01*
X0129568Y0113196D02*
X0136828Y0113196D01*
X0136230Y0112597D02*
X0129568Y0112597D01*
X0129485Y0111999D02*
X0135631Y0111999D01*
X0135033Y0111400D02*
X0128996Y0111400D01*
X0129568Y0114991D02*
X0138624Y0114991D01*
X0139222Y0115590D02*
X0129568Y0115590D01*
X0129568Y0116188D02*
X0132199Y0116188D01*
X0131970Y0116787D02*
X0129568Y0116787D01*
X0129438Y0117385D02*
X0131970Y0117385D01*
X0131970Y0117984D02*
X0128838Y0117984D01*
X0126600Y0117984D02*
X0126000Y0117984D01*
X0126000Y0117385D02*
X0126600Y0117385D01*
X0126600Y0116787D02*
X0126000Y0116787D01*
X0126000Y0116188D02*
X0126600Y0116188D01*
X0126600Y0115590D02*
X0126000Y0115590D01*
X0123431Y0108408D02*
X0102200Y0108408D01*
X0102200Y0109006D02*
X0103638Y0109006D01*
X0103638Y0109605D02*
X0102723Y0109605D01*
X0103180Y0110062D02*
X0103180Y0110062D01*
X0103322Y0110203D02*
X0103638Y0110203D01*
X0104056Y0107809D02*
X0102200Y0107809D01*
X0102200Y0107211D02*
X0103638Y0107211D01*
X0103638Y0106612D02*
X0102200Y0106612D01*
X0099452Y0104218D02*
X0094250Y0104218D01*
X0094250Y0103620D02*
X0103638Y0103620D01*
X0103638Y0103021D02*
X0094250Y0103021D01*
X0094250Y0102423D02*
X0103924Y0102423D01*
X0103722Y0101226D02*
X0094250Y0101226D01*
X0094250Y0101824D02*
X0105004Y0101824D01*
X0103638Y0100627D02*
X0094377Y0100627D01*
X0094976Y0100029D02*
X0103638Y0100029D01*
X0103638Y0099430D02*
X0095574Y0099430D01*
X0096173Y0098832D02*
X0103638Y0098832D01*
X0103638Y0098233D02*
X0096771Y0098233D01*
X0097370Y0097634D02*
X0103638Y0097634D01*
X0103638Y0097036D02*
X0097968Y0097036D01*
X0098567Y0096437D02*
X0103659Y0096437D01*
X0103987Y0095240D02*
X0099764Y0095240D01*
X0099165Y0095839D02*
X0112122Y0095839D01*
X0110680Y0095240D02*
X0109420Y0095240D01*
X0109769Y0094642D02*
X0110331Y0094642D01*
X0110331Y0094043D02*
X0109769Y0094043D01*
X0109769Y0093445D02*
X0110331Y0093445D01*
X0110331Y0092846D02*
X0109769Y0092846D01*
X0109769Y0092248D02*
X0110331Y0092248D01*
X0110331Y0091649D02*
X0109769Y0091649D01*
X0109769Y0091051D02*
X0110331Y0091051D01*
X0110331Y0090452D02*
X0109769Y0090452D01*
X0109414Y0089854D02*
X0110686Y0089854D01*
X0110729Y0089480D02*
X0110433Y0089309D01*
X0110191Y0089067D01*
X0110020Y0088770D01*
X0109931Y0088440D01*
X0109931Y0086600D01*
X0113096Y0086600D01*
X0113096Y0089568D01*
X0111060Y0089568D01*
X0110729Y0089480D01*
X0110379Y0089255D02*
X0108404Y0089255D01*
X0109753Y0088657D02*
X0109989Y0088657D01*
X0109931Y0088058D02*
X0109769Y0088058D01*
X0109769Y0087460D02*
X0109931Y0087460D01*
X0109931Y0086861D02*
X0109769Y0086861D01*
X0109769Y0086263D02*
X0113096Y0086263D01*
X0113096Y0086861D02*
X0113696Y0086861D01*
X0113696Y0086600D02*
X0113696Y0089568D01*
X0115733Y0089568D01*
X0116064Y0089480D01*
X0116360Y0089309D01*
X0116602Y0089067D01*
X0116773Y0088770D01*
X0116862Y0088440D01*
X0116862Y0086600D01*
X0113696Y0086600D01*
X0113696Y0086263D02*
X0120153Y0086263D01*
X0120754Y0086263D02*
X0124081Y0086263D01*
X0123919Y0086000D02*
X0120754Y0086000D01*
X0120754Y0086600D01*
X0123919Y0086600D01*
X0123919Y0088440D01*
X0123830Y0088770D01*
X0123659Y0089067D01*
X0123417Y0089309D01*
X0123121Y0089480D01*
X0122790Y0089568D01*
X0122287Y0089568D01*
X0122287Y0089681D01*
X0122992Y0089681D01*
X0123519Y0090209D01*
X0123519Y0094331D01*
X0124081Y0094331D01*
X0124081Y0090209D01*
X0124608Y0089681D01*
X0125646Y0089681D01*
X0125646Y0089168D01*
X0124608Y0089168D01*
X0124081Y0088641D01*
X0124081Y0083959D01*
X0124608Y0083431D01*
X0129685Y0083431D01*
X0130212Y0083959D01*
X0130212Y0084900D01*
X0130950Y0084900D01*
X0130950Y0083293D01*
X0131130Y0083112D01*
X0123092Y0083112D01*
X0123121Y0083120D01*
X0123417Y0083291D01*
X0123659Y0083533D01*
X0123830Y0083830D01*
X0123919Y0084160D01*
X0123919Y0086000D01*
X0123919Y0085664D02*
X0124081Y0085664D01*
X0124081Y0085066D02*
X0123919Y0085066D01*
X0123919Y0084467D02*
X0124081Y0084467D01*
X0124171Y0083869D02*
X0123841Y0083869D01*
X0123381Y0083270D02*
X0130972Y0083270D01*
X0130950Y0083869D02*
X0130122Y0083869D01*
X0130212Y0084467D02*
X0130950Y0084467D01*
X0130212Y0088058D02*
X0157424Y0088058D01*
X0156826Y0087460D02*
X0134985Y0087460D01*
X0135584Y0086861D02*
X0156227Y0086861D01*
X0158023Y0088657D02*
X0130196Y0088657D01*
X0129857Y0089854D02*
X0158081Y0089854D01*
X0158081Y0090452D02*
X0130212Y0090452D01*
X0130212Y0091051D02*
X0158437Y0091051D01*
X0159035Y0091649D02*
X0130212Y0091649D01*
X0130212Y0092248D02*
X0163877Y0092248D01*
X0164475Y0092846D02*
X0130212Y0092846D01*
X0130212Y0093445D02*
X0165074Y0093445D01*
X0165600Y0094043D02*
X0130212Y0094043D01*
X0131422Y0094642D02*
X0165586Y0094642D01*
X0163278Y0091649D02*
X0161326Y0091649D01*
X0161925Y0091051D02*
X0162680Y0091051D01*
X0158081Y0089255D02*
X0128646Y0089255D01*
X0125646Y0089255D02*
X0123471Y0089255D01*
X0123164Y0089854D02*
X0124436Y0089854D01*
X0124081Y0090452D02*
X0123519Y0090452D01*
X0123519Y0091051D02*
X0124081Y0091051D01*
X0124081Y0091649D02*
X0123519Y0091649D01*
X0123519Y0092248D02*
X0124081Y0092248D01*
X0124081Y0092846D02*
X0123519Y0092846D01*
X0123519Y0093445D02*
X0124081Y0093445D01*
X0124081Y0094043D02*
X0123519Y0094043D01*
X0123861Y0088657D02*
X0124097Y0088657D01*
X0124081Y0088058D02*
X0123919Y0088058D01*
X0123919Y0087460D02*
X0124081Y0087460D01*
X0124081Y0086861D02*
X0123919Y0086861D01*
X0117743Y0089854D02*
X0116107Y0089854D01*
X0116413Y0089255D02*
X0117437Y0089255D01*
X0117046Y0088657D02*
X0116804Y0088657D01*
X0116862Y0088058D02*
X0116988Y0088058D01*
X0116988Y0087460D02*
X0116862Y0087460D01*
X0116862Y0086861D02*
X0116988Y0086861D01*
X0116988Y0085664D02*
X0116862Y0085664D01*
X0116862Y0085066D02*
X0116988Y0085066D01*
X0116988Y0084467D02*
X0116862Y0084467D01*
X0116784Y0083869D02*
X0117066Y0083869D01*
X0117526Y0083270D02*
X0116324Y0083270D01*
X0113696Y0087460D02*
X0113096Y0087460D01*
X0113096Y0088058D02*
X0113696Y0088058D01*
X0113696Y0088657D02*
X0113096Y0088657D01*
X0113096Y0089255D02*
X0113696Y0089255D01*
X0116462Y0090452D02*
X0117388Y0090452D01*
X0117388Y0091051D02*
X0116462Y0091051D01*
X0116462Y0091649D02*
X0117388Y0091649D01*
X0117388Y0092248D02*
X0116462Y0092248D01*
X0116462Y0092846D02*
X0117388Y0092846D01*
X0117388Y0093445D02*
X0116462Y0093445D01*
X0116462Y0094043D02*
X0117388Y0094043D01*
X0110352Y0096437D02*
X0109748Y0096437D01*
X0109769Y0097036D02*
X0110331Y0097036D01*
X0110331Y0097634D02*
X0109769Y0097634D01*
X0109769Y0098233D02*
X0110331Y0098233D01*
X0110331Y0098832D02*
X0109769Y0098832D01*
X0109769Y0099430D02*
X0110331Y0099430D01*
X0110331Y0100029D02*
X0109769Y0100029D01*
X0109769Y0100627D02*
X0110331Y0100627D01*
X0110415Y0101226D02*
X0109685Y0101226D01*
X0109483Y0102423D02*
X0110110Y0102423D01*
X0109931Y0103021D02*
X0109769Y0103021D01*
X0109769Y0103620D02*
X0109931Y0103620D01*
X0109931Y0104218D02*
X0109769Y0104218D01*
X0110901Y0101824D02*
X0108404Y0101824D01*
X0113096Y0101824D02*
X0113696Y0101824D01*
X0113696Y0102423D02*
X0113096Y0102423D01*
X0113096Y0103021D02*
X0113696Y0103021D01*
X0113696Y0103620D02*
X0113096Y0103620D01*
X0113096Y0104218D02*
X0113696Y0104218D01*
X0113696Y0106014D02*
X0113096Y0106014D01*
X0113096Y0106612D02*
X0113696Y0106612D01*
X0113696Y0107211D02*
X0113096Y0107211D01*
X0113096Y0107809D02*
X0113696Y0107809D01*
X0116862Y0104218D02*
X0123687Y0104218D01*
X0123687Y0103620D02*
X0116862Y0103620D01*
X0116862Y0103021D02*
X0123849Y0103021D01*
X0124448Y0102423D02*
X0116682Y0102423D01*
X0117117Y0101824D02*
X0115892Y0101824D01*
X0116378Y0101226D02*
X0116518Y0101226D01*
X0103638Y0094642D02*
X0101040Y0094642D01*
X0096007Y0091051D02*
X0093233Y0091051D01*
X0093318Y0090452D02*
X0096605Y0090452D01*
X0097204Y0089854D02*
X0093318Y0089854D01*
X0093318Y0089255D02*
X0097802Y0089255D01*
X0097824Y0088657D02*
X0090350Y0088657D01*
X0090350Y0089255D02*
X0089750Y0089255D01*
X0089750Y0089854D02*
X0090350Y0089854D01*
X0090350Y0090452D02*
X0089750Y0090452D01*
X0089750Y0091051D02*
X0090350Y0091051D01*
X0090350Y0091649D02*
X0089750Y0091649D01*
X0092735Y0091649D02*
X0095408Y0091649D01*
X0097262Y0088058D02*
X0093318Y0088058D01*
X0093318Y0087460D02*
X0097262Y0087460D01*
X0097262Y0086861D02*
X0093318Y0086861D01*
X0093318Y0086263D02*
X0097355Y0086263D01*
X0097953Y0085664D02*
X0093192Y0085664D01*
X0092600Y0085066D02*
X0099425Y0085066D01*
X0099425Y0084467D02*
X0092693Y0084467D01*
X0092918Y0083869D02*
X0099425Y0083869D01*
X0099425Y0083270D02*
X0092918Y0083270D01*
X0092918Y0082672D02*
X0099425Y0082672D01*
X0099659Y0082073D02*
X0092918Y0082073D01*
X0092918Y0081475D02*
X0100258Y0081475D01*
X0100856Y0080876D02*
X0092918Y0080876D01*
X0092918Y0080278D02*
X0101455Y0080278D01*
X0102053Y0079679D02*
X0092918Y0079679D01*
X0092834Y0079081D02*
X0102652Y0079081D01*
X0104685Y0083270D02*
X0110469Y0083270D01*
X0110009Y0083869D02*
X0109679Y0083869D01*
X0109769Y0084467D02*
X0109931Y0084467D01*
X0109931Y0085066D02*
X0109769Y0085066D01*
X0109769Y0085664D02*
X0109931Y0085664D01*
X0090350Y0085664D02*
X0089750Y0085664D01*
X0089750Y0085066D02*
X0090350Y0085066D01*
X0079523Y0083869D02*
X0075577Y0083869D01*
X0075960Y0083270D02*
X0079140Y0083270D01*
X0079140Y0082672D02*
X0075960Y0082672D01*
X0075960Y0082073D02*
X0079140Y0082073D01*
X0079140Y0081475D02*
X0075960Y0081475D01*
X0075960Y0080876D02*
X0079140Y0080876D01*
X0079140Y0080278D02*
X0075960Y0080278D01*
X0075960Y0079679D02*
X0079140Y0079679D01*
X0079140Y0079081D02*
X0075960Y0079081D01*
X0075702Y0078482D02*
X0079398Y0078482D01*
X0071918Y0078482D02*
X0036650Y0078482D01*
X0036650Y0079081D02*
X0071660Y0079081D01*
X0071660Y0079679D02*
X0036650Y0079679D01*
X0036650Y0080278D02*
X0071660Y0080278D01*
X0071660Y0080876D02*
X0036650Y0080876D01*
X0036650Y0081475D02*
X0071660Y0081475D01*
X0071660Y0082073D02*
X0036650Y0082073D01*
X0036650Y0082672D02*
X0071660Y0082672D01*
X0071660Y0083270D02*
X0036650Y0083270D01*
X0036650Y0083869D02*
X0072043Y0083869D01*
X0072410Y0084467D02*
X0036650Y0084467D01*
X0036650Y0085066D02*
X0072410Y0085066D01*
X0072410Y0085664D02*
X0036650Y0085664D01*
X0036650Y0086263D02*
X0072410Y0086263D01*
X0072410Y0086861D02*
X0036650Y0086861D01*
X0036650Y0087460D02*
X0072410Y0087460D01*
X0072410Y0088058D02*
X0036650Y0088058D01*
X0036650Y0088657D02*
X0072410Y0088657D01*
X0072410Y0089255D02*
X0036650Y0089255D01*
X0036650Y0089854D02*
X0072410Y0089854D01*
X0072410Y0090452D02*
X0036650Y0090452D01*
X0036650Y0091051D02*
X0072410Y0091051D01*
X0072410Y0091649D02*
X0036650Y0091649D01*
X0036650Y0092248D02*
X0072410Y0092248D01*
X0072410Y0092846D02*
X0036650Y0092846D01*
X0036650Y0093445D02*
X0072410Y0093445D01*
X0072410Y0094043D02*
X0036650Y0094043D01*
X0036650Y0094642D02*
X0072410Y0094642D01*
X0072410Y0095240D02*
X0036650Y0095240D01*
X0036650Y0095839D02*
X0041986Y0095839D01*
X0042078Y0095792D02*
X0042892Y0095527D01*
X0043737Y0095394D01*
X0047998Y0095394D01*
X0047998Y0100527D01*
X0048598Y0100527D01*
X0048598Y0095394D01*
X0052860Y0095394D01*
X0053704Y0095527D01*
X0054518Y0095792D01*
X0055280Y0096180D01*
X0055972Y0096683D01*
X0056577Y0097288D01*
X0057079Y0097980D01*
X0057468Y0098742D01*
X0057732Y0099555D01*
X0057866Y0100400D01*
X0057866Y0100528D01*
X0048598Y0100528D01*
X0048598Y0101128D01*
X0047998Y0101128D01*
X0047998Y0106261D01*
X0043737Y0106261D01*
X0042892Y0106128D01*
X0042078Y0105863D01*
X0041316Y0105475D01*
X0040624Y0104972D01*
X0040019Y0104367D01*
X0039517Y0103676D01*
X0039128Y0102913D01*
X0038864Y0102100D01*
X0038730Y0101255D01*
X0038730Y0101128D01*
X0047998Y0101128D01*
X0047998Y0100528D01*
X0038730Y0100528D01*
X0038730Y0100400D01*
X0038864Y0099555D01*
X0039128Y0098742D01*
X0039517Y0097980D01*
X0040019Y0097288D01*
X0040624Y0096683D01*
X0041316Y0096180D01*
X0042078Y0095792D01*
X0040962Y0096437D02*
X0036650Y0096437D01*
X0036650Y0097036D02*
X0040271Y0097036D01*
X0039767Y0097634D02*
X0036650Y0097634D01*
X0036650Y0098233D02*
X0039388Y0098233D01*
X0039099Y0098832D02*
X0036650Y0098832D01*
X0036650Y0099430D02*
X0038905Y0099430D01*
X0038789Y0100029D02*
X0036650Y0100029D01*
X0036650Y0100627D02*
X0047998Y0100627D01*
X0047998Y0100029D02*
X0048598Y0100029D01*
X0048598Y0100627D02*
X0072410Y0100627D01*
X0072410Y0100029D02*
X0057807Y0100029D01*
X0057691Y0099430D02*
X0072410Y0099430D01*
X0072410Y0098832D02*
X0057497Y0098832D01*
X0057208Y0098233D02*
X0072410Y0098233D01*
X0072410Y0097634D02*
X0056829Y0097634D01*
X0056325Y0097036D02*
X0072410Y0097036D01*
X0072410Y0096437D02*
X0055634Y0096437D01*
X0054610Y0095839D02*
X0072410Y0095839D01*
X0072410Y0101226D02*
X0057866Y0101226D01*
X0057866Y0101255D02*
X0057732Y0102100D01*
X0057468Y0102913D01*
X0057079Y0103676D01*
X0056577Y0104367D01*
X0055972Y0104972D01*
X0055280Y0105475D01*
X0054518Y0105863D01*
X0053704Y0106128D01*
X0052860Y0106261D01*
X0048598Y0106261D01*
X0048598Y0101128D01*
X0057866Y0101128D01*
X0057866Y0101255D01*
X0057776Y0101824D02*
X0072410Y0101824D01*
X0072410Y0102423D02*
X0057627Y0102423D01*
X0057413Y0103021D02*
X0072410Y0103021D01*
X0072410Y0103620D02*
X0057108Y0103620D01*
X0056685Y0104218D02*
X0072410Y0104218D01*
X0072410Y0104817D02*
X0056127Y0104817D01*
X0055362Y0105415D02*
X0072410Y0105415D01*
X0072410Y0106014D02*
X0054055Y0106014D01*
X0048598Y0106014D02*
X0047998Y0106014D01*
X0047998Y0105415D02*
X0048598Y0105415D01*
X0048598Y0104817D02*
X0047998Y0104817D01*
X0047998Y0104218D02*
X0048598Y0104218D01*
X0048598Y0103620D02*
X0047998Y0103620D01*
X0047998Y0103021D02*
X0048598Y0103021D01*
X0048598Y0102423D02*
X0047998Y0102423D01*
X0047998Y0101824D02*
X0048598Y0101824D01*
X0048598Y0101226D02*
X0047998Y0101226D01*
X0047998Y0099430D02*
X0048598Y0099430D01*
X0048598Y0098832D02*
X0047998Y0098832D01*
X0047998Y0098233D02*
X0048598Y0098233D01*
X0048598Y0097634D02*
X0047998Y0097634D01*
X0047998Y0097036D02*
X0048598Y0097036D01*
X0048598Y0096437D02*
X0047998Y0096437D01*
X0047998Y0095839D02*
X0048598Y0095839D01*
X0038730Y0101226D02*
X0036650Y0101226D01*
X0036650Y0101824D02*
X0038820Y0101824D01*
X0038969Y0102423D02*
X0036650Y0102423D01*
X0036650Y0103021D02*
X0039183Y0103021D01*
X0039488Y0103620D02*
X0036650Y0103620D01*
X0036650Y0104218D02*
X0039911Y0104218D01*
X0040469Y0104817D02*
X0036650Y0104817D01*
X0036650Y0105415D02*
X0041234Y0105415D01*
X0042541Y0106014D02*
X0036650Y0106014D01*
X0036650Y0106612D02*
X0072410Y0106612D01*
X0072410Y0107211D02*
X0036650Y0107211D01*
X0036650Y0107809D02*
X0072410Y0107809D01*
X0072410Y0108408D02*
X0036650Y0108408D01*
X0036650Y0109006D02*
X0072410Y0109006D01*
X0072410Y0109605D02*
X0036650Y0109605D01*
X0036650Y0110203D02*
X0072410Y0110203D01*
X0072410Y0110802D02*
X0036650Y0110802D01*
X0036650Y0111400D02*
X0072410Y0111400D01*
X0072410Y0111999D02*
X0036650Y0111999D01*
X0036650Y0112597D02*
X0072410Y0112597D01*
X0072410Y0113196D02*
X0036650Y0113196D01*
X0036650Y0113794D02*
X0072410Y0113794D01*
X0072410Y0114393D02*
X0036650Y0114393D01*
X0036650Y0114991D02*
X0072410Y0114991D01*
X0072410Y0115590D02*
X0053701Y0115590D01*
X0055146Y0116188D02*
X0072410Y0116188D01*
X0072410Y0116787D02*
X0055825Y0116787D01*
X0056424Y0117385D02*
X0072410Y0117385D01*
X0072410Y0117984D02*
X0056833Y0117984D01*
X0057081Y0118582D02*
X0072410Y0118582D01*
X0072003Y0119181D02*
X0071857Y0119181D01*
X0075597Y0119181D02*
X0075743Y0119181D01*
X0087528Y0128159D02*
X0090075Y0128159D01*
X0090526Y0128757D02*
X0088127Y0128757D01*
X0088725Y0129356D02*
X0095204Y0129356D01*
X0095522Y0128757D02*
X0094574Y0128757D01*
X0093893Y0129954D02*
X0089324Y0129954D01*
X0089922Y0130553D02*
X0093638Y0130553D01*
X0093638Y0131151D02*
X0090521Y0131151D01*
X0091119Y0131750D02*
X0093638Y0131750D01*
X0093638Y0132348D02*
X0091718Y0132348D01*
X0092316Y0132947D02*
X0093638Y0132947D01*
X0093638Y0133545D02*
X0092915Y0133545D01*
X0093514Y0134144D02*
X0093638Y0134144D01*
X0091763Y0138333D02*
X0065421Y0138333D01*
X0066019Y0137735D02*
X0073399Y0137735D01*
X0072900Y0137136D02*
X0066618Y0137136D01*
X0064822Y0138932D02*
X0092362Y0138932D01*
X0092960Y0139530D02*
X0073070Y0139530D01*
X0068760Y0144318D02*
X0055212Y0144318D01*
X0055186Y0144917D02*
X0068762Y0144917D01*
X0069008Y0145515D02*
X0036650Y0145515D01*
X0036650Y0144917D02*
X0042414Y0144917D01*
X0042388Y0144318D02*
X0036650Y0144318D01*
X0036650Y0143720D02*
X0042388Y0143720D01*
X0042388Y0143121D02*
X0036650Y0143121D01*
X0036650Y0142523D02*
X0042388Y0142523D01*
X0042388Y0141924D02*
X0036650Y0141924D01*
X0036650Y0141326D02*
X0042388Y0141326D01*
X0042388Y0140727D02*
X0036650Y0140727D01*
X0036650Y0140129D02*
X0042468Y0140129D01*
X0042679Y0138932D02*
X0036650Y0138932D01*
X0036650Y0139530D02*
X0044840Y0139530D01*
X0042388Y0138333D02*
X0036650Y0138333D01*
X0036650Y0137735D02*
X0042388Y0137735D01*
X0042388Y0137136D02*
X0036650Y0137136D01*
X0036650Y0136538D02*
X0042388Y0136538D01*
X0042388Y0135939D02*
X0036650Y0135939D01*
X0036650Y0135341D02*
X0042388Y0135341D01*
X0042388Y0134742D02*
X0036650Y0134742D01*
X0036650Y0134144D02*
X0042388Y0134144D01*
X0042802Y0133545D02*
X0036650Y0133545D01*
X0036650Y0132947D02*
X0044054Y0132947D01*
X0044054Y0132348D02*
X0036650Y0132348D01*
X0036650Y0131750D02*
X0044054Y0131750D01*
X0044469Y0131151D02*
X0036650Y0131151D01*
X0036650Y0130553D02*
X0045067Y0130553D01*
X0045666Y0129954D02*
X0036650Y0129954D01*
X0036650Y0129356D02*
X0046264Y0129356D01*
X0046863Y0128757D02*
X0036650Y0128757D01*
X0036650Y0128159D02*
X0046898Y0128159D01*
X0046898Y0127560D02*
X0036650Y0127560D01*
X0036650Y0126962D02*
X0046898Y0126962D01*
X0046898Y0126363D02*
X0036650Y0126363D01*
X0036650Y0125765D02*
X0046898Y0125765D01*
X0042244Y0125166D02*
X0036650Y0125166D01*
X0036650Y0124568D02*
X0041100Y0124568D01*
X0040502Y0123969D02*
X0036650Y0123969D01*
X0036650Y0123370D02*
X0039903Y0123370D01*
X0039651Y0122772D02*
X0036650Y0122772D01*
X0036650Y0122173D02*
X0039404Y0122173D01*
X0039156Y0121575D02*
X0036650Y0121575D01*
X0036650Y0120976D02*
X0039130Y0120976D01*
X0039130Y0120378D02*
X0036650Y0120378D01*
X0036650Y0119779D02*
X0039130Y0119779D01*
X0039267Y0119181D02*
X0036650Y0119181D01*
X0036650Y0118582D02*
X0039515Y0118582D01*
X0039763Y0117984D02*
X0036650Y0117984D01*
X0036650Y0117385D02*
X0040172Y0117385D01*
X0040771Y0116787D02*
X0036650Y0116787D01*
X0036650Y0116188D02*
X0041450Y0116188D01*
X0042895Y0115590D02*
X0036650Y0115590D01*
X0048978Y0140727D02*
X0049081Y0140727D01*
X0049081Y0141326D02*
X0048519Y0141326D01*
X0048519Y0141924D02*
X0049081Y0141924D01*
X0049081Y0142523D02*
X0048519Y0142523D01*
X0048519Y0143121D02*
X0049081Y0143121D01*
X0049081Y0143720D02*
X0048519Y0143720D01*
X0048519Y0144318D02*
X0049081Y0144318D01*
X0049107Y0144917D02*
X0048493Y0144917D01*
X0080705Y0140129D02*
X0120649Y0140129D01*
X0120050Y0139530D02*
X0113115Y0139530D01*
X0113713Y0138932D02*
X0119452Y0138932D01*
X0118853Y0138333D02*
X0114312Y0138333D01*
X0114910Y0137735D02*
X0118255Y0137735D01*
X0117656Y0137136D02*
X0115509Y0137136D01*
X0116107Y0136538D02*
X0117058Y0136538D01*
X0113613Y0133093D02*
X0113220Y0132700D01*
X0111150Y0130630D01*
X0111150Y0124470D01*
X0111570Y0124050D01*
X0111404Y0124050D01*
X0110507Y0123153D01*
X0110507Y0123914D01*
X0110001Y0124420D01*
X0110507Y0124926D01*
X0110507Y0127654D01*
X0109810Y0128352D01*
X0107095Y0128352D01*
X0106994Y0128453D01*
X0099879Y0128453D01*
X0099498Y0128834D01*
X0099025Y0128834D01*
X0099025Y0129496D01*
X0098840Y0129681D01*
X0099242Y0129681D01*
X0099769Y0130209D01*
X0099769Y0134891D01*
X0099310Y0135350D01*
X0100224Y0135350D01*
X0100191Y0135317D01*
X0100020Y0135020D01*
X0099931Y0134690D01*
X0099931Y0132850D01*
X0103096Y0132850D01*
X0103096Y0132250D01*
X0099931Y0132250D01*
X0099931Y0130410D01*
X0100020Y0130080D01*
X0100191Y0129783D01*
X0100433Y0129541D01*
X0100729Y0129370D01*
X0101060Y0129281D01*
X0103096Y0129281D01*
X0103096Y0132250D01*
X0103696Y0132250D01*
X0103696Y0129281D01*
X0105733Y0129281D01*
X0106064Y0129370D01*
X0106360Y0129541D01*
X0106602Y0129783D01*
X0106773Y0130080D01*
X0106862Y0130410D01*
X0106862Y0132250D01*
X0103696Y0132250D01*
X0103696Y0132850D01*
X0106862Y0132850D01*
X0106862Y0134690D01*
X0106773Y0135020D01*
X0106602Y0135317D01*
X0106569Y0135350D01*
X0111355Y0135350D01*
X0113613Y0133093D01*
X0113467Y0132947D02*
X0106862Y0132947D01*
X0106862Y0133545D02*
X0113160Y0133545D01*
X0112561Y0134144D02*
X0106862Y0134144D01*
X0106848Y0134742D02*
X0111963Y0134742D01*
X0111364Y0135341D02*
X0106578Y0135341D01*
X0106862Y0131750D02*
X0112270Y0131750D01*
X0112868Y0132348D02*
X0103696Y0132348D01*
X0103696Y0131750D02*
X0103096Y0131750D01*
X0103096Y0132348D02*
X0099769Y0132348D01*
X0099769Y0131750D02*
X0099931Y0131750D01*
X0099931Y0131151D02*
X0099769Y0131151D01*
X0099769Y0130553D02*
X0099931Y0130553D01*
X0100092Y0129954D02*
X0099514Y0129954D01*
X0099025Y0129356D02*
X0100783Y0129356D01*
X0099574Y0128757D02*
X0111150Y0128757D01*
X0111150Y0128159D02*
X0110003Y0128159D01*
X0110507Y0127560D02*
X0111150Y0127560D01*
X0111150Y0126962D02*
X0110507Y0126962D01*
X0110507Y0126363D02*
X0111150Y0126363D01*
X0111150Y0125765D02*
X0110507Y0125765D01*
X0110507Y0125166D02*
X0111150Y0125166D01*
X0111150Y0124568D02*
X0110149Y0124568D01*
X0110452Y0123969D02*
X0111323Y0123969D01*
X0110724Y0123370D02*
X0110507Y0123370D01*
X0103357Y0124568D02*
X0097687Y0124568D01*
X0098286Y0123969D02*
X0103053Y0123969D01*
X0102641Y0123370D02*
X0098884Y0123370D01*
X0099654Y0122772D02*
X0102042Y0122772D01*
X0101444Y0122173D02*
X0100025Y0122173D01*
X0100025Y0121575D02*
X0101198Y0121575D01*
X0101198Y0120976D02*
X0100025Y0120976D01*
X0100025Y0120378D02*
X0101198Y0120378D01*
X0101198Y0119779D02*
X0100025Y0119779D01*
X0099912Y0119181D02*
X0101198Y0119181D01*
X0101198Y0118582D02*
X0094250Y0118582D01*
X0094250Y0117984D02*
X0098012Y0117984D01*
X0097414Y0117385D02*
X0094250Y0117385D01*
X0094250Y0116787D02*
X0097198Y0116787D01*
X0097198Y0116188D02*
X0094250Y0116188D01*
X0094250Y0115590D02*
X0097198Y0115590D01*
X0095519Y0114991D02*
X0094250Y0114991D01*
X0094250Y0114393D02*
X0095400Y0114393D01*
X0095400Y0113794D02*
X0094250Y0113794D01*
X0094250Y0113196D02*
X0095400Y0113196D01*
X0095400Y0112597D02*
X0094250Y0112597D01*
X0094250Y0111999D02*
X0095400Y0111999D01*
X0095400Y0111400D02*
X0094250Y0111400D01*
X0094250Y0110802D02*
X0095400Y0110802D01*
X0095400Y0110203D02*
X0094250Y0110203D01*
X0094250Y0109605D02*
X0095400Y0109605D01*
X0095400Y0109006D02*
X0094250Y0109006D01*
X0094250Y0108408D02*
X0095400Y0108408D01*
X0095400Y0107809D02*
X0094250Y0107809D01*
X0094250Y0107211D02*
X0095400Y0107211D01*
X0095400Y0106612D02*
X0094250Y0106612D01*
X0094250Y0106014D02*
X0095400Y0106014D01*
X0095400Y0105415D02*
X0094250Y0105415D01*
X0094250Y0104817D02*
X0095811Y0104817D01*
X0101183Y0117385D02*
X0101198Y0117385D01*
X0101198Y0117984D02*
X0100584Y0117984D01*
X0095188Y0119181D02*
X0094912Y0119181D01*
X0095025Y0119779D02*
X0095075Y0119779D01*
X0095075Y0120378D02*
X0095025Y0120378D01*
X0095025Y0120976D02*
X0095075Y0120976D01*
X0095075Y0121575D02*
X0095025Y0121575D01*
X0103096Y0129356D02*
X0103696Y0129356D01*
X0103696Y0129954D02*
X0103096Y0129954D01*
X0103096Y0130553D02*
X0103696Y0130553D01*
X0103696Y0131151D02*
X0103096Y0131151D01*
X0106009Y0129356D02*
X0111150Y0129356D01*
X0111150Y0129954D02*
X0106701Y0129954D01*
X0106862Y0130553D02*
X0111150Y0130553D01*
X0111671Y0131151D02*
X0106862Y0131151D01*
X0113220Y0132700D02*
X0113220Y0132700D01*
X0100215Y0135341D02*
X0099319Y0135341D01*
X0099769Y0134742D02*
X0099945Y0134742D01*
X0099931Y0134144D02*
X0099769Y0134144D01*
X0099769Y0133545D02*
X0099931Y0133545D01*
X0099931Y0132947D02*
X0099769Y0132947D01*
X0080940Y0140727D02*
X0189126Y0140727D01*
X0188711Y0140129D02*
X0129451Y0140129D01*
X0130050Y0139530D02*
X0188464Y0139530D01*
X0189820Y0141326D02*
X0080940Y0141326D01*
X0170200Y0095240D02*
X0170736Y0095240D01*
X0170200Y0094642D02*
X0179488Y0094642D01*
X0179488Y0093445D02*
X0170200Y0093445D01*
X0170200Y0094043D02*
X0182653Y0094043D01*
X0179488Y0092846D02*
X0170483Y0092846D01*
X0171082Y0092248D02*
X0179488Y0092248D01*
X0179491Y0091649D02*
X0171680Y0091649D01*
X0179614Y0097634D02*
X0179962Y0097634D01*
X0186419Y0094642D02*
X0186581Y0094642D01*
X0179888Y0104817D02*
X0175626Y0104817D01*
X0175027Y0105415D02*
X0178955Y0105415D01*
X0178356Y0106014D02*
X0178103Y0106014D01*
X0208537Y0128159D02*
X0208754Y0128159D01*
X0208035Y0128757D02*
X0213640Y0128757D01*
X0214238Y0129356D02*
X0207437Y0129356D01*
X0207483Y0131151D02*
X0209324Y0131151D01*
X0208701Y0131750D02*
X0208351Y0131750D01*
X0210710Y0130553D02*
X0201890Y0130553D01*
X0201500Y0130553D02*
X0201100Y0130553D01*
X0201100Y0130500D02*
X0201100Y0133600D01*
X0196500Y0133600D01*
X0196500Y0130500D01*
X0196625Y0130500D01*
X0197263Y0130627D01*
X0197863Y0130876D01*
X0198404Y0131237D01*
X0198800Y0131633D01*
X0199196Y0131237D01*
X0199737Y0130876D01*
X0200337Y0130627D01*
X0200975Y0130500D01*
X0201100Y0130500D01*
X0200710Y0130553D02*
X0196890Y0130553D01*
X0196500Y0130553D02*
X0196100Y0130553D01*
X0196100Y0131151D02*
X0196500Y0131151D01*
X0196500Y0131750D02*
X0196100Y0131750D01*
X0196100Y0132348D02*
X0196500Y0132348D01*
X0196500Y0132947D02*
X0196100Y0132947D01*
X0196100Y0133545D02*
X0196500Y0133545D01*
X0198276Y0131151D02*
X0199324Y0131151D01*
X0201100Y0131151D02*
X0201500Y0131151D01*
X0201500Y0131750D02*
X0201100Y0131750D01*
X0201100Y0132348D02*
X0201500Y0132348D01*
X0201500Y0132947D02*
X0201100Y0132947D01*
X0201100Y0133545D02*
X0201500Y0133545D01*
X0194324Y0131151D02*
X0192483Y0131151D01*
X0193351Y0131750D02*
X0193701Y0131750D01*
X0211100Y0131750D02*
X0211500Y0131750D01*
X0211500Y0132348D02*
X0211100Y0132348D01*
X0211100Y0132947D02*
X0211500Y0132947D01*
X0211500Y0133545D02*
X0211100Y0133545D01*
X0211100Y0131151D02*
X0211500Y0131151D01*
X0211500Y0130553D02*
X0211100Y0130553D01*
X0211890Y0130553D02*
X0214337Y0130553D01*
X0214337Y0131151D02*
X0213276Y0131151D01*
X0213899Y0131750D02*
X0214337Y0131750D01*
X0214337Y0132348D02*
X0214270Y0132348D01*
X0213041Y0128159D02*
X0212921Y0128159D01*
D11*
X0118411Y0127161D02*
X0113283Y0127161D01*
X0118411Y0127161D02*
X0118411Y0125419D01*
X0113283Y0125419D01*
X0113283Y0127161D01*
X0113283Y0125971D02*
X0118411Y0125971D01*
X0118411Y0126523D02*
X0113283Y0126523D01*
X0113283Y0127075D02*
X0118411Y0127075D01*
X0118411Y0123421D02*
X0113283Y0123421D01*
X0118411Y0123421D02*
X0118411Y0121679D01*
X0113283Y0121679D01*
X0113283Y0123421D01*
X0113283Y0122231D02*
X0118411Y0122231D01*
X0118411Y0122783D02*
X0113283Y0122783D01*
X0113283Y0123335D02*
X0118411Y0123335D01*
X0118411Y0119681D02*
X0113283Y0119681D01*
X0118411Y0119681D02*
X0118411Y0117939D01*
X0113283Y0117939D01*
X0113283Y0119681D01*
X0113283Y0118491D02*
X0118411Y0118491D01*
X0118411Y0119043D02*
X0113283Y0119043D01*
X0113283Y0119595D02*
X0118411Y0119595D01*
X0109317Y0119681D02*
X0104189Y0119681D01*
X0109317Y0119681D02*
X0109317Y0117939D01*
X0104189Y0117939D01*
X0104189Y0119681D01*
X0104189Y0118491D02*
X0109317Y0118491D01*
X0109317Y0119043D02*
X0104189Y0119043D01*
X0104189Y0119595D02*
X0109317Y0119595D01*
X0109317Y0123421D02*
X0104189Y0123421D01*
X0109317Y0123421D02*
X0109317Y0121679D01*
X0104189Y0121679D01*
X0104189Y0123421D01*
X0104189Y0122231D02*
X0109317Y0122231D01*
X0109317Y0122783D02*
X0104189Y0122783D01*
X0104189Y0123335D02*
X0109317Y0123335D01*
X0109317Y0127161D02*
X0104189Y0127161D01*
X0109317Y0127161D02*
X0109317Y0125419D01*
X0104189Y0125419D01*
X0104189Y0127161D01*
X0104189Y0125971D02*
X0109317Y0125971D01*
X0109317Y0126523D02*
X0104189Y0126523D01*
X0104189Y0127075D02*
X0109317Y0127075D01*
D12*
X0126300Y0129204D03*
X0126300Y0135896D03*
X0126300Y0114646D03*
X0126300Y0107954D03*
X0090050Y0088396D03*
X0090050Y0081704D03*
X0220050Y0115454D03*
X0220050Y0122146D03*
X0263800Y0102146D03*
X0263800Y0095454D03*
D13*
X0097550Y0120847D03*
X0092550Y0120847D03*
X0092550Y0126753D03*
X0097550Y0126753D03*
D14*
X0096704Y0132550D03*
X0103396Y0132550D03*
X0106704Y0111300D03*
X0113396Y0111300D03*
X0113396Y0105050D03*
X0106704Y0105050D03*
X0106704Y0098800D03*
X0113396Y0098800D03*
X0113396Y0092550D03*
X0106704Y0092550D03*
X0106704Y0086300D03*
X0113396Y0086300D03*
X0120454Y0086300D03*
X0127146Y0086300D03*
X0127146Y0092550D03*
X0120454Y0092550D03*
X0172954Y0122550D03*
X0179646Y0122550D03*
X0182954Y0112550D03*
X0189646Y0112550D03*
X0189646Y0106300D03*
X0182954Y0106300D03*
X0182954Y0100050D03*
X0189646Y0100050D03*
X0189646Y0093800D03*
X0182954Y0093800D03*
X0052146Y0136300D03*
X0045454Y0136300D03*
X0045454Y0142550D03*
X0052146Y0142550D03*
D15*
X0146300Y0134361D03*
X0146300Y0110739D03*
D16*
X0217836Y0104853D02*
X0220020Y0104853D01*
X0217836Y0104853D02*
X0217836Y0105621D01*
X0220020Y0105621D01*
X0220020Y0104853D01*
X0220020Y0105096D02*
X0217836Y0105096D01*
X0217836Y0105339D02*
X0220020Y0105339D01*
X0220020Y0105582D02*
X0217836Y0105582D01*
X0217836Y0102885D02*
X0220020Y0102885D01*
X0217836Y0102885D02*
X0217836Y0103653D01*
X0220020Y0103653D01*
X0220020Y0102885D01*
X0220020Y0103128D02*
X0217836Y0103128D01*
X0217836Y0103371D02*
X0220020Y0103371D01*
X0220020Y0103614D02*
X0217836Y0103614D01*
X0217836Y0100916D02*
X0220020Y0100916D01*
X0217836Y0100916D02*
X0217836Y0101684D01*
X0220020Y0101684D01*
X0220020Y0100916D01*
X0220020Y0101159D02*
X0217836Y0101159D01*
X0217836Y0101402D02*
X0220020Y0101402D01*
X0220020Y0101645D02*
X0217836Y0101645D01*
X0217836Y0098947D02*
X0220020Y0098947D01*
X0217836Y0098947D02*
X0217836Y0099715D01*
X0220020Y0099715D01*
X0220020Y0098947D01*
X0220020Y0099190D02*
X0217836Y0099190D01*
X0217836Y0099433D02*
X0220020Y0099433D01*
X0220020Y0099676D02*
X0217836Y0099676D01*
X0217836Y0096979D02*
X0220020Y0096979D01*
X0217836Y0096979D02*
X0217836Y0097747D01*
X0220020Y0097747D01*
X0220020Y0096979D01*
X0220020Y0097222D02*
X0217836Y0097222D01*
X0217836Y0097465D02*
X0220020Y0097465D01*
X0220020Y0097708D02*
X0217836Y0097708D01*
X0221497Y0096270D02*
X0221497Y0094086D01*
X0220729Y0094086D01*
X0220729Y0096270D01*
X0221497Y0096270D01*
X0221497Y0094329D02*
X0220729Y0094329D01*
X0220729Y0094572D02*
X0221497Y0094572D01*
X0221497Y0094815D02*
X0220729Y0094815D01*
X0220729Y0095058D02*
X0221497Y0095058D01*
X0221497Y0095301D02*
X0220729Y0095301D01*
X0220729Y0095544D02*
X0221497Y0095544D01*
X0221497Y0095787D02*
X0220729Y0095787D01*
X0220729Y0096030D02*
X0221497Y0096030D01*
X0223465Y0096270D02*
X0223465Y0094086D01*
X0222697Y0094086D01*
X0222697Y0096270D01*
X0223465Y0096270D01*
X0223465Y0094329D02*
X0222697Y0094329D01*
X0222697Y0094572D02*
X0223465Y0094572D01*
X0223465Y0094815D02*
X0222697Y0094815D01*
X0222697Y0095058D02*
X0223465Y0095058D01*
X0223465Y0095301D02*
X0222697Y0095301D01*
X0222697Y0095544D02*
X0223465Y0095544D01*
X0223465Y0095787D02*
X0222697Y0095787D01*
X0222697Y0096030D02*
X0223465Y0096030D01*
X0225434Y0096270D02*
X0225434Y0094086D01*
X0224666Y0094086D01*
X0224666Y0096270D01*
X0225434Y0096270D01*
X0225434Y0094329D02*
X0224666Y0094329D01*
X0224666Y0094572D02*
X0225434Y0094572D01*
X0225434Y0094815D02*
X0224666Y0094815D01*
X0224666Y0095058D02*
X0225434Y0095058D01*
X0225434Y0095301D02*
X0224666Y0095301D01*
X0224666Y0095544D02*
X0225434Y0095544D01*
X0225434Y0095787D02*
X0224666Y0095787D01*
X0224666Y0096030D02*
X0225434Y0096030D01*
X0227403Y0096270D02*
X0227403Y0094086D01*
X0226635Y0094086D01*
X0226635Y0096270D01*
X0227403Y0096270D01*
X0227403Y0094329D02*
X0226635Y0094329D01*
X0226635Y0094572D02*
X0227403Y0094572D01*
X0227403Y0094815D02*
X0226635Y0094815D01*
X0226635Y0095058D02*
X0227403Y0095058D01*
X0227403Y0095301D02*
X0226635Y0095301D01*
X0226635Y0095544D02*
X0227403Y0095544D01*
X0227403Y0095787D02*
X0226635Y0095787D01*
X0226635Y0096030D02*
X0227403Y0096030D01*
X0229371Y0096270D02*
X0229371Y0094086D01*
X0228603Y0094086D01*
X0228603Y0096270D01*
X0229371Y0096270D01*
X0229371Y0094329D02*
X0228603Y0094329D01*
X0228603Y0094572D02*
X0229371Y0094572D01*
X0229371Y0094815D02*
X0228603Y0094815D01*
X0228603Y0095058D02*
X0229371Y0095058D01*
X0229371Y0095301D02*
X0228603Y0095301D01*
X0228603Y0095544D02*
X0229371Y0095544D01*
X0229371Y0095787D02*
X0228603Y0095787D01*
X0228603Y0096030D02*
X0229371Y0096030D01*
X0230080Y0096979D02*
X0232264Y0096979D01*
X0230080Y0096979D02*
X0230080Y0097747D01*
X0232264Y0097747D01*
X0232264Y0096979D01*
X0232264Y0097222D02*
X0230080Y0097222D01*
X0230080Y0097465D02*
X0232264Y0097465D01*
X0232264Y0097708D02*
X0230080Y0097708D01*
X0230080Y0098947D02*
X0232264Y0098947D01*
X0230080Y0098947D02*
X0230080Y0099715D01*
X0232264Y0099715D01*
X0232264Y0098947D01*
X0232264Y0099190D02*
X0230080Y0099190D01*
X0230080Y0099433D02*
X0232264Y0099433D01*
X0232264Y0099676D02*
X0230080Y0099676D01*
X0230080Y0100916D02*
X0232264Y0100916D01*
X0230080Y0100916D02*
X0230080Y0101684D01*
X0232264Y0101684D01*
X0232264Y0100916D01*
X0232264Y0101159D02*
X0230080Y0101159D01*
X0230080Y0101402D02*
X0232264Y0101402D01*
X0232264Y0101645D02*
X0230080Y0101645D01*
X0230080Y0102885D02*
X0232264Y0102885D01*
X0230080Y0102885D02*
X0230080Y0103653D01*
X0232264Y0103653D01*
X0232264Y0102885D01*
X0232264Y0103128D02*
X0230080Y0103128D01*
X0230080Y0103371D02*
X0232264Y0103371D01*
X0232264Y0103614D02*
X0230080Y0103614D01*
X0230080Y0104853D02*
X0232264Y0104853D01*
X0230080Y0104853D02*
X0230080Y0105621D01*
X0232264Y0105621D01*
X0232264Y0104853D01*
X0232264Y0105096D02*
X0230080Y0105096D01*
X0230080Y0105339D02*
X0232264Y0105339D01*
X0232264Y0105582D02*
X0230080Y0105582D01*
X0229371Y0106330D02*
X0229371Y0108514D01*
X0229371Y0106330D02*
X0228603Y0106330D01*
X0228603Y0108514D01*
X0229371Y0108514D01*
X0229371Y0106573D02*
X0228603Y0106573D01*
X0228603Y0106816D02*
X0229371Y0106816D01*
X0229371Y0107059D02*
X0228603Y0107059D01*
X0228603Y0107302D02*
X0229371Y0107302D01*
X0229371Y0107545D02*
X0228603Y0107545D01*
X0228603Y0107788D02*
X0229371Y0107788D01*
X0229371Y0108031D02*
X0228603Y0108031D01*
X0228603Y0108274D02*
X0229371Y0108274D01*
X0227403Y0108514D02*
X0227403Y0106330D01*
X0226635Y0106330D01*
X0226635Y0108514D01*
X0227403Y0108514D01*
X0227403Y0106573D02*
X0226635Y0106573D01*
X0226635Y0106816D02*
X0227403Y0106816D01*
X0227403Y0107059D02*
X0226635Y0107059D01*
X0226635Y0107302D02*
X0227403Y0107302D01*
X0227403Y0107545D02*
X0226635Y0107545D01*
X0226635Y0107788D02*
X0227403Y0107788D01*
X0227403Y0108031D02*
X0226635Y0108031D01*
X0226635Y0108274D02*
X0227403Y0108274D01*
X0225434Y0108514D02*
X0225434Y0106330D01*
X0224666Y0106330D01*
X0224666Y0108514D01*
X0225434Y0108514D01*
X0225434Y0106573D02*
X0224666Y0106573D01*
X0224666Y0106816D02*
X0225434Y0106816D01*
X0225434Y0107059D02*
X0224666Y0107059D01*
X0224666Y0107302D02*
X0225434Y0107302D01*
X0225434Y0107545D02*
X0224666Y0107545D01*
X0224666Y0107788D02*
X0225434Y0107788D01*
X0225434Y0108031D02*
X0224666Y0108031D01*
X0224666Y0108274D02*
X0225434Y0108274D01*
X0223465Y0108514D02*
X0223465Y0106330D01*
X0222697Y0106330D01*
X0222697Y0108514D01*
X0223465Y0108514D01*
X0223465Y0106573D02*
X0222697Y0106573D01*
X0222697Y0106816D02*
X0223465Y0106816D01*
X0223465Y0107059D02*
X0222697Y0107059D01*
X0222697Y0107302D02*
X0223465Y0107302D01*
X0223465Y0107545D02*
X0222697Y0107545D01*
X0222697Y0107788D02*
X0223465Y0107788D01*
X0223465Y0108031D02*
X0222697Y0108031D01*
X0222697Y0108274D02*
X0223465Y0108274D01*
X0221497Y0108514D02*
X0221497Y0106330D01*
X0220729Y0106330D01*
X0220729Y0108514D01*
X0221497Y0108514D01*
X0221497Y0106573D02*
X0220729Y0106573D01*
X0220729Y0106816D02*
X0221497Y0106816D01*
X0221497Y0107059D02*
X0220729Y0107059D01*
X0220729Y0107302D02*
X0221497Y0107302D01*
X0221497Y0107545D02*
X0220729Y0107545D01*
X0220729Y0107788D02*
X0221497Y0107788D01*
X0221497Y0108031D02*
X0220729Y0108031D01*
X0220729Y0108274D02*
X0221497Y0108274D01*
D17*
X0211300Y0133800D03*
X0211300Y0138800D03*
X0206300Y0138800D03*
X0201300Y0138800D03*
X0201300Y0133800D03*
X0206300Y0133800D03*
X0196300Y0133800D03*
X0191300Y0133800D03*
X0191300Y0138800D03*
X0196300Y0138800D03*
D18*
X0238741Y0101300D03*
X0243859Y0101300D03*
X0212609Y0098800D03*
X0207491Y0098800D03*
D19*
X0207610Y0120576D02*
X0206704Y0120576D01*
X0206704Y0122308D01*
X0208437Y0122308D01*
X0208437Y0121403D01*
X0207610Y0121403D01*
X0207610Y0120576D01*
X0207610Y0120584D02*
X0206704Y0120584D01*
X0206704Y0120622D02*
X0207610Y0120622D01*
X0207610Y0120659D02*
X0206704Y0120659D01*
X0206704Y0120697D02*
X0207610Y0120697D01*
X0207610Y0120735D02*
X0206704Y0120735D01*
X0206704Y0120773D02*
X0207610Y0120773D01*
X0207610Y0120811D02*
X0206704Y0120811D01*
X0206704Y0120849D02*
X0207610Y0120849D01*
X0207610Y0120887D02*
X0206704Y0120887D01*
X0206704Y0120925D02*
X0207610Y0120925D01*
X0207610Y0120963D02*
X0206704Y0120963D01*
X0206704Y0121000D02*
X0207610Y0121000D01*
X0207610Y0121038D02*
X0206704Y0121038D01*
X0206704Y0121076D02*
X0207610Y0121076D01*
X0207610Y0121114D02*
X0206704Y0121114D01*
X0206704Y0121152D02*
X0207610Y0121152D01*
X0207610Y0121190D02*
X0206704Y0121190D01*
X0206704Y0121228D02*
X0207610Y0121228D01*
X0207610Y0121266D02*
X0206704Y0121266D01*
X0206704Y0121303D02*
X0207610Y0121303D01*
X0207610Y0121341D02*
X0206704Y0121341D01*
X0206704Y0121379D02*
X0207610Y0121379D01*
X0208437Y0121417D02*
X0206704Y0121417D01*
X0206704Y0121455D02*
X0208437Y0121455D01*
X0208437Y0121493D02*
X0206704Y0121493D01*
X0206704Y0121531D02*
X0208437Y0121531D01*
X0208437Y0121569D02*
X0206704Y0121569D01*
X0206704Y0121606D02*
X0208437Y0121606D01*
X0208437Y0121644D02*
X0206704Y0121644D01*
X0206704Y0121682D02*
X0208437Y0121682D01*
X0208437Y0121720D02*
X0206704Y0121720D01*
X0206704Y0121758D02*
X0208437Y0121758D01*
X0208437Y0121796D02*
X0206704Y0121796D01*
X0206704Y0121834D02*
X0208437Y0121834D01*
X0208437Y0121872D02*
X0206704Y0121872D01*
X0206704Y0121910D02*
X0208437Y0121910D01*
X0208437Y0121947D02*
X0206704Y0121947D01*
X0206704Y0121985D02*
X0208437Y0121985D01*
X0208437Y0122023D02*
X0206704Y0122023D01*
X0206704Y0122061D02*
X0208437Y0122061D01*
X0208437Y0122099D02*
X0206704Y0122099D01*
X0206704Y0122137D02*
X0208437Y0122137D01*
X0208437Y0122175D02*
X0206704Y0122175D01*
X0206704Y0122213D02*
X0208437Y0122213D01*
X0208437Y0122250D02*
X0206704Y0122250D01*
X0206704Y0122288D02*
X0208437Y0122288D01*
X0208437Y0123017D02*
X0208437Y0123922D01*
X0207610Y0123922D01*
X0207610Y0124749D01*
X0206704Y0124749D01*
X0206704Y0123017D01*
X0208437Y0123017D01*
X0208437Y0123046D02*
X0206704Y0123046D01*
X0206704Y0123084D02*
X0208437Y0123084D01*
X0208437Y0123122D02*
X0206704Y0123122D01*
X0206704Y0123160D02*
X0208437Y0123160D01*
X0208437Y0123198D02*
X0206704Y0123198D01*
X0206704Y0123235D02*
X0208437Y0123235D01*
X0208437Y0123273D02*
X0206704Y0123273D01*
X0206704Y0123311D02*
X0208437Y0123311D01*
X0208437Y0123349D02*
X0206704Y0123349D01*
X0206704Y0123387D02*
X0208437Y0123387D01*
X0208437Y0123425D02*
X0206704Y0123425D01*
X0206704Y0123463D02*
X0208437Y0123463D01*
X0208437Y0123501D02*
X0206704Y0123501D01*
X0206704Y0123538D02*
X0208437Y0123538D01*
X0208437Y0123576D02*
X0206704Y0123576D01*
X0206704Y0123614D02*
X0208437Y0123614D01*
X0208437Y0123652D02*
X0206704Y0123652D01*
X0206704Y0123690D02*
X0208437Y0123690D01*
X0208437Y0123728D02*
X0206704Y0123728D01*
X0206704Y0123766D02*
X0208437Y0123766D01*
X0208437Y0123804D02*
X0206704Y0123804D01*
X0206704Y0123841D02*
X0208437Y0123841D01*
X0208437Y0123879D02*
X0206704Y0123879D01*
X0206704Y0123917D02*
X0208437Y0123917D01*
X0207610Y0123955D02*
X0206704Y0123955D01*
X0206704Y0123993D02*
X0207610Y0123993D01*
X0207610Y0124031D02*
X0206704Y0124031D01*
X0206704Y0124069D02*
X0207610Y0124069D01*
X0207610Y0124107D02*
X0206704Y0124107D01*
X0206704Y0124145D02*
X0207610Y0124145D01*
X0207610Y0124182D02*
X0206704Y0124182D01*
X0206704Y0124220D02*
X0207610Y0124220D01*
X0207610Y0124258D02*
X0206704Y0124258D01*
X0206704Y0124296D02*
X0207610Y0124296D01*
X0207610Y0124334D02*
X0206704Y0124334D01*
X0206704Y0124372D02*
X0207610Y0124372D01*
X0207610Y0124410D02*
X0206704Y0124410D01*
X0206704Y0124448D02*
X0207610Y0124448D01*
X0207610Y0124485D02*
X0206704Y0124485D01*
X0206704Y0124523D02*
X0207610Y0124523D01*
X0207610Y0124561D02*
X0206704Y0124561D01*
X0206704Y0124599D02*
X0207610Y0124599D01*
X0207610Y0124637D02*
X0206704Y0124637D01*
X0206704Y0124675D02*
X0207610Y0124675D01*
X0207610Y0124713D02*
X0206704Y0124713D01*
X0205996Y0124713D02*
X0205090Y0124713D01*
X0205090Y0124749D02*
X0205996Y0124749D01*
X0205996Y0123017D01*
X0204263Y0123017D01*
X0204263Y0123922D01*
X0205090Y0123922D01*
X0205090Y0124749D01*
X0205090Y0124675D02*
X0205996Y0124675D01*
X0205996Y0124637D02*
X0205090Y0124637D01*
X0205090Y0124599D02*
X0205996Y0124599D01*
X0205996Y0124561D02*
X0205090Y0124561D01*
X0205090Y0124523D02*
X0205996Y0124523D01*
X0205996Y0124485D02*
X0205090Y0124485D01*
X0205090Y0124448D02*
X0205996Y0124448D01*
X0205996Y0124410D02*
X0205090Y0124410D01*
X0205090Y0124372D02*
X0205996Y0124372D01*
X0205996Y0124334D02*
X0205090Y0124334D01*
X0205090Y0124296D02*
X0205996Y0124296D01*
X0205996Y0124258D02*
X0205090Y0124258D01*
X0205090Y0124220D02*
X0205996Y0124220D01*
X0205996Y0124182D02*
X0205090Y0124182D01*
X0205090Y0124145D02*
X0205996Y0124145D01*
X0205996Y0124107D02*
X0205090Y0124107D01*
X0205090Y0124069D02*
X0205996Y0124069D01*
X0205996Y0124031D02*
X0205090Y0124031D01*
X0205090Y0123993D02*
X0205996Y0123993D01*
X0205996Y0123955D02*
X0205090Y0123955D01*
X0204263Y0123917D02*
X0205996Y0123917D01*
X0205996Y0123879D02*
X0204263Y0123879D01*
X0204263Y0123841D02*
X0205996Y0123841D01*
X0205996Y0123804D02*
X0204263Y0123804D01*
X0204263Y0123766D02*
X0205996Y0123766D01*
X0205996Y0123728D02*
X0204263Y0123728D01*
X0204263Y0123690D02*
X0205996Y0123690D01*
X0205996Y0123652D02*
X0204263Y0123652D01*
X0204263Y0123614D02*
X0205996Y0123614D01*
X0205996Y0123576D02*
X0204263Y0123576D01*
X0204263Y0123538D02*
X0205996Y0123538D01*
X0205996Y0123501D02*
X0204263Y0123501D01*
X0204263Y0123463D02*
X0205996Y0123463D01*
X0205996Y0123425D02*
X0204263Y0123425D01*
X0204263Y0123387D02*
X0205996Y0123387D01*
X0205996Y0123349D02*
X0204263Y0123349D01*
X0204263Y0123311D02*
X0205996Y0123311D01*
X0205996Y0123273D02*
X0204263Y0123273D01*
X0204263Y0123235D02*
X0205996Y0123235D01*
X0205996Y0123198D02*
X0204263Y0123198D01*
X0204263Y0123160D02*
X0205996Y0123160D01*
X0205996Y0123122D02*
X0204263Y0123122D01*
X0204263Y0123084D02*
X0205996Y0123084D01*
X0205996Y0123046D02*
X0204263Y0123046D01*
X0204263Y0122308D02*
X0204263Y0121403D01*
X0205090Y0121403D01*
X0205090Y0120576D01*
X0205996Y0120576D01*
X0205996Y0122308D01*
X0204263Y0122308D01*
X0204263Y0122288D02*
X0205996Y0122288D01*
X0205996Y0122250D02*
X0204263Y0122250D01*
X0204263Y0122213D02*
X0205996Y0122213D01*
X0205996Y0122175D02*
X0204263Y0122175D01*
X0204263Y0122137D02*
X0205996Y0122137D01*
X0205996Y0122099D02*
X0204263Y0122099D01*
X0204263Y0122061D02*
X0205996Y0122061D01*
X0205996Y0122023D02*
X0204263Y0122023D01*
X0204263Y0121985D02*
X0205996Y0121985D01*
X0205996Y0121947D02*
X0204263Y0121947D01*
X0204263Y0121910D02*
X0205996Y0121910D01*
X0205996Y0121872D02*
X0204263Y0121872D01*
X0204263Y0121834D02*
X0205996Y0121834D01*
X0205996Y0121796D02*
X0204263Y0121796D01*
X0204263Y0121758D02*
X0205996Y0121758D01*
X0205996Y0121720D02*
X0204263Y0121720D01*
X0204263Y0121682D02*
X0205996Y0121682D01*
X0205996Y0121644D02*
X0204263Y0121644D01*
X0204263Y0121606D02*
X0205996Y0121606D01*
X0205996Y0121569D02*
X0204263Y0121569D01*
X0204263Y0121531D02*
X0205996Y0121531D01*
X0205996Y0121493D02*
X0204263Y0121493D01*
X0204263Y0121455D02*
X0205996Y0121455D01*
X0205996Y0121417D02*
X0204263Y0121417D01*
X0205090Y0121379D02*
X0205996Y0121379D01*
X0205996Y0121341D02*
X0205090Y0121341D01*
X0205090Y0121303D02*
X0205996Y0121303D01*
X0205996Y0121266D02*
X0205090Y0121266D01*
X0205090Y0121228D02*
X0205996Y0121228D01*
X0205996Y0121190D02*
X0205090Y0121190D01*
X0205090Y0121152D02*
X0205996Y0121152D01*
X0205996Y0121114D02*
X0205090Y0121114D01*
X0205090Y0121076D02*
X0205996Y0121076D01*
X0205996Y0121038D02*
X0205090Y0121038D01*
X0205090Y0121000D02*
X0205996Y0121000D01*
X0205996Y0120963D02*
X0205090Y0120963D01*
X0205090Y0120925D02*
X0205996Y0120925D01*
X0205996Y0120887D02*
X0205090Y0120887D01*
X0205090Y0120849D02*
X0205996Y0120849D01*
X0205996Y0120811D02*
X0205090Y0120811D01*
X0205090Y0120773D02*
X0205996Y0120773D01*
X0205996Y0120735D02*
X0205090Y0120735D01*
X0205090Y0120697D02*
X0205996Y0120697D01*
X0205996Y0120659D02*
X0205090Y0120659D01*
X0205090Y0120622D02*
X0205996Y0120622D01*
X0205996Y0120584D02*
X0205090Y0120584D01*
X0199049Y0121403D02*
X0198222Y0121403D01*
X0198222Y0120576D01*
X0197317Y0120576D01*
X0197317Y0122308D01*
X0199049Y0122308D01*
X0199049Y0121403D01*
X0199049Y0121417D02*
X0197317Y0121417D01*
X0197317Y0121379D02*
X0198222Y0121379D01*
X0198222Y0121341D02*
X0197317Y0121341D01*
X0197317Y0121303D02*
X0198222Y0121303D01*
X0198222Y0121266D02*
X0197317Y0121266D01*
X0197317Y0121228D02*
X0198222Y0121228D01*
X0198222Y0121190D02*
X0197317Y0121190D01*
X0197317Y0121152D02*
X0198222Y0121152D01*
X0198222Y0121114D02*
X0197317Y0121114D01*
X0197317Y0121076D02*
X0198222Y0121076D01*
X0198222Y0121038D02*
X0197317Y0121038D01*
X0197317Y0121000D02*
X0198222Y0121000D01*
X0198222Y0120963D02*
X0197317Y0120963D01*
X0197317Y0120925D02*
X0198222Y0120925D01*
X0198222Y0120887D02*
X0197317Y0120887D01*
X0197317Y0120849D02*
X0198222Y0120849D01*
X0198222Y0120811D02*
X0197317Y0120811D01*
X0197317Y0120773D02*
X0198222Y0120773D01*
X0198222Y0120735D02*
X0197317Y0120735D01*
X0197317Y0120697D02*
X0198222Y0120697D01*
X0198222Y0120659D02*
X0197317Y0120659D01*
X0197317Y0120622D02*
X0198222Y0120622D01*
X0198222Y0120584D02*
X0197317Y0120584D01*
X0196608Y0120584D02*
X0195703Y0120584D01*
X0195703Y0120576D02*
X0196608Y0120576D01*
X0196608Y0122308D01*
X0194876Y0122308D01*
X0194876Y0121403D01*
X0195703Y0121403D01*
X0195703Y0120576D01*
X0195703Y0120622D02*
X0196608Y0120622D01*
X0196608Y0120659D02*
X0195703Y0120659D01*
X0195703Y0120697D02*
X0196608Y0120697D01*
X0196608Y0120735D02*
X0195703Y0120735D01*
X0195703Y0120773D02*
X0196608Y0120773D01*
X0196608Y0120811D02*
X0195703Y0120811D01*
X0195703Y0120849D02*
X0196608Y0120849D01*
X0196608Y0120887D02*
X0195703Y0120887D01*
X0195703Y0120925D02*
X0196608Y0120925D01*
X0196608Y0120963D02*
X0195703Y0120963D01*
X0195703Y0121000D02*
X0196608Y0121000D01*
X0196608Y0121038D02*
X0195703Y0121038D01*
X0195703Y0121076D02*
X0196608Y0121076D01*
X0196608Y0121114D02*
X0195703Y0121114D01*
X0195703Y0121152D02*
X0196608Y0121152D01*
X0196608Y0121190D02*
X0195703Y0121190D01*
X0195703Y0121228D02*
X0196608Y0121228D01*
X0196608Y0121266D02*
X0195703Y0121266D01*
X0195703Y0121303D02*
X0196608Y0121303D01*
X0196608Y0121341D02*
X0195703Y0121341D01*
X0195703Y0121379D02*
X0196608Y0121379D01*
X0196608Y0121417D02*
X0194876Y0121417D01*
X0194876Y0121455D02*
X0196608Y0121455D01*
X0196608Y0121493D02*
X0194876Y0121493D01*
X0194876Y0121531D02*
X0196608Y0121531D01*
X0196608Y0121569D02*
X0194876Y0121569D01*
X0194876Y0121606D02*
X0196608Y0121606D01*
X0196608Y0121644D02*
X0194876Y0121644D01*
X0194876Y0121682D02*
X0196608Y0121682D01*
X0196608Y0121720D02*
X0194876Y0121720D01*
X0194876Y0121758D02*
X0196608Y0121758D01*
X0196608Y0121796D02*
X0194876Y0121796D01*
X0194876Y0121834D02*
X0196608Y0121834D01*
X0196608Y0121872D02*
X0194876Y0121872D01*
X0194876Y0121910D02*
X0196608Y0121910D01*
X0196608Y0121947D02*
X0194876Y0121947D01*
X0194876Y0121985D02*
X0196608Y0121985D01*
X0196608Y0122023D02*
X0194876Y0122023D01*
X0194876Y0122061D02*
X0196608Y0122061D01*
X0196608Y0122099D02*
X0194876Y0122099D01*
X0194876Y0122137D02*
X0196608Y0122137D01*
X0196608Y0122175D02*
X0194876Y0122175D01*
X0194876Y0122213D02*
X0196608Y0122213D01*
X0196608Y0122250D02*
X0194876Y0122250D01*
X0194876Y0122288D02*
X0196608Y0122288D01*
X0197317Y0122288D02*
X0199049Y0122288D01*
X0199049Y0122250D02*
X0197317Y0122250D01*
X0197317Y0122213D02*
X0199049Y0122213D01*
X0199049Y0122175D02*
X0197317Y0122175D01*
X0197317Y0122137D02*
X0199049Y0122137D01*
X0199049Y0122099D02*
X0197317Y0122099D01*
X0197317Y0122061D02*
X0199049Y0122061D01*
X0199049Y0122023D02*
X0197317Y0122023D01*
X0197317Y0121985D02*
X0199049Y0121985D01*
X0199049Y0121947D02*
X0197317Y0121947D01*
X0197317Y0121910D02*
X0199049Y0121910D01*
X0199049Y0121872D02*
X0197317Y0121872D01*
X0197317Y0121834D02*
X0199049Y0121834D01*
X0199049Y0121796D02*
X0197317Y0121796D01*
X0197317Y0121758D02*
X0199049Y0121758D01*
X0199049Y0121720D02*
X0197317Y0121720D01*
X0197317Y0121682D02*
X0199049Y0121682D01*
X0199049Y0121644D02*
X0197317Y0121644D01*
X0197317Y0121606D02*
X0199049Y0121606D01*
X0199049Y0121569D02*
X0197317Y0121569D01*
X0197317Y0121531D02*
X0199049Y0121531D01*
X0199049Y0121493D02*
X0197317Y0121493D01*
X0197317Y0121455D02*
X0199049Y0121455D01*
X0199049Y0123017D02*
X0199049Y0123922D01*
X0198222Y0123922D01*
X0198222Y0124749D01*
X0197317Y0124749D01*
X0197317Y0123017D01*
X0199049Y0123017D01*
X0199049Y0123046D02*
X0197317Y0123046D01*
X0197317Y0123084D02*
X0199049Y0123084D01*
X0199049Y0123122D02*
X0197317Y0123122D01*
X0197317Y0123160D02*
X0199049Y0123160D01*
X0199049Y0123198D02*
X0197317Y0123198D01*
X0197317Y0123235D02*
X0199049Y0123235D01*
X0199049Y0123273D02*
X0197317Y0123273D01*
X0197317Y0123311D02*
X0199049Y0123311D01*
X0199049Y0123349D02*
X0197317Y0123349D01*
X0197317Y0123387D02*
X0199049Y0123387D01*
X0199049Y0123425D02*
X0197317Y0123425D01*
X0197317Y0123463D02*
X0199049Y0123463D01*
X0199049Y0123501D02*
X0197317Y0123501D01*
X0197317Y0123538D02*
X0199049Y0123538D01*
X0199049Y0123576D02*
X0197317Y0123576D01*
X0197317Y0123614D02*
X0199049Y0123614D01*
X0199049Y0123652D02*
X0197317Y0123652D01*
X0197317Y0123690D02*
X0199049Y0123690D01*
X0199049Y0123728D02*
X0197317Y0123728D01*
X0197317Y0123766D02*
X0199049Y0123766D01*
X0199049Y0123804D02*
X0197317Y0123804D01*
X0197317Y0123841D02*
X0199049Y0123841D01*
X0199049Y0123879D02*
X0197317Y0123879D01*
X0197317Y0123917D02*
X0199049Y0123917D01*
X0198222Y0123955D02*
X0197317Y0123955D01*
X0197317Y0123993D02*
X0198222Y0123993D01*
X0198222Y0124031D02*
X0197317Y0124031D01*
X0197317Y0124069D02*
X0198222Y0124069D01*
X0198222Y0124107D02*
X0197317Y0124107D01*
X0197317Y0124145D02*
X0198222Y0124145D01*
X0198222Y0124182D02*
X0197317Y0124182D01*
X0197317Y0124220D02*
X0198222Y0124220D01*
X0198222Y0124258D02*
X0197317Y0124258D01*
X0197317Y0124296D02*
X0198222Y0124296D01*
X0198222Y0124334D02*
X0197317Y0124334D01*
X0197317Y0124372D02*
X0198222Y0124372D01*
X0198222Y0124410D02*
X0197317Y0124410D01*
X0197317Y0124448D02*
X0198222Y0124448D01*
X0198222Y0124485D02*
X0197317Y0124485D01*
X0197317Y0124523D02*
X0198222Y0124523D01*
X0198222Y0124561D02*
X0197317Y0124561D01*
X0197317Y0124599D02*
X0198222Y0124599D01*
X0198222Y0124637D02*
X0197317Y0124637D01*
X0197317Y0124675D02*
X0198222Y0124675D01*
X0198222Y0124713D02*
X0197317Y0124713D01*
X0196608Y0124713D02*
X0195703Y0124713D01*
X0195703Y0124749D02*
X0196608Y0124749D01*
X0196608Y0123017D01*
X0194876Y0123017D01*
X0194876Y0123922D01*
X0195703Y0123922D01*
X0195703Y0124749D01*
X0195703Y0124675D02*
X0196608Y0124675D01*
X0196608Y0124637D02*
X0195703Y0124637D01*
X0195703Y0124599D02*
X0196608Y0124599D01*
X0196608Y0124561D02*
X0195703Y0124561D01*
X0195703Y0124523D02*
X0196608Y0124523D01*
X0196608Y0124485D02*
X0195703Y0124485D01*
X0195703Y0124448D02*
X0196608Y0124448D01*
X0196608Y0124410D02*
X0195703Y0124410D01*
X0195703Y0124372D02*
X0196608Y0124372D01*
X0196608Y0124334D02*
X0195703Y0124334D01*
X0195703Y0124296D02*
X0196608Y0124296D01*
X0196608Y0124258D02*
X0195703Y0124258D01*
X0195703Y0124220D02*
X0196608Y0124220D01*
X0196608Y0124182D02*
X0195703Y0124182D01*
X0195703Y0124145D02*
X0196608Y0124145D01*
X0196608Y0124107D02*
X0195703Y0124107D01*
X0195703Y0124069D02*
X0196608Y0124069D01*
X0196608Y0124031D02*
X0195703Y0124031D01*
X0195703Y0123993D02*
X0196608Y0123993D01*
X0196608Y0123955D02*
X0195703Y0123955D01*
X0194876Y0123917D02*
X0196608Y0123917D01*
X0196608Y0123879D02*
X0194876Y0123879D01*
X0194876Y0123841D02*
X0196608Y0123841D01*
X0196608Y0123804D02*
X0194876Y0123804D01*
X0194876Y0123766D02*
X0196608Y0123766D01*
X0196608Y0123728D02*
X0194876Y0123728D01*
X0194876Y0123690D02*
X0196608Y0123690D01*
X0196608Y0123652D02*
X0194876Y0123652D01*
X0194876Y0123614D02*
X0196608Y0123614D01*
X0196608Y0123576D02*
X0194876Y0123576D01*
X0194876Y0123538D02*
X0196608Y0123538D01*
X0196608Y0123501D02*
X0194876Y0123501D01*
X0194876Y0123463D02*
X0196608Y0123463D01*
X0196608Y0123425D02*
X0194876Y0123425D01*
X0194876Y0123387D02*
X0196608Y0123387D01*
X0196608Y0123349D02*
X0194876Y0123349D01*
X0194876Y0123311D02*
X0196608Y0123311D01*
X0196608Y0123273D02*
X0194876Y0123273D01*
X0194876Y0123235D02*
X0196608Y0123235D01*
X0196608Y0123198D02*
X0194876Y0123198D01*
X0194876Y0123160D02*
X0196608Y0123160D01*
X0196608Y0123122D02*
X0194876Y0123122D01*
X0194876Y0123084D02*
X0196608Y0123084D01*
X0196608Y0123046D02*
X0194876Y0123046D01*
D20*
X0196175Y0123450D03*
X0196175Y0121875D03*
X0197750Y0121875D03*
X0197750Y0123450D03*
X0205563Y0123450D03*
X0207137Y0123450D03*
X0207137Y0121875D03*
X0205563Y0121875D03*
D21*
X0263800Y0086684D03*
X0263800Y0078416D03*
D22*
X0251300Y0080050D03*
X0241300Y0080050D03*
X0231300Y0080050D03*
D23*
X0240050Y0128800D03*
D24*
X0260050Y0128800D03*
D25*
X0176290Y0108919D03*
X0168810Y0108919D03*
X0168810Y0098681D03*
X0172550Y0098681D03*
X0176290Y0098681D03*
D26*
X0081290Y0081113D03*
X0073810Y0081113D03*
X0077550Y0088987D03*
X0075050Y0134863D03*
X0071310Y0142737D03*
X0078790Y0142737D03*
D27*
X0052432Y0120513D02*
X0044164Y0120513D01*
X0044164Y0100828D02*
X0052432Y0100828D01*
D28*
X0070060Y0121034D03*
X0073800Y0121034D03*
X0077540Y0121034D03*
X0077540Y0130188D03*
X0073800Y0130188D03*
X0070060Y0130188D03*
D29*
X0098800Y0113250D03*
X0098800Y0110050D03*
X0098800Y0106850D03*
D30*
X0162550Y0102609D03*
X0162550Y0097491D03*
D31*
X0198762Y0114550D03*
X0201962Y0114550D03*
X0205162Y0114550D03*
X0232887Y0112925D03*
X0236087Y0112925D03*
D32*
X0235937Y0111112D03*
X0235193Y0104425D03*
X0226800Y0103600D03*
X0223800Y0103402D03*
X0235625Y0098800D03*
X0231662Y0090287D03*
X0227700Y0088756D03*
X0235950Y0082325D03*
X0239625Y0087837D03*
X0212062Y0094575D03*
X0199812Y0098250D03*
X0202875Y0107437D03*
X0210225Y0106825D03*
X0204712Y0119687D03*
X0200190Y0123740D03*
X0196137Y0126425D03*
X0188787Y0129487D03*
X0204100Y0128262D03*
X0210837Y0125200D03*
X0210837Y0122137D03*
X0221250Y0130100D03*
X0231662Y0117850D03*
X0177150Y0114787D03*
X0169800Y0113562D03*
X0164900Y0108050D03*
X0171025Y0103762D03*
X0160181Y0089825D03*
X0172250Y0076200D03*
X0206550Y0077425D03*
X0133050Y0084163D03*
X0120187Y0090287D03*
X0131825Y0097025D03*
X0124475Y0098862D03*
X0118350Y0100087D03*
X0121450Y0109012D03*
X0131863Y0113912D03*
X0122062Y0118812D03*
X0122550Y0122550D03*
X0117125Y0130100D03*
X0109200Y0131675D03*
X0116550Y0139025D03*
X0131300Y0133800D03*
X0137550Y0133800D03*
X0146300Y0128800D03*
X0099298Y0116300D03*
X0080050Y0098800D03*
X0067550Y0088800D03*
X0085888Y0081713D03*
X0099362Y0087225D03*
X0099975Y0092737D03*
X0112550Y0076300D03*
X0131213Y0076813D03*
X0068125Y0120912D03*
X0038800Y0138800D03*
D33*
X0197750Y0123450D02*
X0199725Y0123450D01*
X0197950Y0121875D02*
X0197750Y0121875D01*
X0205563Y0121875D02*
X0205563Y0120538D01*
D34*
X0204712Y0119687D01*
X0203144Y0121371D02*
X0203144Y0121987D01*
X0203047Y0122084D01*
X0202847Y0122430D01*
X0202744Y0122817D01*
X0202744Y0123450D01*
X0205537Y0123450D01*
X0205537Y0123450D01*
X0202744Y0123450D01*
X0202744Y0124122D01*
X0202847Y0124509D01*
X0203047Y0124855D01*
X0203047Y0124855D01*
X0203330Y0125138D01*
X0203675Y0125337D01*
X0203675Y0125337D01*
X0203675Y0125337D01*
X0203874Y0125682D01*
X0204154Y0125962D01*
X0203147Y0125962D01*
X0202072Y0127037D01*
X0193075Y0127037D01*
X0193075Y0123362D01*
X0193356Y0123362D01*
X0193356Y0123450D01*
X0196175Y0123450D01*
X0196175Y0126269D01*
X0195503Y0126269D01*
X0195503Y0126269D01*
X0195116Y0126165D01*
X0194770Y0125965D01*
X0194487Y0125682D01*
X0194288Y0125337D01*
X0193943Y0125138D01*
X0193660Y0124855D01*
X0193660Y0124855D01*
X0193460Y0124509D01*
X0193356Y0124122D01*
X0193356Y0123450D01*
X0196175Y0123450D01*
X0196175Y0123450D01*
X0196175Y0123450D01*
X0196175Y0126269D01*
X0196408Y0126269D01*
X0196808Y0126269D01*
X0197195Y0126165D01*
X0197541Y0125965D01*
X0197638Y0125869D01*
X0198686Y0125869D01*
X0198876Y0125679D01*
X0199238Y0126040D01*
X0201143Y0126040D01*
X0202490Y0124693D01*
X0202490Y0122788D01*
X0201143Y0121440D01*
X0200425Y0121440D01*
X0200425Y0118526D01*
X0200515Y0118550D01*
X0201837Y0118550D01*
X0201837Y0114675D01*
X0202087Y0114675D01*
X0202087Y0118550D01*
X0202597Y0118550D01*
X0202412Y0118735D01*
X0202412Y0120640D01*
X0203144Y0121371D01*
X0202998Y0121226D02*
X0200425Y0121226D01*
X0200425Y0120227D02*
X0202412Y0120227D01*
X0202412Y0119229D02*
X0200425Y0119229D01*
X0201837Y0118230D02*
X0202087Y0118230D01*
X0202087Y0117232D02*
X0201837Y0117232D01*
X0201837Y0116233D02*
X0202087Y0116233D01*
X0202087Y0115234D02*
X0201837Y0115234D01*
X0198762Y0114550D02*
X0198762Y0116450D01*
X0197362Y0117850D01*
X0197975Y0118462D01*
X0197975Y0121850D01*
X0197950Y0121875D01*
X0199725Y0123450D02*
X0199812Y0123362D01*
X0200190Y0123740D01*
X0201927Y0122224D02*
X0202966Y0122224D01*
X0202744Y0123223D02*
X0202490Y0123223D01*
X0202490Y0124221D02*
X0202770Y0124221D01*
X0203471Y0125220D02*
X0201964Y0125220D01*
X0202892Y0126218D02*
X0196997Y0126218D01*
X0196175Y0126218D02*
X0196175Y0126218D01*
X0195314Y0126218D02*
X0193075Y0126218D01*
X0193075Y0125220D02*
X0194083Y0125220D01*
X0194288Y0125337D02*
X0194288Y0125337D01*
X0194288Y0125337D01*
X0193383Y0124221D02*
X0193075Y0124221D01*
X0196175Y0124221D02*
X0196175Y0124221D01*
X0196175Y0125220D02*
X0196175Y0125220D01*
X0204100Y0128262D02*
X0206550Y0128262D01*
X0207137Y0127675D01*
X0207137Y0123450D01*
X0207137Y0121850D02*
X0210550Y0121850D01*
X0210837Y0122137D01*
X0209956Y0122224D02*
X0212062Y0122224D01*
X0212062Y0121226D02*
X0209956Y0121226D01*
X0209956Y0121203D02*
X0209956Y0121875D01*
X0207825Y0121875D01*
X0207825Y0121875D01*
X0209956Y0121875D01*
X0209956Y0122508D01*
X0209853Y0122895D01*
X0209653Y0123241D01*
X0209612Y0123281D01*
X0209612Y0127037D01*
X0212062Y0127037D01*
X0212062Y0117850D01*
X0209000Y0117850D01*
X0209000Y0112337D01*
X0207912Y0112337D01*
X0207912Y0114425D01*
X0205288Y0114425D01*
X0205288Y0114675D01*
X0207912Y0114675D01*
X0207912Y0117247D01*
X0207810Y0117629D01*
X0207613Y0117971D01*
X0207334Y0118250D01*
X0206991Y0118448D01*
X0206782Y0118504D01*
X0207012Y0118735D01*
X0207012Y0119056D01*
X0207137Y0119056D01*
X0207137Y0119850D01*
X0207137Y0119850D01*
X0207137Y0119056D01*
X0207810Y0119056D01*
X0207810Y0119056D01*
X0208196Y0119160D01*
X0208543Y0119360D01*
X0208826Y0119643D01*
X0209025Y0119988D01*
X0209370Y0120187D01*
X0209653Y0120470D01*
X0209853Y0120816D01*
X0209956Y0121203D01*
X0209653Y0120470D02*
X0209653Y0120470D01*
X0209410Y0120227D02*
X0212062Y0120227D01*
X0212062Y0119229D02*
X0208316Y0119229D01*
X0209025Y0119988D02*
X0209025Y0119988D01*
X0209025Y0119988D01*
X0207137Y0119229D02*
X0207137Y0119229D01*
X0207354Y0118230D02*
X0212062Y0118230D01*
X0209000Y0117232D02*
X0207912Y0117232D01*
X0207912Y0116233D02*
X0209000Y0116233D01*
X0209000Y0115234D02*
X0207912Y0115234D01*
X0207912Y0114236D02*
X0209000Y0114236D01*
X0209000Y0113237D02*
X0207912Y0113237D01*
X0202875Y0107437D02*
X0202875Y0095800D01*
X0206550Y0092125D01*
X0220025Y0092125D01*
X0221113Y0093213D01*
X0221113Y0095178D01*
X0223081Y0095178D02*
X0223081Y0091519D01*
X0225537Y0089062D01*
X0227394Y0089062D01*
X0227700Y0088756D01*
X0225994Y0091056D02*
X0230894Y0091056D01*
X0231662Y0090287D01*
X0233962Y0091240D02*
X0232546Y0092656D01*
X0227456Y0092656D01*
X0227019Y0093094D01*
X0227019Y0095178D01*
X0228987Y0095178D02*
X0229909Y0094256D01*
X0233209Y0094256D01*
X0235562Y0091903D01*
X0235562Y0088060D01*
X0232359Y0084856D01*
X0232356Y0084856D01*
X0232275Y0084775D01*
X0222850Y0084775D01*
X0218937Y0088687D01*
X0194700Y0088687D01*
X0194463Y0088450D01*
X0166963Y0088450D01*
X0158625Y0080113D01*
X0107325Y0080113D01*
X0106950Y0080113D01*
X0103600Y0080113D01*
X0100825Y0082887D01*
X0100825Y0086612D01*
X0100212Y0087225D01*
X0099362Y0087225D01*
X0098750Y0090287D02*
X0100587Y0090287D01*
X0102425Y0088450D01*
X0102425Y0083550D01*
X0104262Y0081713D01*
X0157963Y0081713D01*
X0168800Y0092550D01*
X0168800Y0098672D01*
X0168810Y0098681D01*
X0166359Y0102609D02*
X0162550Y0102609D01*
X0166359Y0102609D02*
X0168810Y0105060D01*
X0168810Y0108919D01*
X0172862Y0105600D02*
X0172862Y0122459D01*
X0172954Y0122550D01*
X0172469Y0122224D02*
X0168049Y0122224D01*
X0169288Y0122066D02*
X0169288Y0120384D01*
X0169390Y0120003D01*
X0169588Y0119660D01*
X0169867Y0119381D01*
X0170019Y0119294D01*
X0162450Y0111725D01*
X0155713Y0111725D01*
X0151146Y0107159D01*
X0151146Y0110239D01*
X0146800Y0110239D01*
X0146800Y0111239D01*
X0151146Y0111239D01*
X0151146Y0114787D01*
X0160613Y0114787D01*
X0169288Y0123463D01*
X0169288Y0123034D01*
X0172469Y0123034D01*
X0172469Y0122066D01*
X0169288Y0122066D01*
X0169288Y0121226D02*
X0167051Y0121226D01*
X0166052Y0120227D02*
X0169330Y0120227D01*
X0169954Y0119229D02*
X0165054Y0119229D01*
X0164055Y0118230D02*
X0168955Y0118230D01*
X0167957Y0117232D02*
X0163057Y0117232D01*
X0162058Y0116233D02*
X0166958Y0116233D01*
X0165959Y0115234D02*
X0161059Y0115234D01*
X0163962Y0113237D02*
X0151146Y0113237D01*
X0151146Y0112239D02*
X0162964Y0112239D01*
X0164961Y0114236D02*
X0151146Y0114236D01*
X0151146Y0111240D02*
X0155228Y0111240D01*
X0154229Y0110242D02*
X0146800Y0110242D01*
X0145800Y0110242D02*
X0135854Y0110242D01*
X0135500Y0109887D02*
X0129768Y0109887D01*
X0129768Y0108438D01*
X0126784Y0108438D01*
X0126784Y0107469D01*
X0126784Y0104288D01*
X0128466Y0104288D01*
X0128847Y0104390D01*
X0129190Y0104588D01*
X0129469Y0104867D01*
X0129666Y0105209D01*
X0129768Y0105591D01*
X0129768Y0107469D01*
X0126784Y0107469D01*
X0125816Y0107469D01*
X0125816Y0104288D01*
X0125087Y0104288D01*
X0125087Y0103762D01*
X0128762Y0103762D01*
X0131825Y0106825D01*
X0141454Y0106825D01*
X0141454Y0110239D01*
X0145800Y0110239D01*
X0145800Y0111239D01*
X0141454Y0111239D01*
X0141454Y0114787D01*
X0140400Y0114787D01*
X0135500Y0109887D01*
X0136853Y0111240D02*
X0141454Y0111240D01*
X0141454Y0112239D02*
X0137851Y0112239D01*
X0138850Y0113237D02*
X0141454Y0113237D01*
X0141454Y0114236D02*
X0139848Y0114236D01*
X0141454Y0109243D02*
X0129768Y0109243D01*
X0129768Y0107246D02*
X0141454Y0107246D01*
X0141454Y0108245D02*
X0126784Y0108245D01*
X0126784Y0107246D02*
X0125816Y0107246D01*
X0125816Y0106248D02*
X0126784Y0106248D01*
X0126784Y0105249D02*
X0125816Y0105249D01*
X0125087Y0104251D02*
X0129251Y0104251D01*
X0129677Y0105249D02*
X0130249Y0105249D01*
X0129768Y0106248D02*
X0131248Y0106248D01*
X0131825Y0097025D02*
X0131213Y0096412D01*
X0130531Y0095731D01*
X0115287Y0095731D01*
X0113994Y0095731D01*
X0113450Y0095187D01*
X0113450Y0092604D01*
X0113396Y0092550D01*
X0120454Y0092550D02*
X0120454Y0090554D01*
X0120187Y0090287D01*
X0127146Y0086300D02*
X0131935Y0086300D01*
X0132097Y0086462D01*
X0134003Y0086462D01*
X0135215Y0085250D01*
X0156596Y0085250D01*
X0160181Y0088835D01*
X0160181Y0089825D01*
X0168800Y0092550D02*
X0171300Y0090050D01*
X0193800Y0090050D01*
X0195050Y0091300D01*
X0196062Y0090287D01*
X0219600Y0090287D01*
X0223431Y0086456D01*
X0231696Y0086456D01*
X0233962Y0088722D01*
X0233962Y0091240D01*
X0234725Y0096412D02*
X0253912Y0096412D01*
X0258800Y0101300D01*
X0262954Y0101300D01*
X0263800Y0102146D01*
X0263800Y0095454D02*
X0263800Y0086684D01*
X0238741Y0101300D02*
X0238741Y0119991D01*
X0239644Y0120894D01*
X0240050Y0121300D01*
X0240050Y0128800D01*
X0230587Y0118925D02*
X0230587Y0140761D01*
X0225208Y0146140D01*
X0193877Y0146140D01*
X0190474Y0142737D01*
X0078790Y0142737D01*
X0070060Y0130188D02*
X0054912Y0130188D01*
X0052550Y0132550D01*
X0052550Y0135896D01*
X0052146Y0136300D01*
X0052146Y0137185D01*
X0050050Y0139281D01*
X0048444Y0139281D01*
X0048157Y0139569D01*
X0046781Y0139569D01*
X0045454Y0140896D01*
X0045454Y0142550D01*
X0045454Y0136300D02*
X0045454Y0132146D01*
X0048298Y0129302D01*
X0048298Y0120513D01*
X0068125Y0120912D02*
X0069938Y0120912D01*
X0070060Y0121034D01*
X0073800Y0121034D02*
X0073810Y0121024D01*
X0073810Y0081113D01*
X0081290Y0081113D02*
X0081290Y0081704D01*
X0090050Y0081704D01*
X0085896Y0081704D01*
X0085888Y0081713D01*
X0096300Y0092737D02*
X0098750Y0090287D01*
X0100050Y0092550D02*
X0100050Y0092662D01*
X0099975Y0092737D01*
X0096300Y0092737D02*
X0096300Y0093350D01*
X0090650Y0098650D01*
X0090650Y0118436D01*
X0089562Y0119523D01*
X0089562Y0122750D01*
X0090175Y0123362D01*
X0096912Y0123362D01*
X0097525Y0122750D01*
X0097525Y0120872D01*
X0097550Y0120847D01*
X0098800Y0116300D02*
X0099298Y0116300D01*
X0098800Y0116300D02*
X0098800Y0113250D01*
X0099450Y0110700D02*
X0101838Y0110700D01*
X0102600Y0111462D01*
X0102600Y0117278D01*
X0102598Y0117280D01*
X0102598Y0121348D01*
X0103800Y0122550D01*
X0106753Y0122550D01*
X0106753Y0118810D02*
X0106704Y0118761D01*
X0106704Y0111300D01*
X0099450Y0110700D02*
X0098800Y0110050D01*
X0098800Y0106850D02*
X0100600Y0105050D01*
X0106704Y0105050D01*
X0115767Y0126371D02*
X0115767Y0128952D01*
X0113048Y0128952D01*
X0112592Y0128830D01*
X0112550Y0128805D01*
X0112550Y0130050D01*
X0121300Y0138800D01*
X0123026Y0138800D01*
X0122934Y0138641D01*
X0122831Y0138259D01*
X0122831Y0136381D01*
X0125816Y0136381D01*
X0125816Y0135412D01*
X0122831Y0135412D01*
X0122831Y0133534D01*
X0122934Y0133152D01*
X0123131Y0132810D01*
X0123410Y0132531D01*
X0123745Y0132338D01*
X0123231Y0131825D01*
X0123231Y0130731D01*
X0120137Y0127637D01*
X0120080Y0127852D01*
X0119844Y0128261D01*
X0119511Y0128594D01*
X0119102Y0128830D01*
X0118647Y0128952D01*
X0115928Y0128952D01*
X0115928Y0126371D01*
X0115767Y0126371D01*
X0115767Y0127217D02*
X0115928Y0127217D01*
X0115928Y0128215D02*
X0115767Y0128215D01*
X0112550Y0129214D02*
X0121714Y0129214D01*
X0122712Y0130212D02*
X0112712Y0130212D01*
X0113711Y0131211D02*
X0123231Y0131211D01*
X0123616Y0132209D02*
X0114709Y0132209D01*
X0115708Y0133208D02*
X0122919Y0133208D01*
X0122831Y0134206D02*
X0116706Y0134206D01*
X0117705Y0135205D02*
X0122831Y0135205D01*
X0122831Y0137202D02*
X0119702Y0137202D01*
X0120700Y0138200D02*
X0122831Y0138200D01*
X0125816Y0136203D02*
X0118703Y0136203D01*
X0119870Y0128215D02*
X0120715Y0128215D01*
X0151146Y0109243D02*
X0153231Y0109243D01*
X0152232Y0108245D02*
X0151146Y0108245D01*
X0151146Y0107246D02*
X0151234Y0107246D01*
X0172862Y0105600D02*
X0175344Y0103119D01*
X0186578Y0103119D01*
X0189646Y0100050D01*
X0183396Y0100050D02*
X0182954Y0100050D01*
X0180050Y0100050D01*
X0178681Y0098681D01*
X0176290Y0098681D01*
X0183396Y0100050D02*
X0189646Y0093800D01*
X0195050Y0091300D02*
X0195050Y0105050D01*
X0193800Y0106300D01*
X0189646Y0106300D01*
X0182954Y0106300D02*
X0180050Y0106300D01*
X0177431Y0108919D01*
X0176290Y0108919D01*
X0182954Y0106300D02*
X0182954Y0112550D01*
X0189400Y0112796D02*
X0189400Y0115400D01*
X0188787Y0116012D01*
X0180825Y0116012D01*
X0179600Y0117237D01*
X0179600Y0122504D01*
X0179646Y0122550D01*
X0169288Y0123223D02*
X0169048Y0123223D01*
X0189400Y0112796D02*
X0189646Y0112550D01*
X0207137Y0121226D02*
X0207137Y0121850D01*
X0207137Y0121850D01*
X0207137Y0121225D01*
X0207137Y0121226D01*
X0207137Y0121226D01*
X0209663Y0123223D02*
X0212062Y0123223D01*
X0212062Y0124221D02*
X0209612Y0124221D01*
X0209612Y0125220D02*
X0212062Y0125220D01*
X0212062Y0126218D02*
X0209612Y0126218D01*
X0213900Y0127037D02*
X0215737Y0128875D01*
X0215737Y0136838D01*
X0213775Y0138800D01*
X0211300Y0138800D01*
X0223800Y0142740D02*
X0197740Y0142740D01*
X0196300Y0141300D01*
X0196300Y0138800D01*
X0191300Y0138800D02*
X0191300Y0141300D01*
X0194540Y0144540D01*
X0224546Y0144540D01*
X0228987Y0140099D01*
X0228987Y0107422D01*
X0227019Y0107422D02*
X0227019Y0139522D01*
X0223800Y0142740D01*
X0213900Y0127037D02*
X0213900Y0102537D01*
X0215137Y0101300D01*
X0218928Y0101300D01*
X0218928Y0099331D02*
X0225581Y0099331D01*
X0227550Y0101300D01*
X0231172Y0101300D01*
X0238741Y0101300D01*
X0235193Y0104425D02*
X0234036Y0103269D01*
X0231172Y0103269D01*
X0231172Y0105237D02*
X0231172Y0107560D01*
X0232887Y0109275D01*
X0232887Y0112925D01*
X0235937Y0112775D02*
X0236087Y0112925D01*
X0235937Y0112775D02*
X0235937Y0111112D01*
X0231662Y0117850D02*
X0230587Y0118925D01*
X0220050Y0115454D02*
X0220050Y0112550D01*
X0221113Y0111487D01*
X0221113Y0107422D01*
X0223081Y0107422D02*
X0223081Y0104519D01*
X0223800Y0103800D01*
X0223800Y0103402D01*
X0226300Y0103800D02*
X0226300Y0104928D01*
X0225407Y0105821D01*
X0225407Y0107065D01*
X0225050Y0107422D01*
X0226300Y0103800D02*
X0226500Y0103600D01*
X0226800Y0103600D01*
X0218928Y0099331D02*
X0213141Y0099331D01*
X0212609Y0098800D01*
X0213416Y0095928D02*
X0214443Y0095928D01*
X0215877Y0097363D01*
X0218928Y0097363D01*
X0213416Y0095928D02*
X0212062Y0094575D01*
X0225050Y0095178D02*
X0225050Y0092000D01*
X0225994Y0091056D01*
X0231172Y0097363D02*
X0233775Y0097363D01*
X0234725Y0096412D01*
D35*
X0122550Y0122550D02*
X0115847Y0122550D01*
X0106753Y0126290D02*
X0106290Y0126753D01*
X0097550Y0126753D01*
X0092550Y0126753D01*
X0092550Y0120847D02*
X0092550Y0100050D01*
X0100050Y0092550D01*
X0106704Y0092550D01*
X0106704Y0086300D01*
X0106704Y0098800D02*
X0106704Y0105050D01*
X0077540Y0121034D02*
X0077540Y0130188D01*
X0073800Y0130188D01*
X0075050Y0134863D02*
X0066487Y0134863D01*
X0058800Y0142550D01*
X0052146Y0142550D01*
X0048820Y0121034D02*
X0048298Y0120513D01*
X0073800Y0121034D02*
X0077540Y0121034D01*
D36*
X0097525Y0126778D02*
X0097525Y0128875D01*
X0096704Y0129696D01*
X0096704Y0132550D01*
X0097525Y0126778D02*
X0097550Y0126753D01*
X0111000Y0121525D02*
X0111000Y0116625D01*
X0113396Y0114229D01*
X0113396Y0111300D01*
X0111000Y0121525D02*
X0112025Y0122550D01*
X0115847Y0122550D01*
X0117125Y0130100D02*
X0117125Y0132550D01*
X0115900Y0133775D01*
X0118350Y0100087D02*
X0118350Y0099475D01*
X0117737Y0098862D01*
X0113459Y0098862D01*
X0113396Y0098800D01*
X0127146Y0092550D02*
X0127146Y0086300D01*
X0133050Y0084163D02*
X0133663Y0083550D01*
X0157300Y0083550D01*
X0167100Y0093350D01*
X0167100Y0095249D01*
X0166527Y0095822D01*
X0166527Y0100910D01*
X0166359Y0101078D01*
X0166359Y0102609D01*
D37*
X0187762Y0122550D02*
X0192462Y0117850D01*
X0197362Y0117850D01*
X0187762Y0122550D02*
X0179646Y0122550D01*
X0115900Y0133775D02*
X0112225Y0137450D01*
X0093850Y0137450D01*
X0086500Y0130100D01*
X0086412Y0130188D01*
X0077540Y0130188D01*
X0070060Y0121034D02*
X0068125Y0121034D01*
X0048820Y0121034D01*
D38*
X0146300Y0128800D02*
X0146300Y0134361D01*
M02*
