<svg version="1.1" xmlns="http://www.w3.org/2000/svg" xmlns:xlink="http://www.w3.org/1999/xlink" stroke-linecap="round" stroke-linejoin="round" stroke-width="0" fill-rule="evenodd" width="2.3682in" height="0.7934in" viewBox="347.5 710 2368.2 793.4" id="OtKHzjtnKH1iBRNixArz"><defs><rect x="-19.685" y="-21.655" width="39.37" height="43.31" id="OtKHzjtnKH1iBRNixArz_pad-12"/><rect x="-15.75" y="-11.81" width="31.5" height="23.62" id="OtKHzjtnKH1iBRNixArz_pad-13"/><rect x="-21.655" y="-19.685" width="43.31" height="39.37" id="OtKHzjtnKH1iBRNixArz_pad-14"/><rect x="-33.465" y="-39.37" width="66.93" height="78.74" id="OtKHzjtnKH1iBRNixArz_pad-15"/><rect x="-13.78" y="-17.715" width="27.56" height="35.43" id="OtKHzjtnKH1iBRNixArz_pad-17"/><rect x="-23.62" y="-23.62" width="47.24" height="47.24" id="OtKHzjtnKH1iBRNixArz_pad-19"/><rect x="-10.825" y="-23.62" width="21.65" height="47.24" id="OtKHzjtnKH1iBRNixArz_pad-20"/><rect x="-12.5" y="-20" width="25" height="40" id="OtKHzjtnKH1iBRNixArz_pad-21"/><rect x="-10" y="-13.78" width="20" height="27.56" id="OtKHzjtnKH1iBRNixArz_pad-22"/><rect x="-17.715" y="-13.78" width="35.43" height="27.56" id="OtKHzjtnKH1iBRNixArz_pad-23"/></defs><g transform="translate(0,2213.4) scale(1,-1)" fill="currentColor" stroke="currentColor"><path d="M 350.5 713 2712.7 713 2712.7 1500.4 350.5 1500.4 350.5 713" fill="none" stroke-width="6"/><path d="M 1041.89 1196.81 1093.17 1196.81 1093.17 1179.39 1041.89 1179.39 1041.89 1196.81 M 1041.89 1184.91 1093.17 1184.91 M 1093.17 1190.43 1041.89 1190.43 M 1041.89 1195.95 1093.17 1195.95 M 1093.17 1234.21 1041.89 1234.21 M 1093.17 1234.21 1093.17 1216.79 1041.89 1216.79 1041.89 1234.21 M 1041.89 1222.31 1093.17 1222.31 M 1093.17 1227.83 1041.89 1227.83 M 1041.89 1233.35 1093.17 1233.35 M 1132.83 1234.21 1184.11 1234.21 1184.11 1216.79 1132.83 1216.79 1132.83 1234.21 M 1132.83 1222.31 1184.11 1222.31 M 1184.11 1227.83 1132.83 1227.83 M 1132.83 1233.35 1184.11 1233.35 M 1184.11 1271.61 1132.83 1271.61 M 1184.11 1271.61 1184.11 1254.19 1132.83 1254.19 1132.83 1271.61 M 1132.83 1259.71 1184.11 1259.71 M 1184.11 1265.23 1132.83 1265.23 M 1132.83 1270.75 1184.11 1270.75 M 1093.17 1271.61 1041.89 1271.61 M 1093.17 1271.61 1093.17 1254.19 1041.89 1254.19 1041.89 1271.61 M 1041.89 1259.71 1093.17 1259.71 M 1093.17 1265.23 1041.89 1265.23 M 1041.89 1270.75 1093.17 1270.75 M 1132.83 1196.81 1184.11 1196.81 1184.11 1179.39 1132.83 1179.39 1132.83 1196.81 M 1132.83 1184.91 1184.11 1184.91 M 1184.11 1190.43 1132.83 1190.43 M 1132.83 1195.95 1184.11 1195.95" fill="none" stroke-width="5.81"/><use xlink:href="#OtKHzjtnKH1iBRNixArz_pad-12" x="1263" y="1146.46"/><use xlink:href="#OtKHzjtnKH1iBRNixArz_pad-12" x="1263" y="1079.54"/><use xlink:href="#OtKHzjtnKH1iBRNixArz_pad-12" x="1263" y="1292.04"/><use xlink:href="#OtKHzjtnKH1iBRNixArz_pad-12" x="1263" y="1358.96"/><use xlink:href="#OtKHzjtnKH1iBRNixArz_pad-12" x="900.5" y="883.96"/><use xlink:href="#OtKHzjtnKH1iBRNixArz_pad-12" x="900.5" y="817.04"/><use xlink:href="#OtKHzjtnKH1iBRNixArz_pad-12" x="2200.5" y="1154.54"/><use xlink:href="#OtKHzjtnKH1iBRNixArz_pad-12" x="2200.5" y="1221.46"/><use xlink:href="#OtKHzjtnKH1iBRNixArz_pad-12" x="2638" y="1021.46"/><use xlink:href="#OtKHzjtnKH1iBRNixArz_pad-12" x="2638" y="954.54"/><use xlink:href="#OtKHzjtnKH1iBRNixArz_pad-13" x="975.5" y="1208.47"/><use xlink:href="#OtKHzjtnKH1iBRNixArz_pad-13" x="925.5" y="1208.47"/><use xlink:href="#OtKHzjtnKH1iBRNixArz_pad-13" x="925.5" y="1267.53"/><use xlink:href="#OtKHzjtnKH1iBRNixArz_pad-13" x="975.5" y="1267.53"/><use xlink:href="#OtKHzjtnKH1iBRNixArz_pad-14" x="967.04" y="1325.5"/><use xlink:href="#OtKHzjtnKH1iBRNixArz_pad-14" x="1033.96" y="1325.5"/><use xlink:href="#OtKHzjtnKH1iBRNixArz_pad-14" x="1067.04" y="1113"/><use xlink:href="#OtKHzjtnKH1iBRNixArz_pad-14" x="1133.96" y="1113"/><use xlink:href="#OtKHzjtnKH1iBRNixArz_pad-14" x="1133.96" y="1050.5"/><use xlink:href="#OtKHzjtnKH1iBRNixArz_pad-14" x="1067.04" y="1050.5"/><use xlink:href="#OtKHzjtnKH1iBRNixArz_pad-14" x="1067.04" y="988"/><use xlink:href="#OtKHzjtnKH1iBRNixArz_pad-14" x="1133.96" y="988"/><use xlink:href="#OtKHzjtnKH1iBRNixArz_pad-14" x="1133.96" y="925.5"/><use xlink:href="#OtKHzjtnKH1iBRNixArz_pad-14" x="1067.04" y="925.5"/><use xlink:href="#OtKHzjtnKH1iBRNixArz_pad-14" x="1067.04" y="863"/><use xlink:href="#OtKHzjtnKH1iBRNixArz_pad-14" x="1133.96" y="863"/><use xlink:href="#OtKHzjtnKH1iBRNixArz_pad-14" x="1204.54" y="863"/><use xlink:href="#OtKHzjtnKH1iBRNixArz_pad-14" x="1271.46" y="863"/><use xlink:href="#OtKHzjtnKH1iBRNixArz_pad-14" x="1271.46" y="925.5"/><use xlink:href="#OtKHzjtnKH1iBRNixArz_pad-14" x="1204.54" y="925.5"/><use xlink:href="#OtKHzjtnKH1iBRNixArz_pad-14" x="1729.54" y="1225.5"/><use xlink:href="#OtKHzjtnKH1iBRNixArz_pad-14" x="1796.46" y="1225.5"/><use xlink:href="#OtKHzjtnKH1iBRNixArz_pad-14" x="1829.54" y="1125.5"/><use xlink:href="#OtKHzjtnKH1iBRNixArz_pad-14" x="1896.46" y="1125.5"/><use xlink:href="#OtKHzjtnKH1iBRNixArz_pad-14" x="1896.46" y="1063"/><use xlink:href="#OtKHzjtnKH1iBRNixArz_pad-14" x="1829.54" y="1063"/><use xlink:href="#OtKHzjtnKH1iBRNixArz_pad-14" x="1829.54" y="1000.5"/><use xlink:href="#OtKHzjtnKH1iBRNixArz_pad-14" x="1896.46" y="1000.5"/><use xlink:href="#OtKHzjtnKH1iBRNixArz_pad-14" x="1896.46" y="938"/><use xlink:href="#OtKHzjtnKH1iBRNixArz_pad-14" x="1829.54" y="938"/><use xlink:href="#OtKHzjtnKH1iBRNixArz_pad-14" x="521.46" y="1363"/><use xlink:href="#OtKHzjtnKH1iBRNixArz_pad-14" x="454.54" y="1363"/><use xlink:href="#OtKHzjtnKH1iBRNixArz_pad-14" x="454.54" y="1425.5"/><use xlink:href="#OtKHzjtnKH1iBRNixArz_pad-14" x="521.46" y="1425.5"/><use xlink:href="#OtKHzjtnKH1iBRNixArz_pad-15" x="1463" y="1343.61"/><use xlink:href="#OtKHzjtnKH1iBRNixArz_pad-15" x="1463" y="1107.39"/><path d="M 2178.36 1048.53 2200.2 1048.53 M 2178.36 1048.53 2178.36 1056.21 2200.2 1056.21 2200.2 1048.53 M 2200.2 1050.96 2178.36 1050.96 M 2178.36 1053.39 2200.2 1053.39 M 2200.2 1055.82 2178.36 1055.82 M 2178.36 1028.85 2200.2 1028.85 M 2178.36 1028.85 2178.36 1036.53 2200.2 1036.53 2200.2 1028.85 M 2200.2 1031.28 2178.36 1031.28 M 2178.36 1033.71 2200.2 1033.71 M 2200.2 1036.14 2178.36 1036.14 M 2178.36 1009.16 2200.2 1009.16 M 2178.36 1009.16 2178.36 1016.84 2200.2 1016.84 2200.2 1009.16 M 2200.2 1011.59 2178.36 1011.59 M 2178.36 1014.02 2200.2 1014.02 M 2200.2 1016.45 2178.36 1016.45 M 2178.36 989.47 2200.2 989.47 M 2178.36 989.47 2178.36 997.15 2200.2 997.15 2200.2 989.47 M 2200.2 991.9 2178.36 991.9 M 2178.36 994.33 2200.2 994.33 M 2200.2 996.76 2178.36 996.76 M 2178.36 969.79 2200.2 969.79 M 2178.36 969.79 2178.36 977.47 2200.2 977.47 2200.2 969.79 M 2200.2 972.22 2178.36 972.22 M 2178.36 974.65 2200.2 974.65 M 2200.2 977.08 2178.36 977.08 M 2214.97 962.7 2214.97 940.86 2207.29 940.86 2207.29 962.7 2214.97 962.7 M 2214.97 943.29 2207.29 943.29 M 2207.29 945.72 2214.97 945.72 M 2214.97 948.15 2207.29 948.15 M 2207.29 950.58 2214.97 950.58 M 2214.97 953.01 2207.29 953.01 M 2207.29 955.44 2214.97 955.44 M 2214.97 957.87 2207.29 957.87 M 2207.29 960.3 2214.97 960.3 M 2234.65 962.7 2234.65 940.86 2226.97 940.86 2226.97 962.7 2234.65 962.7 M 2234.65 943.29 2226.97 943.29 M 2226.97 945.72 2234.65 945.72 M 2234.65 948.15 2226.97 948.15 M 2226.97 950.58 2234.65 950.58 M 2234.65 953.01 2226.97 953.01 M 2226.97 955.44 2234.65 955.44 M 2234.65 957.87 2226.97 957.87 M 2226.97 960.3 2234.65 960.3 M 2254.34 962.7 2254.34 940.86 2246.66 940.86 2246.66 962.7 2254.34 962.7 M 2254.34 943.29 2246.66 943.29 M 2246.66 945.72 2254.34 945.72 M 2254.34 948.15 2246.66 948.15 M 2246.66 950.58 2254.34 950.58 M 2254.34 953.01 2246.66 953.01 M 2246.66 955.44 2254.34 955.44 M 2254.34 957.87 2246.66 957.87 M 2246.66 960.3 2254.34 960.3 M 2274.03 962.7 2274.03 940.86 2266.35 940.86 2266.35 962.7 2274.03 962.7 M 2274.03 943.29 2266.35 943.29 M 2266.35 945.72 2274.03 945.72 M 2274.03 948.15 2266.35 948.15 M 2266.35 950.58 2274.03 950.58 M 2274.03 953.01 2266.35 953.01 M 2266.35 955.44 2274.03 955.44 M 2274.03 957.87 2266.35 957.87 M 2266.35 960.3 2274.03 960.3 M 2293.71 962.7 2293.71 940.86 2286.03 940.86 2286.03 962.7 2293.71 962.7 M 2293.71 943.29 2286.03 943.29 M 2286.03 945.72 2293.71 945.72 M 2293.71 948.15 2286.03 948.15 M 2286.03 950.58 2293.71 950.58 M 2293.71 953.01 2286.03 953.01 M 2286.03 955.44 2293.71 955.44 M 2293.71 957.87 2286.03 957.87 M 2286.03 960.3 2293.71 960.3 M 2300.8 969.79 2322.64 969.79 M 2300.8 969.79 2300.8 977.47 2322.64 977.47 2322.64 969.79 M 2322.64 972.22 2300.8 972.22 M 2300.8 974.65 2322.64 974.65 M 2322.64 977.08 2300.8 977.08 M 2300.8 989.47 2322.64 989.47 M 2300.8 989.47 2300.8 997.15 2322.64 997.15 2322.64 989.47 M 2322.64 991.9 2300.8 991.9 M 2300.8 994.33 2322.64 994.33 M 2322.64 996.76 2300.8 996.76 M 2300.8 1009.16 2322.64 1009.16 M 2300.8 1009.16 2300.8 1016.84 2322.64 1016.84 2322.64 1009.16 M 2322.64 1011.59 2300.8 1011.59 M 2300.8 1014.02 2322.64 1014.02 M 2322.64 1016.45 2300.8 1016.45 M 2300.8 1028.85 2322.64 1028.85 M 2300.8 1028.85 2300.8 1036.53 2322.64 1036.53 2322.64 1028.85 M 2322.64 1031.28 2300.8 1031.28 M 2300.8 1033.71 2322.64 1033.71 M 2322.64 1036.14 2300.8 1036.14 M 2300.8 1048.53 2322.64 1048.53 M 2300.8 1048.53 2300.8 1056.21 2322.64 1056.21 2322.64 1048.53 M 2322.64 1050.96 2300.8 1050.96 M 2300.8 1053.39 2322.64 1053.39 M 2322.64 1055.82 2300.8 1055.82 M 2293.71 1063.3 2293.71 1085.14 M 2293.71 1063.3 2286.03 1063.3 2286.03 1085.14 2293.71 1085.14 M 2293.71 1065.73 2286.03 1065.73 M 2286.03 1068.16 2293.71 1068.16 M 2293.71 1070.59 2286.03 1070.59 M 2286.03 1073.02 2293.71 1073.02 M 2293.71 1075.45 2286.03 1075.45 M 2286.03 1077.88 2293.71 1077.88 M 2293.71 1080.31 2286.03 1080.31 M 2286.03 1082.74 2293.71 1082.74 M 2274.03 1085.14 2274.03 1063.3 2266.35 1063.3 2266.35 1085.14 2274.03 1085.14 M 2274.03 1065.73 2266.35 1065.73 M 2266.35 1068.16 2274.03 1068.16 M 2274.03 1070.59 2266.35 1070.59 M 2266.35 1073.02 2274.03 1073.02 M 2274.03 1075.45 2266.35 1075.45 M 2266.35 1077.88 2274.03 1077.88 M 2274.03 1080.31 2266.35 1080.31 M 2266.35 1082.74 2274.03 1082.74 M 2254.34 1085.14 2254.34 1063.3 2246.66 1063.3 2246.66 1085.14 2254.34 1085.14 M 2254.34 1065.73 2246.66 1065.73 M 2246.66 1068.16 2254.34 1068.16 M 2254.34 1070.59 2246.66 1070.59 M 2246.66 1073.02 2254.34 1073.02 M 2254.34 1075.45 2246.66 1075.45 M 2246.66 1077.88 2254.34 1077.88 M 2254.34 1080.31 2246.66 1080.31 M 2246.66 1082.74 2254.34 1082.74 M 2234.65 1085.14 2234.65 1063.3 2226.97 1063.3 2226.97 1085.14 2234.65 1085.14 M 2234.65 1065.73 2226.97 1065.73 M 2226.97 1068.16 2234.65 1068.16 M 2234.65 1070.59 2226.97 1070.59 M 2226.97 1073.02 2234.65 1073.02 M 2234.65 1075.45 2226.97 1075.45 M 2226.97 1077.88 2234.65 1077.88 M 2234.65 1080.31 2226.97 1080.31 M 2226.97 1082.74 2234.65 1082.74 M 2214.97 1085.14 2214.97 1063.3 2207.29 1063.3 2207.29 1085.14 2214.97 1085.14 M 2214.97 1065.73 2207.29 1065.73 M 2207.29 1068.16 2214.97 1068.16 M 2214.97 1070.59 2207.29 1070.59 M 2207.29 1073.02 2214.97 1073.02 M 2214.97 1075.45 2207.29 1075.45 M 2207.29 1077.88 2214.97 1077.88 M 2214.97 1080.31 2207.29 1080.31 M 2207.29 1082.74 2214.97 1082.74" fill="none" stroke-width="2.56"/><use xlink:href="#OtKHzjtnKH1iBRNixArz_pad-17" x="2126.09" y="988"/><use xlink:href="#OtKHzjtnKH1iBRNixArz_pad-17" x="2074.91" y="988"/><use xlink:href="#OtKHzjtnKH1iBRNixArz_pad-17" x="2387.41" y="1013"/><use xlink:href="#OtKHzjtnKH1iBRNixArz_pad-17" x="2438.59" y="1013"/><path d="M 2082.79 1214.03 2082.79 1223.08 2067.04 1223.08 2067.04 1205.76 2076.1 1205.76 2076.1 1214.03 2082.79 1214.03 M 2082.79 1214.17 2067.04 1214.17 M 2067.04 1213.79 2076.1 1213.79 M 2076.1 1213.41 2067.04 1213.41 M 2067.04 1213.03 2076.1 1213.03 M 2076.1 1212.66 2067.04 1212.66 M 2067.04 1212.28 2076.1 1212.28 M 2076.1 1211.9 2067.04 1211.9 M 2067.04 1211.52 2076.1 1211.52 M 2076.1 1211.14 2067.04 1211.14 M 2067.04 1210.76 2076.1 1210.76 M 2076.1 1210.38 2067.04 1210.38 M 2067.04 1210 2076.1 1210 M 2076.1 1209.63 2067.04 1209.63 M 2067.04 1209.25 2076.1 1209.25 M 2076.1 1208.87 2067.04 1208.87 M 2067.04 1208.49 2076.1 1208.49 M 2076.1 1208.11 2067.04 1208.11 M 2067.04 1207.73 2076.1 1207.73 M 2076.1 1207.35 2067.04 1207.35 M 2067.04 1206.97 2076.1 1206.97 M 2076.1 1206.59 2067.04 1206.59 M 2067.04 1206.22 2076.1 1206.22 M 2076.1 1205.84 2067.04 1205.84 M 2059.96 1205.84 2050.9 1205.84 M 2050.9 1205.76 2059.96 1205.76 2059.96 1223.08 2044.21 1223.08 2044.21 1214.03 2050.9 1214.03 2050.9 1205.76 M 2050.9 1206.22 2059.96 1206.22 M 2059.96 1206.59 2050.9 1206.59 M 2050.9 1206.97 2059.96 1206.97 M 2059.96 1207.35 2050.9 1207.35 M 2050.9 1207.73 2059.96 1207.73 M 2059.96 1208.11 2050.9 1208.11 M 2050.9 1208.49 2059.96 1208.49 M 2059.96 1208.87 2050.9 1208.87 M 2050.9 1209.25 2059.96 1209.25 M 2059.96 1209.63 2050.9 1209.63 M 2050.9 1210 2059.96 1210 M 2059.96 1210.38 2050.9 1210.38 M 2050.9 1210.76 2059.96 1210.76 M 2059.96 1211.14 2050.9 1211.14 M 2050.9 1211.52 2059.96 1211.52 M 2059.96 1211.9 2050.9 1211.9 M 2050.9 1212.28 2059.96 1212.28 M 2059.96 1212.66 2050.9 1212.66 M 2050.9 1213.03 2059.96 1213.03 M 2059.96 1213.41 2050.9 1213.41 M 2050.9 1213.79 2059.96 1213.79 M 2059.96 1214.17 2044.21 1214.17 M 2044.21 1214.55 2059.96 1214.55 M 2059.96 1214.93 2044.21 1214.93 M 2044.21 1215.31 2059.96 1215.31 M 2059.96 1215.69 2044.21 1215.69 M 2044.21 1216.06 2059.96 1216.06 M 2059.96 1216.44 2044.21 1216.44 M 2044.21 1216.82 2059.96 1216.82 M 2059.96 1217.2 2044.21 1217.2 M 2044.21 1217.58 2059.96 1217.58 M 2059.96 1217.96 2044.21 1217.96 M 2044.21 1218.34 2059.96 1218.34 M 2059.96 1218.72 2044.21 1218.72 M 2044.21 1219.1 2059.96 1219.1 M 2059.96 1219.47 2044.21 1219.47 M 2044.21 1219.85 2059.96 1219.85 M 2059.96 1220.23 2044.21 1220.23 M 2044.21 1220.61 2059.96 1220.61 M 2059.96 1220.99 2044.21 1220.99 M 2044.21 1221.37 2059.96 1221.37 M 2059.96 1221.75 2044.21 1221.75 M 2044.21 1222.13 2059.96 1222.13 M 2059.96 1222.5 2044.21 1222.5 M 2044.21 1222.88 2059.96 1222.88 M 2067.04 1222.88 2082.79 1222.88 M 2082.79 1222.5 2067.04 1222.5 M 2067.04 1222.13 2082.79 1222.13 M 2082.79 1221.75 2067.04 1221.75 M 2067.04 1221.37 2082.79 1221.37 M 2082.79 1220.99 2067.04 1220.99 M 2067.04 1220.61 2082.79 1220.61 M 2082.79 1220.23 2067.04 1220.23 M 2067.04 1219.85 2082.79 1219.85 M 2082.79 1219.47 2067.04 1219.47 M 2067.04 1219.1 2082.79 1219.1 M 2082.79 1218.72 2067.04 1218.72 M 2067.04 1218.34 2082.79 1218.34 M 2082.79 1217.96 2067.04 1217.96 M 2067.04 1217.58 2082.79 1217.58 M 2082.79 1217.2 2067.04 1217.2 M 2067.04 1216.82 2082.79 1216.82 M 2082.79 1216.44 2067.04 1216.44 M 2067.04 1216.06 2082.79 1216.06 M 2082.79 1215.69 2067.04 1215.69 M 2067.04 1215.31 2082.79 1215.31 M 2082.79 1214.93 2067.04 1214.93 M 2067.04 1214.55 2082.79 1214.55 M 2082.79 1230.17 2067.04 1230.17 2067.04 1247.49 2076.1 1247.49 2076.1 1239.22 2082.79 1239.22 2082.79 1230.17 M 2082.79 1230.46 2067.04 1230.46 M 2067.04 1230.84 2082.79 1230.84 M 2082.79 1231.22 2067.04 1231.22 M 2067.04 1231.6 2082.79 1231.6 M 2082.79 1231.98 2067.04 1231.98 M 2067.04 1232.35 2082.79 1232.35 M 2082.79 1232.73 2067.04 1232.73 M 2067.04 1233.11 2082.79 1233.11 M 2082.79 1233.49 2067.04 1233.49 M 2067.04 1233.87 2082.79 1233.87 M 2082.79 1234.25 2067.04 1234.25 M 2067.04 1234.63 2082.79 1234.63 M 2082.79 1235.01 2067.04 1235.01 M 2067.04 1235.38 2082.79 1235.38 M 2082.79 1235.76 2067.04 1235.76 M 2067.04 1236.14 2082.79 1236.14 M 2082.79 1236.52 2067.04 1236.52 M 2067.04 1236.9 2082.79 1236.9 M 2082.79 1237.28 2067.04 1237.28 M 2067.04 1237.66 2082.79 1237.66 M 2082.79 1238.04 2067.04 1238.04 M 2067.04 1238.41 2082.79 1238.41 M 2082.79 1238.79 2067.04 1238.79 M 2067.04 1239.17 2082.79 1239.17 M 2076.1 1239.55 2067.04 1239.55 M 2067.04 1239.93 2076.1 1239.93 M 2076.1 1240.31 2067.04 1240.31 M 2067.04 1240.69 2076.1 1240.69 M 2076.1 1241.07 2067.04 1241.07 M 2067.04 1241.45 2076.1 1241.45 M 2076.1 1241.82 2067.04 1241.82 M 2067.04 1242.2 2076.1 1242.2 M 2076.1 1242.58 2067.04 1242.58 M 2067.04 1242.96 2076.1 1242.96 M 2076.1 1243.34 2067.04 1243.34 M 2067.04 1243.72 2076.1 1243.72 M 2076.1 1244.1 2067.04 1244.1 M 2067.04 1244.48 2076.1 1244.48 M 2076.1 1244.85 2067.04 1244.85 M 2067.04 1245.23 2076.1 1245.23 M 2076.1 1245.61 2067.04 1245.61 M 2067.04 1245.99 2076.1 1245.99 M 2076.1 1246.37 2067.04 1246.37 M 2067.04 1246.75 2076.1 1246.75 M 2076.1 1247.13 2067.04 1247.13 M 2059.96 1247.13 2050.9 1247.13 M 2050.9 1247.49 2059.96 1247.49 2059.96 1230.17 2044.21 1230.17 2044.21 1239.22 2050.9 1239.22 2050.9 1247.49 M 2050.9 1246.75 2059.96 1246.75 M 2059.96 1246.37 2050.9 1246.37 M 2050.9 1245.99 2059.96 1245.99 M 2059.96 1245.61 2050.9 1245.61 M 2050.9 1245.23 2059.96 1245.23 M 2059.96 1244.85 2050.9 1244.85 M 2050.9 1244.48 2059.96 1244.48 M 2059.96 1244.1 2050.9 1244.1 M 2050.9 1243.72 2059.96 1243.72 M 2059.96 1243.34 2050.9 1243.34 M 2050.9 1242.96 2059.96 1242.96 M 2059.96 1242.58 2050.9 1242.58 M 2050.9 1242.2 2059.96 1242.2 M 2059.96 1241.82 2050.9 1241.82 M 2050.9 1241.45 2059.96 1241.45 M 2059.96 1241.07 2050.9 1241.07 M 2050.9 1240.69 2059.96 1240.69 M 2059.96 1240.31 2050.9 1240.31 M 2050.9 1239.93 2059.96 1239.93 M 2059.96 1239.55 2050.9 1239.55 M 2044.21 1239.17 2059.96 1239.17 M 2059.96 1238.79 2044.21 1238.79 M 2044.21 1238.41 2059.96 1238.41 M 2059.96 1238.04 2044.21 1238.04 M 2044.21 1237.66 2059.96 1237.66 M 2059.96 1237.28 2044.21 1237.28 M 2044.21 1236.9 2059.96 1236.9 M 2059.96 1236.52 2044.21 1236.52 M 2044.21 1236.14 2059.96 1236.14 M 2059.96 1235.76 2044.21 1235.76 M 2044.21 1235.38 2059.96 1235.38 M 2059.96 1235.01 2044.21 1235.01 M 2044.21 1234.63 2059.96 1234.63 M 2059.96 1234.25 2044.21 1234.25 M 2044.21 1233.87 2059.96 1233.87 M 2059.96 1233.49 2044.21 1233.49 M 2044.21 1233.11 2059.96 1233.11 M 2059.96 1232.73 2044.21 1232.73 M 2044.21 1232.35 2059.96 1232.35 M 2059.96 1231.98 2044.21 1231.98 M 2044.21 1231.6 2059.96 1231.6 M 2059.96 1231.22 2044.21 1231.22 M 2044.21 1230.84 2059.96 1230.84 M 2059.96 1230.46 2044.21 1230.46 M 1988.92 1230.46 1973.17 1230.46 M 1973.17 1230.17 1973.17 1247.49 1982.22 1247.49 1982.22 1239.22 1988.92 1239.22 1988.92 1230.17 1973.17 1230.17 M 1973.17 1230.84 1988.92 1230.84 M 1988.92 1231.22 1973.17 1231.22 M 1973.17 1231.6 1988.92 1231.6 M 1988.92 1231.98 1973.17 1231.98 M 1973.17 1232.35 1988.92 1232.35 M 1988.92 1232.73 1973.17 1232.73 M 1973.17 1233.11 1988.92 1233.11 M 1988.92 1233.49 1973.17 1233.49 M 1973.17 1233.87 1988.92 1233.87 M 1988.92 1234.25 1973.17 1234.25 M 1973.17 1234.63 1988.92 1234.63 M 1988.92 1235.01 1973.17 1235.01 M 1973.17 1235.38 1988.92 1235.38 M 1988.92 1235.76 1973.17 1235.76 M 1973.17 1236.14 1988.92 1236.14 M 1988.92 1236.52 1973.17 1236.52 M 1973.17 1236.9 1988.92 1236.9 M 1988.92 1237.28 1973.17 1237.28 M 1973.17 1237.66 1988.92 1237.66 M 1988.92 1238.04 1973.17 1238.04 M 1973.17 1238.41 1988.92 1238.41 M 1988.92 1238.79 1973.17 1238.79 M 1973.17 1239.17 1988.92 1239.17 M 1982.22 1239.55 1973.17 1239.55 M 1973.17 1239.93 1982.22 1239.93 M 1982.22 1240.31 1973.17 1240.31 M 1973.17 1240.69 1982.22 1240.69 M 1982.22 1241.07 1973.17 1241.07 M 1973.17 1241.45 1982.22 1241.45 M 1982.22 1241.82 1973.17 1241.82 M 1973.17 1242.2 1982.22 1242.2 M 1982.22 1242.58 1973.17 1242.58 M 1973.17 1242.96 1982.22 1242.96 M 1982.22 1243.34 1973.17 1243.34 M 1973.17 1243.72 1982.22 1243.72 M 1982.22 1244.1 1973.17 1244.1 M 1973.17 1244.48 1982.22 1244.48 M 1982.22 1244.85 1973.17 1244.85 M 1973.17 1245.23 1982.22 1245.23 M 1982.22 1245.61 1973.17 1245.61 M 1973.17 1245.99 1982.22 1245.99 M 1982.22 1246.37 1973.17 1246.37 M 1973.17 1246.75 1982.22 1246.75 M 1982.22 1247.13 1973.17 1247.13 M 1966.08 1247.13 1957.03 1247.13 M 1957.03 1247.49 1966.08 1247.49 1966.08 1230.17 1950.33 1230.17 1950.33 1239.22 1957.03 1239.22 1957.03 1247.49 M 1957.03 1246.75 1966.08 1246.75 M 1966.08 1246.37 1957.03 1246.37 M 1957.03 1245.99 1966.08 1245.99 M 1966.08 1245.61 1957.03 1245.61 M 1957.03 1245.23 1966.08 1245.23 M 1966.08 1244.85 1957.03 1244.85 M 1957.03 1244.48 1966.08 1244.48 M 1966.08 1244.1 1957.03 1244.1 M 1957.03 1243.72 1966.08 1243.72 M 1966.08 1243.34 1957.03 1243.34 M 1957.03 1242.96 1966.08 1242.96 M 1966.08 1242.58 1957.03 1242.58 M 1957.03 1242.2 1966.08 1242.2 M 1966.08 1241.82 1957.03 1241.82 M 1957.03 1241.45 1966.08 1241.45 M 1966.08 1241.07 1957.03 1241.07 M 1957.03 1240.69 1966.08 1240.69 M 1966.08 1240.31 1957.03 1240.31 M 1957.03 1239.93 1966.08 1239.93 M 1966.08 1239.55 1957.03 1239.55 M 1950.33 1239.17 1966.08 1239.17 M 1966.08 1238.79 1950.33 1238.79 M 1950.33 1238.41 1966.08 1238.41 M 1966.08 1238.04 1950.33 1238.04 M 1950.33 1237.66 1966.08 1237.66 M 1966.08 1237.28 1950.33 1237.28 M 1950.33 1236.9 1966.08 1236.9 M 1966.08 1236.52 1950.33 1236.52 M 1950.33 1236.14 1966.08 1236.14 M 1966.08 1235.76 1950.33 1235.76 M 1950.33 1235.38 1966.08 1235.38 M 1966.08 1235.01 1950.33 1235.01 M 1950.33 1234.63 1966.08 1234.63 M 1966.08 1234.25 1950.33 1234.25 M 1950.33 1233.87 1966.08 1233.87 M 1966.08 1233.49 1950.33 1233.49 M 1950.33 1233.11 1966.08 1233.11 M 1966.08 1232.73 1950.33 1232.73 M 1950.33 1232.35 1966.08 1232.35 M 1966.08 1231.98 1950.33 1231.98 M 1950.33 1231.6 1966.08 1231.6 M 1966.08 1231.22 1950.33 1231.22 M 1950.33 1230.84 1966.08 1230.84 M 1966.08 1230.46 1950.33 1230.46 M 1950.33 1223.08 1950.33 1214.03 1957.03 1214.03 1957.03 1205.76 1966.08 1205.76 1966.08 1223.08 1950.33 1223.08 M 1950.33 1222.88 1966.08 1222.88 M 1966.08 1222.5 1950.33 1222.5 M 1950.33 1222.13 1966.08 1222.13 M 1966.08 1221.75 1950.33 1221.75 M 1950.33 1221.37 1966.08 1221.37 M 1966.08 1220.99 1950.33 1220.99 M 1950.33 1220.61 1966.08 1220.61 M 1966.08 1220.23 1950.33 1220.23 M 1950.33 1219.85 1966.08 1219.85 M 1966.08 1219.47 1950.33 1219.47 M 1950.33 1219.1 1966.08 1219.1 M 1966.08 1218.72 1950.33 1218.72 M 1950.33 1218.34 1966.08 1218.34 M 1966.08 1217.96 1950.33 1217.96 M 1950.33 1217.58 1966.08 1217.58 M 1966.08 1217.2 1950.33 1217.2 M 1950.33 1216.82 1966.08 1216.82 M 1966.08 1216.44 1950.33 1216.44 M 1950.33 1216.06 1966.08 1216.06 M 1966.08 1215.69 1950.33 1215.69 M 1950.33 1215.31 1966.08 1215.31 M 1966.08 1214.93 1950.33 1214.93 M 1950.33 1214.55 1966.08 1214.55 M 1966.08 1214.17 1950.33 1214.17 M 1957.03 1213.79 1966.08 1213.79 M 1966.08 1213.41 1957.03 1213.41 M 1957.03 1213.03 1966.08 1213.03 M 1966.08 1212.66 1957.03 1212.66 M 1957.03 1212.28 1966.08 1212.28 M 1966.08 1211.9 1957.03 1211.9 M 1957.03 1211.52 1966.08 1211.52 M 1966.08 1211.14 1957.03 1211.14 M 1957.03 1210.76 1966.08 1210.76 M 1966.08 1210.38 1957.03 1210.38 M 1957.03 1210 1966.08 1210 M 1966.08 1209.63 1957.03 1209.63 M 1957.03 1209.25 1966.08 1209.25 M 1966.08 1208.87 1957.03 1208.87 M 1957.03 1208.49 1966.08 1208.49 M 1966.08 1208.11 1957.03 1208.11 M 1957.03 1207.73 1966.08 1207.73 M 1966.08 1207.35 1957.03 1207.35 M 1957.03 1206.97 1966.08 1206.97 M 1966.08 1206.59 1957.03 1206.59 M 1957.03 1206.22 1966.08 1206.22 M 1966.08 1205.84 1957.03 1205.84 M 1973.17 1205.84 1982.22 1205.84 M 1982.22 1205.76 1973.17 1205.76 1973.17 1223.08 1988.92 1223.08 1988.92 1214.03 1982.22 1214.03 1982.22 1205.76 M 1982.22 1206.22 1973.17 1206.22 M 1973.17 1206.59 1982.22 1206.59 M 1982.22 1206.97 1973.17 1206.97 M 1973.17 1207.35 1982.22 1207.35 M 1982.22 1207.73 1973.17 1207.73 M 1973.17 1208.11 1982.22 1208.11 M 1982.22 1208.49 1973.17 1208.49 M 1973.17 1208.87 1982.22 1208.87 M 1982.22 1209.25 1973.17 1209.25 M 1973.17 1209.63 1982.22 1209.63 M 1982.22 1210 1973.17 1210 M 1973.17 1210.38 1982.22 1210.38 M 1982.22 1210.76 1973.17 1210.76 M 1973.17 1211.14 1982.22 1211.14 M 1982.22 1211.52 1973.17 1211.52 M 1973.17 1211.9 1982.22 1211.9 M 1982.22 1212.28 1973.17 1212.28 M 1973.17 1212.66 1982.22 1212.66 M 1982.22 1213.03 1973.17 1213.03 M 1973.17 1213.41 1982.22 1213.41 M 1982.22 1213.79 1973.17 1213.79 M 1973.17 1214.17 1988.92 1214.17 M 1988.92 1214.55 1973.17 1214.55 M 1973.17 1214.93 1988.92 1214.93 M 1988.92 1215.31 1973.17 1215.31 M 1973.17 1215.69 1988.92 1215.69 M 1988.92 1216.06 1973.17 1216.06 M 1973.17 1216.44 1988.92 1216.44 M 1988.92 1216.82 1973.17 1216.82 M 1973.17 1217.2 1988.92 1217.2 M 1988.92 1217.58 1973.17 1217.58 M 1973.17 1217.96 1988.92 1217.96 M 1988.92 1218.34 1973.17 1218.34 M 1973.17 1218.72 1988.92 1218.72 M 1988.92 1219.1 1973.17 1219.1 M 1973.17 1219.47 1988.92 1219.47 M 1988.92 1219.85 1973.17 1219.85 M 1973.17 1220.23 1988.92 1220.23 M 1988.92 1220.61 1973.17 1220.61 M 1973.17 1220.99 1988.92 1220.99 M 1988.92 1221.37 1973.17 1221.37 M 1973.17 1221.75 1988.92 1221.75 M 1988.92 1222.13 1973.17 1222.13 M 1973.17 1222.5 1988.92 1222.5 M 1988.92 1222.88 1973.17 1222.88" fill="none" stroke-width="0.39"/><use xlink:href="#OtKHzjtnKH1iBRNixArz_pad-19" x="2638" y="866.84"/><use xlink:href="#OtKHzjtnKH1iBRNixArz_pad-19" x="2638" y="784.16"/><use xlink:href="#OtKHzjtnKH1iBRNixArz_pad-20" x="1762.9" y="986.81"/><use xlink:href="#OtKHzjtnKH1iBRNixArz_pad-20" x="1725.5" y="986.81"/><use xlink:href="#OtKHzjtnKH1iBRNixArz_pad-20" x="1688.1" y="986.81"/><use xlink:href="#OtKHzjtnKH1iBRNixArz_pad-20" x="1688.1" y="1089.19"/><use xlink:href="#OtKHzjtnKH1iBRNixArz_pad-20" x="1762.9" y="1089.19"/><use xlink:href="#OtKHzjtnKH1iBRNixArz_pad-21" x="812.9" y="811.13"/><use xlink:href="#OtKHzjtnKH1iBRNixArz_pad-21" x="738.1" y="811.13"/><use xlink:href="#OtKHzjtnKH1iBRNixArz_pad-21" x="775.5" y="889.87"/><use xlink:href="#OtKHzjtnKH1iBRNixArz_pad-21" x="750.5" y="1348.63"/><use xlink:href="#OtKHzjtnKH1iBRNixArz_pad-21" x="713.1" y="1427.37"/><use xlink:href="#OtKHzjtnKH1iBRNixArz_pad-21" x="787.9" y="1427.37"/><use xlink:href="#OtKHzjtnKH1iBRNixArz_pad-22" x="775.4" y="1301.88"/><use xlink:href="#OtKHzjtnKH1iBRNixArz_pad-22" x="738" y="1301.88"/><use xlink:href="#OtKHzjtnKH1iBRNixArz_pad-22" x="700.6" y="1301.88"/><use xlink:href="#OtKHzjtnKH1iBRNixArz_pad-22" x="700.6" y="1210.34"/><use xlink:href="#OtKHzjtnKH1iBRNixArz_pad-22" x="738" y="1210.34"/><use xlink:href="#OtKHzjtnKH1iBRNixArz_pad-22" x="775.4" y="1210.34"/><use xlink:href="#OtKHzjtnKH1iBRNixArz_pad-23" x="1625.5" y="1026.09"/><use xlink:href="#OtKHzjtnKH1iBRNixArz_pad-23" x="1625.5" y="974.91"/></g></svg>