<svg version="1.1" xmlns="http://www.w3.org/2000/svg" xmlns:xlink="http://www.w3.org/1999/xlink" stroke-linecap="round" stroke-linejoin="round" stroke-width="0" fill-rule="evenodd" width="2.3682in" height="0.7934in" viewBox="347.5 710 2368.2 793.4" id="Xsmf9US9Z4jLuw5ywvPk"><defs><rect x="-21.685" y="-23.655" width="43.37" height="47.31" id="Xsmf9US9Z4jLuw5ywvPk_pad-12"/><rect x="-17.75" y="-13.81" width="35.5" height="27.62" id="Xsmf9US9Z4jLuw5ywvPk_pad-13"/><rect x="-23.655" y="-21.685" width="47.31" height="43.37" id="Xsmf9US9Z4jLuw5ywvPk_pad-14"/><rect x="-35.465" y="-41.37" width="70.93" height="82.74" id="Xsmf9US9Z4jLuw5ywvPk_pad-15"/><circle cx="0" cy="0" r="22" id="Xsmf9US9Z4jLuw5ywvPk_pad-17"/><rect x="-15.78" y="-19.715" width="31.56" height="39.43" id="Xsmf9US9Z4jLuw5ywvPk_pad-18"/><rect x="-25.62" y="-25.62" width="51.24" height="51.24" id="Xsmf9US9Z4jLuw5ywvPk_pad-20"/><circle cx="0" cy="0" r="35" id="Xsmf9US9Z4jLuw5ywvPk_pad-21"/><circle cx="0" cy="0" r="52" id="Xsmf9US9Z4jLuw5ywvPk_pad-22"/><polygon points="51.99989,21.53906 21.53906,51.99989 -21.53906,51.99989 -51.99989,21.53906 -51.99989,-21.53906 -21.53906,-51.99989 21.53906,-51.99989 51.99989,-21.53906" id="Xsmf9US9Z4jLuw5ywvPk_pad-23"/><rect x="-12.825" y="-25.62" width="25.65" height="51.24" id="Xsmf9US9Z4jLuw5ywvPk_pad-24"/><rect x="-14.5" y="-22" width="29" height="44" id="Xsmf9US9Z4jLuw5ywvPk_pad-25"/><rect x="-12" y="-15.78" width="24" height="31.56" id="Xsmf9US9Z4jLuw5ywvPk_pad-27"/><rect x="-27" y="-14.5" width="54" height="29" id="Xsmf9US9Z4jLuw5ywvPk_pad-28"/><rect x="-19.715" y="-15.78" width="39.43" height="31.56" id="Xsmf9US9Z4jLuw5ywvPk_pad-29"/><rect x="-14.5" y="-27" width="29" height="54" id="Xsmf9US9Z4jLuw5ywvPk_pad-30"/></defs><g transform="translate(0,2213.4) scale(1,-1)" fill="currentColor" stroke="currentColor"><path d="M 350.5 713 2712.7 713 2712.7 1500.4 350.5 1500.4 350.5 713" fill="none" stroke-width="6"/><path d="M 1041.89 1196.81 1093.17 1196.81 1093.17 1179.39 1041.89 1179.39 1041.89 1196.81 M 1041.89 1188.7 1093.17 1188.7 M 1132.83 1196.81 1184.11 1196.81 1184.11 1179.39 1132.83 1179.39 1132.83 1196.81 M 1132.83 1188.7 1184.11 1188.7 M 1184.11 1234.21 1132.83 1234.21 M 1184.11 1234.21 1184.11 1216.79 1132.83 1216.79 1132.83 1234.21 M 1132.83 1226.1 1184.11 1226.1 M 1184.11 1271.61 1132.83 1271.61 M 1184.11 1271.61 1184.11 1254.19 1132.83 1254.19 1132.83 1271.61 M 1132.83 1263.5 1184.11 1263.5 M 1093.17 1271.61 1041.89 1271.61 M 1093.17 1271.61 1093.17 1254.19 1041.89 1254.19 1041.89 1271.61 M 1041.89 1263.5 1093.17 1263.5 M 1093.17 1234.21 1041.89 1234.21 M 1093.17 1234.21 1093.17 1216.79 1041.89 1216.79 1041.89 1234.21 M 1041.89 1226.1 1093.17 1226.1" fill="none" stroke-width="9.8"/><use xlink:href="#Xsmf9US9Z4jLuw5ywvPk_pad-12" x="1263" y="1292.04"/><use xlink:href="#Xsmf9US9Z4jLuw5ywvPk_pad-12" x="1263" y="1358.96"/><use xlink:href="#Xsmf9US9Z4jLuw5ywvPk_pad-12" x="1263" y="1146.46"/><use xlink:href="#Xsmf9US9Z4jLuw5ywvPk_pad-12" x="1263" y="1079.54"/><use xlink:href="#Xsmf9US9Z4jLuw5ywvPk_pad-12" x="900.5" y="883.96"/><use xlink:href="#Xsmf9US9Z4jLuw5ywvPk_pad-12" x="900.5" y="817.04"/><use xlink:href="#Xsmf9US9Z4jLuw5ywvPk_pad-12" x="2200.5" y="1154.54"/><use xlink:href="#Xsmf9US9Z4jLuw5ywvPk_pad-12" x="2200.5" y="1221.46"/><use xlink:href="#Xsmf9US9Z4jLuw5ywvPk_pad-12" x="2638" y="1021.46"/><use xlink:href="#Xsmf9US9Z4jLuw5ywvPk_pad-12" x="2638" y="954.54"/><use xlink:href="#Xsmf9US9Z4jLuw5ywvPk_pad-13" x="975.5" y="1208.47"/><use xlink:href="#Xsmf9US9Z4jLuw5ywvPk_pad-13" x="925.5" y="1208.47"/><use xlink:href="#Xsmf9US9Z4jLuw5ywvPk_pad-13" x="925.5" y="1267.53"/><use xlink:href="#Xsmf9US9Z4jLuw5ywvPk_pad-13" x="975.5" y="1267.53"/><use xlink:href="#Xsmf9US9Z4jLuw5ywvPk_pad-14" x="967.04" y="1325.5"/><use xlink:href="#Xsmf9US9Z4jLuw5ywvPk_pad-14" x="1033.96" y="1325.5"/><use xlink:href="#Xsmf9US9Z4jLuw5ywvPk_pad-14" x="1067.04" y="1113"/><use xlink:href="#Xsmf9US9Z4jLuw5ywvPk_pad-14" x="1133.96" y="1113"/><use xlink:href="#Xsmf9US9Z4jLuw5ywvPk_pad-14" x="1133.96" y="1050.5"/><use xlink:href="#Xsmf9US9Z4jLuw5ywvPk_pad-14" x="1067.04" y="1050.5"/><use xlink:href="#Xsmf9US9Z4jLuw5ywvPk_pad-14" x="1067.04" y="988"/><use xlink:href="#Xsmf9US9Z4jLuw5ywvPk_pad-14" x="1133.96" y="988"/><use xlink:href="#Xsmf9US9Z4jLuw5ywvPk_pad-14" x="1133.96" y="925.5"/><use xlink:href="#Xsmf9US9Z4jLuw5ywvPk_pad-14" x="1067.04" y="925.5"/><use xlink:href="#Xsmf9US9Z4jLuw5ywvPk_pad-14" x="1067.04" y="863"/><use xlink:href="#Xsmf9US9Z4jLuw5ywvPk_pad-14" x="1133.96" y="863"/><use xlink:href="#Xsmf9US9Z4jLuw5ywvPk_pad-14" x="1204.54" y="863"/><use xlink:href="#Xsmf9US9Z4jLuw5ywvPk_pad-14" x="1271.46" y="863"/><use xlink:href="#Xsmf9US9Z4jLuw5ywvPk_pad-14" x="1271.46" y="925.5"/><use xlink:href="#Xsmf9US9Z4jLuw5ywvPk_pad-14" x="1204.54" y="925.5"/><use xlink:href="#Xsmf9US9Z4jLuw5ywvPk_pad-14" x="1729.54" y="1225.5"/><use xlink:href="#Xsmf9US9Z4jLuw5ywvPk_pad-14" x="1796.46" y="1225.5"/><use xlink:href="#Xsmf9US9Z4jLuw5ywvPk_pad-14" x="1829.54" y="1125.5"/><use xlink:href="#Xsmf9US9Z4jLuw5ywvPk_pad-14" x="1896.46" y="1125.5"/><use xlink:href="#Xsmf9US9Z4jLuw5ywvPk_pad-14" x="1896.46" y="1063"/><use xlink:href="#Xsmf9US9Z4jLuw5ywvPk_pad-14" x="1829.54" y="1063"/><use xlink:href="#Xsmf9US9Z4jLuw5ywvPk_pad-14" x="1829.54" y="1000.5"/><use xlink:href="#Xsmf9US9Z4jLuw5ywvPk_pad-14" x="1896.46" y="1000.5"/><use xlink:href="#Xsmf9US9Z4jLuw5ywvPk_pad-14" x="1896.46" y="938"/><use xlink:href="#Xsmf9US9Z4jLuw5ywvPk_pad-14" x="1829.54" y="938"/><use xlink:href="#Xsmf9US9Z4jLuw5ywvPk_pad-14" x="521.46" y="1363"/><use xlink:href="#Xsmf9US9Z4jLuw5ywvPk_pad-14" x="454.54" y="1363"/><use xlink:href="#Xsmf9US9Z4jLuw5ywvPk_pad-14" x="454.54" y="1425.5"/><use xlink:href="#Xsmf9US9Z4jLuw5ywvPk_pad-14" x="521.46" y="1425.5"/><use xlink:href="#Xsmf9US9Z4jLuw5ywvPk_pad-15" x="1463" y="1343.61"/><use xlink:href="#Xsmf9US9Z4jLuw5ywvPk_pad-15" x="1463" y="1107.39"/><path d="M 2178.35 1048.52 2200.21 1048.52 M 2178.35 1048.52 2178.35 1056.22 2200.21 1056.22 2200.21 1048.52 M 2200.21 1054.74 2178.35 1054.74 M 2178.35 1028.84 2200.21 1028.84 M 2178.35 1028.84 2178.35 1036.54 2200.21 1036.54 2200.21 1028.84 M 2200.21 1035.06 2178.35 1035.06 M 2178.35 1009.15 2200.21 1009.15 M 2178.35 1009.15 2178.35 1016.85 2200.21 1016.85 2200.21 1009.15 M 2200.21 1015.37 2178.35 1015.37 M 2178.35 989.46 2200.21 989.46 M 2178.35 989.46 2178.35 997.16 2200.21 997.16 2200.21 989.46 M 2200.21 995.68 2178.35 995.68 M 2178.35 969.78 2200.21 969.78 M 2178.35 969.78 2178.35 977.48 2200.21 977.48 2200.21 969.78 M 2200.21 976 2178.35 976 M 2214.98 962.71 2214.98 940.85 2207.28 940.85 2207.28 962.71 2214.98 962.71 M 2214.98 947.07 2207.28 947.07 M 2207.28 953.29 2214.98 953.29 M 2214.98 959.51 2207.28 959.51 M 2234.66 962.71 2234.66 940.85 2226.96 940.85 2226.96 962.71 2234.66 962.71 M 2234.66 947.07 2226.96 947.07 M 2226.96 953.29 2234.66 953.29 M 2234.66 959.51 2226.96 959.51 M 2254.35 962.71 2254.35 940.85 2246.65 940.85 2246.65 962.71 2254.35 962.71 M 2254.35 947.07 2246.65 947.07 M 2246.65 953.29 2254.35 953.29 M 2254.35 959.51 2246.65 959.51 M 2274.04 962.71 2274.04 940.85 2266.34 940.85 2266.34 962.71 2274.04 962.71 M 2274.04 947.07 2266.34 947.07 M 2266.34 953.29 2274.04 953.29 M 2274.04 959.51 2266.34 959.51 M 2293.72 962.71 2293.72 940.85 2286.02 940.85 2286.02 962.71 2293.72 962.71 M 2293.72 947.07 2286.02 947.07 M 2286.02 953.29 2293.72 953.29 M 2293.72 959.51 2286.02 959.51 M 2300.79 969.78 2322.65 969.78 M 2300.79 969.78 2300.79 977.48 2322.65 977.48 2322.65 969.78 M 2322.65 976 2300.79 976 M 2300.79 989.46 2322.65 989.46 M 2300.79 989.46 2300.79 997.16 2322.65 997.16 2322.65 989.46 M 2322.65 995.68 2300.79 995.68 M 2300.79 1009.15 2322.65 1009.15 M 2300.79 1009.15 2300.79 1016.85 2322.65 1016.85 2322.65 1009.15 M 2322.65 1015.37 2300.79 1015.37 M 2300.79 1028.84 2322.65 1028.84 M 2300.79 1028.84 2300.79 1036.54 2322.65 1036.54 2322.65 1028.84 M 2322.65 1035.06 2300.79 1035.06 M 2300.79 1048.52 2322.65 1048.52 M 2300.79 1048.52 2300.79 1056.22 2322.65 1056.22 2322.65 1048.52 M 2322.65 1054.74 2300.79 1054.74 M 2293.72 1063.29 2293.72 1085.15 M 2293.72 1063.29 2286.02 1063.29 2286.02 1085.15 2293.72 1085.15 M 2293.72 1069.51 2286.02 1069.51 M 2286.02 1075.73 2293.72 1075.73 M 2293.72 1081.95 2286.02 1081.95 M 2274.04 1085.15 2274.04 1063.29 2266.34 1063.29 2266.34 1085.15 2274.04 1085.15 M 2274.04 1069.51 2266.34 1069.51 M 2266.34 1075.73 2274.04 1075.73 M 2274.04 1081.95 2266.34 1081.95 M 2254.35 1085.15 2254.35 1063.29 2246.65 1063.29 2246.65 1085.15 2254.35 1085.15 M 2254.35 1069.51 2246.65 1069.51 M 2246.65 1075.73 2254.35 1075.73 M 2254.35 1081.95 2246.65 1081.95 M 2234.66 1085.15 2234.66 1063.29 2226.96 1063.29 2226.96 1085.15 2234.66 1085.15 M 2234.66 1069.51 2226.96 1069.51 M 2226.96 1075.73 2234.66 1075.73 M 2234.66 1081.95 2226.96 1081.95 M 2214.98 1085.15 2214.98 1063.29 2207.28 1063.29 2207.28 1085.15 2214.98 1085.15 M 2214.98 1069.51 2207.28 1069.51 M 2207.28 1075.73 2214.98 1075.73 M 2214.98 1081.95 2207.28 1081.95" fill="none" stroke-width="6.55"/><use xlink:href="#Xsmf9US9Z4jLuw5ywvPk_pad-17" x="2113" y="1338"/><use xlink:href="#Xsmf9US9Z4jLuw5ywvPk_pad-17" x="2113" y="1388"/><use xlink:href="#Xsmf9US9Z4jLuw5ywvPk_pad-17" x="2063" y="1388"/><use xlink:href="#Xsmf9US9Z4jLuw5ywvPk_pad-17" x="2013" y="1388"/><use xlink:href="#Xsmf9US9Z4jLuw5ywvPk_pad-17" x="2013" y="1338"/><use xlink:href="#Xsmf9US9Z4jLuw5ywvPk_pad-17" x="2063" y="1338"/><use xlink:href="#Xsmf9US9Z4jLuw5ywvPk_pad-17" x="1963" y="1338"/><use xlink:href="#Xsmf9US9Z4jLuw5ywvPk_pad-17" x="1913" y="1338"/><use xlink:href="#Xsmf9US9Z4jLuw5ywvPk_pad-17" x="1913" y="1388"/><use xlink:href="#Xsmf9US9Z4jLuw5ywvPk_pad-17" x="1963" y="1388"/><use xlink:href="#Xsmf9US9Z4jLuw5ywvPk_pad-18" x="2387.41" y="1013"/><use xlink:href="#Xsmf9US9Z4jLuw5ywvPk_pad-18" x="2438.59" y="1013"/><use xlink:href="#Xsmf9US9Z4jLuw5ywvPk_pad-18" x="2126.09" y="988"/><use xlink:href="#Xsmf9US9Z4jLuw5ywvPk_pad-18" x="2074.91" y="988"/><path d="M 2078.07 1203.79 2065.07 1203.79 2065.07 1225.05 2086.33 1225.05 2086.33 1212.06 2078.07 1212.06 2078.07 1203.79 M 2078.07 1203.94 2065.07 1203.94 M 2065.07 1204.32 2078.07 1204.32 M 2078.07 1204.7 2065.07 1204.7 M 2065.07 1205.08 2078.07 1205.08 M 2078.07 1205.46 2065.07 1205.46 M 2065.07 1205.84 2078.07 1205.84 M 2078.07 1206.22 2065.07 1206.22 M 2065.07 1206.59 2078.07 1206.59 M 2078.07 1206.97 2065.07 1206.97 M 2065.07 1207.35 2078.07 1207.35 M 2078.07 1207.73 2065.07 1207.73 M 2065.07 1208.11 2078.07 1208.11 M 2078.07 1208.49 2065.07 1208.49 M 2065.07 1208.87 2078.07 1208.87 M 2078.07 1209.25 2065.07 1209.25 M 2065.07 1209.63 2078.07 1209.63 M 2078.07 1210 2065.07 1210 M 2065.07 1210.38 2078.07 1210.38 M 2078.07 1210.76 2065.07 1210.76 M 2065.07 1211.14 2078.07 1211.14 M 2078.07 1211.52 2065.07 1211.52 M 2065.07 1211.9 2078.07 1211.9 M 2086.33 1212.28 2065.07 1212.28 M 2065.07 1212.66 2086.33 1212.66 M 2086.33 1213.03 2065.07 1213.03 M 2065.07 1213.41 2086.33 1213.41 M 2086.33 1213.79 2065.07 1213.79 M 2065.07 1214.17 2086.33 1214.17 M 2086.33 1214.55 2065.07 1214.55 M 2065.07 1214.93 2086.33 1214.93 M 2086.33 1215.31 2065.07 1215.31 M 2065.07 1215.69 2086.33 1215.69 M 2086.33 1216.06 2065.07 1216.06 M 2065.07 1216.44 2086.33 1216.44 M 2086.33 1216.82 2065.07 1216.82 M 2065.07 1217.2 2086.33 1217.2 M 2086.33 1217.58 2065.07 1217.58 M 2065.07 1217.96 2086.33 1217.96 M 2086.33 1218.34 2065.07 1218.34 M 2065.07 1218.72 2086.33 1218.72 M 2086.33 1219.1 2065.07 1219.1 M 2065.07 1219.47 2086.33 1219.47 M 2086.33 1219.85 2065.07 1219.85 M 2065.07 1220.23 2086.33 1220.23 M 2086.33 1220.61 2065.07 1220.61 M 2065.07 1220.99 2086.33 1220.99 M 2086.33 1221.37 2065.07 1221.37 M 2065.07 1221.75 2086.33 1221.75 M 2086.33 1222.13 2065.07 1222.13 M 2065.07 1222.5 2086.33 1222.5 M 2086.33 1222.88 2065.07 1222.88 M 2065.07 1223.26 2086.33 1223.26 M 2086.33 1223.64 2065.07 1223.64 M 2065.07 1224.02 2086.33 1224.02 M 2086.33 1224.4 2065.07 1224.4 M 2065.07 1224.78 2086.33 1224.78 M 2086.33 1228.2 2086.33 1241.19 2078.07 1241.19 2078.07 1249.46 2065.07 1249.46 2065.07 1228.2 2086.33 1228.2 M 2086.33 1228.57 2065.07 1228.57 M 2065.07 1228.94 2086.33 1228.94 M 2086.33 1229.32 2065.07 1229.32 M 2065.07 1229.7 2086.33 1229.7 M 2086.33 1230.08 2065.07 1230.08 M 2065.07 1230.46 2086.33 1230.46 M 2086.33 1230.84 2065.07 1230.84 M 2065.07 1231.22 2086.33 1231.22 M 2086.33 1231.6 2065.07 1231.6 M 2065.07 1231.98 2086.33 1231.98 M 2086.33 1232.35 2065.07 1232.35 M 2065.07 1232.73 2086.33 1232.73 M 2086.33 1233.11 2065.07 1233.11 M 2065.07 1233.49 2086.33 1233.49 M 2086.33 1233.87 2065.07 1233.87 M 2065.07 1234.25 2086.33 1234.25 M 2086.33 1234.63 2065.07 1234.63 M 2065.07 1235.01 2086.33 1235.01 M 2086.33 1235.38 2065.07 1235.38 M 2065.07 1235.76 2086.33 1235.76 M 2086.33 1236.14 2065.07 1236.14 M 2065.07 1236.52 2086.33 1236.52 M 2086.33 1236.9 2065.07 1236.9 M 2065.07 1237.28 2086.33 1237.28 M 2086.33 1237.66 2065.07 1237.66 M 2065.07 1238.04 2086.33 1238.04 M 2086.33 1238.41 2065.07 1238.41 M 2065.07 1238.79 2086.33 1238.79 M 2086.33 1239.17 2065.07 1239.17 M 2065.07 1239.55 2086.33 1239.55 M 2086.33 1239.93 2065.07 1239.93 M 2065.07 1240.31 2086.33 1240.31 M 2086.33 1240.69 2065.07 1240.69 M 2065.07 1241.07 2086.33 1241.07 M 2078.07 1241.45 2065.07 1241.45 M 2065.07 1241.82 2078.07 1241.82 M 2078.07 1242.2 2065.07 1242.2 M 2065.07 1242.58 2078.07 1242.58 M 2078.07 1242.96 2065.07 1242.96 M 2065.07 1243.34 2078.07 1243.34 M 2078.07 1243.72 2065.07 1243.72 M 2065.07 1244.1 2078.07 1244.1 M 2078.07 1244.48 2065.07 1244.48 M 2065.07 1244.85 2078.07 1244.85 M 2078.07 1245.23 2065.07 1245.23 M 2065.07 1245.61 2078.07 1245.61 M 2078.07 1245.99 2065.07 1245.99 M 2065.07 1246.37 2078.07 1246.37 M 2078.07 1246.75 2065.07 1246.75 M 2065.07 1247.13 2078.07 1247.13 M 2078.07 1247.51 2065.07 1247.51 M 2065.07 1247.89 2078.07 1247.89 M 2078.07 1248.26 2065.07 1248.26 M 2065.07 1248.64 2078.07 1248.64 M 2078.07 1249.02 2065.07 1249.02 M 2065.07 1249.4 2078.07 1249.4 M 2061.93 1249.46 2061.93 1228.2 2040.67 1228.2 2040.67 1241.19 2048.93 1241.19 2048.93 1249.46 2061.93 1249.46 M 2061.93 1249.4 2048.93 1249.4 M 2048.93 1249.02 2061.93 1249.02 M 2061.93 1248.64 2048.93 1248.64 M 2048.93 1248.26 2061.93 1248.26 M 2061.93 1247.89 2048.93 1247.89 M 2048.93 1247.51 2061.93 1247.51 M 2061.93 1247.13 2048.93 1247.13 M 2048.93 1246.75 2061.93 1246.75 M 2061.93 1246.37 2048.93 1246.37 M 2048.93 1245.99 2061.93 1245.99 M 2061.93 1245.61 2048.93 1245.61 M 2048.93 1245.23 2061.93 1245.23 M 2061.93 1244.85 2048.93 1244.85 M 2048.93 1244.48 2061.93 1244.48 M 2061.93 1244.1 2048.93 1244.1 M 2048.93 1243.72 2061.93 1243.72 M 2061.93 1243.34 2048.93 1243.34 M 2048.93 1242.96 2061.93 1242.96 M 2061.93 1242.58 2048.93 1242.58 M 2048.93 1242.2 2061.93 1242.2 M 2061.93 1241.82 2048.93 1241.82 M 2048.93 1241.45 2061.93 1241.45 M 2061.93 1241.07 2040.67 1241.07 M 2040.67 1240.69 2061.93 1240.69 M 2061.93 1240.31 2040.67 1240.31 M 2040.67 1239.93 2061.93 1239.93 M 2061.93 1239.55 2040.67 1239.55 M 2040.67 1239.17 2061.93 1239.17 M 2061.93 1238.79 2040.67 1238.79 M 2040.67 1238.41 2061.93 1238.41 M 2061.93 1238.04 2040.67 1238.04 M 2040.67 1237.66 2061.93 1237.66 M 2061.93 1237.28 2040.67 1237.28 M 2040.67 1236.9 2061.93 1236.9 M 2061.93 1236.52 2040.67 1236.52 M 2040.67 1236.14 2061.93 1236.14 M 2061.93 1235.76 2040.67 1235.76 M 2040.67 1235.38 2061.93 1235.38 M 2061.93 1235.01 2040.67 1235.01 M 2040.67 1234.63 2061.93 1234.63 M 2061.93 1234.25 2040.67 1234.25 M 2040.67 1233.87 2061.93 1233.87 M 2061.93 1233.49 2040.67 1233.49 M 2040.67 1233.11 2061.93 1233.11 M 2061.93 1232.73 2040.67 1232.73 M 2040.67 1232.35 2061.93 1232.35 M 2061.93 1231.98 2040.67 1231.98 M 2040.67 1231.6 2061.93 1231.6 M 2061.93 1231.22 2040.67 1231.22 M 2040.67 1230.84 2061.93 1230.84 M 2061.93 1230.46 2040.67 1230.46 M 2040.67 1230.08 2061.93 1230.08 M 2061.93 1229.7 2040.67 1229.7 M 2040.67 1229.32 2061.93 1229.32 M 2061.93 1228.94 2040.67 1228.94 M 2040.67 1228.57 2061.93 1228.57 M 2061.93 1225.05 2061.93 1203.79 2048.93 1203.79 2048.93 1212.06 2040.67 1212.06 2040.67 1225.05 2061.93 1225.05 M 2061.93 1224.78 2040.67 1224.78 M 2040.67 1224.4 2061.93 1224.4 M 2061.93 1224.02 2040.67 1224.02 M 2040.67 1223.64 2061.93 1223.64 M 2061.93 1223.26 2040.67 1223.26 M 2040.67 1222.88 2061.93 1222.88 M 2061.93 1222.5 2040.67 1222.5 M 2040.67 1222.13 2061.93 1222.13 M 2061.93 1221.75 2040.67 1221.75 M 2040.67 1221.37 2061.93 1221.37 M 2061.93 1220.99 2040.67 1220.99 M 2040.67 1220.61 2061.93 1220.61 M 2061.93 1220.23 2040.67 1220.23 M 2040.67 1219.85 2061.93 1219.85 M 2061.93 1219.47 2040.67 1219.47 M 2040.67 1219.1 2061.93 1219.1 M 2061.93 1218.72 2040.67 1218.72 M 2040.67 1218.34 2061.93 1218.34 M 2061.93 1217.96 2040.67 1217.96 M 2040.67 1217.58 2061.93 1217.58 M 2061.93 1217.2 2040.67 1217.2 M 2040.67 1216.82 2061.93 1216.82 M 2061.93 1216.44 2040.67 1216.44 M 2040.67 1216.06 2061.93 1216.06 M 2061.93 1215.69 2040.67 1215.69 M 2040.67 1215.31 2061.93 1215.31 M 2061.93 1214.93 2040.67 1214.93 M 2040.67 1214.55 2061.93 1214.55 M 2061.93 1214.17 2040.67 1214.17 M 2040.67 1213.79 2061.93 1213.79 M 2061.93 1213.41 2040.67 1213.41 M 2040.67 1213.03 2061.93 1213.03 M 2061.93 1212.66 2040.67 1212.66 M 2040.67 1212.28 2061.93 1212.28 M 2061.93 1211.9 2048.93 1211.9 M 2048.93 1211.52 2061.93 1211.52 M 2061.93 1211.14 2048.93 1211.14 M 2048.93 1210.76 2061.93 1210.76 M 2061.93 1210.38 2048.93 1210.38 M 2048.93 1210 2061.93 1210 M 2061.93 1209.63 2048.93 1209.63 M 2048.93 1209.25 2061.93 1209.25 M 2061.93 1208.87 2048.93 1208.87 M 2048.93 1208.49 2061.93 1208.49 M 2061.93 1208.11 2048.93 1208.11 M 2048.93 1207.73 2061.93 1207.73 M 2061.93 1207.35 2048.93 1207.35 M 2048.93 1206.97 2061.93 1206.97 M 2061.93 1206.59 2048.93 1206.59 M 2048.93 1206.22 2061.93 1206.22 M 2061.93 1205.84 2048.93 1205.84 M 2048.93 1205.46 2061.93 1205.46 M 2061.93 1205.08 2048.93 1205.08 M 2048.93 1204.7 2061.93 1204.7 M 2061.93 1204.32 2048.93 1204.32 M 2048.93 1203.94 2061.93 1203.94 M 1992.46 1212.06 1984.19 1212.06 1984.19 1203.79 1971.2 1203.79 1971.2 1225.05 1992.46 1225.05 1992.46 1212.06 M 1992.46 1212.28 1971.2 1212.28 M 1971.2 1212.66 1992.46 1212.66 M 1992.46 1213.03 1971.2 1213.03 M 1971.2 1213.41 1992.46 1213.41 M 1992.46 1213.79 1971.2 1213.79 M 1971.2 1214.17 1992.46 1214.17 M 1992.46 1214.55 1971.2 1214.55 M 1971.2 1214.93 1992.46 1214.93 M 1992.46 1215.31 1971.2 1215.31 M 1971.2 1215.69 1992.46 1215.69 M 1992.46 1216.06 1971.2 1216.06 M 1971.2 1216.44 1992.46 1216.44 M 1992.46 1216.82 1971.2 1216.82 M 1971.2 1217.2 1992.46 1217.2 M 1992.46 1217.58 1971.2 1217.58 M 1971.2 1217.96 1992.46 1217.96 M 1992.46 1218.34 1971.2 1218.34 M 1971.2 1218.72 1992.46 1218.72 M 1992.46 1219.1 1971.2 1219.1 M 1971.2 1219.47 1992.46 1219.47 M 1992.46 1219.85 1971.2 1219.85 M 1971.2 1220.23 1992.46 1220.23 M 1992.46 1220.61 1971.2 1220.61 M 1971.2 1220.99 1992.46 1220.99 M 1992.46 1221.37 1971.2 1221.37 M 1971.2 1221.75 1992.46 1221.75 M 1992.46 1222.13 1971.2 1222.13 M 1971.2 1222.5 1992.46 1222.5 M 1992.46 1222.88 1971.2 1222.88 M 1971.2 1223.26 1992.46 1223.26 M 1992.46 1223.64 1971.2 1223.64 M 1971.2 1224.02 1992.46 1224.02 M 1992.46 1224.4 1971.2 1224.4 M 1971.2 1224.78 1992.46 1224.78 M 1992.46 1228.2 1992.46 1241.19 1984.19 1241.19 1984.19 1249.46 1971.2 1249.46 1971.2 1228.2 1992.46 1228.2 M 1992.46 1228.57 1971.2 1228.57 M 1971.2 1228.94 1992.46 1228.94 M 1992.46 1229.32 1971.2 1229.32 M 1971.2 1229.7 1992.46 1229.7 M 1992.46 1230.08 1971.2 1230.08 M 1971.2 1230.46 1992.46 1230.46 M 1992.46 1230.84 1971.2 1230.84 M 1971.2 1231.22 1992.46 1231.22 M 1992.46 1231.6 1971.2 1231.6 M 1971.2 1231.98 1992.46 1231.98 M 1992.46 1232.35 1971.2 1232.35 M 1971.2 1232.73 1992.46 1232.73 M 1992.46 1233.11 1971.2 1233.11 M 1971.2 1233.49 1992.46 1233.49 M 1992.46 1233.87 1971.2 1233.87 M 1971.2 1234.25 1992.46 1234.25 M 1992.46 1234.63 1971.2 1234.63 M 1971.2 1235.01 1992.46 1235.01 M 1992.46 1235.38 1971.2 1235.38 M 1971.2 1235.76 1992.46 1235.76 M 1992.46 1236.14 1971.2 1236.14 M 1971.2 1236.52 1992.46 1236.52 M 1992.46 1236.9 1971.2 1236.9 M 1971.2 1237.28 1992.46 1237.28 M 1992.46 1237.66 1971.2 1237.66 M 1971.2 1238.04 1992.46 1238.04 M 1992.46 1238.41 1971.2 1238.41 M 1971.2 1238.79 1992.46 1238.79 M 1992.46 1239.17 1971.2 1239.17 M 1971.2 1239.55 1992.46 1239.55 M 1992.46 1239.93 1971.2 1239.93 M 1971.2 1240.31 1992.46 1240.31 M 1992.46 1240.69 1971.2 1240.69 M 1971.2 1241.07 1992.46 1241.07 M 1984.19 1241.45 1971.2 1241.45 M 1971.2 1241.82 1984.19 1241.82 M 1984.19 1242.2 1971.2 1242.2 M 1971.2 1242.58 1984.19 1242.58 M 1984.19 1242.96 1971.2 1242.96 M 1971.2 1243.34 1984.19 1243.34 M 1984.19 1243.72 1971.2 1243.72 M 1971.2 1244.1 1984.19 1244.1 M 1984.19 1244.48 1971.2 1244.48 M 1971.2 1244.85 1984.19 1244.85 M 1984.19 1245.23 1971.2 1245.23 M 1971.2 1245.61 1984.19 1245.61 M 1984.19 1245.99 1971.2 1245.99 M 1971.2 1246.37 1984.19 1246.37 M 1984.19 1246.75 1971.2 1246.75 M 1971.2 1247.13 1984.19 1247.13 M 1984.19 1247.51 1971.2 1247.51 M 1971.2 1247.89 1984.19 1247.89 M 1984.19 1248.26 1971.2 1248.26 M 1971.2 1248.64 1984.19 1248.64 M 1984.19 1249.02 1971.2 1249.02 M 1971.2 1249.4 1984.19 1249.4 M 1968.05 1249.4 1955.06 1249.4 M 1955.06 1249.46 1968.05 1249.46 1968.05 1228.2 1946.79 1228.2 1946.79 1241.19 1955.06 1241.19 1955.06 1249.46 M 1955.06 1249.02 1968.05 1249.02 M 1968.05 1248.64 1955.06 1248.64 M 1955.06 1248.26 1968.05 1248.26 M 1968.05 1247.89 1955.06 1247.89 M 1955.06 1247.51 1968.05 1247.51 M 1968.05 1247.13 1955.06 1247.13 M 1955.06 1246.75 1968.05 1246.75 M 1968.05 1246.37 1955.06 1246.37 M 1955.06 1245.99 1968.05 1245.99 M 1968.05 1245.61 1955.06 1245.61 M 1955.06 1245.23 1968.05 1245.23 M 1968.05 1244.85 1955.06 1244.85 M 1955.06 1244.48 1968.05 1244.48 M 1968.05 1244.1 1955.06 1244.1 M 1955.06 1243.72 1968.05 1243.72 M 1968.05 1243.34 1955.06 1243.34 M 1955.06 1242.96 1968.05 1242.96 M 1968.05 1242.58 1955.06 1242.58 M 1955.06 1242.2 1968.05 1242.2 M 1968.05 1241.82 1955.06 1241.82 M 1955.06 1241.45 1968.05 1241.45 M 1968.05 1241.07 1946.79 1241.07 M 1946.79 1240.69 1968.05 1240.69 M 1968.05 1240.31 1946.79 1240.31 M 1946.79 1239.93 1968.05 1239.93 M 1968.05 1239.55 1946.79 1239.55 M 1946.79 1239.17 1968.05 1239.17 M 1968.05 1238.79 1946.79 1238.79 M 1946.79 1238.41 1968.05 1238.41 M 1968.05 1238.04 1946.79 1238.04 M 1946.79 1237.66 1968.05 1237.66 M 1968.05 1237.28 1946.79 1237.28 M 1946.79 1236.9 1968.05 1236.9 M 1968.05 1236.52 1946.79 1236.52 M 1946.79 1236.14 1968.05 1236.14 M 1968.05 1235.76 1946.79 1235.76 M 1946.79 1235.38 1968.05 1235.38 M 1968.05 1235.01 1946.79 1235.01 M 1946.79 1234.63 1968.05 1234.63 M 1968.05 1234.25 1946.79 1234.25 M 1946.79 1233.87 1968.05 1233.87 M 1968.05 1233.49 1946.79 1233.49 M 1946.79 1233.11 1968.05 1233.11 M 1968.05 1232.73 1946.79 1232.73 M 1946.79 1232.35 1968.05 1232.35 M 1968.05 1231.98 1946.79 1231.98 M 1946.79 1231.6 1968.05 1231.6 M 1968.05 1231.22 1946.79 1231.22 M 1946.79 1230.84 1968.05 1230.84 M 1968.05 1230.46 1946.79 1230.46 M 1946.79 1230.08 1968.05 1230.08 M 1968.05 1229.7 1946.79 1229.7 M 1946.79 1229.32 1968.05 1229.32 M 1968.05 1228.94 1946.79 1228.94 M 1946.79 1228.57 1968.05 1228.57 M 1968.05 1225.05 1968.05 1203.79 1955.06 1203.79 1955.06 1212.06 1946.79 1212.06 1946.79 1225.05 1968.05 1225.05 M 1968.05 1224.78 1946.79 1224.78 M 1946.79 1224.4 1968.05 1224.4 M 1968.05 1224.02 1946.79 1224.02 M 1946.79 1223.64 1968.05 1223.64 M 1968.05 1223.26 1946.79 1223.26 M 1946.79 1222.88 1968.05 1222.88 M 1968.05 1222.5 1946.79 1222.5 M 1946.79 1222.13 1968.05 1222.13 M 1968.05 1221.75 1946.79 1221.75 M 1946.79 1221.37 1968.05 1221.37 M 1968.05 1220.99 1946.79 1220.99 M 1946.79 1220.61 1968.05 1220.61 M 1968.05 1220.23 1946.79 1220.23 M 1946.79 1219.85 1968.05 1219.85 M 1968.05 1219.47 1946.79 1219.47 M 1946.79 1219.1 1968.05 1219.1 M 1968.05 1218.72 1946.79 1218.72 M 1946.79 1218.34 1968.05 1218.34 M 1968.05 1217.96 1946.79 1217.96 M 1946.79 1217.58 1968.05 1217.58 M 1968.05 1217.2 1946.79 1217.2 M 1946.79 1216.82 1968.05 1216.82 M 1968.05 1216.44 1946.79 1216.44 M 1946.79 1216.06 1968.05 1216.06 M 1968.05 1215.69 1946.79 1215.69 M 1946.79 1215.31 1968.05 1215.31 M 1968.05 1214.93 1946.79 1214.93 M 1946.79 1214.55 1968.05 1214.55 M 1968.05 1214.17 1946.79 1214.17 M 1946.79 1213.79 1968.05 1213.79 M 1968.05 1213.41 1946.79 1213.41 M 1946.79 1213.03 1968.05 1213.03 M 1968.05 1212.66 1946.79 1212.66 M 1946.79 1212.28 1968.05 1212.28 M 1968.05 1211.9 1955.06 1211.9 M 1955.06 1211.52 1968.05 1211.52 M 1968.05 1211.14 1955.06 1211.14 M 1955.06 1210.76 1968.05 1210.76 M 1968.05 1210.38 1955.06 1210.38 M 1955.06 1210 1968.05 1210 M 1968.05 1209.63 1955.06 1209.63 M 1955.06 1209.25 1968.05 1209.25 M 1968.05 1208.87 1955.06 1208.87 M 1955.06 1208.49 1968.05 1208.49 M 1968.05 1208.11 1955.06 1208.11 M 1955.06 1207.73 1968.05 1207.73 M 1968.05 1207.35 1955.06 1207.35 M 1955.06 1206.97 1968.05 1206.97 M 1968.05 1206.59 1955.06 1206.59 M 1955.06 1206.22 1968.05 1206.22 M 1968.05 1205.84 1955.06 1205.84 M 1955.06 1205.46 1968.05 1205.46 M 1968.05 1205.08 1955.06 1205.08 M 1955.06 1204.7 1968.05 1204.7 M 1968.05 1204.32 1955.06 1204.32 M 1955.06 1203.94 1968.05 1203.94 M 1971.2 1203.94 1984.19 1203.94 M 1984.19 1204.32 1971.2 1204.32 M 1971.2 1204.7 1984.19 1204.7 M 1984.19 1205.08 1971.2 1205.08 M 1971.2 1205.46 1984.19 1205.46 M 1984.19 1205.84 1971.2 1205.84 M 1971.2 1206.22 1984.19 1206.22 M 1984.19 1206.59 1971.2 1206.59 M 1971.2 1206.97 1984.19 1206.97 M 1984.19 1207.35 1971.2 1207.35 M 1971.2 1207.73 1984.19 1207.73 M 1984.19 1208.11 1971.2 1208.11 M 1971.2 1208.49 1984.19 1208.49 M 1984.19 1208.87 1971.2 1208.87 M 1971.2 1209.25 1984.19 1209.25 M 1984.19 1209.63 1971.2 1209.63 M 1971.2 1210 1984.19 1210 M 1984.19 1210.38 1971.2 1210.38 M 1971.2 1210.76 1984.19 1210.76 M 1984.19 1211.14 1971.2 1211.14 M 1971.2 1211.52 1984.19 1211.52 M 1984.19 1211.9 1971.2 1211.9" fill="none" stroke-width="0.39"/><use xlink:href="#Xsmf9US9Z4jLuw5ywvPk_pad-20" x="2638" y="866.84"/><use xlink:href="#Xsmf9US9Z4jLuw5ywvPk_pad-20" x="2638" y="784.16"/><use xlink:href="#Xsmf9US9Z4jLuw5ywvPk_pad-21" x="2513" y="800.5"/><use xlink:href="#Xsmf9US9Z4jLuw5ywvPk_pad-21" x="2413" y="800.5"/><use xlink:href="#Xsmf9US9Z4jLuw5ywvPk_pad-21" x="2313" y="800.5"/><use xlink:href="#Xsmf9US9Z4jLuw5ywvPk_pad-22" x="2400.5" y="1288"/><use xlink:href="#Xsmf9US9Z4jLuw5ywvPk_pad-23" x="2600.5" y="1288"/><use xlink:href="#Xsmf9US9Z4jLuw5ywvPk_pad-24" x="1762.9" y="1089.19"/><use xlink:href="#Xsmf9US9Z4jLuw5ywvPk_pad-24" x="1688.1" y="1089.19"/><use xlink:href="#Xsmf9US9Z4jLuw5ywvPk_pad-24" x="1688.1" y="986.81"/><use xlink:href="#Xsmf9US9Z4jLuw5ywvPk_pad-24" x="1725.5" y="986.81"/><use xlink:href="#Xsmf9US9Z4jLuw5ywvPk_pad-24" x="1762.9" y="986.81"/><use xlink:href="#Xsmf9US9Z4jLuw5ywvPk_pad-25" x="812.9" y="811.13"/><use xlink:href="#Xsmf9US9Z4jLuw5ywvPk_pad-25" x="738.1" y="811.13"/><use xlink:href="#Xsmf9US9Z4jLuw5ywvPk_pad-25" x="775.5" y="889.87"/><use xlink:href="#Xsmf9US9Z4jLuw5ywvPk_pad-25" x="750.5" y="1348.63"/><use xlink:href="#Xsmf9US9Z4jLuw5ywvPk_pad-25" x="713.1" y="1427.37"/><use xlink:href="#Xsmf9US9Z4jLuw5ywvPk_pad-25" x="787.9" y="1427.37"/><path d="M 524.32 1205.13 441.64 1205.13 M 441.64 1008.28 524.32 1008.28" fill="none" stroke-width="86.68"/><use xlink:href="#Xsmf9US9Z4jLuw5ywvPk_pad-27" x="700.6" y="1210.34"/><use xlink:href="#Xsmf9US9Z4jLuw5ywvPk_pad-27" x="738" y="1210.34"/><use xlink:href="#Xsmf9US9Z4jLuw5ywvPk_pad-27" x="775.4" y="1210.34"/><use xlink:href="#Xsmf9US9Z4jLuw5ywvPk_pad-27" x="775.4" y="1301.88"/><use xlink:href="#Xsmf9US9Z4jLuw5ywvPk_pad-27" x="738" y="1301.88"/><use xlink:href="#Xsmf9US9Z4jLuw5ywvPk_pad-27" x="700.6" y="1301.88"/><use xlink:href="#Xsmf9US9Z4jLuw5ywvPk_pad-28" x="988" y="1132.5"/><use xlink:href="#Xsmf9US9Z4jLuw5ywvPk_pad-28" x="988" y="1100.5"/><use xlink:href="#Xsmf9US9Z4jLuw5ywvPk_pad-28" x="988" y="1068.5"/><use xlink:href="#Xsmf9US9Z4jLuw5ywvPk_pad-29" x="1625.5" y="1026.09"/><use xlink:href="#Xsmf9US9Z4jLuw5ywvPk_pad-29" x="1625.5" y="974.91"/><use xlink:href="#Xsmf9US9Z4jLuw5ywvPk_pad-30" x="1987.62" y="1145.5"/><use xlink:href="#Xsmf9US9Z4jLuw5ywvPk_pad-30" x="2019.62" y="1145.5"/><use xlink:href="#Xsmf9US9Z4jLuw5ywvPk_pad-30" x="2051.62" y="1145.5"/><use xlink:href="#Xsmf9US9Z4jLuw5ywvPk_pad-30" x="2328.87" y="1129.25"/><use xlink:href="#Xsmf9US9Z4jLuw5ywvPk_pad-30" x="2360.87" y="1129.25"/></g></svg>