<svg version="1.1" xmlns="http://www.w3.org/2000/svg" xmlns:xlink="http://www.w3.org/1999/xlink" stroke-linecap="round" stroke-linejoin="round" stroke-width="0" fill-rule="evenodd" width="2.38591in" height="0.7934in" viewBox="329.79 710 2385.91 793.4" id="n1iOjctzHMiCIUzU67UW"><defs><rect x="-15.75" y="-3.935" width="31.5" height="7.87" id="n1iOjctzHMiCIUzU67UW_pad-15"/><rect x="-12.5" y="-45" width="25" height="90" id="n1iOjctzHMiCIUzU67UW_pad-17"/><circle cx="0" cy="0" r="7.07" id="n1iOjctzHMiCIUzU67UW_pad-18"/></defs><g transform="translate(0,2213.4) scale(1,-1)" fill="currentColor" stroke="currentColor"><path d="M 350.5 713 2712.7 713 2712.7 1500.4 350.5 1500.4 350.5 713 M 2335.5 1338 2365.5 1338 M 2350.5 1353 2350.5 1323 M 2455.5 1288 2465.5 1288 2465.5 1333 2490.5 1333 2490.5 1243 2465.5 1243 2465.5 1288 M 2300.5 1288 2300.56 1292.91 2300.74 1297.81 2301.04 1302.71 2301.46 1307.6 2302 1312.48 2302.66 1317.35 2303.44 1322.19 2304.34 1327.02 2305.36 1331.82 2306.49 1336.6 2307.74 1341.34 2309.11 1346.06 2310.59 1350.74 2312.19 1355.38 2313.9 1359.98 2315.72 1364.54 2317.66 1369.05 2319.7 1373.51 2321.86 1377.92 2324.12 1382.28 2326.48 1386.58 2328.95 1390.82 2331.53 1395 2334.21 1399.11 2336.98 1403.16 2339.86 1407.14 2342.83 1411.05 2345.9 1414.88 2349.06 1418.63 2352.31 1422.31 2355.65 1425.91 2359.08 1429.42 2362.59 1432.85 2366.19 1436.19 2369.87 1439.44 2373.62 1442.6 2377.45 1445.67 2381.36 1448.64 2385.34 1451.52 2389.39 1454.29 2393.5 1456.97 2397.68 1459.55 2401.92 1462.02 2406.22 1464.38 2410.58 1466.64 2414.99 1468.8 2419.45 1470.84 2423.96 1472.78 2428.52 1474.6 2433.12 1476.31 2437.76 1477.91 2442.44 1479.39 2447.16 1480.76 2451.9 1482.01 2456.68 1483.14 2461.48 1484.16 2466.31 1485.06 2471.15 1485.84 2476.02 1486.5 2480.9 1487.04 2485.79 1487.46 2490.69 1487.76 2495.59 1487.94 2500.5 1488 2505.41 1487.94 2510.31 1487.76 2515.21 1487.46 2520.1 1487.04 2524.98 1486.5 2529.85 1485.84 2534.69 1485.06 2539.52 1484.16 2544.32 1483.14 2549.1 1482.01 2553.84 1480.76 2558.56 1479.39 2563.24 1477.91 2567.88 1476.31 2572.48 1474.6 2577.04 1472.78 2581.55 1470.84 2586.01 1468.8 2590.42 1466.64 2594.78 1464.38 2599.08 1462.02 2603.32 1459.55 2607.5 1456.97 2611.61 1454.29 2615.66 1451.52 2619.64 1448.64 2623.55 1445.67 2627.38 1442.6 2631.13 1439.44 2634.81 1436.19 2638.41 1432.85 2641.92 1429.42 2645.35 1425.91 2648.69 1422.31 2651.94 1418.63 2655.1 1414.88 2658.17 1411.05 2661.14 1407.14 2664.02 1403.16 2666.79 1399.11 2669.47 1395 2672.05 1390.82 2674.52 1386.58 2676.88 1382.28 2679.14 1377.92 2681.3 1373.51 2683.34 1369.05 2685.28 1364.54 2687.1 1359.98 2688.81 1355.38 2690.41 1350.74 2691.89 1346.06 2693.26 1341.34 2694.51 1336.6 2695.64 1331.82 2696.66 1327.02 2697.56 1322.19 2698.34 1317.35 2699 1312.48 2699.54 1307.6 2699.96 1302.71 2700.26 1297.81 2700.44 1292.91 2700.5 1288 2700.44 1283.09 2700.26 1278.19 2699.96 1273.29 2699.54 1268.4 2699 1263.52 2698.34 1258.65 2697.56 1253.81 2696.66 1248.98 2695.64 1244.18 2694.51 1239.4 2693.26 1234.66 2691.89 1229.94 2690.41 1225.26 2688.81 1220.62 2687.1 1216.02 2685.28 1211.46 2683.34 1206.95 2681.3 1202.49 2679.14 1198.08 2676.88 1193.72 2674.52 1189.42 2672.05 1185.18 2669.47 1181 2666.79 1176.89 2664.02 1172.84 2661.14 1168.86 2658.17 1164.95 2655.1 1161.12 2651.94 1157.37 2648.69 1153.69 2645.35 1150.09 2641.92 1146.58 2638.41 1143.15 2634.81 1139.81 2631.13 1136.56 2627.38 1133.4 2623.55 1130.33 2619.64 1127.36 2615.66 1124.48 2611.61 1121.71 2607.5 1119.03 2603.32 1116.45 2599.08 1113.98 2594.78 1111.62 2590.42 1109.36 2586.01 1107.2 2581.55 1105.16 2577.04 1103.22 2572.48 1101.4 2567.88 1099.69 2563.24 1098.09 2558.56 1096.61 2553.84 1095.24 2549.1 1093.99 2544.32 1092.86 2539.52 1091.84 2534.69 1090.94 2529.85 1090.16 2524.98 1089.5 2520.1 1088.96 2515.21 1088.54 2510.31 1088.24 2505.41 1088.06 2500.5 1088 2495.59 1088.06 2490.69 1088.24 2485.79 1088.54 2480.9 1088.96 2476.02 1089.5 2471.15 1090.16 2466.31 1090.94 2461.48 1091.84 2456.68 1092.86 2451.9 1093.99 2447.16 1095.24 2442.44 1096.61 2437.76 1098.09 2433.12 1099.69 2428.52 1101.4 2423.96 1103.22 2419.45 1105.16 2414.99 1107.2 2410.58 1109.36 2406.22 1111.62 2401.92 1113.98 2397.68 1116.45 2393.5 1119.03 2389.39 1121.71 2385.34 1124.48 2381.36 1127.36 2377.45 1130.33 2373.62 1133.4 2369.87 1136.56 2366.19 1139.81 2362.59 1143.15 2359.08 1146.58 2355.65 1150.09 2352.31 1153.69 2349.06 1157.37 2345.9 1161.12 2342.83 1164.95 2339.86 1168.86 2336.98 1172.84 2334.21 1176.89 2331.53 1181 2328.95 1185.18 2326.48 1189.42 2324.12 1193.72 2321.86 1198.08 2319.7 1202.49 2317.66 1206.95 2315.72 1211.46 2313.9 1216.02 2312.19 1220.62 2310.59 1225.26 2309.11 1229.94 2307.74 1234.66 2306.49 1239.4 2305.36 1244.18 2304.34 1248.98 2303.44 1253.81 2302.66 1258.65 2302 1263.52 2301.46 1268.4 2301.04 1273.29 2300.74 1278.19 2300.56 1283.09 2300.5 1288 M 2525.5 1288 2545.5 1288" fill="none" stroke-width="6"/><path d="M 2494.61 1384.5 2494.61 1406.52 2483.6 1395.51 2498.28 1395.51 M 2476.18 1402.85 2472.51 1406.52 2465.17 1406.52 2461.5 1402.85 2461.5 1388.17 2465.17 1384.5 2472.51 1384.5 2476.18 1388.17 M 2367.93 1197.27 2371.6 1193.6 2371.6 1189.93 2367.93 1186.26 2371.6 1182.59 2371.6 1178.92 2367.93 1175.25 2360.59 1175.25 2356.92 1178.92 M 2364.26 1186.26 2367.93 1186.26 M 2367.93 1197.27 2360.59 1197.27 2356.92 1193.6 M 2349.5 1193.6 2345.83 1197.27 2334.83 1197.27 2334.83 1175.25 M 2334.83 1182.59 2345.83 1182.59 2349.5 1186.26 2349.5 1193.6 M 2327.41 1197.27 2320.07 1197.27 M 2323.74 1197.27 2323.74 1178.92 2320.07 1175.25 2316.4 1175.25 2312.73 1178.92 M 2204.5 1259 2182.48 1259 2182.48 1270.01 2186.15 1273.68 2193.49 1273.68 2197.16 1270.01 2197.16 1259 M 2197.16 1266.34 2204.5 1273.68 M 2200.83 1281.1 2204.5 1284.77 2204.5 1292.11 2200.83 1295.78 2197.16 1295.78 2193.49 1292.11 2193.49 1281.1 2200.83 1281.1 M 2193.49 1281.1 2186.15 1288.44 2182.48 1295.78 M 2074.16 1285.34 2074.16 1281.67 2059.48 1267 2074.16 1267 M 2074.16 1285.34 2070.49 1289.01 2063.15 1289.01 2059.48 1285.34 M 2052.07 1285.34 2048.4 1289.01 2041.06 1289.01 2037.39 1285.34 2037.39 1281.67 2041.06 1278 2048.4 1278 2052.07 1274.33 2052.07 1270.66 2048.4 1267 2041.06 1267 2037.39 1270.66 M 2029.97 1267 2015.29 1267 2015.29 1289.01 M 1980.29 1267 1965.61 1267 M 1972.95 1267 1972.95 1289.01 1965.61 1281.67 M 1958.19 1285.34 1954.52 1289.01 1947.18 1289.01 1943.51 1285.34 1943.51 1281.67 1947.18 1278 1954.52 1278 1958.19 1274.33 1958.19 1270.66 1954.52 1267 1947.18 1267 1943.51 1270.66 M 1936.09 1267 1921.41 1267 1921.41 1289.01 M 1991.69 1207.64 1999.03 1207.64 M 1995.36 1207.64 1995.36 1189.29 1991.69 1185.62 1988.02 1185.62 1984.35 1189.29 M 2006.45 1185.62 2006.45 1207.64 2017.46 1207.64 2021.13 1203.97 2021.13 1196.63 2017.46 1192.96 2006.45 1192.96 M 2028.55 1185.62 2043.23 1200.3 2043.23 1203.97 2039.56 1207.64 2032.22 1207.64 2028.55 1203.97 M 2028.55 1185.62 2043.23 1185.62 M 1970.78 1132.51 1956.1 1132.51 1967.11 1143.52 1967.11 1121.5 M 1948.68 1121.5 1941.34 1128.84 M 1945.01 1128.84 1934 1128.84 M 1934 1121.5 1934 1143.52 1945.01 1143.52 1948.68 1139.85 1948.68 1132.51 1945.01 1128.84 M 1945.01 1081.02 1948.68 1077.35 1948.68 1070.01 1945.01 1066.34 1934 1066.34 M 1941.34 1066.34 1948.68 1059 M 1956.1 1062.67 1959.77 1059 1967.11 1059 1970.78 1062.67 1970.78 1070.01 1967.11 1073.68 1963.44 1073.68 1956.1 1070.01 1956.1 1081.02 1970.78 1081.02 M 1945.01 1081.02 1934 1081.02 1934 1059 M 1934 1018.52 1945.01 1018.52 1948.68 1014.85 1948.68 1007.51 1945.01 1003.84 1934 1003.84 M 1941.34 1003.84 1948.68 996.5 M 1956.1 1000.17 1959.77 996.5 1967.11 996.5 1970.78 1000.17 1970.78 1003.84 1967.11 1007.51 1963.44 1007.51 M 1967.11 1007.51 1970.78 1011.18 1970.78 1014.85 1967.11 1018.52 1959.77 1018.52 1956.1 1014.85 M 1934 1018.52 1934 996.5 M 1934 956.02 1945.01 956.02 1948.68 952.35 1948.68 945.01 1945.01 941.34 1934 941.34 M 1941.34 941.34 1948.68 934 M 1956.1 934 1970.78 948.68 1970.78 952.35 1967.11 956.02 1959.77 956.02 1956.1 952.35 M 1956.1 934 1970.78 934 M 1934 934 1934 956.02 M 2055.87 1029.29 2059.54 1025.62 2066.88 1025.62 2070.55 1029.29 M 2077.97 1025.62 2092.65 1025.62 M 2085.31 1025.62 2085.31 1047.64 2077.97 1040.3 M 2070.55 1043.97 2066.88 1047.64 2059.54 1047.64 2055.87 1043.97 2055.87 1029.29 M 2100.07 1029.29 2103.74 1025.62 2111.08 1025.62 2114.75 1029.29 2114.75 1032.96 2111.08 1036.63 2107.41 1036.63 M 2111.08 1036.63 2114.75 1040.3 2114.75 1043.97 2111.08 1047.64 2103.74 1047.64 2100.07 1043.97 M 2141.57 938.16 2148.91 938.16 M 2145.24 938.16 2145.24 916.14 M 2141.57 916.14 2148.91 916.14 M 2156.3 919.81 2159.97 916.14 2167.31 916.14 2170.98 919.81 M 2178.4 916.14 2193.08 930.82 2193.08 934.49 2189.41 938.16 2182.07 938.16 2178.4 934.49 M 2170.98 934.49 2167.31 938.16 2159.97 938.16 2156.3 934.49 2156.3 919.81 M 2178.4 916.14 2193.08 916.14 M 2267.12 877.14 2267.12 858.79 2270.79 855.13 2278.13 855.13 2281.8 858.79 2281.8 877.14 M 2289.22 869.8 2289.22 855.13 M 2289.22 866.13 2303.9 866.13 M 2303.9 869.8 2303.9 855.13 M 2311.32 855.13 2311.32 877.14 2322.33 877.14 2326 873.47 2326 866.13 2322.33 862.46 2311.32 862.46 M 2318.66 862.46 2326 855.13 M 2340.76 855.13 2340.76 877.14 M 2333.42 877.14 2348.1 877.14 M 2303.9 869.8 2296.56 877.14 2289.22 869.8 M 2470.75 1011.67 2474.42 1008 2481.76 1008 2485.43 1011.67 M 2492.85 1008 2507.53 1008 M 2500.19 1008 2500.19 1030.02 2492.85 1022.68 M 2485.43 1026.35 2481.76 1030.02 2474.42 1030.02 2470.75 1026.35 2470.75 1011.67 M 2514.95 1008 2529.63 1022.68 2529.63 1026.35 2525.96 1030.02 2518.62 1030.02 2514.95 1026.35 M 2514.95 1008 2529.63 1008 M 2624.36 1063.12 2624.36 1074.13 2628.03 1077.8 2635.37 1077.8 2639.04 1074.13 2639.04 1063.12 M 2646.38 1063.12 2624.36 1063.12 M 2639.04 1070.46 2646.38 1077.8 M 2646.38 1085.22 2646.38 1099.9 M 2646.38 1092.56 2624.36 1092.56 2631.7 1085.22 M 2591.25 868.48 2591.25 853.8 M 2591.25 861.14 2569.23 861.14 2576.57 853.8 M 2572.9 846.38 2569.23 842.71 2569.23 831.7 2591.25 831.7 2591.25 842.71 2587.58 846.38 2572.9 846.38 M 2569.23 824.28 2569.23 809.6 2591.25 809.6 2591.25 824.28 M 2580.24 816.94 2580.24 809.6 M 2591.25 802.18 2591.25 787.5 2569.23 787.5 M 1739.34 1136.25 1739.34 1158.27 1728.33 1147.26 1743.01 1147.26 M 1720.91 1154.6 1717.24 1158.27 1709.9 1158.27 1706.23 1154.6 1706.23 1139.92 1709.9 1136.25 1717.24 1136.25 1720.91 1139.92 M 1698.84 1136.25 1691.5 1136.25 M 1695.17 1136.25 1695.17 1158.27 M 1691.5 1158.27 1698.84 1158.27 M 1671.9 1219.75 1671.9 1223.42 1686.58 1238.1 1686.58 1241.77 1671.9 1241.77 M 1664.48 1238.1 1660.81 1241.77 1649.8 1241.77 1649.8 1219.75 M 1649.8 1227.09 1660.81 1227.09 1664.48 1230.76 1664.48 1238.1 M 1657.14 1227.09 1664.48 1219.75 M 1647.59 1325.89 1647.59 1340.57 M 1647.59 1347.99 1647.59 1362.67 M 1647.59 1355.33 1625.57 1355.33 1632.91 1347.99 M 1625.57 1325.89 1647.59 1325.89 M 1907.25 1424.5 1918.26 1424.5 1921.93 1428.17 1921.93 1442.85 1918.26 1446.52 1907.25 1446.52 1907.25 1424.5 M 1929.35 1424.5 1944.03 1424.5 M 1951.45 1424.5 1962.46 1424.5 1966.13 1428.17 1966.13 1431.84 1962.46 1435.51 1951.45 1435.51 M 1962.46 1435.51 1966.13 1439.18 1966.13 1442.85 1962.46 1446.52 1951.45 1446.52 1951.45 1424.5 M 1936.69 1435.51 1929.35 1435.51 M 1929.35 1446.52 1929.35 1424.5 M 1929.35 1446.52 1944.03 1446.52 M 1973.55 1446.52 1973.55 1428.17 1977.22 1424.5 1984.56 1424.5 1988.23 1428.17 1988.23 1446.52 M 1995.65 1442.85 1995.65 1428.17 1999.31 1424.5 2006.65 1424.5 2010.32 1428.17 2010.32 1435.51 2002.98 1435.51 M 1995.65 1442.85 1999.31 1446.52 2006.65 1446.52 2010.32 1442.85 M 1280.5 1436.78 1280.5 1422.1 M 1280.5 1429.44 1258.48 1429.44 1265.82 1422.1 M 1262.15 1414.68 1258.48 1411.01 1258.48 1403.67 1262.15 1400 1276.83 1400 1280.5 1403.67 1280.5 1411.01 1276.83 1414.68 M 1162.51 1314.22 1158.84 1317.89 1151.5 1317.89 1147.83 1314.22 M 1140.41 1314.22 1136.74 1317.89 1129.4 1317.89 1125.73 1314.22 1125.73 1299.54 1129.4 1295.87 1136.74 1295.87 1140.41 1299.54 M 1147.83 1299.54 1151.5 1295.87 1158.84 1295.87 1162.51 1299.54 1162.51 1303.21 1158.84 1306.88 1155.17 1306.88 M 1158.84 1306.88 1162.51 1310.55 1162.51 1314.22 M 1118.34 1317.89 1111 1317.89 M 1114.67 1317.89 1114.67 1295.87 M 1111 1295.87 1118.34 1295.87 M 1034.13 1261.65 1034.13 1239.63 M 1026.79 1239.63 1041.47 1239.63 M 1026.79 1254.31 1034.13 1261.65 M 1019.37 1257.98 1015.7 1261.65 1004.69 1261.65 1004.69 1239.63 1015.7 1239.63 1019.37 1243.3 1019.37 1257.98 M 991.47 1257.98 987.8 1261.65 980.46 1261.65 976.79 1257.98 M 969.37 1257.98 965.7 1261.65 954.69 1261.65 954.69 1239.63 965.7 1239.63 969.37 1243.3 969.37 1257.98 M 975.5 1239.97 965.66 1230.13 985.34 1230.13 975.5 1239.97 M 974.59 1239.05 976.41 1239.05 M 976.79 1239.63 991.47 1254.31 991.47 1257.98 M 991.47 1239.63 976.79 1239.63 M 978.4 1237.07 972.6 1237.07 M 970.62 1235.08 980.38 1235.08 M 982.37 1233.1 968.63 1233.1 M 966.65 1231.11 984.35 1231.11 M 935.34 1230.13 915.66 1230.13 925.5 1239.97 935.34 1230.13 M 934.35 1231.11 916.65 1231.11 M 918.63 1233.1 932.37 1233.1 M 930.38 1235.08 920.62 1235.08 M 922.6 1237.07 928.4 1237.07 M 926.41 1239.05 924.59 1239.05 M 922.29 1314.75 925.96 1318.42 925.96 1322.09 922.29 1325.76 911.28 1325.76 911.28 1318.42 914.95 1314.75 922.29 1314.75 M 911.28 1325.76 918.62 1333.1 925.96 1336.77 M 896.52 1336.77 896.52 1314.75 M 889.18 1314.75 903.86 1314.75 M 889.18 1329.43 896.52 1336.77 M 881.76 1333.1 878.09 1336.77 870.75 1336.77 867.08 1333.1 867.08 1318.42 870.75 1314.75 878.09 1314.75 881.76 1318.42 M 859.9 1375.5 845.22 1375.5 M 852.56 1375.5 852.56 1397.52 845.22 1390.18 M 837.8 1393.85 834.13 1397.52 826.79 1397.52 823.13 1393.85 823.13 1379.17 826.79 1375.5 834.13 1375.5 837.8 1379.17 837.8 1393.85 M 830.46 1382.84 837.8 1375.5 M 618.63 1362.01 603.95 1362.01 614.96 1373.02 614.96 1351 M 596.53 1351 581.85 1351 M 589.19 1351 589.19 1373.02 581.85 1365.68 M 574.43 1369.35 574.43 1362.01 570.76 1358.34 559.75 1358.34 M 567.09 1358.34 574.43 1351 M 559.75 1351 559.75 1373.02 570.76 1373.02 574.43 1369.35 M 574.43 1412.25 567.09 1419.59 M 570.76 1419.59 559.75 1419.59 M 559.75 1412.25 559.75 1434.27 570.76 1434.27 574.43 1430.6 574.43 1423.26 570.76 1419.59 M 581.85 1426.93 589.19 1434.27 589.19 1412.25 M 581.85 1412.25 596.53 1412.25 M 603.95 1415.92 607.62 1412.25 614.96 1412.25 618.63 1415.92 618.63 1423.26 614.96 1426.93 611.29 1426.93 603.95 1423.26 603.95 1434.27 618.63 1434.27 M 773.47 1180.13 769.8 1176.46 769.8 1161.78 773.47 1158.11 780.81 1158.11 784.48 1161.78 784.48 1176.46 780.81 1180.13 773.47 1180.13 M 777.14 1165.45 784.48 1158.11 M 791.9 1158.11 806.58 1172.79 806.58 1176.46 802.91 1180.13 795.57 1180.13 791.9 1176.46 M 791.9 1158.11 806.58 1158.11 M 932.23 1126.01 954.25 1126.01 M 954.25 1118.67 954.25 1133.35 M 939.57 1118.67 932.23 1126.01 M 935.9 1111.25 943.24 1111.25 946.91 1107.58 946.91 1096.58 M 954.25 1096.58 932.23 1096.58 932.23 1107.58 935.9 1111.25 M 932.23 1089.16 932.23 1081.82 M 932.23 1085.49 950.58 1085.49 954.25 1081.82 954.25 1078.15 950.58 1074.48 M 965.08 1036.64 976.09 1036.64 979.76 1032.97 979.76 1025.63 976.09 1021.96 965.08 1021.96 M 965.08 1014.62 965.08 1036.64 M 972.42 1021.96 979.76 1014.62 M 987.18 1014.62 1001.86 1014.62 M 994.52 1014.62 994.52 1036.64 987.18 1029.3 M 1009.28 1032.97 1012.95 1036.64 1020.29 1036.64 1023.96 1032.97 1009.28 1018.29 1012.95 1014.62 1020.29 1014.62 1023.96 1018.29 1023.96 1032.97 M 1009.28 1032.97 1009.28 1018.29 M 1012.95 999.89 1020.29 999.89 1023.96 996.22 1023.96 992.55 1020.29 988.88 1023.96 985.21 1023.96 981.54 1020.29 977.87 1012.95 977.87 1009.28 981.54 M 1001.86 977.87 987.18 977.87 M 994.52 977.87 994.52 999.89 987.18 992.55 M 979.76 996.22 979.76 988.88 976.09 985.21 965.08 985.21 M 965.08 977.87 965.08 999.89 976.09 999.89 979.76 996.22 M 972.42 985.21 979.76 977.87 M 1009.28 996.22 1012.95 999.89 M 1016.62 988.88 1020.29 988.88 M 1016.62 938.64 1016.62 916.62 M 1009.28 916.62 1023.96 916.62 M 1009.28 931.3 1016.62 938.64 M 994.52 938.64 994.52 916.62 M 987.18 916.62 1001.86 916.62 M 987.18 931.3 994.52 938.64 M 979.76 934.97 979.76 927.63 976.09 923.96 965.08 923.96 M 965.08 916.62 965.08 938.64 976.09 938.64 979.76 934.97 M 972.42 923.96 979.76 916.62 M 976.09 877.39 979.76 873.72 979.76 866.38 976.09 862.71 965.08 862.71 M 965.08 855.38 965.08 877.39 976.09 877.39 M 987.18 870.05 994.52 877.39 994.52 855.38 M 987.18 855.38 1001.86 855.38 M 1009.28 855.38 1023.96 870.05 1023.96 873.72 1020.29 877.39 1012.95 877.39 1009.28 873.72 M 1009.28 855.38 1023.96 855.38 M 979.76 855.38 972.42 862.71 M 909.33 922.25 913 925.92 913 933.26 909.33 936.93 M 909.33 944.35 913 948.02 913 955.36 909.33 959.03 901.99 959.03 898.32 955.36 898.32 951.69 901.99 944.35 890.98 944.35 890.98 959.03 M 894.65 936.93 890.98 933.26 890.98 925.92 894.65 922.25 909.33 922.25 M 684.76 836.5 670.08 836.5 M 677.42 836.5 677.42 858.52 670.08 851.18 M 662.66 854.85 658.99 858.52 651.65 858.52 647.98 854.85 647.98 840.17 651.65 836.5 658.99 836.5 662.66 840.17 M 640.59 836.5 633.25 836.5 M 636.92 836.5 636.92 858.52 M 633.25 858.52 640.59 858.52 M 643.63 760.52 647.3 760.52 647.3 738.5 M 643.63 738.5 650.97 738.5 M 658.36 742.17 658.36 749.51 662.03 753.18 673.04 753.18 M 673.04 760.52 673.04 738.5 662.03 738.5 658.36 742.17 M 680.46 742.17 680.46 749.51 684.13 753.18 691.47 753.18 695.14 749.51 695.14 745.84 680.46 745.84 M 680.46 742.17 684.13 738.5 691.47 738.5 M 702.56 738.5 702.56 753.18 M 702.56 745.84 709.9 753.18 713.57 753.18 M 720.97 749.51 724.64 753.18 735.65 753.18 M 731.98 745.84 724.64 745.84 720.97 749.51 M 720.97 738.5 731.98 738.5 735.65 742.17 731.98 745.84 M 636.21 738.5 636.21 753.18 M 636.21 738.5 625.2 738.5 621.53 742.17 621.53 753.18 M 614.11 760.52 614.11 738.5 M 599.43 738.5 599.43 760.52 606.77 753.18 614.11 760.52 M 569.91 749.51 569.91 738.5 M 569.91 749.51 566.24 753.18 555.23 753.18 555.23 738.5 M 547.81 738.5 536.8 738.5 533.13 742.17 536.8 745.84 547.81 745.84 M 547.81 749.51 547.81 738.5 M 547.81 749.51 544.14 753.18 536.8 753.18 M 525.71 745.84 525.71 760.52 M 511.03 760.52 511.03 745.84 518.37 738.5 525.71 745.84 M 481.52 745.84 466.84 745.84 M 466.84 749.51 470.51 753.18 477.85 753.18 481.52 749.51 481.52 745.84 M 477.85 738.5 470.51 738.5 466.84 742.17 466.84 749.51 M 459.42 749.51 459.42 738.5 M 459.42 749.51 455.75 753.18 444.74 753.18 444.74 738.5 M 437.33 753.18 433.66 753.18 426.32 745.84 M 426.32 738.5 426.32 753.18 M 418.9 749.51 418.9 738.5 407.89 738.5 404.22 742.17 407.89 745.84 418.9 745.84 M 418.9 749.51 415.23 753.18 407.89 753.18 M 396.8 760.52 389.46 760.52 M 393.13 760.52 393.13 742.17 389.46 738.5 385.79 738.5 382.13 742.17 M 382.13 769.13 382.13 791.14 396.8 769.13 396.8 791.14 M 404.22 791.14 415.23 791.14 418.9 787.47 418.9 780.13 415.23 776.46 404.22 776.46 M 404.22 769.13 404.22 791.14 M 411.56 776.46 418.9 769.13 M 426.32 772.79 441 787.47 441 772.79 437.33 769.13 429.99 769.13 426.32 772.79 426.32 787.47 429.99 791.14 437.33 791.14 441 787.47 M 448.42 783.8 455.76 791.14 455.76 769.13 M 448.42 769.13 463.1 769.13 M 470.52 769.13 485.2 769.13 M 477.86 769.13 477.86 791.14 470.52 783.8 M 480.12 848.75 494.8 870.77 M 502.22 863.43 509.56 870.77 509.56 848.75 M 502.22 848.75 516.9 848.75 M 494.8 848.75 480.12 870.77 M 1172.25 1097.42 1175.92 1093.75 1183.26 1093.75 1186.93 1097.42 M 1194.35 1097.42 1198.02 1093.75 1205.36 1093.75 1209.03 1097.42 1209.03 1101.09 1205.36 1104.76 1201.69 1104.76 M 1205.36 1104.76 1209.03 1108.43 1209.03 1112.1 1205.36 1115.77 1198.02 1115.77 1194.35 1112.1 M 1186.93 1112.1 1183.26 1115.77 1175.92 1115.77 1172.25 1112.1 1172.25 1097.42 M 1262.15 1185.62 1276.83 1185.62 1280.5 1189.29 1280.5 1196.63 1276.83 1200.3 M 1280.5 1207.72 1265.82 1222.4 1262.15 1222.4 1258.48 1218.73 1258.48 1211.39 1262.15 1207.72 M 1262.15 1200.3 1258.48 1196.63 1258.48 1189.29 1262.15 1185.62 M 1280.5 1207.72 1280.5 1222.4 M 1313.13 932.02 1324.13 932.02 1327.8 928.35 1327.8 921.01 1324.13 917.34 1313.13 917.34 M 1320.46 917.34 1327.8 910 M 1335.22 913.67 1335.22 917.34 1338.89 921.01 1346.23 921.01 1349.9 917.34 1349.9 913.67 1346.23 910 1338.89 910 1335.22 913.67 M 1338.89 921.01 1335.22 924.68 1335.22 928.35 1338.89 932.02 1346.23 932.02 1349.9 928.35 1349.9 924.68 1346.23 921.01 M 1313.13 910 1313.13 932.02 M 1313.13 870.77 1324.13 870.77 1327.8 867.1 1327.8 859.76 1324.13 856.09 1313.13 856.09 M 1320.46 856.09 1327.8 848.75 M 1335.22 852.42 1338.89 848.75 1346.23 848.75 1349.9 852.42 1349.9 867.1 1346.23 870.77 1338.89 870.77 1335.22 867.1 1335.22 863.43 1338.89 859.76 1349.9 859.76 M 1313.13 848.75 1313.13 870.77 M 1618.98 905.97 1622.65 902.3 1637.33 902.3 1641 905.97 1641 913.31 1637.33 916.98 M 1637.33 924.4 1641 928.07 1641 935.41 1637.33 939.08 1633.66 939.08 1629.99 935.41 1629.99 924.4 1637.33 924.4 M 1629.99 924.4 1622.65 931.74 1618.98 939.08 M 1622.65 916.98 1618.98 913.31 1618.98 905.97" fill="none" stroke-width="2"/><path d="M 1606.7 1081.8 1504.73 1081.8 M 1421.27 1081.8 1319.3 1081.8 1319.3 1369.2 1421.27 1369.2 M 1504.73 1369.2 1606.7 1369.2 1606.7 1081.8 M 1144.5 1163.89 1081.5 1163.89 M 992.25 1214.38 992.25 1261.62 M 975.5 1239.97 965.66 1230.13 985.34 1230.13 975.5 1239.97 M 958.75 1261.62 958.75 1214.38 M 942.25 1214.38 942.25 1261.62 M 925.5 1239.97 915.66 1230.13 935.34 1230.13 925.5 1239.97 M 908.75 1261.62 908.75 1214.38 M 1081.5 1287.11 1144.5 1287.11 M 660.15 1303.55 601.09 1303.55 601.09 1323.24 581.41 1323.24 581.41 1303.55 601.09 1303.55 M 581.41 1303.55 360.93 1303.55 360.93 909.85 660.15 909.85 660.15 1303.55 M 351.04 1204.98 332.29 1192.48 332.29 1217.48 351.04 1204.98 M 2189.48 1074.02 2189.48 1070.09 M 2189.48 1074.02 2193.41 1074.02 M 2307.59 1074.02 2311.52 1074.02 2311.52 1070.09 M 2311.52 955.91 2311.52 951.98 2307.59 951.98 M 2193.41 951.98 2189.48 951.98 2189.48 955.91" fill="none" stroke-width="5"/><path d="M 2153.06 1052.37 2153.08 1052.76 2153.14 1053.15 2153.24 1053.53 2153.37 1053.9 2153.54 1054.25 2153.74 1054.59 2153.98 1054.9 2154.25 1055.19 2154.54 1055.45 2154.86 1055.68 2155.2 1055.88 2155.56 1056.04 2155.93 1056.16 2156.32 1056.25 2156.71 1056.3 2157.1 1056.31 2157.49 1056.28 2157.88 1056.21 2158.25 1056.1 2158.62 1055.96 2158.97 1055.78 2159.3 1055.57 2159.61 1055.32 2159.89 1055.05 2160.14 1054.75 2160.36 1054.42 2160.55 1054.08 2160.7 1053.72 2160.82 1053.34 2160.9 1052.96 2160.94 1052.57 2160.94 1052.17 2160.9 1051.78 2160.82 1051.4 2160.7 1051.02 2160.55 1050.66 2160.36 1050.32 2160.14 1049.99 2159.89 1049.69 2159.61 1049.42 2159.3 1049.17 2158.97 1048.96 2158.62 1048.78 2158.25 1048.64 2157.88 1048.53 2157.49 1048.46 2157.1 1048.43 2156.71 1048.44 2156.32 1048.49 2155.93 1048.58 2155.56 1048.7 2155.2 1048.86 2154.86 1049.06 2154.54 1049.29 2154.25 1049.55 2153.98 1049.84 2153.74 1050.15 2153.54 1050.49 2153.37 1050.84 2153.24 1051.21 2153.14 1051.59 2153.08 1051.98 2153.06 1052.37 M 2010.35 1240.4 2010.37 1240.79 2010.43 1241.18 2010.53 1241.56 2010.66 1241.93 2010.83 1242.28 2011.03 1242.62 2011.27 1242.93 2011.54 1243.22 2011.83 1243.48 2012.15 1243.71 2012.49 1243.91 2012.85 1244.07 2013.22 1244.19 2013.61 1244.28 2014 1244.33 2014.39 1244.34 2014.78 1244.31 2015.17 1244.24 2015.54 1244.13 2015.91 1243.99 2016.26 1243.81 2016.59 1243.6 2016.9 1243.35 2017.18 1243.08 2017.43 1242.78 2017.65 1242.45 2017.84 1242.11 2017.99 1241.75 2018.11 1241.37 2018.19 1240.99 2018.23 1240.6 2018.23 1240.2 2018.19 1239.81 2018.11 1239.43 2017.99 1239.05 2017.84 1238.69 2017.65 1238.35 2017.43 1238.02 2017.18 1237.72 2016.9 1237.45 2016.59 1237.2 2016.26 1236.99 2015.91 1236.81 2015.54 1236.67 2015.17 1236.56 2014.78 1236.49 2014.39 1236.46 2014 1236.47 2013.61 1236.52 2013.22 1236.61 2012.85 1236.73 2012.49 1236.89 2012.15 1237.09 2011.83 1237.32 2011.54 1237.58 2011.27 1237.87 2011.03 1238.18 2010.83 1238.52 2010.66 1238.87 2010.53 1239.24 2010.43 1239.62 2010.37 1240.01 2010.35 1240.4 M 1916.47 1240.4 1916.49 1240.79 1916.55 1241.18 1916.65 1241.56 1916.78 1241.93 1916.95 1242.28 1917.15 1242.62 1917.39 1242.93 1917.66 1243.22 1917.95 1243.48 1918.27 1243.71 1918.61 1243.91 1918.97 1244.07 1919.34 1244.19 1919.73 1244.28 1920.12 1244.33 1920.51 1244.34 1920.9 1244.31 1921.29 1244.24 1921.66 1244.13 1922.03 1243.99 1922.38 1243.81 1922.71 1243.6 1923.02 1243.35 1923.3 1243.08 1923.55 1242.78 1923.77 1242.45 1923.96 1242.11 1924.11 1241.75 1924.23 1241.37 1924.31 1240.99 1924.35 1240.6 1924.35 1240.2 1924.31 1239.81 1924.23 1239.43 1924.11 1239.05 1923.96 1238.69 1923.77 1238.35 1923.55 1238.02 1923.3 1237.72 1923.02 1237.45 1922.71 1237.2 1922.38 1236.99 1922.03 1236.81 1921.66 1236.67 1921.29 1236.56 1920.9 1236.49 1920.51 1236.46 1920.12 1236.47 1919.73 1236.52 1919.34 1236.61 1918.97 1236.73 1918.61 1236.89 1918.27 1237.09 1917.95 1237.32 1917.66 1237.58 1917.39 1237.87 1917.15 1238.18 1916.95 1238.52 1916.78 1238.87 1916.65 1239.24 1916.55 1239.62 1916.49 1240.01 1916.47 1240.4 M 1203.55 1178.26 1203.57 1178.65 1203.63 1179.04 1203.73 1179.42 1203.86 1179.79 1204.03 1180.14 1204.23 1180.48 1204.47 1180.79 1204.74 1181.08 1205.03 1181.34 1205.35 1181.57 1205.69 1181.77 1206.05 1181.93 1206.42 1182.05 1206.81 1182.14 1207.2 1182.19 1207.59 1182.2 1207.98 1182.17 1208.37 1182.1 1208.74 1181.99 1209.11 1181.85 1209.46 1181.67 1209.79 1181.46 1210.1 1181.21 1210.38 1180.94 1210.63 1180.64 1210.85 1180.31 1211.04 1179.97 1211.19 1179.61 1211.31 1179.23 1211.39 1178.85 1211.43 1178.46 1211.43 1178.06 1211.39 1177.67 1211.31 1177.29 1211.19 1176.91 1211.04 1176.55 1210.85 1176.21 1210.63 1175.88 1210.38 1175.58 1210.1 1175.31 1209.79 1175.06 1209.46 1174.85 1209.11 1174.67 1208.74 1174.53 1208.37 1174.42 1207.98 1174.35 1207.59 1174.32 1207.2 1174.33 1206.81 1174.38 1206.42 1174.47 1206.05 1174.59 1205.69 1174.75 1205.35 1174.95 1205.03 1175.18 1204.74 1175.44 1204.47 1175.73 1204.23 1176.04 1204.03 1176.38 1203.86 1176.73 1203.73 1177.1 1203.63 1177.48 1203.57 1177.87 1203.55 1178.26" fill="none" stroke-width="7.87"/><path d="M 1235.44 1175.99 1290.56 1175.99 1290.56 1050.01 1235.44 1050.01 1235.44 1175.99 M 1163.49 1140.56 1163.49 1085.44 1037.51 1085.44 1037.51 1140.56 1163.49 1140.56 M 1163.49 1078.06 1163.49 1022.94 1037.51 1022.94 1037.51 1078.06 1163.49 1078.06 M 1163.49 1015.56 1163.49 960.44 1037.51 960.44 1037.51 1015.56 1163.49 1015.56 M 1163.49 953.06 1163.49 897.94 1037.51 897.94 1037.51 953.06 1163.49 953.06 M 1175.01 953.06 1175.01 897.94 1300.99 897.94 1300.99 953.06 1175.01 953.06 M 1175.01 890.56 1300.99 890.56 1300.99 835.44 1175.01 835.44 1175.01 890.56 M 1163.49 890.56 1163.49 835.44 1037.51 835.44 1037.51 890.56 1163.49 890.56 M 928.06 913.49 928.06 787.51 872.94 787.51 872.94 913.49 928.06 913.49 M 837.41 876.5 797.69 876.5 M 837.41 876.5 837.41 824.81 M 790.16 824.5 760.29 824.5 M 713.59 824.81 713.59 876.5 753.31 876.5 M 793.12 1226.58 793.12 1285.64 M 812.41 1362 772.69 1362 M 728.31 1362 688.59 1362 688.59 1413.69 M 735.84 1414 765.71 1414 M 812.41 1413.69 812.41 1362 M 937.51 1353.06 937.51 1297.94 1063.49 1297.94 1063.49 1353.06 937.51 1353.06 M 682.88 1285.64 682.88 1226.58 M 550.99 1335.44 425.01 1335.44 425.01 1390.56 550.99 1390.56 550.99 1335.44 M 550.99 1397.94 425.01 1397.94 425.01 1453.06 550.99 1453.06 550.99 1397.94 M 1235.44 1388.49 1235.44 1262.51 1290.56 1262.51 1290.56 1388.49 1235.44 1388.49 M 1700.01 1253.06 1700.01 1197.94 1825.99 1197.94 1825.99 1253.06 1700.01 1253.06 M 1800.01 1153.06 1800.01 1097.94 1925.99 1097.94 1925.99 1153.06 1800.01 1153.06 M 1800.01 1090.56 1800.01 1035.44 1925.99 1035.44 1925.99 1090.56 1800.01 1090.56 M 1781.5 1054.91 1781.5 1021.09 M 1800.01 1028.06 1800.01 972.94 1925.99 972.94 1925.99 1028.06 1800.01 1028.06 M 1736.07 1069.91 1714.93 1069.91 M 1669.5 1054.91 1669.5 1021.09 M 1650.5 1050.5 1650.5 950.5 1600.5 950.5 1600.5 1050.5 1650.5 1050.5 M 1800.01 965.56 1800.01 910.44 1925.99 910.44 1925.99 965.56 1800.01 965.56 M 2050.5 963 2050.5 1013 2150.5 1013 2150.5 963 2050.5 963 M 2172.94 1125.01 2228.06 1125.01 2228.06 1250.99 2172.94 1250.99 2172.94 1125.01 M 2363 1038 2363 988 2463 988 2463 1038 2363 1038 M 2610.44 1050.99 2610.44 925.01 2665.56 925.01 2665.56 1050.99 2610.44 1050.99 M 2604.54 900.3 2604.54 750.7 2671.46 750.7 2671.46 900.3 2604.54 900.3 M 2622.25 833.37 2638 817.63 2653.75 833.37 2622.25 833.37 M 2622.25 817.63 2638 817.63 2653.75 817.63" fill="none" stroke-width="8"/><use xlink:href="#n1iOjctzHMiCIUzU67UW_pad-15" x="975.5" y="1244.87"/><use xlink:href="#n1iOjctzHMiCIUzU67UW_pad-15" x="925.5" y="1244.87"/><path d="M 1879.02 1322.8 1879.02 1352.8" fill="none" stroke-width="10"/><use xlink:href="#n1iOjctzHMiCIUzU67UW_pad-17" x="2523" y="1288"/><use xlink:href="#n1iOjctzHMiCIUzU67UW_pad-18" x="778" y="1271.11"/></g></svg>