<svg version="1.1" xmlns="http://www.w3.org/2000/svg" xmlns:xlink="http://www.w3.org/1999/xlink" stroke-linecap="round" stroke-linejoin="round" stroke-width="0" fill-rule="evenodd" width="22.151in" height="6.2945in" viewBox="3874 7614 22151 6294.5" id="VJEiretFsfu3SdWeX7xy"><defs><circle cx="0" cy="0" r="6" id="VJEiretFsfu3SdWeX7xy_pad-1"/><circle cx="0" cy="0" r="10" id="VJEiretFsfu3SdWeX7xy_pad-2"/><circle cx="0" cy="0" r="19.685" id="VJEiretFsfu3SdWeX7xy_pad-3"/><circle cx="0" cy="0" r="20" id="VJEiretFsfu3SdWeX7xy_pad-4"/><circle cx="0" cy="0" r="27.56" id="VJEiretFsfu3SdWeX7xy_pad-5"/></defs><g transform="translate(0,21522.5) scale(1,-1)" fill="currentColor" stroke="currentColor"><use xlink:href="#VJEiretFsfu3SdWeX7xy_pad-1" x="6755" y="8880"/><use xlink:href="#VJEiretFsfu3SdWeX7xy_pad-1" x="8005" y="9880"/><use xlink:href="#VJEiretFsfu3SdWeX7xy_pad-1" x="9997.5" y="9273.7"/><use xlink:href="#VJEiretFsfu3SdWeX7xy_pad-1" x="9936.2" y="8722.5"/><use xlink:href="#VJEiretFsfu3SdWeX7xy_pad-1" x="8588.8" y="8171.3"/><use xlink:href="#VJEiretFsfu3SdWeX7xy_pad-1" x="11255" y="7630"/><use xlink:href="#VJEiretFsfu3SdWeX7xy_pad-1" x="13121.3" y="7681.3"/><use xlink:href="#VJEiretFsfu3SdWeX7xy_pad-1" x="13305" y="8416.3"/><use xlink:href="#VJEiretFsfu3SdWeX7xy_pad-1" x="12018.7" y="9028.7"/><use xlink:href="#VJEiretFsfu3SdWeX7xy_pad-1" x="13182.5" y="9702.5"/><use xlink:href="#VJEiretFsfu3SdWeX7xy_pad-1" x="12447.5" y="9886.2"/><use xlink:href="#VJEiretFsfu3SdWeX7xy_pad-1" x="11835" y="10008.7"/><use xlink:href="#VJEiretFsfu3SdWeX7xy_pad-1" x="12145" y="10901.2"/><use xlink:href="#VJEiretFsfu3SdWeX7xy_pad-1" x="13186.3" y="11391.2"/><use xlink:href="#VJEiretFsfu3SdWeX7xy_pad-1" x="12206.2" y="11881.2"/><use xlink:href="#VJEiretFsfu3SdWeX7xy_pad-1" x="12255" y="12255"/><use xlink:href="#VJEiretFsfu3SdWeX7xy_pad-1" x="11712.5" y="13010"/><use xlink:href="#VJEiretFsfu3SdWeX7xy_pad-1" x="10920" y="13167.5"/><use xlink:href="#VJEiretFsfu3SdWeX7xy_pad-1" x="11655" y="13902.5"/><use xlink:href="#VJEiretFsfu3SdWeX7xy_pad-1" x="13130" y="13380"/><use xlink:href="#VJEiretFsfu3SdWeX7xy_pad-1" x="13755" y="13380"/><use xlink:href="#VJEiretFsfu3SdWeX7xy_pad-1" x="14630" y="12880"/><use xlink:href="#VJEiretFsfu3SdWeX7xy_pad-1" x="16980" y="11356.2"/><use xlink:href="#VJEiretFsfu3SdWeX7xy_pad-1" x="17715" y="11478.7"/><use xlink:href="#VJEiretFsfu3SdWeX7xy_pad-1" x="16490" y="10805"/><use xlink:href="#VJEiretFsfu3SdWeX7xy_pad-1" x="17102.5" y="10376.2"/><use xlink:href="#VJEiretFsfu3SdWeX7xy_pad-1" x="16018.1" y="8982.5"/><use xlink:href="#VJEiretFsfu3SdWeX7xy_pad-1" x="17225" y="7620"/><use xlink:href="#VJEiretFsfu3SdWeX7xy_pad-1" x="20655" y="7742.5"/><use xlink:href="#VJEiretFsfu3SdWeX7xy_pad-1" x="22770" y="8875.6"/><use xlink:href="#VJEiretFsfu3SdWeX7xy_pad-1" x="23166.2" y="9028.7"/><use xlink:href="#VJEiretFsfu3SdWeX7xy_pad-1" x="23962.5" y="8783.7"/><use xlink:href="#VJEiretFsfu3SdWeX7xy_pad-1" x="23595" y="8232.5"/><use xlink:href="#VJEiretFsfu3SdWeX7xy_pad-1" x="23562.5" y="9880"/><use xlink:href="#VJEiretFsfu3SdWeX7xy_pad-1" x="23519.3" y="10442.5"/><use xlink:href="#VJEiretFsfu3SdWeX7xy_pad-1" x="22680" y="10360"/><use xlink:href="#VJEiretFsfu3SdWeX7xy_pad-1" x="22380" y="10340.2"/><use xlink:href="#VJEiretFsfu3SdWeX7xy_pad-1" x="21022.5" y="10682.5"/><use xlink:href="#VJEiretFsfu3SdWeX7xy_pad-1" x="20287.5" y="10743.7"/><use xlink:href="#VJEiretFsfu3SdWeX7xy_pad-1" x="19981.2" y="9825"/><use xlink:href="#VJEiretFsfu3SdWeX7xy_pad-1" x="21206.2" y="9457.5"/><use xlink:href="#VJEiretFsfu3SdWeX7xy_pad-1" x="23593.7" y="11111.2"/><use xlink:href="#VJEiretFsfu3SdWeX7xy_pad-1" x="23166.2" y="11785"/><use xlink:href="#VJEiretFsfu3SdWeX7xy_pad-1" x="22125" y="13010"/><use xlink:href="#VJEiretFsfu3SdWeX7xy_pad-1" x="21083.7" y="12520"/><use xlink:href="#VJEiretFsfu3SdWeX7xy_pad-1" x="21083.7" y="12213.7"/><use xlink:href="#VJEiretFsfu3SdWeX7xy_pad-1" x="20471.2" y="11968.7"/><use xlink:href="#VJEiretFsfu3SdWeX7xy_pad-1" x="20019" y="12374"/><use xlink:href="#VJEiretFsfu3SdWeX7xy_pad-1" x="19613.7" y="12642.5"/><use xlink:href="#VJEiretFsfu3SdWeX7xy_pad-1" x="18878.7" y="12948.7"/><use xlink:href="#VJEiretFsfu3SdWeX7xy_pad-1" x="20410" y="12826.2"/><use xlink:href="#VJEiretFsfu3SdWeX7xy_pad-1" x="9929.8" y="11630"/><use xlink:href="#VJEiretFsfu3SdWeX7xy_pad-1" x="6812.5" y="12091.2"/><use xlink:href="#VJEiretFsfu3SdWeX7xy_pad-1" x="3880" y="13880"/><use xlink:href="#VJEiretFsfu3SdWeX7xy_pad-2" x="19130" y="13380"/><use xlink:href="#VJEiretFsfu3SdWeX7xy_pad-2" x="19630" y="13380"/><use xlink:href="#VJEiretFsfu3SdWeX7xy_pad-2" x="19630" y="13880"/><use xlink:href="#VJEiretFsfu3SdWeX7xy_pad-2" x="19130" y="13880"/><use xlink:href="#VJEiretFsfu3SdWeX7xy_pad-2" x="20130" y="13880"/><use xlink:href="#VJEiretFsfu3SdWeX7xy_pad-2" x="20630" y="13880"/><use xlink:href="#VJEiretFsfu3SdWeX7xy_pad-2" x="20630" y="13380"/><use xlink:href="#VJEiretFsfu3SdWeX7xy_pad-2" x="20130" y="13380"/><use xlink:href="#VJEiretFsfu3SdWeX7xy_pad-2" x="21130" y="13380"/><use xlink:href="#VJEiretFsfu3SdWeX7xy_pad-2" x="21130" y="13880"/><use xlink:href="#VJEiretFsfu3SdWeX7xy_pad-3" x="23130" y="8005"/><use xlink:href="#VJEiretFsfu3SdWeX7xy_pad-3" x="24130" y="8005"/><use xlink:href="#VJEiretFsfu3SdWeX7xy_pad-3" x="25130" y="8005"/><use xlink:href="#VJEiretFsfu3SdWeX7xy_pad-4" x="24005" y="12880"/><use xlink:href="#VJEiretFsfu3SdWeX7xy_pad-4" x="26005" y="12880"/><use xlink:href="#VJEiretFsfu3SdWeX7xy_pad-5" x="4829.8" y="10082.8"/><use xlink:href="#VJEiretFsfu3SdWeX7xy_pad-5" x="4829.8" y="12051.3"/></g></svg>