<svg version="1.1" xmlns="http://www.w3.org/2000/svg" xmlns:xlink="http://www.w3.org/1999/xlink" stroke-linecap="round" stroke-linejoin="round" stroke-width="0" fill-rule="evenodd" width="2.3682in" height="0.7934in" viewBox="347.5 710 2368.2 793.4" id="TPdAsAWuZUJoJQ9cvVpg"><defs><circle cx="0" cy="0" r="20" id="TPdAsAWuZUJoJQ9cvVpg_pad-11"/><circle cx="0" cy="0" r="33" id="TPdAsAWuZUJoJQ9cvVpg_pad-12"/><circle cx="0" cy="0" r="50" id="TPdAsAWuZUJoJQ9cvVpg_pad-13"/><polygon points="49.9999,20.71064 20.71064,49.9999 -20.71064,49.9999 -49.9999,20.71064 -49.9999,-20.71064 -20.71064,-49.9999 20.71064,-49.9999 49.9999,-20.71064" id="TPdAsAWuZUJoJQ9cvVpg_pad-14"/><circle cx="0" cy="0" r="12" id="TPdAsAWuZUJoJQ9cvVpg_pad-16"/></defs><g transform="translate(0,2213.4) scale(1,-1)" fill="currentColor" stroke="currentColor"><path d="M 350.5 713 2712.7 713 2712.7 1500.4 350.5 1500.4 350.5 713 M 366.5 729 366.5 1484.4 2696.7 1484.4 2696.7 729 366.5 729 M 366.5 730.96 2696.7 730.96 M 2696.7 736.94 2446.11 736.94 M 2444.92 735.75 2463.3 754.13 2471.5 762.33 2471.5 780.62 2473.66 776.39 2477.91 770.53 2483.03 765.41 2488.89 761.16 2495.34 757.87 2502.23 755.63 2509.38 754.5 2510 754.5 2510 797.5 2516 797.5 2516 803.5 2510 803.5 2510 846.5 2509.38 846.5 2502.23 845.37 2495.34 843.13 2488.89 839.84 2483.03 835.59 2477.91 830.47 2473.66 824.61 2471.5 820.38 2471.5 873.52 2404.93 940.1 2404.93 1073.63 2378.25 1100.3 2380.37 1102.43 2380.37 1119.82 2368.07 1132.12 2350.68 1132.12 2338.37 1119.82 2338.37 1117.55 2330.62 1125.3 2330.62 1162.8 2337.62 1169.8 2337.62 1187.2 2325.82 1199 2456.3 1199 2464.5 1207.2 2489.5 1232.2 2489.5 1356.3 2481.3 1364.5 2456.3 1389.5 2319.7 1389.5 2311.5 1381.3 2219.7 1289.5 2097.87 1289.5 2097.87 1294.42 2089.67 1302.62 2079.04 1313.26 2079.43 1313.41 2085.61 1319.6 2087.37 1316.96 2091.96 1312.37 2097.37 1308.76 2103.37 1306.27 2109.75 1305 2111 1305 2111 1336 2115 1336 2115 1340 2146 1340 2146 1341.25 2144.73 1347.63 2142.24 1353.63 2138.63 1359.04 2134.04 1363.63 2131.4 1365.39 2137.58 1371.57 2142 1382.23 2142 1393.77 2137.58 1404.43 2129.43 1412.58 2118.77 1417 2107.23 1417 2096.57 1412.58 2088.41 1404.43 2088 1403.42 2087.58 1404.43 2079.43 1412.58 2068.77 1417 2057.23 1417 2046.57 1412.58 2038.41 1404.43 2038 1403.42 2037.58 1404.43 2029.43 1412.58 2018.77 1417 2007.23 1417 1996.57 1412.58 1988.41 1404.43 1988 1403.42 1987.58 1404.43 1979.43 1412.58 1968.77 1417 1957.23 1417 1946.57 1412.58 1938.41 1404.43 1938 1403.42 1937.58 1404.43 1929.43 1412.58 1918.77 1417 1907.23 1417 1896.57 1412.58 1888.41 1404.43 1884 1393.77 1884 1382.23 1888.41 1371.57 1896.57 1363.41 1897.57 1363 1896.57 1362.58 1888.41 1354.43 1884 1343.77 1884 1332.23 1888.41 1321.57 1896.57 1313.41 1899 1312.41 1899 1306.83 1912.83 1293 2021.68 1293 2020 1291.32 2020 1273.93 2027 1266.93 2027 1229.08 2015.9 1217.98 2015.9 1221.7 2022.9 1228.7 2022.9 1246.1 2010.6 1258.4 1993.2 1258.4 1980.9 1246.1 1980.9 1228.7 1987.9 1221.7 1987.9 1058.67 2099.62 946.95 2099.62 937.05 2101.43 935.25 1958.42 935.25 1975.37 952.2 1975.37 1248.55 1982.37 1255.55 1982.37 1272.95 1970.07 1285.25 1952.68 1285.25 1940.37 1272.95 1940.37 1255.55 1947.37 1248.55 1947.37 963.8 1937.2 953.62 1446.55 953.62 1415.92 984.25 1333.95 984.25 1326.95 991.25 1309.55 991.25 1297.25 978.95 1297.25 961.55 1306.8 952 1056.3 952 1006.98 1001.31 1006.98 1147.3 1013.98 1154.3 1013.98 1171.7 1001.68 1184 984.29 1184 971.98 1171.7 971.98 1164.81 921.87 1214.92 913.67 1223.12 696.95 1223.12 689.95 1230.12 672.55 1230.12 660.25 1217.82 660.25 1200.43 672.55 1188.12 689.95 1188.12 696.95 1195.12 902.08 1195.12 961.25 1135.95 961.25 984.82 969.45 976.62 997.7 948.37 991.05 948.37 978.75 936.07 978.75 918.68 985.75 911.68 985.75 893.25 984.93 893.25 972.62 880.95 972.62 863.55 979.55 856.62 877.16 856.62 858.66 838.12 850.18 838.12 837.88 825.82 837.88 808.43 850.18 796.13 867.57 796.13 879.87 808.43 879.87 816.91 889.59 826.63 1315.8 826.63 1321.8 820.63 1339.2 820.63 1351.5 832.93 1351.5 850.32 1339.2 862.62 1321.8 862.62 1315.8 856.62 1007.7 856.62 1014.62 863.55 1014.62 880.95 1013.75 881.82 1013.75 911.68 1020.75 918.68 1020.75 925.32 1038.07 908 1164.7 908 1183.83 888.87 1186.18 888.87 1193.18 881.87 1210.57 881.87 1222.87 894.18 1222.87 911.57 1210.57 923.87 1193.18 923.87 1190.8 921.5 1188.3 924 1412.08 924 1420.63 915.45 1428.83 907.25 1581.11 907.25 1580.81 906.95 1580.81 889.55 1593.11 877.25 1610.51 877.25 1622.81 889.55 1622.81 891.25 2161.45 891.25 2253.62 799.08 2253.62 762.33 2272 743.95 2280.2 735.75 2444.92 735.75 M 2452.1 742.93 2696.7 742.93 M 2696.7 748.91 2458.08 748.91 M 2464.07 754.9 2506.88 754.9 M 2510 754.9 2516 754.9 M 2516 754.5 2516.62 754.5 2523.77 755.63 2530.66 757.87 2537.11 761.16 2542.97 765.41 2548.09 770.53 2552.34 776.39 2555.63 782.84 2557.87 789.73 2559 796.88 2559 797.5 2516 797.5 2516 754.5 M 2519.12 754.9 2696.7 754.9 M 2696.7 760.88 2536.57 760.88 M 2544.42 766.87 2696.7 766.87 M 2696.7 772.85 2549.77 772.85 M 2553.59 778.84 2696.7 778.84 M 2696.7 784.82 2556.27 784.82 M 2558.04 790.81 2696.7 790.81 M 2696.7 796.79 2558.99 796.79 M 2559 803.5 2516 803.5 2516 846.5 2516.62 846.5 2523.77 845.37 2530.66 843.13 2537.11 839.84 2542.97 835.59 2548.09 830.47 2552.34 824.61 2555.63 818.16 2557.87 811.27 2559 804.12 2559 803.5 M 2558.26 808.76 2696.7 808.76 M 2696.7 802.78 2516 802.78 M 2516 808.76 2510 808.76 M 2510 814.75 2516 814.75 M 2516 820.73 2510 820.73 M 2510 826.72 2516 826.72 M 2516 832.7 2510 832.7 M 2510 838.69 2516 838.69 M 2516 844.67 2510 844.67 M 2500.09 844.67 2471.5 844.67 M 2471.5 838.69 2487.3 838.69 M 2480.15 832.7 2471.5 832.7 M 2471.5 826.72 2475.19 826.72 M 2471.68 820.73 2471.5 820.73 M 2443.5 829.4 2443.5 861.93 2390.93 914.5 2371.42 895 2337.62 895 2337.62 894.18 2325.32 881.87 2307.93 881.87 2298 891.8 2298 878.86 2285.7 866.56 2279.24 866.56 2281.3 864.5 2393.8 864.5 2415.8 842.5 2421.35 842.5 2436.79 836.11 2443.5 829.4 M 2443.5 832.7 2440.19 832.7 M 2443.5 838.69 2430.56 838.69 M 2443.5 844.67 2413.63 844.67 M 2407.64 850.66 2443.5 850.66 M 2443.5 856.64 2401.66 856.64 M 2395.67 862.63 2442.8 862.63 M 2436.81 868.61 2287.75 868.61 M 2293.73 874.6 2430.83 874.6 M 2424.84 880.58 2298 880.58 M 2298 886.57 2303.23 886.57 M 2295.62 898.64 2285.7 908.56 2284 908.56 2284 982.83 2308.42 1007.25 2367.25 1007.25 2375.45 1015.45 2376.93 1016.92 2376.93 940.1 2359.83 923 2326.2 923 2325.32 923.87 2307.93 923.87 2295.62 911.57 2295.62 898.64 M 2295.62 904.52 2289.74 904.52 M 2284 910.51 2295.62 910.51 M 2300.55 916.49 2284 916.49 M 2284 922.48 2306.53 922.48 M 2284 928.46 2365.29 928.46 M 2371.28 934.45 2284 934.45 M 2284 940.43 2376.93 940.43 M 2376.93 946.42 2284 946.42 M 2284 952.4 2376.93 952.4 M 2376.93 958.39 2284 958.39 M 2284 964.37 2376.93 964.37 M 2376.93 970.36 2284 970.36 M 2284 976.34 2376.93 976.34 M 2376.93 982.33 2284 982.33 M 2289.49 988.32 2376.93 988.32 M 2376.93 994.3 2295.47 994.3 M 2301.46 1000.29 2376.93 1000.29 M 2376.93 1006.27 2307.44 1006.27 M 2372.26 1012.26 2376.93 1012.26 M 2375.45 1015.45 2375.45 1015.45 M 2404.93 1018.24 2696.7 1018.24 M 2696.7 1012.26 2404.93 1012.26 M 2404.93 1006.27 2696.7 1006.27 M 2696.7 1000.29 2404.93 1000.29 M 2404.93 994.3 2696.7 994.3 M 2696.7 988.32 2404.93 988.32 M 2404.93 982.33 2696.7 982.33 M 2696.7 976.34 2404.93 976.34 M 2404.93 970.36 2696.7 970.36 M 2696.7 964.37 2404.93 964.37 M 2404.93 958.39 2696.7 958.39 M 2696.7 952.4 2404.93 952.4 M 2404.93 946.42 2696.7 946.42 M 2696.7 940.43 2404.93 940.43 M 2410.58 934.45 2696.7 934.45 M 2696.7 928.46 2416.56 928.46 M 2422.55 922.48 2696.7 922.48 M 2696.7 916.49 2428.53 916.49 M 2434.52 910.51 2696.7 910.51 M 2696.7 904.52 2440.5 904.52 M 2446.49 898.54 2696.7 898.54 M 2696.7 892.55 2452.47 892.55 M 2458.46 886.57 2696.7 886.57 M 2696.7 880.58 2464.44 880.58 M 2470.43 874.6 2696.7 874.6 M 2696.7 868.61 2471.5 868.61 M 2471.5 862.63 2696.7 862.63 M 2696.7 856.64 2471.5 856.64 M 2471.5 850.66 2696.7 850.66 M 2696.7 844.67 2525.91 844.67 M 2538.7 838.69 2696.7 838.69 M 2696.7 832.7 2545.85 832.7 M 2550.81 826.72 2696.7 826.72 M 2696.7 820.73 2554.32 820.73 M 2556.74 814.75 2696.7 814.75 M 2516 796.79 2510 796.79 M 2510 790.81 2516 790.81 M 2516 784.82 2510 784.82 M 2510 778.84 2516 778.84 M 2516 772.85 2510 772.85 M 2510 766.87 2516 766.87 M 2516 760.88 2510 760.88 M 2489.43 760.88 2470.05 760.88 M 2471.5 766.87 2481.58 766.87 M 2476.23 772.85 2471.5 772.85 M 2471.5 778.84 2472.41 778.84 M 2391.97 763.75 2334.03 763.75 2336.79 764.89 2348.61 776.71 2355 792.15 2355 808.85 2348.61 824.29 2336.79 836.11 2335.84 836.5 2382.2 836.5 2385.9 832.8 2377.39 824.29 2371 808.85 2371 792.15 2377.39 776.71 2389.21 764.89 2391.97 763.75 M 2387.24 766.87 2338.76 766.87 M 2344.75 772.85 2381.25 772.85 M 2376.51 778.84 2349.49 778.84 M 2351.97 784.82 2374.03 784.82 M 2371.55 790.81 2354.45 790.81 M 2355 796.79 2371 796.79 M 2371 802.78 2355 802.78 M 2355 808.76 2371 808.76 M 2373.44 814.75 2352.56 814.75 M 2350.08 820.73 2375.92 820.73 M 2379.82 826.72 2346.18 826.72 M 2340.19 832.7 2385.81 832.7 M 2418.86 886.57 2330.02 886.57 M 2336 892.55 2412.87 892.55 M 2406.89 898.54 2374.96 898.54 M 2380.95 904.52 2400.9 904.52 M 2394.92 910.51 2386.93 910.51 M 2231.97 820.73 1339.31 820.73 M 1345.29 826.72 2225.98 826.72 M 2220 832.7 1351.28 832.7 M 1351.5 838.69 2214.01 838.69 M 2208.03 844.67 1351.5 844.67 M 1351.17 850.66 2202.04 850.66 M 2196.06 856.64 1345.18 856.64 M 1315.82 856.64 1007.72 856.64 M 1013.7 862.63 2190.07 862.63 M 2184.09 868.61 1014.62 868.61 M 1014.62 874.6 2178.1 874.6 M 2172.12 880.58 1613.84 880.58 M 1619.83 886.57 2166.13 886.57 M 2170.83 935.25 2139.82 935.25 2141.62 937.05 2141.62 954.45 2129.32 966.75 2119.42 966.75 2032.8 1053.37 2037.45 1053.37 2049.75 1065.68 2049.75 1083.07 2037.45 1095.37 2031.9 1095.37 2031.9 1194.38 2055 1217.48 2055 1229.08 2055 1266.93 2062 1273.93 2062 1290.7 2069.87 1282.83 2069.87 1270.7 2081.25 1259.33 2081.25 1207.2 2089.45 1199 2307.43 1199 2295.62 1187.2 2295.62 1169.8 2302.62 1162.8 2302.62 1113.7 2314.33 1102 2219.7 1102 2211.5 1093.8 2211.5 1093.8 2186.5 1068.8 2186.5 950.92 2170.83 935.25 M 2176.01 940.43 2141.62 940.43 M 2141.62 946.42 2182 946.42 M 2186.5 952.4 2141.62 952.4 M 2137.68 958.39 2186.5 958.39 M 2186.5 964.37 2131.7 964.37 M 2115.81 970.36 2186.5 970.36 M 2186.5 976.34 2109.83 976.34 M 2103.84 982.33 2186.5 982.33 M 2186.5 988.32 2097.86 988.32 M 2091.87 994.3 2186.5 994.3 M 2186.5 1000.29 2085.89 1000.29 M 2079.9 1006.27 2186.5 1006.27 M 2186.5 1012.26 2073.92 1012.26 M 2067.93 1018.24 2186.5 1018.24 M 2186.5 1024.23 2061.95 1024.23 M 2055.96 1030.21 2186.5 1030.21 M 2186.5 1036.2 2049.98 1036.2 M 2043.99 1042.18 2186.5 1042.18 M 2186.5 1048.17 2038.01 1048.17 M 2038.22 1054.15 2186.5 1054.15 M 2186.5 1060.14 2044.21 1060.14 M 2049.75 1066.12 2186.5 1066.12 M 2189.81 1072.11 2049.75 1072.11 M 2049.75 1078.09 2195.79 1078.09 M 2201.78 1084.08 2048.75 1084.08 M 2042.76 1090.06 2207.76 1090.06 M 2213.75 1096.05 2031.9 1096.05 M 2031.9 1102.03 2314.3 1102.03 M 2308.31 1108.02 2031.9 1108.02 M 2031.9 1114 2302.62 1114 M 2302.62 1119.99 2031.9 1119.99 M 2031.9 1125.97 2302.62 1125.97 M 2302.62 1131.96 2031.9 1131.96 M 2031.9 1137.94 2302.62 1137.94 M 2302.62 1143.93 2031.9 1143.93 M 2031.9 1149.91 2302.62 1149.91 M 2302.62 1155.9 2031.9 1155.9 M 2031.9 1161.88 2302.62 1161.88 M 2297.56 1167.87 2031.9 1167.87 M 2031.9 1173.85 2295.62 1173.85 M 2295.62 1179.84 2031.9 1179.84 M 2031.9 1185.82 2295.62 1185.82 M 2300.24 1191.81 2031.9 1191.81 M 2035.32 1197.79 2306.22 1197.79 M 2327.03 1197.79 2696.7 1197.79 M 2696.7 1191.81 2333.01 1191.81 M 2337.62 1185.82 2696.7 1185.82 M 2696.7 1179.84 2337.62 1179.84 M 2337.62 1173.85 2696.7 1173.85 M 2696.7 1167.87 2335.69 1167.87 M 2330.62 1161.88 2696.7 1161.88 M 2696.7 1155.9 2330.62 1155.9 M 2330.62 1149.91 2696.7 1149.91 M 2696.7 1143.93 2330.62 1143.93 M 2330.62 1137.94 2696.7 1137.94 M 2696.7 1131.96 2368.24 1131.96 M 2374.23 1125.97 2696.7 1125.97 M 2696.7 1119.99 2380.21 1119.99 M 2380.37 1114 2696.7 1114 M 2696.7 1108.02 2380.37 1108.02 M 2379.98 1102.03 2696.7 1102.03 M 2696.7 1096.05 2382.51 1096.05 M 2388.49 1090.06 2696.7 1090.06 M 2696.7 1084.08 2394.48 1084.08 M 2400.46 1078.09 2696.7 1078.09 M 2696.7 1072.11 2404.93 1072.11 M 2404.93 1066.12 2696.7 1066.12 M 2696.7 1060.14 2404.93 1060.14 M 2404.93 1054.15 2696.7 1054.15 M 2696.7 1048.17 2404.93 1048.17 M 2404.93 1042.18 2696.7 1042.18 M 2696.7 1036.2 2404.93 1036.2 M 2404.93 1030.21 2696.7 1030.21 M 2696.7 1024.23 2404.93 1024.23 M 2338.54 1119.99 2335.94 1119.99 M 2330.62 1125.97 2344.52 1125.97 M 2350.51 1131.96 2330.62 1131.96 M 2461.08 1203.78 2696.7 1203.78 M 2696.7 1209.76 2467.06 1209.76 M 2473.05 1215.75 2696.7 1215.75 M 2696.7 1221.73 2479.03 1221.73 M 2485.02 1227.72 2571.68 1227.72 M 2574.4 1225 2597.5 1225 2597.5 1285 2603.5 1285 2603.5 1291 2663.5 1291 2663.5 1314.1 2626.6 1351 2603.5 1351 2603.5 1291 2597.5 1291 2597.5 1351 2574.4 1351 2537.5 1314.1 2537.5 1291 2597.5 1291 2597.5 1285 2537.5 1285 2537.5 1261.9 2574.4 1225 M 2565.7 1233.7 2489.5 1233.7 M 2489.5 1239.69 2559.71 1239.69 M 2553.73 1245.68 2489.5 1245.68 M 2489.5 1251.66 2547.74 1251.66 M 2541.76 1257.65 2489.5 1257.65 M 2489.5 1263.63 2537.5 1263.63 M 2537.5 1269.62 2489.5 1269.62 M 2489.5 1275.6 2537.5 1275.6 M 2537.5 1281.59 2489.5 1281.59 M 2489.5 1287.57 2597.5 1287.57 M 2597.5 1281.59 2603.5 1281.59 M 2603.5 1285 2603.5 1225 2626.6 1225 2663.5 1261.9 2663.5 1285 2603.5 1285 M 2603.5 1287.57 2696.7 1287.57 M 2696.7 1281.59 2663.5 1281.59 M 2663.5 1275.6 2696.7 1275.6 M 2696.7 1269.62 2663.5 1269.62 M 2663.5 1263.63 2696.7 1263.63 M 2696.7 1257.65 2659.24 1257.65 M 2653.26 1251.66 2696.7 1251.66 M 2696.7 1245.68 2647.27 1245.68 M 2641.29 1239.69 2696.7 1239.69 M 2696.7 1233.7 2635.3 1233.7 M 2629.32 1227.72 2696.7 1227.72 M 2603.5 1227.72 2597.5 1227.72 M 2597.5 1233.7 2603.5 1233.7 M 2603.5 1239.69 2597.5 1239.69 M 2597.5 1245.68 2603.5 1245.68 M 2603.5 1251.66 2597.5 1251.66 M 2597.5 1257.65 2603.5 1257.65 M 2603.5 1263.63 2597.5 1263.63 M 2597.5 1269.62 2603.5 1269.62 M 2603.5 1275.6 2597.5 1275.6 M 2597.5 1293.56 2603.5 1293.56 M 2603.5 1299.54 2597.5 1299.54 M 2597.5 1305.53 2603.5 1305.53 M 2603.5 1311.51 2597.5 1311.51 M 2597.5 1317.5 2603.5 1317.5 M 2603.5 1323.48 2597.5 1323.48 M 2597.5 1329.47 2603.5 1329.47 M 2603.5 1335.45 2597.5 1335.45 M 2597.5 1341.44 2603.5 1341.44 M 2603.5 1347.42 2597.5 1347.42 M 2570.83 1347.42 2489.5 1347.42 M 2489.5 1341.44 2564.84 1341.44 M 2558.86 1335.45 2489.5 1335.45 M 2489.5 1329.47 2552.87 1329.47 M 2546.89 1323.48 2489.5 1323.48 M 2489.5 1317.5 2540.9 1317.5 M 2537.5 1311.51 2489.5 1311.51 M 2489.5 1305.53 2537.5 1305.53 M 2537.5 1299.54 2489.5 1299.54 M 2489.5 1293.56 2537.5 1293.56 M 2630.17 1347.42 2696.7 1347.42 M 2696.7 1341.44 2636.16 1341.44 M 2642.14 1335.45 2696.7 1335.45 M 2696.7 1329.47 2648.13 1329.47 M 2654.11 1323.48 2696.7 1323.48 M 2696.7 1317.5 2660.1 1317.5 M 2663.5 1311.51 2696.7 1311.51 M 2696.7 1305.53 2663.5 1305.53 M 2663.5 1299.54 2696.7 1299.54 M 2696.7 1293.56 2663.5 1293.56 M 2696.7 1353.41 2489.5 1353.41 M 2486.41 1359.39 2696.7 1359.39 M 2696.7 1365.38 2480.42 1365.38 M 2474.44 1371.36 2696.7 1371.36 M 2696.7 1377.35 2468.45 1377.35 M 2462.47 1383.33 2696.7 1383.33 M 2696.7 1389.32 2456.48 1389.32 M 2319.52 1389.32 2142 1389.32 M 2142 1383.33 2313.53 1383.33 M 2307.55 1377.35 2139.98 1377.35 M 2137.37 1371.36 2301.56 1371.36 M 2295.58 1365.38 2131.43 1365.38 M 2138.28 1359.39 2289.59 1359.39 M 2283.61 1353.41 2142.34 1353.41 M 2144.77 1347.42 2277.62 1347.42 M 2271.64 1341.44 2145.96 1341.44 M 2146 1336 2115 1336 2115 1305 2116.25 1305 2122.63 1306.27 2128.63 1308.76 2134.04 1312.37 2138.63 1316.96 2142.24 1322.37 2144.73 1328.37 2146 1334.75 2146 1336 M 2146 1335.45 2265.65 1335.45 M 2259.67 1329.47 2144.95 1329.47 M 2142.7 1323.48 2253.68 1323.48 M 2247.7 1317.5 2138.99 1317.5 M 2132.76 1311.51 2241.71 1311.51 M 2235.73 1305.53 2118.9 1305.53 M 2115 1305.53 2111 1305.53 M 2107.1 1305.53 2086.77 1305.53 M 2080.79 1311.51 2093.24 1311.51 M 2087.01 1317.5 2083.51 1317.5 M 2092.76 1299.54 2229.74 1299.54 M 2223.76 1293.56 2097.87 1293.56 M 2111 1311.51 2115 1311.51 M 2115 1317.5 2111 1317.5 M 2111 1323.48 2115 1323.48 M 2115 1329.47 2111 1329.47 M 2111 1335.45 2115 1335.45 M 2065.13 1287.57 2062 1287.57 M 2062 1281.59 2069.87 1281.59 M 2069.87 1275.6 2062 1275.6 M 2057.69 1269.62 2070.96 1269.62 M 2076.95 1263.63 2055 1263.63 M 2055 1257.65 2081.25 1257.65 M 2081.25 1251.66 2055 1251.66 M 2055 1245.68 2081.25 1245.68 M 2081.25 1239.69 2055 1239.69 M 2055 1233.7 2081.25 1233.7 M 2081.25 1227.72 2055 1227.72 M 2055 1221.73 2081.25 1221.73 M 2081.25 1215.75 2053.27 1215.75 M 2047.29 1209.76 2081.25 1209.76 M 2084.67 1203.78 2041.3 1203.78 M 2019.66 1221.73 2015.93 1221.73 M 2021.92 1227.72 2025.64 1227.72 M 2027 1233.7 2022.9 1233.7 M 2022.9 1239.69 2027 1239.69 M 2027 1245.68 2022.9 1245.68 M 2027 1251.66 2017.35 1251.66 M 2011.36 1257.65 2027 1257.65 M 2027 1263.63 1982.37 1263.63 M 1982.37 1257.65 1992.45 1257.65 M 1986.46 1251.66 1978.48 1251.66 M 1980.9 1245.68 1975.37 1245.68 M 1975.37 1239.69 1980.9 1239.69 M 1980.9 1233.7 1975.37 1233.7 M 1975.37 1227.72 1981.89 1227.72 M 1987.87 1221.73 1975.37 1221.73 M 1975.37 1215.75 1987.9 1215.75 M 1987.9 1209.76 1975.37 1209.76 M 1975.37 1203.78 1987.9 1203.78 M 1987.9 1197.79 1975.37 1197.79 M 1975.37 1191.81 1987.9 1191.81 M 1987.9 1185.82 1975.37 1185.82 M 1975.37 1179.84 1987.9 1179.84 M 1987.9 1173.85 1975.37 1173.85 M 1975.37 1167.87 1987.9 1167.87 M 1987.9 1161.88 1975.37 1161.88 M 1975.37 1155.9 1987.9 1155.9 M 1987.9 1149.91 1975.37 1149.91 M 1975.37 1143.93 1987.9 1143.93 M 1987.9 1137.94 1975.37 1137.94 M 1975.37 1131.96 1987.9 1131.96 M 1987.9 1125.97 1975.37 1125.97 M 1975.37 1119.99 1987.9 1119.99 M 1987.9 1114 1975.37 1114 M 1975.37 1108.02 1987.9 1108.02 M 1987.9 1102.03 1975.37 1102.03 M 1975.37 1096.05 1987.9 1096.05 M 1987.9 1090.06 1975.37 1090.06 M 1975.37 1084.08 1987.9 1084.08 M 1987.9 1078.09 1975.37 1078.09 M 1975.37 1072.11 1987.9 1072.11 M 1987.9 1066.12 1975.37 1066.12 M 1975.37 1060.14 1987.9 1060.14 M 1992.42 1054.15 1975.37 1054.15 M 1975.37 1048.17 1998.41 1048.17 M 2004.39 1042.18 1975.37 1042.18 M 1975.37 1036.2 2010.38 1036.2 M 2016.36 1030.21 1975.37 1030.21 M 1975.37 1024.23 2022.35 1024.23 M 2028.34 1018.24 1975.37 1018.24 M 1975.37 1012.26 2034.32 1012.26 M 2040.31 1006.27 1975.37 1006.27 M 1975.37 1000.29 2046.29 1000.29 M 2052.28 994.3 1975.37 994.3 M 1975.37 988.32 2058.26 988.32 M 2064.25 982.33 1975.37 982.33 M 1975.37 976.34 2070.23 976.34 M 2076.22 970.36 1975.37 970.36 M 1975.37 964.37 2082.2 964.37 M 2088.19 958.39 1975.37 958.39 M 1975.37 952.4 2094.17 952.4 M 2099.62 946.42 1969.59 946.42 M 1963.61 940.43 2099.62 940.43 M 1947.37 964.37 1435.8 964.37 M 1441.78 958.39 1941.97 958.39 M 1947.37 970.36 1429.81 970.36 M 1423.83 976.34 1947.37 976.34 M 1947.37 982.33 1417.84 982.33 M 1413.6 922.48 1211.97 922.48 M 1217.95 916.49 1419.58 916.49 M 1420.63 915.45 1420.63 915.45 M 1425.57 910.51 1222.87 910.51 M 1222.87 904.52 1580.81 904.52 M 1580.81 898.54 1222.87 898.54 M 1221.25 892.55 1580.81 892.55 M 1583.79 886.57 1215.27 886.57 M 1188.48 886.57 1013.75 886.57 M 1013.75 892.55 1180.15 892.55 M 1174.16 898.54 1013.75 898.54 M 1013.75 904.52 1168.18 904.52 M 1189.82 922.48 1191.78 922.48 M 1192.2 979.87 1204.5 992.18 1204.5 1009.57 1198.5 1015.57 1198.5 1294.96 1192.25 1301.21 1192.25 1309.7 1179.95 1322 1162.55 1322 1150.25 1309.7 1150.25 1292.3 1162.55 1280 1168.5 1280 1168.5 1015.57 1162.5 1009.57 1162.5 992.18 1174.8 979.87 1192.2 979.87 M 1194.65 982.33 1300.63 982.33 M 1297.25 976.34 1031.95 976.34 M 1037.94 970.36 1297.25 970.36 M 1297.25 964.37 1043.92 964.37 M 1049.91 958.39 1300.41 958.39 M 1306.4 952.4 1055.89 952.4 M 1025.97 982.33 1172.35 982.33 M 1166.36 988.32 1019.98 988.32 M 1014 994.3 1162.5 994.3 M 1162.5 1000.29 1008.01 1000.29 M 1006.98 1006.27 1162.5 1006.27 M 1165.18 1012.26 1006.98 1012.26 M 1006.98 1018.24 1168.5 1018.24 M 1168.5 1024.23 1006.98 1024.23 M 1006.98 1030.21 1168.5 1030.21 M 1168.5 1036.2 1006.98 1036.2 M 1006.98 1042.18 1168.5 1042.18 M 1168.5 1048.17 1006.98 1048.17 M 1006.98 1054.15 1168.5 1054.15 M 1168.5 1060.14 1006.98 1060.14 M 1006.98 1066.12 1168.5 1066.12 M 1168.5 1072.11 1006.98 1072.11 M 1006.98 1078.09 1168.5 1078.09 M 1168.5 1084.08 1006.98 1084.08 M 1006.98 1090.06 1168.5 1090.06 M 1168.5 1096.05 1006.98 1096.05 M 1006.98 1102.03 1168.5 1102.03 M 1168.5 1108.02 1006.98 1108.02 M 1006.98 1114 1168.5 1114 M 1168.5 1119.99 1006.98 1119.99 M 1006.98 1125.97 1168.5 1125.97 M 1168.5 1131.96 1006.98 1131.96 M 1006.98 1137.94 1168.5 1137.94 M 1168.5 1143.93 1006.98 1143.93 M 1009.6 1149.91 1168.5 1149.91 M 1168.5 1155.9 1013.98 1155.9 M 1013.98 1161.88 1168.5 1161.88 M 1168.5 1167.87 1013.98 1167.87 M 1011.83 1173.85 1168.5 1173.85 M 1168.5 1179.84 1005.84 1179.84 M 980.12 1179.84 956.96 1179.84 M 950.97 1185.82 1168.5 1185.82 M 1168.5 1191.81 944.99 1191.81 M 939 1197.79 1168.5 1197.79 M 1168.5 1203.78 933.02 1203.78 M 927.03 1209.76 1168.5 1209.76 M 1168.5 1215.75 921.05 1215.75 M 915.06 1221.73 1168.5 1221.73 M 1168.5 1227.72 692.35 1227.72 M 670.15 1227.72 569.45 1227.72 M 566.99 1233.64 552.83 1247.8 534.33 1255.46 431.63 1255.46 413.13 1247.8 398.97 1233.64 391.3 1215.14 391.3 1195.11 398.97 1176.61 413.13 1162.45 431.63 1154.79 534.33 1154.79 552.83 1162.45 566.99 1176.61 574.66 1195.11 574.66 1215.14 566.99 1233.64 M 566.93 1233.7 1168.5 1233.7 M 1168.5 1239.69 560.94 1239.69 M 554.96 1245.68 1168.5 1245.68 M 1168.5 1251.66 543.52 1251.66 M 571.93 1221.73 664.16 1221.73 M 660.25 1215.75 574.4 1215.75 M 574.66 1209.76 660.25 1209.76 M 660.25 1203.78 574.66 1203.78 M 574.66 1197.79 662.88 1197.79 M 668.87 1191.81 573.29 1191.81 M 570.81 1185.82 911.38 1185.82 M 917.36 1179.84 568.33 1179.84 M 564.24 1173.85 923.35 1173.85 M 929.33 1167.87 558.25 1167.87 M 551.46 1161.88 935.32 1161.88 M 941.3 1155.9 537.01 1155.9 M 428.95 1155.9 366.5 1155.9 M 366.5 1161.88 414.5 1161.88 M 407.71 1167.87 366.5 1167.87 M 366.5 1173.85 401.72 1173.85 M 397.63 1179.84 366.5 1179.84 M 366.5 1185.82 395.15 1185.82 M 392.67 1191.81 366.5 1191.81 M 366.5 1197.79 391.3 1197.79 M 391.3 1203.78 366.5 1203.78 M 366.5 1209.76 391.3 1209.76 M 391.56 1215.75 366.5 1215.75 M 366.5 1221.73 394.04 1221.73 M 396.51 1227.72 366.5 1227.72 M 366.5 1233.7 399.03 1233.7 M 405.02 1239.69 366.5 1239.69 M 366.5 1245.68 411 1245.68 M 422.44 1251.66 366.5 1251.66 M 366.5 1257.65 1168.5 1257.65 M 1168.5 1263.63 366.5 1263.63 M 366.5 1269.62 1168.5 1269.62 M 1168.5 1275.6 366.5 1275.6 M 366.5 1281.59 1160.97 1281.59 M 1154.98 1287.57 366.5 1287.57 M 366.5 1293.56 1150.25 1293.56 M 1150.25 1299.54 366.5 1299.54 M 366.5 1305.53 1150.25 1305.53 M 1152.06 1311.51 366.5 1311.51 M 366.5 1317.5 1158.05 1317.5 M 1184.45 1317.5 1892.49 1317.5 M 1887.62 1323.48 366.5 1323.48 M 366.5 1329.47 1885.15 1329.47 M 1884 1335.45 366.5 1335.45 M 366.5 1341.44 1884 1341.44 M 1885.51 1347.42 366.5 1347.42 M 366.5 1353.41 1887.99 1353.41 M 1893.38 1359.39 366.5 1359.39 M 366.5 1365.38 1894.61 1365.38 M 1888.63 1371.36 366.5 1371.36 M 366.5 1377.35 1886.02 1377.35 M 1884 1383.33 366.5 1383.33 M 366.5 1389.32 1884 1389.32 M 1884.64 1395.3 366.5 1395.3 M 366.5 1401.29 1887.11 1401.29 M 1891.26 1407.27 366.5 1407.27 M 366.5 1413.26 1898.2 1413.26 M 1927.8 1413.26 1948.2 1413.26 M 1941.26 1407.27 1934.74 1407.27 M 1977.8 1413.26 1998.2 1413.26 M 1991.26 1407.27 1984.74 1407.27 M 2027.8 1413.26 2048.2 1413.26 M 2041.26 1407.27 2034.74 1407.27 M 2077.8 1413.26 2098.2 1413.26 M 2091.26 1407.27 2084.74 1407.27 M 2127.8 1413.26 2696.7 1413.26 M 2696.7 1419.24 366.5 1419.24 M 366.5 1425.23 2696.7 1425.23 M 2696.7 1431.21 366.5 1431.21 M 366.5 1437.2 2696.7 1437.2 M 2696.7 1443.18 366.5 1443.18 M 366.5 1449.17 2696.7 1449.17 M 2696.7 1455.15 366.5 1455.15 M 366.5 1461.14 2696.7 1461.14 M 2696.7 1467.12 366.5 1467.12 M 366.5 1473.11 2696.7 1473.11 M 2696.7 1479.09 366.5 1479.09 M 693.63 1191.81 905.39 1191.81 M 947.29 1149.91 366.5 1149.91 M 366.5 1143.93 953.27 1143.93 M 959.26 1137.94 366.5 1137.94 M 366.5 1131.96 961.25 1131.96 M 961.25 1125.97 366.5 1125.97 M 366.5 1119.99 961.25 1119.99 M 961.25 1114 366.5 1114 M 366.5 1108.02 961.25 1108.02 M 961.25 1102.03 366.5 1102.03 M 366.5 1096.05 961.25 1096.05 M 961.25 1090.06 366.5 1090.06 M 366.5 1084.08 961.25 1084.08 M 961.25 1078.09 366.5 1078.09 M 366.5 1072.11 961.25 1072.11 M 961.25 1066.12 366.5 1066.12 M 366.5 1060.14 425.41 1060.14 M 428.92 1061.28 420.78 1058.63 413.16 1054.75 406.24 1049.72 400.19 1043.67 395.17 1036.76 391.28 1029.13 388.64 1021 387.3 1012.55 387.3 1011.28 479.98 1011.28 479.98 1062.61 437.37 1062.61 428.92 1061.28 M 412.34 1054.15 366.5 1054.15 M 366.5 1048.17 404.69 1048.17 M 399.11 1042.18 366.5 1042.18 M 366.5 1036.2 394.88 1036.2 M 391.83 1030.21 366.5 1030.21 M 366.5 1024.23 389.69 1024.23 M 388.2 1018.24 366.5 1018.24 M 366.5 1012.26 387.3 1012.26 M 387.3 1005.28 387.3 1004 388.64 995.55 391.28 987.42 395.17 979.8 400.19 972.88 406.24 966.83 413.16 961.8 420.78 957.92 428.92 955.27 437.37 953.94 479.98 953.94 479.98 1005.27 485.98 1005.27 485.98 953.94 528.6 953.94 537.04 955.27 545.18 957.92 552.8 961.8 559.72 966.83 565.77 972.88 570.79 979.8 574.68 987.42 577.32 995.55 578.66 1004 578.66 1005.28 485.98 1005.28 485.98 1011.28 479.98 1011.28 479.98 1005.28 387.3 1005.28 M 387.89 1000.29 366.5 1000.29 M 366.5 1006.27 479.98 1006.27 M 479.98 1000.29 485.98 1000.29 M 485.98 1006.27 961.25 1006.27 M 961.25 1000.29 578.07 1000.29 M 576.91 994.3 961.25 994.3 M 961.25 988.32 574.97 988.32 M 572.08 982.33 963.74 982.33 M 969.73 976.34 568.29 976.34 M 563.25 970.36 975.71 970.36 M 981.7 964.37 556.34 964.37 M 546.1 958.39 987.68 958.39 M 993.67 952.4 366.5 952.4 M 366.5 946.42 989.1 946.42 M 983.11 940.43 366.5 940.43 M 366.5 934.45 978.75 934.45 M 978.75 928.46 366.5 928.46 M 366.5 922.48 978.75 922.48 M 980.93 916.49 366.5 916.49 M 366.5 910.51 985.75 910.51 M 985.75 904.52 366.5 904.52 M 366.5 898.54 985.75 898.54 M 984.23 892.55 366.5 892.55 M 366.5 886.57 978.24 886.57 M 972.62 880.58 366.5 880.58 M 366.5 874.6 972.62 874.6 M 972.62 868.61 366.5 868.61 M 366.5 862.63 973.55 862.63 M 979.53 856.64 366.5 856.64 M 366.5 850.66 871.19 850.66 M 865.21 844.67 366.5 844.67 M 366.5 838.69 859.22 838.69 M 844.75 832.7 366.5 832.7 M 366.5 826.72 838.77 826.72 M 837.88 820.73 366.5 820.73 M 366.5 814.75 837.88 814.75 M 837.88 808.76 366.5 808.76 M 366.5 802.78 843.52 802.78 M 849.51 796.79 366.5 796.79 M 366.5 790.81 2253.62 790.81 M 2253.62 796.79 868.24 796.79 M 874.23 802.78 2249.92 802.78 M 2243.94 808.76 879.87 808.76 M 879.87 814.75 2237.95 814.75 M 2253.62 784.82 366.5 784.82 M 366.5 778.84 2253.62 778.84 M 2253.62 772.85 366.5 772.85 M 366.5 766.87 2253.62 766.87 M 2255.07 760.88 366.5 760.88 M 366.5 754.9 2261.06 754.9 M 2267.04 748.91 366.5 748.91 M 366.5 742.93 2273.03 742.93 M 2279.01 736.94 366.5 736.94 M 366.5 958.39 419.86 958.39 M 409.62 964.37 366.5 964.37 M 366.5 970.36 402.71 970.36 M 397.67 976.34 366.5 976.34 M 366.5 982.33 393.88 982.33 M 390.99 988.32 366.5 988.32 M 366.5 994.3 389.05 994.3 M 479.98 994.3 485.98 994.3 M 485.98 988.32 479.98 988.32 M 479.98 982.33 485.98 982.33 M 485.98 976.34 479.98 976.34 M 479.98 970.36 485.98 970.36 M 485.98 964.37 479.98 964.37 M 479.98 958.39 485.98 958.39 M 485.98 1011.28 578.66 1011.28 578.66 1012.55 577.32 1021 574.68 1029.13 570.79 1036.76 565.77 1043.67 559.72 1049.72 552.8 1054.75 545.18 1058.63 537.04 1061.28 528.6 1062.61 485.98 1062.61 485.98 1011.28 M 485.98 1012.26 479.98 1012.26 M 479.98 1018.24 485.98 1018.24 M 485.98 1024.23 479.98 1024.23 M 479.98 1030.21 485.98 1030.21 M 485.98 1036.2 479.98 1036.2 M 479.98 1042.18 485.98 1042.18 M 485.98 1048.17 479.98 1048.17 M 479.98 1054.15 485.98 1054.15 M 485.98 1060.14 479.98 1060.14 M 540.55 1060.14 961.25 1060.14 M 961.25 1054.15 553.62 1054.15 M 561.27 1048.17 961.25 1048.17 M 961.25 1042.18 566.85 1042.18 M 571.08 1036.2 961.25 1036.2 M 961.25 1030.21 574.13 1030.21 M 576.27 1024.23 961.25 1024.23 M 961.25 1018.24 577.76 1018.24 M 578.66 1012.26 961.25 1012.26 M 1020.75 922.48 1023.59 922.48 M 1018.57 916.49 1029.58 916.49 M 1035.56 910.51 1013.75 910.51 M 1014.62 880.58 1589.78 880.58 M 1321.69 820.73 883.7 820.73 M 1200.64 988.32 1306.62 988.32 M 1329.88 988.32 1947.37 988.32 M 1947.37 994.3 1204.5 994.3 M 1204.5 1000.29 1947.37 1000.29 M 1947.37 1006.27 1204.5 1006.27 M 1201.82 1012.26 1947.37 1012.26 M 1947.37 1018.24 1198.5 1018.24 M 1198.5 1024.23 1947.37 1024.23 M 1947.37 1030.21 1198.5 1030.21 M 1198.5 1036.2 1947.37 1036.2 M 1947.37 1042.18 1198.5 1042.18 M 1198.5 1048.17 1947.37 1048.17 M 1947.37 1054.15 1198.5 1054.15 M 1198.5 1060.14 1947.37 1060.14 M 1947.37 1066.12 1198.5 1066.12 M 1198.5 1072.11 1947.37 1072.11 M 1947.37 1078.09 1198.5 1078.09 M 1198.5 1084.08 1947.37 1084.08 M 1947.37 1090.06 1198.5 1090.06 M 1198.5 1096.05 1947.37 1096.05 M 1947.37 1102.03 1198.5 1102.03 M 1198.5 1108.02 1947.37 1108.02 M 1947.37 1114 1198.5 1114 M 1198.5 1119.99 1947.37 1119.99 M 1947.37 1125.97 1198.5 1125.97 M 1198.5 1131.96 1947.37 1131.96 M 1947.37 1137.94 1198.5 1137.94 M 1198.5 1143.93 1947.37 1143.93 M 1947.37 1149.91 1198.5 1149.91 M 1198.5 1155.9 1947.37 1155.9 M 1947.37 1161.88 1198.5 1161.88 M 1198.5 1167.87 1947.37 1167.87 M 1947.37 1173.85 1198.5 1173.85 M 1198.5 1179.84 1947.37 1179.84 M 1947.37 1185.82 1198.5 1185.82 M 1198.5 1191.81 1947.37 1191.81 M 1947.37 1197.79 1198.5 1197.79 M 1198.5 1203.78 1947.37 1203.78 M 1947.37 1209.76 1436.63 1209.76 M 1433.37 1206.5 1470.87 1244 1482 1255.13 1482 1277.3 1484 1279.3 1484 1296.7 1471.7 1309 1454.3 1309 1442 1296.7 1442 1279.3 1444 1277.3 1444 1270.87 1417.63 1244.5 1236.2 1244.5 1234.2 1246.5 1216.8 1246.5 1204.5 1234.2 1204.5 1216.8 1216.8 1204.5 1234.2 1204.5 1236.2 1206.5 1433.37 1206.5 M 1442.62 1215.75 1947.37 1215.75 M 1947.37 1221.73 1448.6 1221.73 M 1454.59 1227.72 1947.37 1227.72 M 1947.37 1233.7 1460.57 1233.7 M 1466.56 1239.69 1947.37 1239.69 M 1947.37 1245.68 1472.55 1245.68 M 1478.53 1251.66 1944.27 1251.66 M 1940.37 1257.65 1482 1257.65 M 1482 1263.63 1940.37 1263.63 M 1940.37 1269.62 1482 1269.62 M 1482 1275.6 1943.03 1275.6 M 1949.01 1281.59 1484 1281.59 M 1484 1287.57 2020 1287.57 M 2020 1281.59 1973.74 1281.59 M 1979.72 1275.6 2020 1275.6 M 2024.31 1269.62 1982.37 1269.62 M 1912.27 1293.56 1484 1293.56 M 1481.16 1299.54 1906.28 1299.54 M 1900.3 1305.53 1475.17 1305.53 M 1450.83 1305.53 1192.25 1305.53 M 1193.92 1299.54 1444.84 1299.54 M 1442 1293.56 1198.5 1293.56 M 1198.5 1287.57 1442 1287.57 M 1442 1281.59 1198.5 1281.59 M 1198.5 1275.6 1444 1275.6 M 1442.75 1269.62 1198.5 1269.62 M 1198.5 1263.63 1436.76 1263.63 M 1430.78 1257.65 1198.5 1257.65 M 1198.5 1251.66 1424.79 1251.66 M 1418.81 1245.68 1235.02 1245.68 M 1215.98 1245.68 1198.5 1245.68 M 1198.5 1239.69 1209.99 1239.69 M 1204.5 1233.7 1198.5 1233.7 M 1198.5 1227.72 1204.5 1227.72 M 1204.5 1221.73 1198.5 1221.73 M 1198.5 1215.75 1205.55 1215.75 M 1211.54 1209.76 1198.5 1209.76 M 1190.44 1311.51 1899 1311.51 M 1965 1336 1965 1340 1996 1340 2011 1340 2011 1336 1965 1336 M 2134.74 1407.27 2696.7 1407.27 M 2696.7 1401.29 2138.89 1401.29 M 2141.36 1395.3 2696.7 1395.3 M 974.14 1173.85 962.95 1173.85 M 968.93 1167.87 971.98 1167.87" fill="none" stroke-width="6"/><use xlink:href="#TPdAsAWuZUJoJQ9cvVpg_pad-11" x="1913" y="1338"/><use xlink:href="#TPdAsAWuZUJoJQ9cvVpg_pad-11" x="1963" y="1338"/><use xlink:href="#TPdAsAWuZUJoJQ9cvVpg_pad-11" x="1963" y="1388"/><use xlink:href="#TPdAsAWuZUJoJQ9cvVpg_pad-11" x="1913" y="1388"/><use xlink:href="#TPdAsAWuZUJoJQ9cvVpg_pad-11" x="2013" y="1388"/><use xlink:href="#TPdAsAWuZUJoJQ9cvVpg_pad-11" x="2063" y="1388"/><use xlink:href="#TPdAsAWuZUJoJQ9cvVpg_pad-11" x="2063" y="1338"/><use xlink:href="#TPdAsAWuZUJoJQ9cvVpg_pad-11" x="2013" y="1338"/><use xlink:href="#TPdAsAWuZUJoJQ9cvVpg_pad-11" x="2113" y="1338"/><use xlink:href="#TPdAsAWuZUJoJQ9cvVpg_pad-11" x="2113" y="1388"/><use xlink:href="#TPdAsAWuZUJoJQ9cvVpg_pad-12" x="2313" y="800.5"/><use xlink:href="#TPdAsAWuZUJoJQ9cvVpg_pad-12" x="2413" y="800.5"/><use xlink:href="#TPdAsAWuZUJoJQ9cvVpg_pad-12" x="2513" y="800.5"/><use xlink:href="#TPdAsAWuZUJoJQ9cvVpg_pad-13" x="2400.5" y="1288"/><use xlink:href="#TPdAsAWuZUJoJQ9cvVpg_pad-14" x="2600.5" y="1288"/><path d="M 524.32 1205.13 441.64 1205.13 M 441.64 1008.28 524.32 1008.28" fill="none" stroke-width="82.68"/><use xlink:href="#TPdAsAWuZUJoJQ9cvVpg_pad-16" x="675.5" y="888"/><use xlink:href="#TPdAsAWuZUJoJQ9cvVpg_pad-16" x="800.5" y="988"/><use xlink:href="#TPdAsAWuZUJoJQ9cvVpg_pad-16" x="999.75" y="927.37"/><use xlink:href="#TPdAsAWuZUJoJQ9cvVpg_pad-16" x="993.62" y="872.25"/><use xlink:href="#TPdAsAWuZUJoJQ9cvVpg_pad-16" x="858.88" y="817.13"/><use xlink:href="#TPdAsAWuZUJoJQ9cvVpg_pad-16" x="1125.5" y="763"/><use xlink:href="#TPdAsAWuZUJoJQ9cvVpg_pad-16" x="1312.13" y="768.13"/><use xlink:href="#TPdAsAWuZUJoJQ9cvVpg_pad-16" x="1330.5" y="841.63"/><use xlink:href="#TPdAsAWuZUJoJQ9cvVpg_pad-16" x="1201.87" y="902.87"/><use xlink:href="#TPdAsAWuZUJoJQ9cvVpg_pad-16" x="1318.25" y="970.25"/><use xlink:href="#TPdAsAWuZUJoJQ9cvVpg_pad-16" x="1244.75" y="988.62"/><use xlink:href="#TPdAsAWuZUJoJQ9cvVpg_pad-16" x="1183.5" y="1000.87"/><use xlink:href="#TPdAsAWuZUJoJQ9cvVpg_pad-16" x="1214.5" y="1090.12"/><use xlink:href="#TPdAsAWuZUJoJQ9cvVpg_pad-16" x="1318.63" y="1139.12"/><use xlink:href="#TPdAsAWuZUJoJQ9cvVpg_pad-16" x="1220.62" y="1188.12"/><use xlink:href="#TPdAsAWuZUJoJQ9cvVpg_pad-16" x="1225.5" y="1225.5"/><use xlink:href="#TPdAsAWuZUJoJQ9cvVpg_pad-16" x="1171.25" y="1301"/><use xlink:href="#TPdAsAWuZUJoJQ9cvVpg_pad-16" x="1092" y="1316.75"/><use xlink:href="#TPdAsAWuZUJoJQ9cvVpg_pad-16" x="1165.5" y="1390.25"/><use xlink:href="#TPdAsAWuZUJoJQ9cvVpg_pad-16" x="1313" y="1338"/><use xlink:href="#TPdAsAWuZUJoJQ9cvVpg_pad-16" x="1375.5" y="1338"/><use xlink:href="#TPdAsAWuZUJoJQ9cvVpg_pad-16" x="1463" y="1288"/><use xlink:href="#TPdAsAWuZUJoJQ9cvVpg_pad-16" x="1698" y="1135.62"/><use xlink:href="#TPdAsAWuZUJoJQ9cvVpg_pad-16" x="1771.5" y="1147.87"/><use xlink:href="#TPdAsAWuZUJoJQ9cvVpg_pad-16" x="1649" y="1080.5"/><use xlink:href="#TPdAsAWuZUJoJQ9cvVpg_pad-16" x="1710.25" y="1037.62"/><use xlink:href="#TPdAsAWuZUJoJQ9cvVpg_pad-16" x="1601.81" y="898.25"/><use xlink:href="#TPdAsAWuZUJoJQ9cvVpg_pad-16" x="1722.5" y="762"/><use xlink:href="#TPdAsAWuZUJoJQ9cvVpg_pad-16" x="2065.5" y="774.25"/><use xlink:href="#TPdAsAWuZUJoJQ9cvVpg_pad-16" x="2277" y="887.56"/><use xlink:href="#TPdAsAWuZUJoJQ9cvVpg_pad-16" x="2316.62" y="902.87"/><use xlink:href="#TPdAsAWuZUJoJQ9cvVpg_pad-16" x="2396.25" y="878.37"/><use xlink:href="#TPdAsAWuZUJoJQ9cvVpg_pad-16" x="2359.5" y="823.25"/><use xlink:href="#TPdAsAWuZUJoJQ9cvVpg_pad-16" x="2356.25" y="988"/><use xlink:href="#TPdAsAWuZUJoJQ9cvVpg_pad-16" x="2351.93" y="1044.25"/><use xlink:href="#TPdAsAWuZUJoJQ9cvVpg_pad-16" x="2268" y="1036"/><use xlink:href="#TPdAsAWuZUJoJQ9cvVpg_pad-16" x="2238" y="1034.02"/><use xlink:href="#TPdAsAWuZUJoJQ9cvVpg_pad-16" x="2102.25" y="1068.25"/><use xlink:href="#TPdAsAWuZUJoJQ9cvVpg_pad-16" x="2028.75" y="1074.37"/><use xlink:href="#TPdAsAWuZUJoJQ9cvVpg_pad-16" x="1998.12" y="982.5"/><use xlink:href="#TPdAsAWuZUJoJQ9cvVpg_pad-16" x="2120.62" y="945.75"/><use xlink:href="#TPdAsAWuZUJoJQ9cvVpg_pad-16" x="2359.37" y="1111.12"/><use xlink:href="#TPdAsAWuZUJoJQ9cvVpg_pad-16" x="2316.62" y="1178.5"/><use xlink:href="#TPdAsAWuZUJoJQ9cvVpg_pad-16" x="2212.5" y="1301"/><use xlink:href="#TPdAsAWuZUJoJQ9cvVpg_pad-16" x="2108.37" y="1252"/><use xlink:href="#TPdAsAWuZUJoJQ9cvVpg_pad-16" x="2108.37" y="1221.37"/><use xlink:href="#TPdAsAWuZUJoJQ9cvVpg_pad-16" x="2047.12" y="1196.87"/><use xlink:href="#TPdAsAWuZUJoJQ9cvVpg_pad-16" x="2001.9" y="1237.4"/><use xlink:href="#TPdAsAWuZUJoJQ9cvVpg_pad-16" x="1961.37" y="1264.25"/><use xlink:href="#TPdAsAWuZUJoJQ9cvVpg_pad-16" x="1887.87" y="1294.87"/><use xlink:href="#TPdAsAWuZUJoJQ9cvVpg_pad-16" x="2041" y="1282.62"/><use xlink:href="#TPdAsAWuZUJoJQ9cvVpg_pad-16" x="992.98" y="1163"/><use xlink:href="#TPdAsAWuZUJoJQ9cvVpg_pad-16" x="681.25" y="1209.12"/><use xlink:href="#TPdAsAWuZUJoJQ9cvVpg_pad-16" x="388" y="1388"/><path d="M 681.25 1209.12 907.87 1209.12 975.25 1141.75 975.25 990.62 1043.87 922 1170.5 922 1189.62 902.87 1201.87 902.87 M 1318.25 970.25 1410.13 970.25 1440.75 939.62 1943 939.62 1961.37 958 1961.37 1264.25 M 2001.9 1237.4 2001.9 1064.47 2120.62 945.75 M 2176.62 921.25 2200.5 945.12 2200.5 1063 2225.5 1088 2325.5 1088 2350.5 1063 2350.5 1045.68 2351.93 1044.25 M 2374.93 1034.72 2374.93 1061.2 2316.62 1119.5 2316.62 1178.5 M 2364.31 1233.84 2371.69 1229.58 2379.56 1226.32 2387.79 1224.11 2395.5 1223.1 2395.5 1283 2405.5 1283 2405.5 1293 2465.4 1293 2464.39 1300.71 2462.18 1308.94 2458.92 1316.81 2454.66 1324.19 2449.47 1330.95 2443.45 1336.97 2436.69 1342.16 2429.31 1346.42 2421.44 1349.68 2413.21 1351.89 2405.5 1352.9 2405.5 1293 2395.5 1293 2395.5 1352.9 2387.79 1351.89 2379.56 1349.68 2371.69 1346.42 2364.31 1342.16 2357.55 1336.97 2351.53 1330.95 2346.34 1324.19 2342.08 1316.81 2338.82 1308.94 2336.61 1300.71 2335.6 1293 2395.5 1293 2395.5 1283 2335.6 1283 2336.61 1275.29 2338.82 1267.06 2342.08 1259.19 2346.34 1251.81 2351.53 1245.05 2357.55 1239.03 2364.31 1233.84 M 2367.1 1232.23 2095.25 1232.23 M 2095.25 1242.21 2354.37 1242.21 M 2346.12 1252.2 2095.25 1252.2 M 2095.25 1262.18 2340.84 1262.18 M 2337.45 1272.17 2095.25 1272.17 M 2095.25 1275.5 2225.5 1275.5 2325.5 1375.5 2450.5 1375.5 2475.5 1350.5 2475.5 1238 2450.5 1213 2095.25 1213 2095.25 1275.5 M 2083.87 1276.5 2108.37 1252 M 2095.25 1222.24 2459.74 1222.24 M 2469.73 1232.23 2433.9 1232.23 M 2436.69 1233.84 2443.45 1239.03 2449.47 1245.05 2454.66 1251.81 2458.92 1259.19 2462.18 1267.06 2464.39 1275.29 2465.4 1283 2405.5 1283 2405.5 1223.1 2413.21 1224.11 2421.44 1226.32 2429.31 1229.58 2436.69 1233.84 M 2446.63 1242.21 2475.5 1242.21 M 2475.5 1252.2 2454.88 1252.2 M 2460.16 1262.18 2475.5 1262.18 M 2475.5 1272.17 2463.55 1272.17 M 2465.29 1282.15 2475.5 1282.15 M 2475.5 1292.14 2405.5 1292.14 M 2405.5 1302.12 2395.5 1302.12 M 2395.5 1292.14 2242.14 1292.14 M 2252.12 1302.12 2336.99 1302.12 M 2340.13 1312.11 2262.11 1312.11 M 2272.09 1322.09 2345.13 1322.09 M 2352.65 1332.08 2282.08 1332.08 M 2292.06 1342.06 2364.18 1342.06 M 2389 1352.05 2302.05 1352.05 M 2312.03 1362.03 2463.97 1362.03 M 2473.95 1352.05 2412 1352.05 M 2405.5 1352.05 2395.5 1352.05 M 2395.5 1342.06 2405.5 1342.06 M 2405.5 1332.08 2395.5 1332.08 M 2395.5 1322.09 2405.5 1322.09 M 2405.5 1312.11 2395.5 1312.11 M 2436.82 1342.06 2475.5 1342.06 M 2475.5 1332.08 2448.35 1332.08 M 2455.87 1322.09 2475.5 1322.09 M 2475.5 1312.11 2460.87 1312.11 M 2464.01 1302.12 2475.5 1302.12 M 2405.5 1282.15 2395.5 1282.15 M 2395.5 1272.17 2405.5 1272.17 M 2405.5 1262.18 2395.5 1262.18 M 2395.5 1252.2 2405.5 1252.2 M 2405.5 1242.21 2395.5 1242.21 M 2395.5 1232.23 2405.5 1232.23 M 2335.71 1282.15 2232.15 1282.15 M 2322.02 1372.02 2453.98 1372.02 M 2083.87 1288.62 2083.87 1276.5 M 2083.87 1288.62 2065.5 1307 1918.62 1307 1913 1312.63 1913 1338 M 2041 1282.62 2041 1223.28 2017.9 1200.18 2017.9 1080.5 2024.03 1074.37 2028.75 1074.37 M 2238 1034.02 2238 862.5 2300 800.5 2313 800.5 M 2267.62 804.88 2167.25 905.25 1614.63 905.25 1607.63 898.25 1601.81 898.25 M 1434.63 921.25 2176.62 921.25 M 2254 872 2275.5 850.5 2388 850.5 2413 825.5 2413 800.5 M 2457.5 768.13 2457.5 867.73 2390.93 934.3 2365.62 909 2322.75 909 2316.62 902.87 M 2277 887.56 2270.87 893.69 2270 893.69 2270 988.62 2302.62 1021.25 2361.45 1021.25 2374.93 1034.72 M 2390.93 1067.83 2359.5 1099.25 2359.5 1111.12 2359.37 1111.12 M 2390.93 1067.83 2390.93 934.3 M 2254 872 2254 1017.49 2261 1024.49 2261 1029 2268 1036 M 2267.62 804.88 2267.62 768.13 2286 749.75 2439.12 749.75 2457.5 768.13 M 1434.63 921.25 1417.88 938 1050.5 938 992.98 995.52 992.98 1163 M 999.75 927.37 999.75 878.37 993.62 872.25" fill="none" stroke-width="10"/><path d="M 883.37 841.63 858.88 817.13 M 883.37 841.63 1330.5 841.63 M 1183.5 1000.87 1183.5 1288.75 1171.25 1301" fill="none" stroke-width="12"/><path d="M 1225.5 1225.5 1425.5 1225.5 1463 1263 1463 1288" fill="none" stroke-width="20"/></g></svg>