<svg version="1.1" xmlns="http://www.w3.org/2000/svg" xmlns:xlink="http://www.w3.org/1999/xlink" stroke-linecap="round" stroke-linejoin="round" stroke-width="0" fill-rule="evenodd" width="2.3682in" height="0.7934in" viewBox="347.5 710 2368.2 793.4" id="XBhBGHZC8FkIgGtCrwra"><defs><circle cx="0" cy="0" r="22" id="XBhBGHZC8FkIgGtCrwra_pad-11"/><circle cx="0" cy="0" r="35" id="XBhBGHZC8FkIgGtCrwra_pad-12"/><circle cx="0" cy="0" r="52" id="XBhBGHZC8FkIgGtCrwra_pad-13"/><polygon points="51.99989,21.53906 21.53906,51.99989 -21.53906,51.99989 -51.99989,21.53906 -51.99989,-21.53906 -21.53906,-51.99989 21.53906,-51.99989 51.99989,-21.53906" id="XBhBGHZC8FkIgGtCrwra_pad-14"/></defs><g transform="translate(0,2213.4) scale(1,-1)" fill="currentColor" stroke="currentColor"><path d="M 350.5 713 2712.7 713 2712.7 1500.4 350.5 1500.4 350.5 713" fill="none" stroke-width="6"/><use xlink:href="#XBhBGHZC8FkIgGtCrwra_pad-11" x="1913" y="1338"/><use xlink:href="#XBhBGHZC8FkIgGtCrwra_pad-11" x="1963" y="1338"/><use xlink:href="#XBhBGHZC8FkIgGtCrwra_pad-11" x="1963" y="1388"/><use xlink:href="#XBhBGHZC8FkIgGtCrwra_pad-11" x="1913" y="1388"/><use xlink:href="#XBhBGHZC8FkIgGtCrwra_pad-11" x="2013" y="1388"/><use xlink:href="#XBhBGHZC8FkIgGtCrwra_pad-11" x="2063" y="1388"/><use xlink:href="#XBhBGHZC8FkIgGtCrwra_pad-11" x="2063" y="1338"/><use xlink:href="#XBhBGHZC8FkIgGtCrwra_pad-11" x="2013" y="1338"/><use xlink:href="#XBhBGHZC8FkIgGtCrwra_pad-11" x="2113" y="1338"/><use xlink:href="#XBhBGHZC8FkIgGtCrwra_pad-11" x="2113" y="1388"/><use xlink:href="#XBhBGHZC8FkIgGtCrwra_pad-12" x="2313" y="800.5"/><use xlink:href="#XBhBGHZC8FkIgGtCrwra_pad-12" x="2413" y="800.5"/><use xlink:href="#XBhBGHZC8FkIgGtCrwra_pad-12" x="2513" y="800.5"/><use xlink:href="#XBhBGHZC8FkIgGtCrwra_pad-13" x="2400.5" y="1288"/><use xlink:href="#XBhBGHZC8FkIgGtCrwra_pad-14" x="2600.5" y="1288"/><path d="M 524.32 1205.13 441.64 1205.13 M 441.64 1008.28 524.32 1008.28" fill="none" stroke-width="86.68"/></g></svg>